<?xml version="1.0" encoding="UTF-8" standalone="no"?>
<!DOCTYPE svg PUBLIC "-//W3C//DTD SVG 1.1//EN"
 "http://www.w3.org/Graphics/SVG/1.1/DTD/svg11.dtd">
<!-- Generated by graphviz version 2.38.0 (20140413.2041)
 -->
<!-- Title: clingo2dot Pages: 1 -->
<svg width="2025pt" height="216pt"
 viewBox="0.00 0.00 2025.00 216.00" xmlns="http://www.w3.org/2000/svg" xmlns:xlink="http://www.w3.org/1999/xlink">
<g id="graph0" class="graph" transform="scale(1 1) rotate(0) translate(4 212)">
<title>clingo2dot</title>
<polygon fill="white" stroke="none" points="-4,4 -4,-212 2021,-212 2021,4 -4,4"/>
<!-- n14 -->
<g id="node1" class="node"><title>n14</title>
<polygon fill="#cae1ff" stroke="black" points="54,-95 0,-95 0,-59 54,-59 54,-95"/>
<text text-anchor="middle" x="27" y="-75.1" font-family="Helvetica,sans-Serif" font-size="8.00">type:activity</text>
</g>
<!-- n9 -->
<g id="node2" class="node"><title>n9</title>
<polygon fill="#cae1ff" stroke="black" points="1179,-45 1125,-45 1125,-9 1179,-9 1179,-45"/>
<text text-anchor="middle" x="1152" y="-25.1" font-family="Helvetica,sans-Serif" font-size="8.00">type:activity</text>
</g>
<!-- n16 -->
<g id="node31" class="node"><title>n16</title>
<polygon fill="#cae1ff" stroke="black" points="1054,-45 1000,-45 1000,-9 1054,-9 1054,-45"/>
<text text-anchor="middle" x="1027" y="-25.1" font-family="Helvetica,sans-Serif" font-size="8.00">type:activity</text>
</g>
<!-- n9&#45;&gt;n16 -->
<g id="edge23" class="edge"><title>n9&#45;&gt;n16</title>
<path fill="none" stroke="blue" d="M1124.91,-27C1107.22,-27 1083.6,-27 1064.1,-27"/>
<polygon fill="blue" stroke="blue" points="1064.05,-23.5001 1054.05,-27 1064.05,-30.5001 1064.05,-23.5001"/>
<text text-anchor="middle" x="1089.5" y="-29.6" font-family="Helvetica,sans-Serif" font-size="8.00">type:used</text>
</g>
<!-- n29 -->
<g id="node3" class="node"><title>n29</title>
<polygon fill="#cae1ff" stroke="black" points="1848,-102 1794,-102 1794,-66 1848,-66 1848,-102"/>
<text text-anchor="middle" x="1821" y="-82.1" font-family="Helvetica,sans-Serif" font-size="8.00">type:activity</text>
</g>
<!-- n13 -->
<g id="node22" class="node"><title>n13</title>
<polygon fill="#cae1ff" stroke="black" points="1723,-97 1669,-97 1669,-61 1723,-61 1723,-97"/>
<text text-anchor="middle" x="1696" y="-77.1" font-family="Helvetica,sans-Serif" font-size="8.00">type:activity</text>
</g>
<!-- n29&#45;&gt;n13 -->
<g id="edge36" class="edge"><title>n29&#45;&gt;n13</title>
<path fill="none" stroke="blue" d="M1793.91,-82.9396C1776.22,-82.2204 1752.6,-81.26 1733.1,-80.4675"/>
<polygon fill="blue" stroke="blue" points="1733.18,-76.968 1723.05,-80.0588 1732.9,-83.9622 1733.18,-76.968"/>
<text text-anchor="middle" x="1758.5" y="-85.6" font-family="Helvetica,sans-Serif" font-size="8.00">type:used</text>
</g>
<!-- n15 -->
<g id="node4" class="node"><title>n15</title>
<polygon fill="#cae1ff" stroke="black" points="929,-45 875,-45 875,-9 929,-9 929,-45"/>
<text text-anchor="middle" x="902" y="-25.1" font-family="Helvetica,sans-Serif" font-size="8.00">type:activity</text>
</g>
<!-- n17 -->
<g id="node30" class="node"><title>n17</title>
<polygon fill="#cae1ff" stroke="black" points="804,-45 750,-45 750,-9 804,-9 804,-45"/>
<text text-anchor="middle" x="777" y="-25.1" font-family="Helvetica,sans-Serif" font-size="8.00">type:activity</text>
</g>
<!-- n15&#45;&gt;n17 -->
<g id="edge6" class="edge"><title>n15&#45;&gt;n17</title>
<path fill="none" stroke="blue" d="M874.915,-27C857.221,-27 833.595,-27 814.1,-27"/>
<polygon fill="blue" stroke="blue" points="814.048,-23.5001 804.048,-27 814.048,-30.5001 814.048,-23.5001"/>
<text text-anchor="middle" x="839.5" y="-29.6" font-family="Helvetica,sans-Serif" font-size="8.00">type:used</text>
</g>
<!-- n24 -->
<g id="node5" class="node"><title>n24</title>
<polygon fill="#cae1ff" stroke="black" points="1429,-156 1375,-156 1375,-120 1429,-120 1429,-156"/>
<text text-anchor="middle" x="1402" y="-136.1" font-family="Helvetica,sans-Serif" font-size="8.00">type:activity</text>
</g>
<!-- n27 -->
<g id="node15" class="node"><title>n27</title>
<polygon fill="#cae1ff" stroke="black" points="1304,-156 1250,-156 1250,-120 1304,-120 1304,-156"/>
<text text-anchor="middle" x="1277" y="-136.1" font-family="Helvetica,sans-Serif" font-size="8.00">type:activity</text>
</g>
<!-- n24&#45;&gt;n27 -->
<g id="edge35" class="edge"><title>n24&#45;&gt;n27</title>
<path fill="none" stroke="blue" d="M1374.91,-138C1357.22,-138 1333.6,-138 1314.1,-138"/>
<polygon fill="blue" stroke="blue" points="1314.05,-134.5 1304.05,-138 1314.05,-141.5 1314.05,-134.5"/>
<text text-anchor="middle" x="1339.5" y="-140.6" font-family="Helvetica,sans-Serif" font-size="8.00">type:used</text>
</g>
<!-- n10 -->
<g id="node6" class="node"><title>n10</title>
<polygon fill="#cae1ff" stroke="black" points="1429,-45 1375,-45 1375,-9 1429,-9 1429,-45"/>
<text text-anchor="middle" x="1402" y="-25.1" font-family="Helvetica,sans-Serif" font-size="8.00">type:activity</text>
</g>
<!-- n12 -->
<g id="node7" class="node"><title>n12</title>
<polygon fill="#cae1ff" stroke="black" points="1304,-45 1250,-45 1250,-9 1304,-9 1304,-45"/>
<text text-anchor="middle" x="1277" y="-25.1" font-family="Helvetica,sans-Serif" font-size="8.00">type:activity</text>
</g>
<!-- n10&#45;&gt;n12 -->
<g id="edge5" class="edge"><title>n10&#45;&gt;n12</title>
<path fill="none" stroke="blue" d="M1374.91,-27C1357.22,-27 1333.6,-27 1314.1,-27"/>
<polygon fill="blue" stroke="blue" points="1314.05,-23.5001 1304.05,-27 1314.05,-30.5001 1314.05,-23.5001"/>
<text text-anchor="middle" x="1339.5" y="-29.6" font-family="Helvetica,sans-Serif" font-size="8.00">type:used</text>
</g>
<!-- n12&#45;&gt;n9 -->
<g id="edge8" class="edge"><title>n12&#45;&gt;n9</title>
<path fill="none" stroke="blue" d="M1249.91,-27C1232.22,-27 1208.6,-27 1189.1,-27"/>
<polygon fill="blue" stroke="blue" points="1189.05,-23.5001 1179.05,-27 1189.05,-30.5001 1189.05,-23.5001"/>
<text text-anchor="middle" x="1214.5" y="-29.6" font-family="Helvetica,sans-Serif" font-size="8.00">type:used</text>
</g>
<!-- n1 -->
<g id="node8" class="node"><title>n1</title>
<polygon fill="#cae1ff" stroke="black" points="554,-36 500,-36 500,-0 554,-0 554,-36"/>
<text text-anchor="middle" x="527" y="-16.1" font-family="Helvetica,sans-Serif" font-size="8.00">type:activity</text>
</g>
<!-- n3 -->
<g id="node9" class="node"><title>n3</title>
<polygon fill="#cae1ff" stroke="black" points="1723,-156 1669,-156 1669,-120 1723,-120 1723,-156"/>
<text text-anchor="middle" x="1696" y="-136.1" font-family="Helvetica,sans-Serif" font-size="8.00">type:activity</text>
</g>
<!-- n25 -->
<g id="node23" class="node"><title>n25</title>
<polygon fill="#cae1ff" stroke="black" points="1598,-156 1544,-156 1544,-120 1598,-120 1598,-156"/>
<text text-anchor="middle" x="1571" y="-136.1" font-family="Helvetica,sans-Serif" font-size="8.00">type:activity</text>
</g>
<!-- n3&#45;&gt;n25 -->
<g id="edge12" class="edge"><title>n3&#45;&gt;n25</title>
<path fill="none" stroke="blue" d="M1668.91,-138C1651.22,-138 1627.6,-138 1608.1,-138"/>
<polygon fill="blue" stroke="blue" points="1608.05,-134.5 1598.05,-138 1608.05,-141.5 1608.05,-134.5"/>
<text text-anchor="middle" x="1633.5" y="-140.6" font-family="Helvetica,sans-Serif" font-size="8.00">type:used</text>
</g>
<!-- n36 -->
<g id="node10" class="node"><title>n36</title>
<polygon fill="#cae1ff" stroke="black" points="304,-95 250,-95 250,-59 304,-59 304,-95"/>
<text text-anchor="middle" x="277" y="-75.1" font-family="Helvetica,sans-Serif" font-size="8.00">type:activity</text>
</g>
<!-- n34 -->
<g id="node24" class="node"><title>n34</title>
<polygon fill="#cae1ff" stroke="black" points="179,-95 125,-95 125,-59 179,-59 179,-95"/>
<text text-anchor="middle" x="152" y="-75.1" font-family="Helvetica,sans-Serif" font-size="8.00">type:activity</text>
</g>
<!-- n36&#45;&gt;n34 -->
<g id="edge29" class="edge"><title>n36&#45;&gt;n34</title>
<path fill="none" stroke="blue" d="M249.915,-77C232.221,-77 208.595,-77 189.1,-77"/>
<polygon fill="blue" stroke="blue" points="189.048,-73.5001 179.048,-77 189.048,-80.5001 189.048,-73.5001"/>
<text text-anchor="middle" x="214.5" y="-79.6" font-family="Helvetica,sans-Serif" font-size="8.00">type:used</text>
</g>
<!-- n22 -->
<g id="node11" class="node"><title>n22</title>
<polygon fill="#cae1ff" stroke="black" points="1054,-208 1000,-208 1000,-172 1054,-172 1054,-208"/>
<text text-anchor="middle" x="1027" y="-188.1" font-family="Helvetica,sans-Serif" font-size="8.00">type:activity</text>
</g>
<!-- n6 -->
<g id="node20" class="node"><title>n6</title>
<polygon fill="#cae1ff" stroke="black" points="929,-208 875,-208 875,-172 929,-172 929,-208"/>
<text text-anchor="middle" x="902" y="-188.1" font-family="Helvetica,sans-Serif" font-size="8.00">type:activity</text>
</g>
<!-- n22&#45;&gt;n6 -->
<g id="edge27" class="edge"><title>n22&#45;&gt;n6</title>
<path fill="none" stroke="blue" d="M999.915,-190C982.221,-190 958.595,-190 939.1,-190"/>
<polygon fill="blue" stroke="blue" points="939.048,-186.5 929.048,-190 939.048,-193.5 939.048,-186.5"/>
<text text-anchor="middle" x="964.5" y="-192.6" font-family="Helvetica,sans-Serif" font-size="8.00">type:used</text>
</g>
<!-- n35 -->
<g id="node12" class="node"><title>n35</title>
<polygon fill="#cae1ff" stroke="black" points="2017,-156 1963,-156 1963,-120 2017,-120 2017,-156"/>
<text text-anchor="middle" x="1990" y="-136.1" font-family="Helvetica,sans-Serif" font-size="8.00">type:activity</text>
</g>
<!-- n30 -->
<g id="node19" class="node"><title>n30</title>
<polygon fill="#cae1ff" stroke="black" points="1848,-156 1794,-156 1794,-120 1848,-120 1848,-156"/>
<text text-anchor="middle" x="1821" y="-136.1" font-family="Helvetica,sans-Serif" font-size="8.00">type:activity</text>
</g>
<!-- n35&#45;&gt;n30 -->
<g id="edge32" class="edge"><title>n35&#45;&gt;n30</title>
<path fill="none" stroke="blue" d="M1962.91,-138C1934.8,-138 1889.88,-138 1858.33,-138"/>
<polygon fill="blue" stroke="blue" points="1858.19,-134.5 1848.19,-138 1858.19,-141.5 1858.19,-134.5"/>
<text text-anchor="middle" x="1905.5" y="-140.6" font-family="Helvetica,sans-Serif" font-size="8.00">type:used</text>
</g>
<!-- n33 -->
<g id="node13" class="node"><title>n33</title>
<polygon fill="#cae1ff" stroke="black" points="804,-100 750,-100 750,-64 804,-64 804,-100"/>
<text text-anchor="middle" x="777" y="-80.1" font-family="Helvetica,sans-Serif" font-size="8.00">type:activity</text>
</g>
<!-- n11 -->
<g id="node37" class="node"><title>n11</title>
<polygon fill="#cae1ff" stroke="black" points="679,-95 625,-95 625,-59 679,-59 679,-95"/>
<text text-anchor="middle" x="652" y="-75.1" font-family="Helvetica,sans-Serif" font-size="8.00">type:activity</text>
</g>
<!-- n33&#45;&gt;n11 -->
<g id="edge34" class="edge"><title>n33&#45;&gt;n11</title>
<path fill="none" stroke="blue" d="M749.915,-80.9396C732.221,-80.2204 708.595,-79.26 689.1,-78.4675"/>
<polygon fill="blue" stroke="blue" points="689.181,-74.968 679.048,-78.0588 688.897,-81.9622 689.181,-74.968"/>
<text text-anchor="middle" x="714.5" y="-83.6" font-family="Helvetica,sans-Serif" font-size="8.00">type:used</text>
</g>
<!-- n31 -->
<g id="node14" class="node"><title>n31</title>
<polygon fill="#cae1ff" stroke="black" points="429,-154 375,-154 375,-118 429,-118 429,-154"/>
<text text-anchor="middle" x="402" y="-134.1" font-family="Helvetica,sans-Serif" font-size="8.00">type:activity</text>
</g>
<!-- n21 -->
<g id="node27" class="node"><title>n21</title>
<polygon fill="#cae1ff" stroke="black" points="1179,-156 1125,-156 1125,-120 1179,-120 1179,-156"/>
<text text-anchor="middle" x="1152" y="-136.1" font-family="Helvetica,sans-Serif" font-size="8.00">type:activity</text>
</g>
<!-- n27&#45;&gt;n21 -->
<g id="edge17" class="edge"><title>n27&#45;&gt;n21</title>
<path fill="none" stroke="blue" d="M1249.91,-138C1232.22,-138 1208.6,-138 1189.1,-138"/>
<polygon fill="blue" stroke="blue" points="1189.05,-134.5 1179.05,-138 1189.05,-141.5 1189.05,-134.5"/>
<text text-anchor="middle" x="1214.5" y="-140.6" font-family="Helvetica,sans-Serif" font-size="8.00">type:used</text>
</g>
<!-- n26 -->
<g id="node16" class="node"><title>n26</title>
<polygon fill="#cae1ff" stroke="black" points="1598,-97 1544,-97 1544,-61 1598,-61 1598,-97"/>
<text text-anchor="middle" x="1571" y="-77.1" font-family="Helvetica,sans-Serif" font-size="8.00">type:activity</text>
</g>
<!-- n26&#45;&gt;n10 -->
<g id="edge4" class="edge"><title>n26&#45;&gt;n10</title>
<path fill="none" stroke="blue" d="M1543.91,-70.875C1515.68,-62.0857 1470.49,-48.0144 1438.92,-38.1841"/>
<polygon fill="blue" stroke="blue" points="1439.77,-34.7849 1429.19,-35.1536 1437.69,-41.4684 1439.77,-34.7849"/>
<text text-anchor="middle" x="1486.5" y="-68.6" font-family="Helvetica,sans-Serif" font-size="8.00">type:used</text>
</g>
<!-- n66 -->
<g id="node17" class="node"><title>n66</title>
<ellipse fill="#fff68f" stroke="black" cx="1571" cy="-25" rx="27" ry="18"/>
<text text-anchor="middle" x="1571" y="-23.1" font-family="Helvetica,sans-Serif" font-size="8.00">type:entity</text>
</g>
<!-- n66&#45;&gt;n10 -->
<g id="edge28" class="edge"><title>n66&#45;&gt;n10</title>
<path fill="none" stroke="blue" d="M1543.91,-25.3125C1515.8,-25.6491 1470.88,-26.1871 1439.33,-26.5649"/>
<polygon fill="blue" stroke="blue" points="1439.14,-23.0668 1429.19,-26.6864 1439.23,-30.0663 1439.14,-23.0668"/>
<text text-anchor="middle" x="1486.5" y="-29.6" font-family="Helvetica,sans-Serif" font-size="8.00">type:wasGeneratedBy</text>
</g>
<!-- n32 -->
<g id="node18" class="node"><title>n32</title>
<polygon fill="#cae1ff" stroke="black" points="2017,-43 1963,-43 1963,-7 2017,-7 2017,-43"/>
<text text-anchor="middle" x="1990" y="-23.1" font-family="Helvetica,sans-Serif" font-size="8.00">type:activity</text>
</g>
<!-- n5 -->
<g id="node36" class="node"><title>n5</title>
<polygon fill="#cae1ff" stroke="black" points="1848,-43 1794,-43 1794,-7 1848,-7 1848,-43"/>
<text text-anchor="middle" x="1821" y="-23.1" font-family="Helvetica,sans-Serif" font-size="8.00">type:activity</text>
</g>
<!-- n32&#45;&gt;n5 -->
<g id="edge26" class="edge"><title>n32&#45;&gt;n5</title>
<path fill="none" stroke="blue" d="M1962.91,-25C1934.8,-25 1889.88,-25 1858.33,-25"/>
<polygon fill="blue" stroke="blue" points="1858.19,-21.5001 1848.19,-25 1858.19,-28.5001 1858.19,-21.5001"/>
<text text-anchor="middle" x="1905.5" y="-27.6" font-family="Helvetica,sans-Serif" font-size="8.00">type:used</text>
</g>
<!-- n30&#45;&gt;n3 -->
<g id="edge20" class="edge"><title>n30&#45;&gt;n3</title>
<path fill="none" stroke="blue" d="M1793.91,-138C1776.22,-138 1752.6,-138 1733.1,-138"/>
<polygon fill="blue" stroke="blue" points="1733.05,-134.5 1723.05,-138 1733.05,-141.5 1733.05,-134.5"/>
<text text-anchor="middle" x="1758.5" y="-140.6" font-family="Helvetica,sans-Serif" font-size="8.00">type:used</text>
</g>
<!-- n28 -->
<g id="node21" class="node"><title>n28</title>
<polygon fill="#cae1ff" stroke="black" points="679,-154 625,-154 625,-118 679,-118 679,-154"/>
<text text-anchor="middle" x="652" y="-134.1" font-family="Helvetica,sans-Serif" font-size="8.00">type:activity</text>
</g>
<!-- n2 -->
<g id="node38" class="node"><title>n2</title>
<polygon fill="#cae1ff" stroke="black" points="554,-154 500,-154 500,-118 554,-118 554,-154"/>
<text text-anchor="middle" x="527" y="-134.1" font-family="Helvetica,sans-Serif" font-size="8.00">type:activity</text>
</g>
<!-- n28&#45;&gt;n2 -->
<g id="edge22" class="edge"><title>n28&#45;&gt;n2</title>
<path fill="none" stroke="blue" d="M624.915,-136C607.221,-136 583.595,-136 564.1,-136"/>
<polygon fill="blue" stroke="blue" points="564.048,-132.5 554.048,-136 564.048,-139.5 564.048,-132.5"/>
<text text-anchor="middle" x="589.5" y="-138.6" font-family="Helvetica,sans-Serif" font-size="8.00">type:used</text>
</g>
<!-- n13&#45;&gt;n26 -->
<g id="edge21" class="edge"><title>n13&#45;&gt;n26</title>
<path fill="none" stroke="blue" d="M1668.91,-79C1651.22,-79 1627.6,-79 1608.1,-79"/>
<polygon fill="blue" stroke="blue" points="1608.05,-75.5001 1598.05,-79 1608.05,-82.5001 1608.05,-75.5001"/>
<text text-anchor="middle" x="1633.5" y="-81.6" font-family="Helvetica,sans-Serif" font-size="8.00">type:used</text>
</g>
<!-- n25&#45;&gt;n24 -->
<g id="edge15" class="edge"><title>n25&#45;&gt;n24</title>
<path fill="none" stroke="blue" d="M1543.91,-138C1515.8,-138 1470.88,-138 1439.33,-138"/>
<polygon fill="blue" stroke="blue" points="1439.19,-134.5 1429.19,-138 1439.19,-141.5 1439.19,-134.5"/>
<text text-anchor="middle" x="1486.5" y="-140.6" font-family="Helvetica,sans-Serif" font-size="8.00">type:used</text>
</g>
<!-- n34&#45;&gt;n14 -->
<g id="edge19" class="edge"><title>n34&#45;&gt;n14</title>
<path fill="none" stroke="blue" d="M124.915,-77C107.221,-77 83.5951,-77 64.1,-77"/>
<polygon fill="blue" stroke="blue" points="64.0476,-73.5001 54.0475,-77 64.0475,-80.5001 64.0476,-73.5001"/>
<text text-anchor="middle" x="89.5" y="-79.6" font-family="Helvetica,sans-Serif" font-size="8.00">type:used</text>
</g>
<!-- n7 -->
<g id="node25" class="node"><title>n7</title>
<polygon fill="#cae1ff" stroke="black" points="804,-154 750,-154 750,-118 804,-118 804,-154"/>
<text text-anchor="middle" x="777" y="-134.1" font-family="Helvetica,sans-Serif" font-size="8.00">type:activity</text>
</g>
<!-- n7&#45;&gt;n28 -->
<g id="edge31" class="edge"><title>n7&#45;&gt;n28</title>
<path fill="none" stroke="blue" d="M749.915,-136C732.221,-136 708.595,-136 689.1,-136"/>
<polygon fill="blue" stroke="blue" points="689.048,-132.5 679.048,-136 689.048,-139.5 689.048,-132.5"/>
<text text-anchor="middle" x="714.5" y="-138.6" font-family="Helvetica,sans-Serif" font-size="8.00">type:used</text>
</g>
<!-- n4 -->
<g id="node26" class="node"><title>n4</title>
<polygon fill="#cae1ff" stroke="black" points="679,-36 625,-36 625,-0 679,-0 679,-36"/>
<text text-anchor="middle" x="652" y="-16.1" font-family="Helvetica,sans-Serif" font-size="8.00">type:activity</text>
</g>
<!-- n4&#45;&gt;n1 -->
<g id="edge11" class="edge"><title>n4&#45;&gt;n1</title>
<path fill="none" stroke="blue" d="M624.915,-18C607.221,-18 583.595,-18 564.1,-18"/>
<polygon fill="blue" stroke="blue" points="564.048,-14.5001 554.048,-18 564.048,-21.5001 564.048,-14.5001"/>
<text text-anchor="middle" x="589.5" y="-20.6" font-family="Helvetica,sans-Serif" font-size="8.00">type:used</text>
</g>
<!-- n21&#45;&gt;n22 -->
<g id="edge16" class="edge"><title>n21&#45;&gt;n22</title>
<path fill="none" stroke="blue" d="M1124.91,-149.028C1106.98,-156.611 1082.94,-166.773 1063.29,-175.079"/>
<polygon fill="blue" stroke="blue" points="1061.9,-171.87 1054.05,-178.988 1064.62,-178.318 1061.9,-171.87"/>
<text text-anchor="middle" x="1089.5" y="-172.6" font-family="Helvetica,sans-Serif" font-size="8.00">type:used</text>
</g>
<!-- n18 -->
<g id="node28" class="node"><title>n18</title>
<polygon fill="#cae1ff" stroke="black" points="1054,-154 1000,-154 1000,-118 1054,-118 1054,-154"/>
<text text-anchor="middle" x="1027" y="-134.1" font-family="Helvetica,sans-Serif" font-size="8.00">type:activity</text>
</g>
<!-- n21&#45;&gt;n18 -->
<g id="edge3" class="edge"><title>n21&#45;&gt;n18</title>
<path fill="none" stroke="blue" d="M1124.91,-137.576C1107.22,-137.288 1083.6,-136.904 1064.1,-136.587"/>
<polygon fill="blue" stroke="blue" points="1064.1,-133.087 1054.05,-136.424 1063.99,-140.086 1064.1,-133.087"/>
<text text-anchor="middle" x="1089.5" y="-139.6" font-family="Helvetica,sans-Serif" font-size="8.00">type:used</text>
</g>
<!-- n23 -->
<g id="node35" class="node"><title>n23</title>
<polygon fill="#cae1ff" stroke="black" points="929,-154 875,-154 875,-118 929,-118 929,-154"/>
<text text-anchor="middle" x="902" y="-134.1" font-family="Helvetica,sans-Serif" font-size="8.00">type:activity</text>
</g>
<!-- n18&#45;&gt;n23 -->
<g id="edge14" class="edge"><title>n18&#45;&gt;n23</title>
<path fill="none" stroke="blue" d="M999.915,-136C982.221,-136 958.595,-136 939.1,-136"/>
<polygon fill="blue" stroke="blue" points="939.048,-132.5 929.048,-136 939.048,-139.5 939.048,-132.5"/>
<text text-anchor="middle" x="964.5" y="-138.6" font-family="Helvetica,sans-Serif" font-size="8.00">type:used</text>
</g>
<!-- n8 -->
<g id="node29" class="node"><title>n8</title>
<polygon fill="#cae1ff" stroke="black" points="554,-95 500,-95 500,-59 554,-59 554,-95"/>
<text text-anchor="middle" x="527" y="-75.1" font-family="Helvetica,sans-Serif" font-size="8.00">type:activity</text>
</g>
<!-- n19 -->
<g id="node34" class="node"><title>n19</title>
<polygon fill="#cae1ff" stroke="black" points="429,-95 375,-95 375,-59 429,-59 429,-95"/>
<text text-anchor="middle" x="402" y="-75.1" font-family="Helvetica,sans-Serif" font-size="8.00">type:activity</text>
</g>
<!-- n8&#45;&gt;n19 -->
<g id="edge33" class="edge"><title>n8&#45;&gt;n19</title>
<path fill="none" stroke="blue" d="M499.915,-77C482.221,-77 458.595,-77 439.1,-77"/>
<polygon fill="blue" stroke="blue" points="439.048,-73.5001 429.048,-77 439.048,-80.5001 439.048,-73.5001"/>
<text text-anchor="middle" x="464.5" y="-79.6" font-family="Helvetica,sans-Serif" font-size="8.00">type:used</text>
</g>
<!-- n17&#45;&gt;n4 -->
<g id="edge9" class="edge"><title>n17&#45;&gt;n4</title>
<path fill="none" stroke="blue" d="M749.576,-21.4562C743.808,-20.4536 737.719,-19.5522 732,-19 718.103,-17.6582 702.767,-17.2253 689.335,-17.1907"/>
<polygon fill="blue" stroke="blue" points="689.017,-13.6921 679.034,-17.2386 689.05,-20.692 689.017,-13.6921"/>
<text text-anchor="middle" x="714.5" y="-21.6" font-family="Helvetica,sans-Serif" font-size="8.00">type:used</text>
</g>
<!-- n17&#45;&gt;n11 -->
<g id="edge25" class="edge"><title>n17&#45;&gt;n11</title>
<path fill="none" stroke="blue" d="M749.915,-37.6037C732.058,-44.8625 708.159,-54.5776 688.562,-62.5439"/>
<polygon fill="blue" stroke="blue" points="686.993,-59.4034 679.048,-66.4116 689.629,-65.8881 686.993,-59.4034"/>
<text text-anchor="middle" x="714.5" y="-60.6" font-family="Helvetica,sans-Serif" font-size="8.00">type:used</text>
</g>
<!-- n16&#45;&gt;n15 -->
<g id="edge10" class="edge"><title>n16&#45;&gt;n15</title>
<path fill="none" stroke="blue" d="M999.915,-27C982.221,-27 958.595,-27 939.1,-27"/>
<polygon fill="blue" stroke="blue" points="939.048,-23.5001 929.048,-27 939.048,-30.5001 939.048,-23.5001"/>
<text text-anchor="middle" x="964.5" y="-29.6" font-family="Helvetica,sans-Serif" font-size="8.00">type:used</text>
</g>
<!-- n20 -->
<g id="node32" class="node"><title>n20</title>
<polygon fill="#cae1ff" stroke="black" points="1723,-38 1669,-38 1669,-2 1723,-2 1723,-38"/>
<text text-anchor="middle" x="1696" y="-18.1" font-family="Helvetica,sans-Serif" font-size="8.00">type:activity</text>
</g>
<!-- n61 -->
<g id="node33" class="node"><title>n61</title>
<ellipse fill="#fff68f" stroke="black" cx="1990" cy="-84" rx="27" ry="18"/>
<text text-anchor="middle" x="1990" y="-82.1" font-family="Helvetica,sans-Serif" font-size="8.00">type:entity</text>
</g>
<!-- n61&#45;&gt;n30 -->
<g id="edge1" class="edge"><title>n61&#45;&gt;n30</title>
<path fill="none" stroke="blue" d="M1965.43,-91.6224C1937.4,-100.686 1890.33,-115.906 1857.8,-126.426"/>
<polygon fill="blue" stroke="blue" points="1856.64,-123.12 1848.2,-129.527 1858.79,-129.781 1856.64,-123.12"/>
<text text-anchor="middle" x="1905.5" y="-125.6" font-family="Helvetica,sans-Serif" font-size="8.00">type:wasGeneratedBy</text>
</g>
<!-- n19&#45;&gt;n36 -->
<g id="edge18" class="edge"><title>n19&#45;&gt;n36</title>
<path fill="none" stroke="blue" d="M374.915,-77C357.221,-77 333.595,-77 314.1,-77"/>
<polygon fill="blue" stroke="blue" points="314.048,-73.5001 304.048,-77 314.048,-80.5001 314.048,-73.5001"/>
<text text-anchor="middle" x="339.5" y="-79.6" font-family="Helvetica,sans-Serif" font-size="8.00">type:used</text>
</g>
<!-- n23&#45;&gt;n7 -->
<g id="edge2" class="edge"><title>n23&#45;&gt;n7</title>
<path fill="none" stroke="blue" d="M874.915,-136C857.221,-136 833.595,-136 814.1,-136"/>
<polygon fill="blue" stroke="blue" points="814.048,-132.5 804.048,-136 814.048,-139.5 814.048,-132.5"/>
<text text-anchor="middle" x="839.5" y="-138.6" font-family="Helvetica,sans-Serif" font-size="8.00">type:used</text>
</g>
<!-- n5&#45;&gt;n13 -->
<g id="edge13" class="edge"><title>n5&#45;&gt;n13</title>
<path fill="none" stroke="blue" d="M1793.91,-36.452C1775.98,-44.3273 1751.94,-54.8797 1732.29,-63.5051"/>
<polygon fill="blue" stroke="blue" points="1730.8,-60.3398 1723.05,-67.5645 1733.61,-66.7493 1730.8,-60.3398"/>
<text text-anchor="middle" x="1758.5" y="-61.6" font-family="Helvetica,sans-Serif" font-size="8.00">type:used</text>
</g>
<!-- n5&#45;&gt;n20 -->
<g id="edge24" class="edge"><title>n5&#45;&gt;n20</title>
<path fill="none" stroke="blue" d="M1793.97,-22.2947C1788.06,-21.7758 1781.82,-21.301 1776,-21 1762.16,-20.2847 1746.95,-19.9781 1733.6,-19.8691"/>
<polygon fill="blue" stroke="blue" points="1733.37,-16.3681 1723.35,-19.8201 1733.33,-23.368 1733.37,-16.3681"/>
<text text-anchor="middle" x="1758.5" y="-23.6" font-family="Helvetica,sans-Serif" font-size="8.00">type:used</text>
</g>
<!-- n11&#45;&gt;n8 -->
<g id="edge7" class="edge"><title>n11&#45;&gt;n8</title>
<path fill="none" stroke="blue" d="M624.915,-77C607.221,-77 583.595,-77 564.1,-77"/>
<polygon fill="blue" stroke="blue" points="564.048,-73.5001 554.048,-77 564.048,-80.5001 564.048,-73.5001"/>
<text text-anchor="middle" x="589.5" y="-79.6" font-family="Helvetica,sans-Serif" font-size="8.00">type:used</text>
</g>
<!-- n2&#45;&gt;n31 -->
<g id="edge30" class="edge"><title>n2&#45;&gt;n31</title>
<path fill="none" stroke="blue" d="M499.915,-136C482.221,-136 458.595,-136 439.1,-136"/>
<polygon fill="blue" stroke="blue" points="439.048,-132.5 429.048,-136 439.048,-139.5 439.048,-132.5"/>
<text text-anchor="middle" x="464.5" y="-138.6" font-family="Helvetica,sans-Serif" font-size="8.00">type:used</text>
</g>
</g>
</svg>
