<?xml version="1.0" encoding="UTF-8" standalone="no"?>
<!DOCTYPE svg PUBLIC "-//W3C//DTD SVG 1.1//EN"
 "http://www.w3.org/Graphics/SVG/1.1/DTD/svg11.dtd">
<!-- Generated by graphviz version 2.36.0 (20140111.2315)
 -->
<!-- Title: clingo2dot Pages: 1 -->
<svg width="222pt" height="133pt"
 viewBox="0.00 0.00 222.00 133.00" xmlns="http://www.w3.org/2000/svg" xmlns:xlink="http://www.w3.org/1999/xlink">
<g id="graph0" class="graph" transform="scale(1 1) rotate(0) translate(4 129)">
<title>clingo2dot</title>
<polygon fill="white" stroke="none" points="-4,4 -4,-129 218,-129 218,4 -4,4"/>
<!-- n80 -->
<g id="node1" class="node"><title>n80</title>
<polygon fill="#cae1ff" stroke="black" points="214,-40 160,-40 160,-4 214,-4 214,-40"/>
<text text-anchor="middle" x="187" y="-24.6" font-family="Helvetica,sans-Serif" font-size="8.00">value:arthur</text>
<text text-anchor="middle" x="187" y="-15.6" font-family="Helvetica,sans-Serif" font-size="8.00">node_id:78</text>
<text text-anchor="middle" x="187" y="-6.6" font-family="Helvetica,sans-Serif" font-size="8.00">type:1</text>
</g>
<!-- n11 -->
<g id="node4" class="node"><title>n11</title>
<polygon fill="#cae1ff" stroke="black" points="63,-44.5 9,-44.5 9,0.5 63,0.5 63,-44.5"/>
<text text-anchor="middle" x="36" y="-29.1" font-family="Helvetica,sans-Serif" font-size="8.00">value:root</text>
<text text-anchor="middle" x="36" y="-20.1" font-family="Helvetica,sans-Serif" font-size="8.00">name:gid</text>
<text text-anchor="middle" x="36" y="-11.1" font-family="Helvetica,sans-Serif" font-size="8.00">node_id:9</text>
<text text-anchor="middle" x="36" y="-2.1" font-family="Helvetica,sans-Serif" font-size="8.00">type:1</text>
</g>
<!-- n80&#45;&gt;n11 -->
<g id="edge1" class="edge"><title>n80&#45;&gt;n11</title>
<path fill="none" stroke="blue" d="M159.705,-22C135.661,-22 99.8774,-22 73.1491,-22"/>
<polygon fill="blue" stroke="blue" points="73.0324,-18.5001 63.0324,-22 73.0323,-25.5001 73.0324,-18.5001"/>
<text text-anchor="middle" x="116" y="-33.6" font-family="Helvetica,sans-Serif" font-size="8.00">state:0</text>
<text text-anchor="middle" x="116" y="-24.6" font-family="Helvetica,sans-Serif" font-size="8.00">type:relatedTo</text>
</g>
<!-- n81 -->
<g id="node2" class="node"><title>n81</title>
<polygon fill="#cae1ff" stroke="black" points="71.5,-125.5 0.5,-125.5 0.5,-62.5 71.5,-62.5 71.5,-125.5"/>
<text text-anchor="middle" x="36" y="-110.1" font-family="Helvetica,sans-Serif" font-size="8.00">fn:setgid</text>
<text text-anchor="middle" x="36" y="-101.1" font-family="Helvetica,sans-Serif" font-size="8.00">arg_values:[&#39;arthur&#39;]</text>
<text text-anchor="middle" x="36" y="-92.1" font-family="Helvetica,sans-Serif" font-size="8.00">ret:0</text>
<text text-anchor="middle" x="36" y="-83.1" font-family="Helvetica,sans-Serif" font-size="8.00">arg_keys:[&#39;gid&#39;]</text>
<text text-anchor="middle" x="36" y="-74.1" font-family="Helvetica,sans-Serif" font-size="8.00">node_id:79</text>
<text text-anchor="middle" x="36" y="-65.1" font-family="Helvetica,sans-Serif" font-size="8.00">type:5</text>
</g>
<!-- n3 -->
<g id="node3" class="node"><title>n3</title>
<ellipse fill="green" stroke="black" cx="187" cy="-94" rx="27" ry="18"/>
<text text-anchor="middle" x="187" y="-92.1" font-family="Helvetica,sans-Serif" font-size="8.00">Dummy Node</text>
</g>
<!-- n3&#45;&gt;n81 -->
<g id="edge2" class="edge"><title>n3&#45;&gt;n81</title>
<path fill="none" stroke="blue" d="M159.705,-94C138.19,-94 107.277,-94 81.8613,-94"/>
<polygon fill="blue" stroke="blue" points="81.7084,-90.5001 71.7084,-94 81.7084,-97.5001 81.7084,-90.5001"/>
<text text-anchor="middle" x="116" y="-105.6" font-family="Helvetica,sans-Serif" font-size="8.00">state:0</text>
<text text-anchor="middle" x="116" y="-96.6" font-family="Helvetica,sans-Serif" font-size="8.00">type:relatedTo</text>
</g>
</g>
</svg>
