<?xml version="1.0" encoding="UTF-8" standalone="no"?>
<!DOCTYPE svg PUBLIC "-//W3C//DTD SVG 1.1//EN"
 "http://www.w3.org/Graphics/SVG/1.1/DTD/svg11.dtd">
<!-- Generated by graphviz version 2.36.0 (20140111.2315)
 -->
<!-- Title: clingo2dot Pages: 1 -->
<svg width="210pt" height="134pt"
 viewBox="0.00 0.00 210.00 134.00" xmlns="http://www.w3.org/2000/svg" xmlns:xlink="http://www.w3.org/1999/xlink">
<g id="graph0" class="graph" transform="scale(1 1) rotate(0) translate(4 130)">
<title>clingo2dot</title>
<polygon fill="white" stroke="none" points="-4,4 -4,-130 206,-130 206,4 -4,4"/>
<!-- n64 -->
<g id="node1" class="node"><title>n64</title>
<ellipse fill="green" stroke="black" cx="175" cy="-31" rx="27" ry="18"/>
<text text-anchor="middle" x="175" y="-29.1" font-family="Helvetica,sans-Serif" font-size="8.00">Dummy Node</text>
</g>
<!-- n81 -->
<g id="node4" class="node"><title>n81</title>
<polygon fill="#cae1ff" stroke="black" points="60,-62.5 3.55271e-15,-62.5 3.55271e-15,0.5 60,0.5 60,-62.5"/>
<text text-anchor="middle" x="30" y="-47.1" font-family="Helvetica,sans-Serif" font-size="8.00">arg_values:[&#39;0&#39;]</text>
<text text-anchor="middle" x="30" y="-38.1" font-family="Helvetica,sans-Serif" font-size="8.00">ret:3</text>
<text text-anchor="middle" x="30" y="-29.1" font-family="Helvetica,sans-Serif" font-size="8.00">arg_keys:[&#39;oldfd&#39;]</text>
<text text-anchor="middle" x="30" y="-20.1" font-family="Helvetica,sans-Serif" font-size="8.00">fn:dup</text>
<text text-anchor="middle" x="30" y="-11.1" font-family="Helvetica,sans-Serif" font-size="8.00">node_id:79</text>
<text text-anchor="middle" x="30" y="-2.1" font-family="Helvetica,sans-Serif" font-size="8.00">type:5</text>
</g>
<!-- n64&#45;&gt;n81 -->
<g id="edge1" class="edge"><title>n64&#45;&gt;n81</title>
<path fill="none" stroke="blue" d="M147.772,-31C126.042,-31 94.8345,-31 70.1478,-31"/>
<polygon fill="blue" stroke="blue" points="70.0136,-27.5001 60.0136,-31 70.0135,-34.5001 70.0136,-27.5001"/>
<text text-anchor="middle" x="104" y="-42.6" font-family="Helvetica,sans-Serif" font-size="8.00">state:0</text>
<text text-anchor="middle" x="104" y="-33.6" font-family="Helvetica,sans-Serif" font-size="8.00">type:relatedTo</text>
</g>
<!-- n80 -->
<g id="node2" class="node"><title>n80</title>
<polygon fill="#cae1ff" stroke="black" points="202,-117 148,-117 148,-81 202,-81 202,-117"/>
<text text-anchor="middle" x="175" y="-101.6" font-family="Helvetica,sans-Serif" font-size="8.00">name:3</text>
<text text-anchor="middle" x="175" y="-92.6" font-family="Helvetica,sans-Serif" font-size="8.00">node_id:78</text>
<text text-anchor="middle" x="175" y="-83.6" font-family="Helvetica,sans-Serif" font-size="8.00">type:4</text>
</g>
<!-- n3 -->
<g id="node3" class="node"><title>n3</title>
<ellipse fill="green" stroke="black" cx="30" cy="-99" rx="27" ry="18"/>
<text text-anchor="middle" x="30" y="-97.1" font-family="Helvetica,sans-Serif" font-size="8.00">Dummy Node</text>
</g>
<!-- n80&#45;&gt;n3 -->
<g id="edge2" class="edge"><title>n80&#45;&gt;n3</title>
<path fill="none" stroke="blue" d="M147.772,-99C125.195,-99 92.3884,-99 67.2929,-99"/>
<polygon fill="blue" stroke="blue" points="67.0622,-95.5001 57.0621,-99 67.0621,-102.5 67.0622,-95.5001"/>
<text text-anchor="middle" x="104" y="-110.6" font-family="Helvetica,sans-Serif" font-size="8.00">state:5</text>
<text text-anchor="middle" x="104" y="-101.6" font-family="Helvetica,sans-Serif" font-size="8.00">type:relatedTo</text>
</g>
</g>
</svg>
