<?xml version="1.0" encoding="UTF-8" standalone="no"?>
<!DOCTYPE svg PUBLIC "-//W3C//DTD SVG 1.1//EN"
 "http://www.w3.org/Graphics/SVG/1.1/DTD/svg11.dtd">
<!-- Generated by graphviz version 2.36.0 (20140111.2315)
 -->
<!-- Title: clingo2dot Pages: 1 -->
<svg width="682pt" height="405pt"
 viewBox="0.00 0.00 682.00 405.00" xmlns="http://www.w3.org/2000/svg" xmlns:xlink="http://www.w3.org/1999/xlink">
<g id="graph0" class="graph" transform="scale(1 1) rotate(0) translate(4 401)">
<title>clingo2dot</title>
<polygon fill="white" stroke="none" points="-4,4 -4,-401 678,-401 678,4 -4,4"/>
<!-- n3 -->
<g id="node1" class="node"><title>n3</title>
<ellipse fill="green" stroke="black" cx="53" cy="-256" rx="27" ry="18"/>
<text text-anchor="middle" x="53" y="-254.1" font-family="Helvetica,sans-Serif" font-size="8.00">Dummy Node</text>
</g>
<!-- n82 -->
<g id="node2" class="node"><title>n82</title>
<polygon fill="#cae1ff" stroke="black" points="390,-190 336,-190 336,-154 390,-154 390,-190"/>
<text text-anchor="middle" x="363" y="-170.1" font-family="Helvetica,sans-Serif" font-size="8.00">node_id:80</text>
<text text-anchor="middle" x="363" y="-161.1" font-family="Helvetica,sans-Serif" font-size="8.00">type:2</text>
</g>
<!-- n80 -->
<g id="node7" class="node"><title>n80</title>
<polygon fill="#cae1ff" stroke="black" points="248,-190.5 194,-190.5 194,-145.5 248,-145.5 248,-190.5"/>
<text text-anchor="middle" x="221" y="-175.1" font-family="Helvetica,sans-Serif" font-size="8.00">node_id:78</text>
<text text-anchor="middle" x="221" y="-166.1" font-family="Helvetica,sans-Serif" font-size="8.00">name:3</text>
<text text-anchor="middle" x="221" y="-157.1" font-family="Helvetica,sans-Serif" font-size="8.00">ref_count:0</text>
<text text-anchor="middle" x="221" y="-148.1" font-family="Helvetica,sans-Serif" font-size="8.00">type:4</text>
</g>
<!-- n82&#45;&gt;n80 -->
<g id="edge2" class="edge"><title>n82&#45;&gt;n80</title>
<path fill="none" stroke="blue" d="M335.995,-171.257C314.228,-170.635 282.917,-169.74 258.615,-169.046"/>
<polygon fill="blue" stroke="blue" points="258.437,-165.54 248.341,-168.753 258.237,-172.537 258.437,-165.54"/>
<text text-anchor="middle" x="292" y="-182.6" font-family="Helvetica,sans-Serif" font-size="8.00">state:2</text>
<text text-anchor="middle" x="292" y="-173.6" font-family="Helvetica,sans-Serif" font-size="8.00">type:relatedTo</text>
</g>
<!-- n81 -->
<g id="node11" class="node"><title>n81</title>
<polygon fill="#cae1ff" stroke="black" points="248,-100.5 194,-100.5 194,-55.5 248,-55.5 248,-100.5"/>
<text text-anchor="middle" x="221" y="-85.1" font-family="Helvetica,sans-Serif" font-size="8.00">node_id:79</text>
<text text-anchor="middle" x="221" y="-76.1" font-family="Helvetica,sans-Serif" font-size="8.00">name:4</text>
<text text-anchor="middle" x="221" y="-67.1" font-family="Helvetica,sans-Serif" font-size="8.00">ref_count:0</text>
<text text-anchor="middle" x="221" y="-58.1" font-family="Helvetica,sans-Serif" font-size="8.00">type:4</text>
</g>
<!-- n82&#45;&gt;n81 -->
<g id="edge15" class="edge"><title>n82&#45;&gt;n81</title>
<path fill="none" stroke="blue" d="M338.497,-153.847C331.937,-148.925 324.755,-143.669 318,-139 298.037,-125.202 275.118,-110.595 256.681,-99.1344"/>
<polygon fill="blue" stroke="blue" points="258.369,-96.0628 248.023,-93.7785 254.686,-102.016 258.369,-96.0628"/>
<text text-anchor="middle" x="292" y="-150.6" font-family="Helvetica,sans-Serif" font-size="8.00">state:3</text>
<text text-anchor="middle" x="292" y="-141.6" font-family="Helvetica,sans-Serif" font-size="8.00">type:relatedTo</text>
</g>
<!-- n86 -->
<g id="node3" class="node"><title>n86</title>
<polygon fill="#cae1ff" stroke="black" points="390,-94.5 336,-94.5 336,-49.5 390,-49.5 390,-94.5"/>
<text text-anchor="middle" x="363" y="-79.1" font-family="Helvetica,sans-Serif" font-size="8.00">node_id:84</text>
<text text-anchor="middle" x="363" y="-70.1" font-family="Helvetica,sans-Serif" font-size="8.00">name:4</text>
<text text-anchor="middle" x="363" y="-61.1" font-family="Helvetica,sans-Serif" font-size="8.00">ref_count:0</text>
<text text-anchor="middle" x="363" y="-52.1" font-family="Helvetica,sans-Serif" font-size="8.00">type:4</text>
</g>
<!-- n86&#45;&gt;n81 -->
<g id="edge16" class="edge"><title>n86&#45;&gt;n81</title>
<path fill="none" stroke="blue" d="M335.897,-71.5489C316.576,-71.3908 289.623,-71.5386 266,-73 263.449,-73.1578 260.818,-73.359 258.171,-73.5896"/>
<polygon fill="blue" stroke="blue" points="257.625,-70.1264 248.019,-74.5954 258.316,-77.0923 257.625,-70.1264"/>
<text text-anchor="middle" x="292" y="-84.6" font-family="Helvetica,sans-Serif" font-size="8.00">state:0</text>
<text text-anchor="middle" x="292" y="-75.6" font-family="Helvetica,sans-Serif" font-size="8.00">type:relatedTo</text>
</g>
<!-- n65 -->
<g id="node4" class="node"><title>n65</title>
<polygon fill="#cae1ff" stroke="black" points="248,-245 194,-245 194,-209 248,-209 248,-245"/>
<text text-anchor="middle" x="221" y="-225.1" font-family="Helvetica,sans-Serif" font-size="8.00">type:4</text>
</g>
<!-- n65&#45;&gt;n3 -->
<g id="edge3" class="edge"><title>n65&#45;&gt;n3</title>
<path fill="none" stroke="blue" d="M193.759,-228.587C174.37,-230.037 147.391,-232.637 124,-237 111.936,-239.25 98.9133,-242.541 87.4096,-245.753"/>
<polygon fill="blue" stroke="blue" points="86.3979,-242.402 77.7537,-248.528 88.3314,-249.13 86.3979,-242.402"/>
<text text-anchor="middle" x="150" y="-248.6" font-family="Helvetica,sans-Serif" font-size="8.00">state:5</text>
<text text-anchor="middle" x="150" y="-239.6" font-family="Helvetica,sans-Serif" font-size="8.00">type:relatedTo</text>
</g>
<!-- n83 -->
<g id="node5" class="node"><title>n83</title>
<polygon fill="#cae1ff" stroke="black" points="106,-162.5 7.10543e-15,-162.5 7.10543e-15,-99.5 106,-99.5 106,-162.5"/>
<text text-anchor="middle" x="53" y="-147.1" font-family="Helvetica,sans-Serif" font-size="8.00">arg_keys:[&#39;read_fd&#39;, &#39;write_fd&#39;]</text>
<text text-anchor="middle" x="53" y="-138.1" font-family="Helvetica,sans-Serif" font-size="8.00">node_id:81</text>
<text text-anchor="middle" x="53" y="-129.1" font-family="Helvetica,sans-Serif" font-size="8.00">ret:0</text>
<text text-anchor="middle" x="53" y="-120.1" font-family="Helvetica,sans-Serif" font-size="8.00">arg_values:[&#39;3&#39;, &#39;4&#39;]</text>
<text text-anchor="middle" x="53" y="-111.1" font-family="Helvetica,sans-Serif" font-size="8.00">fn:pipe</text>
<text text-anchor="middle" x="53" y="-102.1" font-family="Helvetica,sans-Serif" font-size="8.00">type:5</text>
</g>
<!-- n85 -->
<g id="node6" class="node"><title>n85</title>
<polygon fill="#cae1ff" stroke="black" points="532,-258 478,-258 478,-222 532,-222 532,-258"/>
<text text-anchor="middle" x="505" y="-238.1" font-family="Helvetica,sans-Serif" font-size="8.00">node_id:83</text>
<text text-anchor="middle" x="505" y="-229.1" font-family="Helvetica,sans-Serif" font-size="8.00">type:2</text>
</g>
<!-- n85&#45;&gt;n82 -->
<g id="edge7" class="edge"><title>n85&#45;&gt;n82</title>
<path fill="none" stroke="blue" d="M477.995,-227.369C455.935,-216.654 424.073,-201.178 399.638,-189.31"/>
<polygon fill="blue" stroke="blue" points="400.865,-186.015 390.341,-184.794 397.807,-192.311 400.865,-186.015"/>
<text text-anchor="middle" x="434" y="-230.6" font-family="Helvetica,sans-Serif" font-size="8.00">state:0</text>
<text text-anchor="middle" x="434" y="-221.6" font-family="Helvetica,sans-Serif" font-size="8.00">type:relatedTo</text>
</g>
<!-- n87 -->
<g id="node8" class="node"><title>n87</title>
<polygon fill="#cae1ff" stroke="black" points="390,-324.5 336,-324.5 336,-279.5 390,-279.5 390,-324.5"/>
<text text-anchor="middle" x="363" y="-309.1" font-family="Helvetica,sans-Serif" font-size="8.00">node_id:85</text>
<text text-anchor="middle" x="363" y="-300.1" font-family="Helvetica,sans-Serif" font-size="8.00">name:3</text>
<text text-anchor="middle" x="363" y="-291.1" font-family="Helvetica,sans-Serif" font-size="8.00">ref_count:0</text>
<text text-anchor="middle" x="363" y="-282.1" font-family="Helvetica,sans-Serif" font-size="8.00">type:4</text>
</g>
<!-- n85&#45;&gt;n87 -->
<g id="edge8" class="edge"><title>n85&#45;&gt;n87</title>
<path fill="none" stroke="blue" d="M477.879,-251.309C458.549,-259.706 431.592,-271.478 408,-282 405.179,-283.258 402.259,-284.568 399.328,-285.889"/>
<polygon fill="blue" stroke="blue" points="397.7,-282.784 390.031,-290.094 400.584,-289.162 397.7,-282.784"/>
<text text-anchor="middle" x="434" y="-293.6" font-family="Helvetica,sans-Serif" font-size="8.00">state:2</text>
<text text-anchor="middle" x="434" y="-284.6" font-family="Helvetica,sans-Serif" font-size="8.00">type:relatedTo</text>
</g>
<!-- n80&#45;&gt;n3 -->
<g id="edge13" class="edge"><title>n80&#45;&gt;n3</title>
<path fill="none" stroke="blue" d="M193.714,-174.074C173.82,-179.297 146.223,-187.91 124,-200 106.792,-209.362 89.5822,-223.056 76.5331,-234.559"/>
<polygon fill="blue" stroke="blue" points="74.0572,-232.079 68.9831,-241.38 78.7498,-237.273 74.0572,-232.079"/>
<text text-anchor="middle" x="150" y="-211.6" font-family="Helvetica,sans-Serif" font-size="8.00">state:10</text>
<text text-anchor="middle" x="150" y="-202.6" font-family="Helvetica,sans-Serif" font-size="8.00">type:relatedTo</text>
</g>
<!-- n80&#45;&gt;n83 -->
<g id="edge14" class="edge"><title>n80&#45;&gt;n83</title>
<path fill="none" stroke="blue" d="M198.576,-145.653C191.92,-140.13 184.168,-134.953 176,-132 157.257,-125.223 135.809,-123.292 116.178,-123.562"/>
<polygon fill="blue" stroke="blue" points="115.983,-120.066 106.101,-123.889 116.21,-127.062 115.983,-120.066"/>
<text text-anchor="middle" x="150" y="-143.6" font-family="Helvetica,sans-Serif" font-size="8.00">state:0</text>
<text text-anchor="middle" x="150" y="-134.6" font-family="Helvetica,sans-Serif" font-size="8.00">type:relatedTo</text>
</g>
<!-- n87&#45;&gt;n3 -->
<g id="edge9" class="edge"><title>n87&#45;&gt;n3</title>
<path fill="none" stroke="blue" d="M335.773,-308.011C290.977,-317.072 197.443,-330.698 124,-306 106.466,-300.103 89.5115,-288.207 76.681,-277.498"/>
<polygon fill="blue" stroke="blue" points="78.7207,-274.633 68.8803,-270.707 74.1243,-279.913 78.7207,-274.633"/>
<text text-anchor="middle" x="221" y="-332.6" font-family="Helvetica,sans-Serif" font-size="8.00">state:10</text>
<text text-anchor="middle" x="221" y="-323.6" font-family="Helvetica,sans-Serif" font-size="8.00">type:relatedTo</text>
</g>
<!-- n87&#45;&gt;n80 -->
<g id="edge12" class="edge"><title>n87&#45;&gt;n80</title>
<path fill="none" stroke="blue" d="M338.567,-279.571C315.046,-257.058 278.686,-222.257 252.835,-197.514"/>
<polygon fill="blue" stroke="blue" points="255.154,-194.888 245.509,-190.502 250.313,-199.945 255.154,-194.888"/>
<text text-anchor="middle" x="292" y="-270.6" font-family="Helvetica,sans-Serif" font-size="8.00">state:0</text>
<text text-anchor="middle" x="292" y="-261.6" font-family="Helvetica,sans-Serif" font-size="8.00">type:relatedTo</text>
</g>
<!-- n89 -->
<g id="node9" class="node"><title>n89</title>
<polygon fill="#cae1ff" stroke="black" points="532,-356.5 478,-356.5 478,-311.5 532,-311.5 532,-356.5"/>
<text text-anchor="middle" x="505" y="-341.1" font-family="Helvetica,sans-Serif" font-size="8.00">node_id:87</text>
<text text-anchor="middle" x="505" y="-332.1" font-family="Helvetica,sans-Serif" font-size="8.00">name:3</text>
<text text-anchor="middle" x="505" y="-323.1" font-family="Helvetica,sans-Serif" font-size="8.00">ref_count:0</text>
<text text-anchor="middle" x="505" y="-314.1" font-family="Helvetica,sans-Serif" font-size="8.00">type:4</text>
</g>
<!-- n89&#45;&gt;n3 -->
<g id="edge10" class="edge"><title>n89&#45;&gt;n3</title>
<path fill="none" stroke="blue" d="M477.695,-348.865C472.025,-351.404 465.944,-353.654 460,-355 416.973,-364.742 385.324,-387.77 194,-352 161.377,-345.901 151.932,-343.924 124,-326 104.473,-313.469 86.0742,-294.688 73.0444,-279.734"/>
<polygon fill="blue" stroke="blue" points="75.5228,-277.245 66.3848,-271.883 70.1848,-281.773 75.5228,-277.245"/>
<text text-anchor="middle" x="292" y="-381.6" font-family="Helvetica,sans-Serif" font-size="8.00">state:5</text>
<text text-anchor="middle" x="292" y="-372.6" font-family="Helvetica,sans-Serif" font-size="8.00">type:relatedTo</text>
</g>
<!-- n89&#45;&gt;n87 -->
<g id="edge11" class="edge"><title>n89&#45;&gt;n87</title>
<path fill="none" stroke="blue" d="M477.995,-328.056C456.131,-323.058 424.636,-315.86 400.289,-310.295"/>
<polygon fill="blue" stroke="blue" points="400.869,-306.837 390.341,-308.021 399.309,-313.661 400.869,-306.837"/>
<text text-anchor="middle" x="434" y="-335.6" font-family="Helvetica,sans-Serif" font-size="8.00">state:0</text>
<text text-anchor="middle" x="434" y="-326.6" font-family="Helvetica,sans-Serif" font-size="8.00">type:relatedTo</text>
</g>
<!-- n88 -->
<g id="node10" class="node"><title>n88</title>
<polygon fill="#cae1ff" stroke="black" points="674,-258 620,-258 620,-222 674,-222 674,-258"/>
<text text-anchor="middle" x="647" y="-238.1" font-family="Helvetica,sans-Serif" font-size="8.00">node_id:86</text>
<text text-anchor="middle" x="647" y="-229.1" font-family="Helvetica,sans-Serif" font-size="8.00">type:2</text>
</g>
<!-- n88&#45;&gt;n85 -->
<g id="edge6" class="edge"><title>n88&#45;&gt;n85</title>
<path fill="none" stroke="blue" d="M619.995,-240C598.228,-240 566.917,-240 542.615,-240"/>
<polygon fill="blue" stroke="blue" points="542.341,-236.5 532.341,-240 542.341,-243.5 542.341,-236.5"/>
<text text-anchor="middle" x="576" y="-251.6" font-family="Helvetica,sans-Serif" font-size="8.00">state:0</text>
<text text-anchor="middle" x="576" y="-242.6" font-family="Helvetica,sans-Serif" font-size="8.00">type:relatedTo</text>
</g>
<!-- n81&#45;&gt;n3 -->
<g id="edge4" class="edge"><title>n81&#45;&gt;n3</title>
<path fill="none" stroke="blue" d="M193.78,-74.719C172.298,-73.5746 142.523,-75.7616 124,-93 97.9559,-117.238 119.458,-138.066 106,-171 97.1661,-192.619 83.1885,-215.074 71.9488,-231.472"/>
<polygon fill="blue" stroke="blue" points="68.9056,-229.716 66.0362,-239.915 74.6395,-233.732 68.9056,-229.716"/>
<text text-anchor="middle" x="150" y="-104.6" font-family="Helvetica,sans-Serif" font-size="8.00">state:10</text>
<text text-anchor="middle" x="150" y="-95.6" font-family="Helvetica,sans-Serif" font-size="8.00">type:relatedTo</text>
</g>
<!-- n84 -->
<g id="node12" class="node"><title>n84</title>
<polygon fill="#cae1ff" stroke="black" points="106,-62.5 7.10543e-15,-62.5 7.10543e-15,0.5 106,0.5 106,-62.5"/>
<text text-anchor="middle" x="53" y="-47.1" font-family="Helvetica,sans-Serif" font-size="8.00">arg_keys:[&#39;read_fd&#39;, &#39;write_fd&#39;]</text>
<text text-anchor="middle" x="53" y="-38.1" font-family="Helvetica,sans-Serif" font-size="8.00">node_id:82</text>
<text text-anchor="middle" x="53" y="-29.1" font-family="Helvetica,sans-Serif" font-size="8.00">ret:0</text>
<text text-anchor="middle" x="53" y="-20.1" font-family="Helvetica,sans-Serif" font-size="8.00">arg_values:[&#39;3&#39;, &#39;4&#39;]</text>
<text text-anchor="middle" x="53" y="-11.1" font-family="Helvetica,sans-Serif" font-size="8.00">fn:pipe</text>
<text text-anchor="middle" x="53" y="-2.1" font-family="Helvetica,sans-Serif" font-size="8.00">type:5</text>
</g>
<!-- n81&#45;&gt;n84 -->
<g id="edge5" class="edge"><title>n81&#45;&gt;n84</title>
<path fill="none" stroke="blue" d="M204.681,-55.3706C197.204,-46.3284 187.362,-36.91 176,-32 157.539,-24.022 135.989,-21.8245 116.182,-22.217"/>
<polygon fill="blue" stroke="blue" points="115.853,-18.7275 106.008,-22.6414 116.145,-25.7214 115.853,-18.7275"/>
<text text-anchor="middle" x="150" y="-43.6" font-family="Helvetica,sans-Serif" font-size="8.00">state:0</text>
<text text-anchor="middle" x="150" y="-34.6" font-family="Helvetica,sans-Serif" font-size="8.00">type:relatedTo</text>
</g>
<!-- n66 -->
<g id="node13" class="node"><title>n66</title>
<polygon fill="#cae1ff" stroke="black" points="248,-299 194,-299 194,-263 248,-263 248,-299"/>
<text text-anchor="middle" x="221" y="-279.1" font-family="Helvetica,sans-Serif" font-size="8.00">type:4</text>
</g>
<!-- n66&#45;&gt;n3 -->
<g id="edge1" class="edge"><title>n66&#45;&gt;n3</title>
<path fill="none" stroke="blue" d="M193.697,-277.039C165.606,-272.808 120.919,-266.078 89.6727,-261.372"/>
<polygon fill="blue" stroke="blue" points="90.0444,-257.889 79.6347,-259.861 89.0019,-264.811 90.0444,-257.889"/>
<text text-anchor="middle" x="150" y="-286.6" font-family="Helvetica,sans-Serif" font-size="8.00">state:5</text>
<text text-anchor="middle" x="150" y="-277.6" font-family="Helvetica,sans-Serif" font-size="8.00">type:relatedTo</text>
</g>
</g>
</svg>
