<?xml version="1.0" encoding="UTF-8" standalone="no"?>
<!DOCTYPE svg PUBLIC "-//W3C//DTD SVG 1.1//EN"
 "http://www.w3.org/Graphics/SVG/1.1/DTD/svg11.dtd">
<!-- Generated by graphviz version 2.36.0 (20140111.2315)
 -->
<!-- Title: clingo2dot Pages: 1 -->
<svg width="1896pt" height="322pt"
 viewBox="0.00 0.00 1896.00 322.00" xmlns="http://www.w3.org/2000/svg" xmlns:xlink="http://www.w3.org/1999/xlink">
<g id="graph0" class="graph" transform="scale(1 1) rotate(0) translate(4 318)">
<title>clingo2dot</title>
<polygon fill="white" stroke="none" points="-4,4 -4,-318 1892,-318 1892,4 -4,4"/>
<!-- n81 -->
<g id="node1" class="node"><title>n81</title>
<polygon fill="#cae1ff" stroke="black" points="756.5,-90 595.5,-90 595.5,-54 756.5,-54 756.5,-90"/>
<text text-anchor="middle" x="676" y="-74.6" font-family="Helvetica,sans-Serif" font-size="8.00">node_id:79</text>
<text text-anchor="middle" x="676" y="-65.6" font-family="Helvetica,sans-Serif" font-size="8.00">name:[&#39;/home/arthur/ProvMark/stage/test.txt&#39;]</text>
<text text-anchor="middle" x="676" y="-56.6" font-family="Helvetica,sans-Serif" font-size="8.00">type:2</text>
</g>
<!-- n80 -->
<g id="node7" class="node"><title>n80</title>
<polygon fill="#cae1ff" stroke="black" points="492,-90.5 438,-90.5 438,-45.5 492,-45.5 492,-90.5"/>
<text text-anchor="middle" x="465" y="-75.1" font-family="Helvetica,sans-Serif" font-size="8.00">node_id:78</text>
<text text-anchor="middle" x="465" y="-66.1" font-family="Helvetica,sans-Serif" font-size="8.00">ref_count:1</text>
<text text-anchor="middle" x="465" y="-57.1" font-family="Helvetica,sans-Serif" font-size="8.00">name:omega</text>
<text text-anchor="middle" x="465" y="-48.1" font-family="Helvetica,sans-Serif" font-size="8.00">type:4</text>
</g>
<!-- n81&#45;&gt;n80 -->
<g id="edge9" class="edge"><title>n81&#45;&gt;n80</title>
<path fill="none" stroke="blue" d="M595.365,-69.7248C584.162,-69.4517 572.792,-69.1994 562,-69 542.218,-68.6344 520.141,-68.3929 502.151,-68.2389"/>
<polygon fill="blue" stroke="blue" points="502.106,-64.7385 492.079,-68.1581 502.05,-71.7383 502.106,-64.7385"/>
<text text-anchor="middle" x="536" y="-80.6" font-family="Helvetica,sans-Serif" font-size="8.00">state:0</text>
<text text-anchor="middle" x="536" y="-71.6" font-family="Helvetica,sans-Serif" font-size="8.00">type:relatedTo</text>
</g>
<!-- n83 -->
<g id="node2" class="node"><title>n83</title>
<polygon fill="#cae1ff" stroke="black" points="1190,-90 860,-90 860,-54 1190,-54 1190,-90"/>
<text text-anchor="middle" x="1025" y="-74.6" font-family="Helvetica,sans-Serif" font-size="8.00">node_id:81</text>
<text text-anchor="middle" x="1025" y="-65.6" font-family="Helvetica,sans-Serif" font-size="8.00">name:[&#39;/home/arthur/ProvMark/stage/test.txt&#39;, &#39;/home/arthur/ProvMark/stage/rename&#45;test.txt&#39;]</text>
<text text-anchor="middle" x="1025" y="-56.6" font-family="Helvetica,sans-Serif" font-size="8.00">type:2</text>
</g>
<!-- n83&#45;&gt;n81 -->
<g id="edge3" class="edge"><title>n83&#45;&gt;n81</title>
<path fill="none" stroke="blue" d="M859.899,-72C827.889,-72 795.45,-72 766.959,-72"/>
<polygon fill="blue" stroke="blue" points="766.649,-68.5001 756.649,-72 766.649,-75.5001 766.649,-68.5001"/>
<text text-anchor="middle" x="816" y="-83.6" font-family="Helvetica,sans-Serif" font-size="8.00">state:0</text>
<text text-anchor="middle" x="816" y="-74.6" font-family="Helvetica,sans-Serif" font-size="8.00">type:relatedTo</text>
</g>
<!-- n82 -->
<g id="node3" class="node"><title>n82</title>
<polygon fill="#cae1ff" stroke="black" points="772,-36 580,-36 580,-0 772,-0 772,-36"/>
<text text-anchor="middle" x="676" y="-20.6" font-family="Helvetica,sans-Serif" font-size="8.00">node_id:80</text>
<text text-anchor="middle" x="676" y="-11.6" font-family="Helvetica,sans-Serif" font-size="8.00">name:[&#39;/home/arthur/ProvMark/stage/rename&#45;test.txt&#39;]</text>
<text text-anchor="middle" x="676" y="-2.6" font-family="Helvetica,sans-Serif" font-size="8.00">type:2</text>
</g>
<!-- n83&#45;&gt;n82 -->
<g id="edge8" class="edge"><title>n83&#45;&gt;n82</title>
<path fill="none" stroke="blue" d="M921.577,-53.9965C895.639,-49.5907 867.815,-44.9968 842,-41 822.684,-38.0093 802.067,-34.9948 782.182,-32.1773"/>
<polygon fill="blue" stroke="blue" points="782.567,-28.6971 772.176,-30.7673 781.59,-35.6286 782.567,-28.6971"/>
<text text-anchor="middle" x="816" y="-52.6" font-family="Helvetica,sans-Serif" font-size="8.00">state:0</text>
<text text-anchor="middle" x="816" y="-43.6" font-family="Helvetica,sans-Serif" font-size="8.00">type:relatedTo</text>
</g>
<!-- n82&#45;&gt;n80 -->
<g id="edge10" class="edge"><title>n82&#45;&gt;n80</title>
<path fill="none" stroke="blue" d="M579.774,-21.7321C556.431,-24.7551 531.879,-29.7768 510,-38 506.971,-39.1385 503.948,-40.5264 500.985,-42.0743"/>
<polygon fill="blue" stroke="blue" points="499.218,-39.0533 492.336,-47.1084 502.739,-45.1033 499.218,-39.0533"/>
<text text-anchor="middle" x="536" y="-49.6" font-family="Helvetica,sans-Serif" font-size="8.00">state:0</text>
<text text-anchor="middle" x="536" y="-40.6" font-family="Helvetica,sans-Serif" font-size="8.00">type:relatedTo</text>
</g>
<!-- n84 -->
<g id="node4" class="node"><title>n84</title>
<polygon fill="#cae1ff" stroke="black" points="703,-168.5 649,-168.5 649,-123.5 703,-123.5 703,-168.5"/>
<text text-anchor="middle" x="676" y="-153.1" font-family="Helvetica,sans-Serif" font-size="8.00">node_id:82</text>
<text text-anchor="middle" x="676" y="-144.1" font-family="Helvetica,sans-Serif" font-size="8.00">ref_count:0</text>
<text text-anchor="middle" x="676" y="-135.1" font-family="Helvetica,sans-Serif" font-size="8.00">name:omega</text>
<text text-anchor="middle" x="676" y="-126.1" font-family="Helvetica,sans-Serif" font-size="8.00">type:4</text>
</g>
<!-- n84&#45;&gt;n80 -->
<g id="edge1" class="edge"><title>n84&#45;&gt;n80</title>
<path fill="none" stroke="blue" d="M648.765,-140.389C615.527,-132.758 556.922,-117.547 510,-96 507.038,-94.6397 504.039,-93.1083 501.071,-91.4808"/>
<polygon fill="blue" stroke="blue" points="502.736,-88.4 492.335,-86.385 499.209,-94.4467 502.736,-88.4"/>
<text text-anchor="middle" x="536" y="-127.6" font-family="Helvetica,sans-Serif" font-size="8.00">state:0</text>
<text text-anchor="middle" x="536" y="-118.6" font-family="Helvetica,sans-Serif" font-size="8.00">type:relatedTo</text>
</g>
<!-- n3 -->
<g id="node10" class="node"><title>n3</title>
<ellipse fill="green" stroke="black" cx="175" cy="-191" rx="27" ry="18"/>
<text text-anchor="middle" x="175" y="-189.1" font-family="Helvetica,sans-Serif" font-size="8.00">Dummy Node</text>
</g>
<!-- n84&#45;&gt;n3 -->
<g id="edge15" class="edge"><title>n84&#45;&gt;n3</title>
<path fill="none" stroke="blue" d="M648.874,-148.356C565.761,-155.851 307.339,-179.156 211.896,-187.763"/>
<polygon fill="blue" stroke="blue" points="211.512,-184.283 201.867,-188.667 212.141,-191.255 211.512,-184.283"/>
<text text-anchor="middle" x="465" y="-179.6" font-family="Helvetica,sans-Serif" font-size="8.00">state:5</text>
<text text-anchor="middle" x="465" y="-170.6" font-family="Helvetica,sans-Serif" font-size="8.00">type:relatedTo</text>
</g>
<!-- n85 -->
<g id="node5" class="node"><title>n85</title>
<polygon fill="#cae1ff" stroke="black" points="492,-313.5 438,-313.5 438,-268.5 492,-268.5 492,-313.5"/>
<text text-anchor="middle" x="465" y="-298.1" font-family="Helvetica,sans-Serif" font-size="8.00">node_id:83</text>
<text text-anchor="middle" x="465" y="-289.1" font-family="Helvetica,sans-Serif" font-size="8.00">ref_count:2</text>
<text text-anchor="middle" x="465" y="-280.1" font-family="Helvetica,sans-Serif" font-size="8.00">name:omega</text>
<text text-anchor="middle" x="465" y="-271.1" font-family="Helvetica,sans-Serif" font-size="8.00">type:4</text>
</g>
<!-- n85&#45;&gt;n3 -->
<g id="edge14" class="edge"><title>n85&#45;&gt;n3</title>
<path fill="none" stroke="blue" d="M437.934,-281.949C385.424,-263.717 267,-222.597 209.113,-202.498"/>
<polygon fill="blue" stroke="blue" points="209.963,-199.088 199.368,-199.114 207.667,-205.7 209.963,-199.088"/>
<text text-anchor="middle" x="394" y="-286.6" font-family="Helvetica,sans-Serif" font-size="8.00">state:10</text>
<text text-anchor="middle" x="394" y="-277.6" font-family="Helvetica,sans-Serif" font-size="8.00">type:relatedTo</text>
</g>
<!-- n89 -->
<g id="node6" class="node"><title>n89</title>
<polygon fill="#cae1ff" stroke="black" points="1872.5,-286 1711.5,-286 1711.5,-250 1872.5,-250 1872.5,-286"/>
<text text-anchor="middle" x="1792" y="-270.6" font-family="Helvetica,sans-Serif" font-size="8.00">node_id:87</text>
<text text-anchor="middle" x="1792" y="-261.6" font-family="Helvetica,sans-Serif" font-size="8.00">name:[&#39;/home/arthur/ProvMark/stage/test.txt&#39;]</text>
<text text-anchor="middle" x="1792" y="-252.6" font-family="Helvetica,sans-Serif" font-size="8.00">type:2</text>
</g>
<!-- n86 -->
<g id="node12" class="node"><title>n86</title>
<polygon fill="#cae1ff" stroke="black" points="1608,-259 1278,-259 1278,-223 1608,-223 1608,-259"/>
<text text-anchor="middle" x="1443" y="-243.6" font-family="Helvetica,sans-Serif" font-size="8.00">node_id:84</text>
<text text-anchor="middle" x="1443" y="-234.6" font-family="Helvetica,sans-Serif" font-size="8.00">name:[&#39;/home/arthur/ProvMark/stage/test.txt&#39;, &#39;/home/arthur/ProvMark/stage/rename&#45;test.txt&#39;]</text>
<text text-anchor="middle" x="1443" y="-225.6" font-family="Helvetica,sans-Serif" font-size="8.00">type:2</text>
</g>
<!-- n89&#45;&gt;n86 -->
<g id="edge5" class="edge"><title>n89&#45;&gt;n86</title>
<path fill="none" stroke="blue" d="M1711.39,-261.806C1683.47,-259.633 1650.9,-257.099 1618.29,-254.562"/>
<polygon fill="blue" stroke="blue" points="1618.42,-251.061 1608.18,-253.774 1617.87,-258.04 1618.42,-251.061"/>
<text text-anchor="middle" x="1652" y="-270.6" font-family="Helvetica,sans-Serif" font-size="8.00">state:6</text>
<text text-anchor="middle" x="1652" y="-261.6" font-family="Helvetica,sans-Serif" font-size="8.00">type:relatedTo</text>
</g>
<!-- n90 -->
<g id="node9" class="node"><title>n90</title>
<polygon fill="#cae1ff" stroke="black" points="349.5,-99.5 0.5,-99.5 0.5,-36.5 349.5,-36.5 349.5,-99.5"/>
<text text-anchor="middle" x="175" y="-84.1" font-family="Helvetica,sans-Serif" font-size="8.00">ret:0</text>
<text text-anchor="middle" x="175" y="-75.1" font-family="Helvetica,sans-Serif" font-size="8.00">node_id:88</text>
<text text-anchor="middle" x="175" y="-66.1" font-family="Helvetica,sans-Serif" font-size="8.00">fn:rename</text>
<text text-anchor="middle" x="175" y="-57.1" font-family="Helvetica,sans-Serif" font-size="8.00">arg_values:[&#39;/home/arthur/ProvMark/stage/test.txt&#39;, &#39;/home/arthur/ProvMark/stage/rename&#45;test.txt&#39;]</text>
<text text-anchor="middle" x="175" y="-48.1" font-family="Helvetica,sans-Serif" font-size="8.00">arg_keys:[&#39;oldpath&#39;, &#39;newpath&#39;]</text>
<text text-anchor="middle" x="175" y="-39.1" font-family="Helvetica,sans-Serif" font-size="8.00">type:5</text>
</g>
<!-- n80&#45;&gt;n90 -->
<g id="edge7" class="edge"><title>n80&#45;&gt;n90</title>
<path fill="none" stroke="blue" d="M437.934,-68C418.693,-68 390.601,-68 359.881,-68"/>
<polygon fill="blue" stroke="blue" points="359.823,-64.5001 349.823,-68 359.823,-71.5001 359.823,-64.5001"/>
<text text-anchor="middle" x="394" y="-79.6" font-family="Helvetica,sans-Serif" font-size="8.00">state:0</text>
<text text-anchor="middle" x="394" y="-70.6" font-family="Helvetica,sans-Serif" font-size="8.00">type:relatedTo</text>
</g>
<!-- n80&#45;&gt;n3 -->
<g id="edge6" class="edge"><title>n80&#45;&gt;n3</title>
<path fill="none" stroke="blue" d="M437.967,-85.7416C432.175,-89.3542 425.977,-92.9715 420,-96 381.556,-115.48 266.2,-158.221 208.958,-179.078"/>
<polygon fill="blue" stroke="blue" points="207.507,-175.882 199.305,-182.589 209.899,-182.46 207.507,-175.882"/>
<text text-anchor="middle" x="394" y="-130.6" font-family="Helvetica,sans-Serif" font-size="8.00">state:10</text>
<text text-anchor="middle" x="394" y="-121.6" font-family="Helvetica,sans-Serif" font-size="8.00">type:relatedTo</text>
</g>
<!-- n87 -->
<g id="node8" class="node"><title>n87</title>
<polygon fill="#cae1ff" stroke="black" points="1888,-232 1696,-232 1696,-196 1888,-196 1888,-232"/>
<text text-anchor="middle" x="1792" y="-216.6" font-family="Helvetica,sans-Serif" font-size="8.00">node_id:85</text>
<text text-anchor="middle" x="1792" y="-207.6" font-family="Helvetica,sans-Serif" font-size="8.00">name:[&#39;/home/arthur/ProvMark/stage/rename&#45;test.txt&#39;]</text>
<text text-anchor="middle" x="1792" y="-198.6" font-family="Helvetica,sans-Serif" font-size="8.00">type:2</text>
</g>
<!-- n87&#45;&gt;n86 -->
<g id="edge12" class="edge"><title>n87&#45;&gt;n86</title>
<path fill="none" stroke="blue" d="M1695.87,-219.998C1672.98,-221.536 1648.61,-223.252 1626,-225 1623.44,-225.198 1620.86,-225.399 1618.26,-225.603"/>
<polygon fill="blue" stroke="blue" points="1617.87,-222.124 1608.18,-226.406 1618.43,-229.102 1617.87,-222.124"/>
<text text-anchor="middle" x="1652" y="-236.6" font-family="Helvetica,sans-Serif" font-size="8.00">state:0</text>
<text text-anchor="middle" x="1652" y="-227.6" font-family="Helvetica,sans-Serif" font-size="8.00">type:relatedTo</text>
</g>
<!-- n88 -->
<g id="node11" class="node"><title>n88</title>
<polygon fill="#cae1ff" stroke="black" points="703,-257.5 649,-257.5 649,-212.5 703,-212.5 703,-257.5"/>
<text text-anchor="middle" x="676" y="-242.1" font-family="Helvetica,sans-Serif" font-size="8.00">node_id:86</text>
<text text-anchor="middle" x="676" y="-233.1" font-family="Helvetica,sans-Serif" font-size="8.00">ref_count:0</text>
<text text-anchor="middle" x="676" y="-224.1" font-family="Helvetica,sans-Serif" font-size="8.00">name:omega</text>
<text text-anchor="middle" x="676" y="-215.1" font-family="Helvetica,sans-Serif" font-size="8.00">type:4</text>
</g>
<!-- n88&#45;&gt;n85 -->
<g id="edge4" class="edge"><title>n88&#45;&gt;n85</title>
<path fill="none" stroke="blue" d="M648.764,-234.368C615.272,-234.471 556.142,-237.751 510,-257 506.297,-258.545 502.637,-260.484 499.102,-262.649"/>
<polygon fill="blue" stroke="blue" points="496.936,-259.889 490.626,-268.4 500.866,-265.682 496.936,-259.889"/>
<text text-anchor="middle" x="536" y="-268.6" font-family="Helvetica,sans-Serif" font-size="8.00">state:0</text>
<text text-anchor="middle" x="536" y="-259.6" font-family="Helvetica,sans-Serif" font-size="8.00">type:relatedTo</text>
</g>
<!-- n88&#45;&gt;n3 -->
<g id="edge11" class="edge"><title>n88&#45;&gt;n3</title>
<path fill="none" stroke="blue" d="M648.874,-232.696C565.761,-225.368 307.339,-202.581 211.896,-194.165"/>
<polygon fill="blue" stroke="blue" points="212.136,-190.673 201.867,-193.281 211.521,-197.646 212.136,-190.673"/>
<text text-anchor="middle" x="465" y="-230.6" font-family="Helvetica,sans-Serif" font-size="8.00">state:5</text>
<text text-anchor="middle" x="465" y="-221.6" font-family="Helvetica,sans-Serif" font-size="8.00">type:relatedTo</text>
</g>
<!-- n86&#45;&gt;n83 -->
<g id="edge2" class="edge"><title>n86&#45;&gt;n83</title>
<path fill="none" stroke="blue" d="M1397.48,-222.914C1320.56,-191.666 1163.07,-127.685 1080.02,-93.945"/>
<polygon fill="blue" stroke="blue" points="1081.1,-90.6047 1070.51,-90.0835 1078.46,-97.0899 1081.1,-90.6047"/>
<text text-anchor="middle" x="1234" y="-178.6" font-family="Helvetica,sans-Serif" font-size="8.00">state:0</text>
<text text-anchor="middle" x="1234" y="-169.6" font-family="Helvetica,sans-Serif" font-size="8.00">type:relatedTo</text>
</g>
<!-- n86&#45;&gt;n85 -->
<g id="edge13" class="edge"><title>n86&#45;&gt;n85</title>
<path fill="none" stroke="blue" d="M1277.81,-249.411C1043.24,-261.428 626.722,-282.766 502.157,-289.148"/>
<polygon fill="blue" stroke="blue" points="501.829,-285.66 492.021,-289.667 502.187,-292.651 501.829,-285.66"/>
<text text-anchor="middle" x="816" y="-285.6" font-family="Helvetica,sans-Serif" font-size="8.00">state:3</text>
<text text-anchor="middle" x="816" y="-276.6" font-family="Helvetica,sans-Serif" font-size="8.00">type:relatedTo</text>
</g>
</g>
</svg>
