<?xml version="1.0" encoding="UTF-8" standalone="no"?>
<!DOCTYPE svg PUBLIC "-//W3C//DTD SVG 1.1//EN"
 "http://www.w3.org/Graphics/SVG/1.1/DTD/svg11.dtd">
<!-- Generated by graphviz version 2.36.0 (20140111.2315)
 -->
<!-- Title: clingo2dot Pages: 1 -->
<svg width="246pt" height="113pt"
 viewBox="0.00 0.00 246.00 113.00" xmlns="http://www.w3.org/2000/svg" xmlns:xlink="http://www.w3.org/1999/xlink">
<g id="graph0" class="graph" transform="scale(1 1) rotate(0) translate(4 109)">
<title>clingo2dot</title>
<polygon fill="white" stroke="none" points="-4,4 -4,-109 242,-109 242,4 -4,4"/>
<!-- n2 -->
<g id="node1" class="node"><title>n2</title>
<polygon fill="#cae1ff" stroke="black" points="54,-66 0,-66 0,-30 54,-30 54,-66"/>
<text text-anchor="middle" x="27" y="-46.1" font-family="Helvetica,sans-Serif" font-size="8.00">ppid:573</text>
<text text-anchor="middle" x="27" y="-37.1" font-family="Helvetica,sans-Serif" font-size="8.00">type:Process</text>
</g>
<!-- n12 -->
<g id="node2" class="node"><title>n12</title>
<ellipse fill="green" stroke="black" cx="207" cy="-78" rx="27" ry="18"/>
<text text-anchor="middle" x="207" y="-76.1" font-family="Helvetica,sans-Serif" font-size="8.00">Dummy Node</text>
</g>
<!-- n12&#45;&gt;n2 -->
<g id="edge1" class="edge"><title>n12&#45;&gt;n2</title>
<path fill="none" stroke="blue" d="M180.289,-73.9129C153.297,-69.5907 109.633,-62.51 72,-56 69.3654,-55.5442 66.6433,-55.0663 63.9051,-54.5805"/>
<polygon fill="blue" stroke="blue" points="64.506,-51.1325 54.0451,-52.8116 63.2699,-58.0225 64.506,-51.1325"/>
<text text-anchor="middle" x="115" y="-89.6" font-family="Helvetica,sans-Serif" font-size="8.00">operation:mmap (write)</text>
<text text-anchor="middle" x="115" y="-80.6" font-family="Helvetica,sans-Serif" font-size="8.00">protection:3</text>
<text text-anchor="middle" x="115" y="-71.6" font-family="Helvetica,sans-Serif" font-size="8.00">type:WasGeneratedBy</text>
</g>
<!-- n17 -->
<g id="node3" class="node"><title>n17</title>
<ellipse fill="#fff68f" stroke="black" cx="207" cy="-19" rx="30.3115" ry="19.1842"/>
<text text-anchor="middle" x="207" y="-17.1" font-family="Helvetica,sans-Serif" font-size="8.00">size:1000</text>
<text text-anchor="middle" x="207" y="-8.1" font-family="Helvetica,sans-Serif" font-size="8.00">type:Artifact</text>
</g>
<!-- n17&#45;&gt;n2 -->
<g id="edge2" class="edge"><title>n17&#45;&gt;n2</title>
<path fill="none" stroke="blue" d="M177.36,-14.722C149.764,-11.637 107.142,-9.62425 72,-20 67.8969,-21.2115 63.8095,-22.9296 59.8718,-24.926"/>
<polygon fill="blue" stroke="blue" points="57.9663,-21.9836 51.0185,-29.9822 61.4379,-28.0622 57.9663,-21.9836"/>
<text text-anchor="middle" x="115" y="-40.6" font-family="Helvetica,sans-Serif" font-size="8.00">operation:mprotect</text>
<text text-anchor="middle" x="115" y="-31.6" font-family="Helvetica,sans-Serif" font-size="8.00">protection:1</text>
<text text-anchor="middle" x="115" y="-22.6" font-family="Helvetica,sans-Serif" font-size="8.00">type:WasGeneratedBy</text>
</g>
</g>
</svg>
