<?xml version="1.0" encoding="UTF-8" standalone="no"?>
<!DOCTYPE svg PUBLIC "-//W3C//DTD SVG 1.1//EN"
 "http://www.w3.org/Graphics/SVG/1.1/DTD/svg11.dtd">
<!-- Generated by graphviz version 2.36.0 (20140111.2315)
 -->
<!-- Title: clingo2dot Pages: 1 -->
<svg width="246pt" height="112pt"
 viewBox="0.00 0.00 246.00 112.00" xmlns="http://www.w3.org/2000/svg" xmlns:xlink="http://www.w3.org/1999/xlink">
<g id="graph0" class="graph" transform="scale(1 1) rotate(0) translate(4 108)">
<title>clingo2dot</title>
<polygon fill="white" stroke="none" points="-4,4 -4,-108 242,-108 242,4 -4,4"/>
<!-- n17 -->
<g id="node1" class="node"><title>n17</title>
<ellipse fill="#fff68f" stroke="black" cx="207" cy="-77" rx="30.3115" ry="19.1842"/>
<text text-anchor="middle" x="207" y="-75.1" font-family="Helvetica,sans-Serif" font-size="8.00">size:1000</text>
<text text-anchor="middle" x="207" y="-66.1" font-family="Helvetica,sans-Serif" font-size="8.00">type:Artifact</text>
</g>
<!-- n2 -->
<g id="node3" class="node"><title>n2</title>
<polygon fill="#cae1ff" stroke="black" points="54,-65 0,-65 0,-29 54,-29 54,-65"/>
<text text-anchor="middle" x="27" y="-45.1" font-family="Helvetica,sans-Serif" font-size="8.00">ppid:31219</text>
<text text-anchor="middle" x="27" y="-36.1" font-family="Helvetica,sans-Serif" font-size="8.00">type:Process</text>
</g>
<!-- n17&#45;&gt;n2 -->
<g id="edge1" class="edge"><title>n17&#45;&gt;n2</title>
<path fill="none" stroke="blue" d="M177.223,-72.4215C150.071,-68.067 108.239,-61.2689 72,-55 69.3654,-54.5442 66.6433,-54.0663 63.9051,-53.5805"/>
<polygon fill="blue" stroke="blue" points="64.506,-50.1325 54.0451,-51.8116 63.2699,-57.0225 64.506,-50.1325"/>
<text text-anchor="middle" x="115" y="-88.6" font-family="Helvetica,sans-Serif" font-size="8.00">protection:1</text>
<text text-anchor="middle" x="115" y="-79.6" font-family="Helvetica,sans-Serif" font-size="8.00">operation:mprotect</text>
<text text-anchor="middle" x="115" y="-70.6" font-family="Helvetica,sans-Serif" font-size="8.00">type:WasGeneratedBy</text>
</g>
<!-- n12 -->
<g id="node2" class="node"><title>n12</title>
<ellipse fill="green" stroke="black" cx="207" cy="-18" rx="27" ry="18"/>
<text text-anchor="middle" x="207" y="-16.1" font-family="Helvetica,sans-Serif" font-size="8.00">Dummy Node</text>
</g>
<!-- n12&#45;&gt;n2 -->
<g id="edge2" class="edge"><title>n12&#45;&gt;n2</title>
<path fill="none" stroke="blue" d="M180.447,-14.0786C153.022,-10.8084 108.481,-8.22899 72,-19 67.8969,-20.2115 63.8095,-21.9296 59.8718,-23.926"/>
<polygon fill="blue" stroke="blue" points="57.9663,-20.9836 51.0185,-28.9822 61.4379,-27.0622 57.9663,-20.9836"/>
<text text-anchor="middle" x="115" y="-39.6" font-family="Helvetica,sans-Serif" font-size="8.00">protection:3</text>
<text text-anchor="middle" x="115" y="-30.6" font-family="Helvetica,sans-Serif" font-size="8.00">operation:mmap (write)</text>
<text text-anchor="middle" x="115" y="-21.6" font-family="Helvetica,sans-Serif" font-size="8.00">type:WasGeneratedBy</text>
</g>
</g>
</svg>
