<?xml version="1.0" encoding="UTF-8" standalone="no"?>
<!DOCTYPE svg PUBLIC "-//W3C//DTD SVG 1.1//EN"
 "http://www.w3.org/Graphics/SVG/1.1/DTD/svg11.dtd">
<!-- Generated by graphviz version 2.36.0 (20140111.2315)
 -->
<!-- Title: clingo2dot Pages: 1 -->
<svg width="428pt" height="421pt"
 viewBox="0.00 0.00 428.00 421.00" xmlns="http://www.w3.org/2000/svg" xmlns:xlink="http://www.w3.org/1999/xlink">
<g id="graph0" class="graph" transform="scale(1 1) rotate(0) translate(4 417)">
<title>clingo2dot</title>
<polygon fill="white" stroke="none" points="-4,4 -4,-417 424,-417 424,4 -4,4"/>
<!-- n13 -->
<g id="node1" class="node"><title>n13</title>
<ellipse fill="green" stroke="black" cx="381" cy="-296" rx="27" ry="18"/>
<text text-anchor="middle" x="381" y="-294.1" font-family="Helvetica,sans-Serif" font-size="8.00">Dummy Node</text>
</g>
<!-- n2 -->
<g id="node3" class="node"><title>n2</title>
<polygon fill="#cae1ff" stroke="black" points="228,-175 174,-175 174,-139 228,-139 228,-175"/>
<text text-anchor="middle" x="201" y="-155.1" font-family="Helvetica,sans-Serif" font-size="8.00">ppid:32148</text>
<text text-anchor="middle" x="201" y="-146.1" font-family="Helvetica,sans-Serif" font-size="8.00">type:Process</text>
</g>
<!-- n13&#45;&gt;n2 -->
<g id="edge1" class="edge"><title>n13&#45;&gt;n2</title>
<path fill="none" stroke="blue" d="M354.24,-298.892C324.763,-300.742 276.624,-299.116 246,-274 219.336,-252.131 208.821,-212.331 204.68,-185.287"/>
<polygon fill="blue" stroke="blue" points="208.135,-184.713 203.345,-175.263 201.196,-185.638 208.135,-184.713"/>
<text text-anchor="middle" x="289" y="-319.6" font-family="Helvetica,sans-Serif" font-size="8.00">operation:mmap (write)</text>
<text text-anchor="middle" x="289" y="-310.6" font-family="Helvetica,sans-Serif" font-size="8.00">protection:3</text>
<text text-anchor="middle" x="289" y="-301.6" font-family="Helvetica,sans-Serif" font-size="8.00">type:WasGeneratedBy</text>
</g>
<!-- n15 -->
<g id="node2" class="node"><title>n15</title>
<ellipse fill="green" stroke="black" cx="381" cy="-240" rx="27" ry="18"/>
<text text-anchor="middle" x="381" y="-238.1" font-family="Helvetica,sans-Serif" font-size="8.00">Dummy Node</text>
</g>
<!-- n15&#45;&gt;n2 -->
<g id="edge4" class="edge"><title>n15&#45;&gt;n2</title>
<path fill="none" stroke="blue" d="M354.054,-238.228C325.695,-235.286 279.799,-227.504 246,-207 236.111,-201.001 227.232,-192.056 220.084,-183.383"/>
<polygon fill="blue" stroke="blue" points="222.677,-181.015 213.784,-175.256 217.145,-185.304 222.677,-181.015"/>
<text text-anchor="middle" x="289" y="-254.6" font-family="Helvetica,sans-Serif" font-size="8.00">operation:mprotect</text>
<text text-anchor="middle" x="289" y="-245.6" font-family="Helvetica,sans-Serif" font-size="8.00">protection:1</text>
<text text-anchor="middle" x="289" y="-236.6" font-family="Helvetica,sans-Serif" font-size="8.00">type:WasGeneratedBy</text>
</g>
<!-- n6 -->
<g id="node4" class="node"><title>n6</title>
<ellipse fill="green" stroke="black" cx="27" cy="-184" rx="27" ry="18"/>
<text text-anchor="middle" x="27" y="-182.1" font-family="Helvetica,sans-Serif" font-size="8.00">Dummy Node</text>
</g>
<!-- n2&#45;&gt;n6 -->
<g id="edge3" class="edge"><title>n2&#45;&gt;n6</title>
<path fill="none" stroke="blue" d="M173.877,-161.101C144.451,-165.72 96.4592,-173.253 63.6143,-178.409"/>
<polygon fill="blue" stroke="blue" points="62.8615,-174.985 53.5253,-179.993 63.9471,-181.9 62.8615,-174.985"/>
<text text-anchor="middle" x="114" y="-187.6" font-family="Helvetica,sans-Serif" font-size="8.00">operation:mmap (read)</text>
<text text-anchor="middle" x="114" y="-178.6" font-family="Helvetica,sans-Serif" font-size="8.00">type:Used</text>
</g>
<!-- n8 -->
<g id="node5" class="node"><title>n8</title>
<ellipse fill="green" stroke="black" cx="27" cy="-130" rx="27" ry="18"/>
<text text-anchor="middle" x="27" y="-128.1" font-family="Helvetica,sans-Serif" font-size="8.00">Dummy Node</text>
</g>
<!-- n2&#45;&gt;n8 -->
<g id="edge2" class="edge"><title>n2&#45;&gt;n8</title>
<path fill="none" stroke="blue" d="M173.714,-141.612C168.042,-138.939 161.956,-136.529 156,-135 125.709,-127.222 90.0727,-126.48 64.1041,-127.392"/>
<polygon fill="blue" stroke="blue" points="63.7926,-123.902 53.9602,-127.849 64.1076,-130.895 63.7926,-123.902"/>
<text text-anchor="middle" x="114" y="-146.6" font-family="Helvetica,sans-Serif" font-size="8.00">operation:mmap (read)</text>
<text text-anchor="middle" x="114" y="-137.6" font-family="Helvetica,sans-Serif" font-size="8.00">type:Used</text>
</g>
<!-- n11 -->
<g id="node6" class="node"><title>n11</title>
<ellipse fill="#fff68f" stroke="black" cx="381" cy="-185" rx="30.3115" ry="19.1842"/>
<text text-anchor="middle" x="381" y="-183.1" font-family="Helvetica,sans-Serif" font-size="8.00">size:6000</text>
<text text-anchor="middle" x="381" y="-174.1" font-family="Helvetica,sans-Serif" font-size="8.00">type:Artifact</text>
</g>
<!-- n11&#45;&gt;n2 -->
<g id="edge7" class="edge"><title>n11&#45;&gt;n2</title>
<path fill="none" stroke="blue" d="M351.401,-180.501C320.719,-175.675 271.903,-167.996 238.477,-162.738"/>
<polygon fill="blue" stroke="blue" points="238.63,-159.219 228.208,-161.123 237.542,-166.134 238.63,-159.219"/>
<text text-anchor="middle" x="289" y="-187.6" font-family="Helvetica,sans-Serif" font-size="8.00">protection:3</text>
<text text-anchor="middle" x="289" y="-178.6" font-family="Helvetica,sans-Serif" font-size="8.00">type:WasGeneratedBy</text>
</g>
<!-- n16 -->
<g id="node7" class="node"><title>n16</title>
<ellipse fill="green" stroke="black" cx="381" cy="-130" rx="27" ry="18"/>
<text text-anchor="middle" x="381" y="-128.1" font-family="Helvetica,sans-Serif" font-size="8.00">Dummy Node</text>
</g>
<!-- n16&#45;&gt;n2 -->
<g id="edge9" class="edge"><title>n16&#45;&gt;n2</title>
<path fill="none" stroke="blue" d="M354.123,-128.143C326.809,-126.877 282.711,-126.82 246,-136 243.229,-136.693 240.423,-137.568 237.641,-138.566"/>
<polygon fill="blue" stroke="blue" points="236.3,-135.333 228.353,-142.34 238.935,-141.818 236.3,-135.333"/>
<text text-anchor="middle" x="289" y="-147.6" font-family="Helvetica,sans-Serif" font-size="8.00">operation:mprotect</text>
<text text-anchor="middle" x="289" y="-138.6" font-family="Helvetica,sans-Serif" font-size="8.00">type:WasGeneratedBy</text>
</g>
<!-- n9 -->
<g id="node8" class="node"><title>n9</title>
<ellipse fill="#fff68f" stroke="black" cx="381" cy="-75" rx="30.3115" ry="19.1842"/>
<text text-anchor="middle" x="381" y="-73.1" font-family="Helvetica,sans-Serif" font-size="8.00">size:3c42c0</text>
<text text-anchor="middle" x="381" y="-64.1" font-family="Helvetica,sans-Serif" font-size="8.00">type:Artifact</text>
</g>
<!-- n9&#45;&gt;n2 -->
<g id="edge6" class="edge"><title>n9&#45;&gt;n2</title>
<path fill="none" stroke="blue" d="M350.606,-73.3218C321.87,-73.0523 277.906,-76.4083 246,-96 232.877,-104.058 222.506,-117.638 215.138,-129.942"/>
<polygon fill="blue" stroke="blue" points="211.906,-128.551 210.093,-138.99 218.02,-131.961 211.906,-128.551"/>
<text text-anchor="middle" x="289" y="-107.6" font-family="Helvetica,sans-Serif" font-size="8.00">protection:5</text>
<text text-anchor="middle" x="289" y="-98.6" font-family="Helvetica,sans-Serif" font-size="8.00">type:WasGeneratedBy</text>
</g>
<!-- n5 -->
<g id="node9" class="node"><title>n5</title>
<ellipse fill="green" stroke="black" cx="381" cy="-18" rx="27" ry="18"/>
<text text-anchor="middle" x="381" y="-16.1" font-family="Helvetica,sans-Serif" font-size="8.00">Dummy Node</text>
</g>
<!-- n5&#45;&gt;n2 -->
<g id="edge5" class="edge"><title>n5&#45;&gt;n2</title>
<path fill="none" stroke="blue" d="M354.829,-13.5007C325.464,-9.75129 276.993,-8.41279 246,-33 216.961,-56.0369 207.057,-99.6906 203.698,-128.569"/>
<polygon fill="blue" stroke="blue" points="200.183,-128.549 202.704,-138.839 207.151,-129.223 200.183,-128.549"/>
<text text-anchor="middle" x="289" y="-53.6" font-family="Helvetica,sans-Serif" font-size="8.00">operation:mmap (write)</text>
<text text-anchor="middle" x="289" y="-44.6" font-family="Helvetica,sans-Serif" font-size="8.00">protection:3</text>
<text text-anchor="middle" x="289" y="-35.6" font-family="Helvetica,sans-Serif" font-size="8.00">type:WasGeneratedBy</text>
</g>
<!-- n19 -->
<g id="node10" class="node"><title>n19</title>
<ellipse fill="green" stroke="black" cx="381" cy="-350" rx="27" ry="18"/>
<text text-anchor="middle" x="381" y="-348.1" font-family="Helvetica,sans-Serif" font-size="8.00">Dummy Node</text>
</g>
<!-- n19&#45;&gt;n19 -->
<g id="edge8" class="edge"><title>n19&#45;&gt;n19</title>
<path fill="none" stroke="blue" d="M396.393,-364.792C401.404,-375.417 396.273,-386 381,-386 370.738,-386 365.055,-381.222 363.95,-374.865"/>
<polygon fill="blue" stroke="blue" points="367.437,-375.227 365.607,-364.792 360.53,-374.091 367.437,-375.227"/>
<text text-anchor="middle" x="381" y="-397.6" font-family="Helvetica,sans-Serif" font-size="8.00">source:/dev/audit</text>
<text text-anchor="middle" x="381" y="-388.6" font-family="Helvetica,sans-Serif" font-size="8.00">type:WasTriggeredBy</text>
</g>
</g>
</svg>
