<?xml version="1.0" encoding="UTF-8" standalone="no"?>
<!DOCTYPE svg PUBLIC "-//W3C//DTD SVG 1.1//EN"
 "http://www.w3.org/Graphics/SVG/1.1/DTD/svg11.dtd">
<!-- Generated by graphviz version 2.36.0 (20140111.2315)
 -->
<!-- Title: clingo2dot Pages: 1 -->
<svg width="242pt" height="63pt"
 viewBox="0.00 0.00 242.00 63.00" xmlns="http://www.w3.org/2000/svg" xmlns:xlink="http://www.w3.org/1999/xlink">
<g id="graph0" class="graph" transform="scale(1 1) rotate(0) translate(4 59)">
<title>clingo2dot</title>
<polygon fill="white" stroke="none" points="-4,4 -4,-59 238,-59 238,4 -4,4"/>
<!-- n17 -->
<g id="node1" class="node"><title>n17</title>
<ellipse fill="#fff68f" stroke="black" cx="203" cy="-19" rx="30.3115" ry="19.1842"/>
<text text-anchor="middle" x="203" y="-17.1" font-family="Helvetica,sans-Serif" font-size="8.00">size:1000</text>
<text text-anchor="middle" x="203" y="-8.1" font-family="Helvetica,sans-Serif" font-size="8.00">type:Artifact</text>
</g>
<!-- n2 -->
<g id="node2" class="node"><title>n2</title>
<polygon fill="#cae1ff" stroke="black" points="54,-37 0,-37 0,-1 54,-1 54,-37"/>
<text text-anchor="middle" x="27" y="-17.1" font-family="Helvetica,sans-Serif" font-size="8.00">ppid:6004</text>
<text text-anchor="middle" x="27" y="-8.1" font-family="Helvetica,sans-Serif" font-size="8.00">type:Process</text>
</g>
<!-- n17&#45;&gt;n2 -->
<g id="edge1" class="edge"><title>n17&#45;&gt;n2</title>
<path fill="none" stroke="blue" d="M172.483,-19C142.691,-19 96.621,-19 64.5404,-19"/>
<polygon fill="blue" stroke="blue" points="64.2409,-15.5001 54.2409,-19 64.2409,-22.5001 64.2409,-15.5001"/>
<text text-anchor="middle" x="113" y="-39.6" font-family="Helvetica,sans-Serif" font-size="8.00">protection:1</text>
<text text-anchor="middle" x="113" y="-30.6" font-family="Helvetica,sans-Serif" font-size="8.00">operation:mprotect</text>
<text text-anchor="middle" x="113" y="-21.6" font-family="Helvetica,sans-Serif" font-size="8.00">type:WasGeneratedBy</text>
</g>
</g>
</svg>
