<?xml version="1.0" encoding="UTF-8" standalone="no"?>
<!DOCTYPE svg PUBLIC "-//W3C//DTD SVG 1.1//EN"
 "http://www.w3.org/Graphics/SVG/1.1/DTD/svg11.dtd">
<!-- Generated by graphviz version 2.40.1 (20161225.0304)
 -->
<!-- Title: clingo2dot Pages: 1 -->
<svg width="257pt" height="98pt"
 viewBox="0.00 0.00 257.00 98.00" xmlns="http://www.w3.org/2000/svg" xmlns:xlink="http://www.w3.org/1999/xlink">
<g id="graph0" class="graph" transform="scale(1 1) rotate(0) translate(4 94)">
<title>clingo2dot</title>
<polygon fill="#ffffff" stroke="transparent" points="-4,4 -4,-94 253,-94 253,4 -4,4"/>
<!-- n3 -->
<g id="node1" class="node">
<title>n3</title>
<polygon fill="#cae1ff" stroke="#000000" points="249,-36 195,-36 195,0 249,0 249,-36"/>
<text text-anchor="middle" x="222" y="-20.6" font-family="Helvetica,sans-Serif" font-size="8.00" fill="#000000">cf:stime:0</text>
<text text-anchor="middle" x="222" y="-11.6" font-family="Helvetica,sans-Serif" font-size="8.00" fill="#000000">cf:ppid:22804</text>
<text text-anchor="middle" x="222" y="-2.6" font-family="Helvetica,sans-Serif" font-size="8.00" fill="#000000">type:activity</text>
</g>
<!-- n10 -->
<g id="node2" class="node">
<title>n10</title>
<ellipse fill="#00ff00" stroke="#000000" cx="27" cy="-18" rx="27" ry="18"/>
<text text-anchor="middle" x="27" y="-16.1" font-family="Helvetica,sans-Serif" font-size="8.00" fill="#000000">Dummy Node</text>
</g>
<!-- n3&#45;&gt;n10 -->
<g id="edge1" class="edge">
<title>n3&#45;&gt;n10</title>
<path fill="none" stroke="#0000ff" d="M194.8861,-18C160.9281,-18 102.5788,-18 64.3952,-18"/>
<polygon fill="#0000ff" stroke="#0000ff" points="64.1973,-14.5001 54.1973,-18 64.1972,-21.5001 64.1973,-14.5001"/>
<text text-anchor="middle" x="124.5" y="-74.6" font-family="Helvetica,sans-Serif" font-size="8.00" fill="#000000">cf:flags:4</text>
<text text-anchor="middle" x="124.5" y="-65.6" font-family="Helvetica,sans-Serif" font-size="8.00" fill="#000000">cf:boot_id:23</text>
<text text-anchor="middle" x="124.5" y="-56.6" font-family="Helvetica,sans-Serif" font-size="8.00" fill="#000000">prov:label:read</text>
<text text-anchor="middle" x="124.5" y="-47.6" font-family="Helvetica,sans-Serif" font-size="8.00" fill="#000000">cf:allowed:true</text>
<text text-anchor="middle" x="124.5" y="-38.6" font-family="Helvetica,sans-Serif" font-size="8.00" fill="#000000">cf:machine_id:cf:2090498927</text>
<text text-anchor="middle" x="124.5" y="-29.6" font-family="Helvetica,sans-Serif" font-size="8.00" fill="#000000">prov:type:read</text>
<text text-anchor="middle" x="124.5" y="-20.6" font-family="Helvetica,sans-Serif" font-size="8.00" fill="#000000">type:used</text>
</g>
</g>
</svg>
