<?xml version="1.0" encoding="UTF-8" standalone="no"?>
<!DOCTYPE svg PUBLIC "-//W3C//DTD SVG 1.1//EN"
 "http://www.w3.org/Graphics/SVG/1.1/DTD/svg11.dtd">
<!-- Generated by graphviz version 2.40.1 (20161225.0304)
 -->
<!-- Title: clingo2dot Pages: 1 -->
<svg width="1252pt" height="274pt"
 viewBox="0.00 0.00 1252.00 274.00" xmlns="http://www.w3.org/2000/svg" xmlns:xlink="http://www.w3.org/1999/xlink">
<g id="graph0" class="graph" transform="scale(1 1) rotate(0) translate(4 270)">
<title>clingo2dot</title>
<polygon fill="#ffffff" stroke="transparent" points="-4,4 -4,-270 1248,-270 1248,4 -4,4"/>
<!-- n1 -->
<g id="node1" class="node">
<title>n1</title>
<polygon fill="#cae1ff" stroke="#000000" points="1244,-67 1190,-67 1190,-31 1244,-31 1244,-67"/>
<text text-anchor="middle" x="1217" y="-47.1" font-family="Helvetica,sans-Serif" font-size="8.00" fill="#000000">type:activity</text>
</g>
<!-- n5 -->
<g id="node5" class="node">
<title>n5</title>
<polygon fill="#cae1ff" stroke="#000000" points="1081,-67 1027,-67 1027,-31 1081,-31 1081,-67"/>
<text text-anchor="middle" x="1054" y="-47.1" font-family="Helvetica,sans-Serif" font-size="8.00" fill="#000000">type:activity</text>
</g>
<!-- n1&#45;&gt;n5 -->
<g id="edge9" class="edge">
<title>n1&#45;&gt;n5</title>
<path fill="none" stroke="#0000ff" d="M1189.7175,-49C1162.721,-49 1121.199,-49 1091.1911,-49"/>
<polygon fill="#0000ff" stroke="#0000ff" points="1091.0999,-45.5001 1081.0998,-49 1091.0998,-52.5001 1091.0999,-45.5001"/>
<text text-anchor="middle" x="1135.5" y="-51.6" font-family="Helvetica,sans-Serif" font-size="8.00" fill="#000000">type:wasInformedBy</text>
</g>
<!-- n2 -->
<g id="node2" class="node">
<title>n2</title>
<polygon fill="#cae1ff" stroke="#000000" points="1081,-121 1027,-121 1027,-85 1081,-85 1081,-121"/>
<text text-anchor="middle" x="1054" y="-101.1" font-family="Helvetica,sans-Serif" font-size="8.00" fill="#000000">type:activity</text>
</g>
<!-- n4 -->
<g id="node4" class="node">
<title>n4</title>
<polygon fill="#cae1ff" stroke="#000000" points="918,-100 864,-100 864,-64 918,-64 918,-100"/>
<text text-anchor="middle" x="891" y="-80.1" font-family="Helvetica,sans-Serif" font-size="8.00" fill="#000000">type:activity</text>
</g>
<!-- n2&#45;&gt;n4 -->
<g id="edge10" class="edge">
<title>n2&#45;&gt;n4</title>
<path fill="none" stroke="#0000ff" d="M1026.7175,-99.4851C999.721,-96.007 958.199,-90.6575 928.1911,-86.7915"/>
<polygon fill="#0000ff" stroke="#0000ff" points="928.4651,-83.2979 918.0998,-85.4914 927.5706,-90.2406 928.4651,-83.2979"/>
<text text-anchor="middle" x="972.5" y="-98.6" font-family="Helvetica,sans-Serif" font-size="8.00" fill="#000000">type:wasInformedBy</text>
</g>
<!-- n3 -->
<g id="node3" class="node">
<title>n3</title>
<polygon fill="#cae1ff" stroke="#000000" points="561,-154 507,-154 507,-118 561,-118 561,-154"/>
<text text-anchor="middle" x="534" y="-134.1" font-family="Helvetica,sans-Serif" font-size="8.00" fill="#000000">type:activity</text>
</g>
<!-- n6 -->
<g id="node6" class="node">
<title>n6</title>
<ellipse fill="#fff68f" stroke="#000000" cx="196" cy="-93" rx="27" ry="18"/>
<text text-anchor="middle" x="196" y="-91.1" font-family="Helvetica,sans-Serif" font-size="8.00" fill="#000000">type:entity</text>
</g>
<!-- n3&#45;&gt;n6 -->
<g id="edge1" class="edge">
<title>n3&#45;&gt;n6</title>
<path fill="none" stroke="#0000ff" d="M506.8468,-137.0409C481.6836,-137.707 443.2371,-137.966 410,-135 334.0927,-128.2261 315.278,-123.0463 241,-106 237.5671,-105.2122 234.0077,-104.3188 230.4628,-103.3781"/>
<polygon fill="#0000ff" stroke="#0000ff" points="231.2,-99.9505 220.6283,-100.6504 229.329,-106.6959 231.2,-99.9505"/>
<text text-anchor="middle" x="365" y="-135.6" font-family="Helvetica,sans-Serif" font-size="8.00" fill="#000000">type:used</text>
</g>
<!-- n7 -->
<g id="node7" class="node">
<title>n7</title>
<ellipse fill="#fff68f" stroke="#000000" cx="365" cy="-93" rx="27" ry="18"/>
<text text-anchor="middle" x="365" y="-91.1" font-family="Helvetica,sans-Serif" font-size="8.00" fill="#000000">type:entity</text>
</g>
<!-- n3&#45;&gt;n7 -->
<g id="edge4" class="edge">
<title>n3&#45;&gt;n7</title>
<path fill="none" stroke="#0000ff" d="M520.2631,-117.9314C512.2511,-108.9164 501.3086,-98.909 489,-94 461.0553,-82.8548 426.6691,-83.5796 401.2013,-86.5362"/>
<polygon fill="#0000ff" stroke="#0000ff" points="400.6753,-83.0753 391.2226,-87.8602 401.5961,-90.0144 400.6753,-83.0753"/>
<text text-anchor="middle" x="449.5" y="-96.6" font-family="Helvetica,sans-Serif" font-size="8.00" fill="#000000">type:used</text>
</g>
<!-- n3&#45;&gt;n7 -->
<g id="edge5" class="edge">
<title>n3&#45;&gt;n7</title>
<path fill="none" stroke="#0000ff" d="M506.8472,-129.0913C477.8846,-121.7221 431.9034,-110.0228 400.1843,-101.9522"/>
<polygon fill="#0000ff" stroke="#0000ff" points="400.981,-98.5435 390.4268,-99.4695 399.2549,-105.3273 400.981,-98.5435"/>
<text text-anchor="middle" x="449.5" y="-126.6" font-family="Helvetica,sans-Serif" font-size="8.00" fill="#000000">type:used</text>
</g>
<!-- n13 -->
<g id="node13" class="node">
<title>n13</title>
<ellipse fill="#fff68f" stroke="#000000" cx="365" cy="-248" rx="27" ry="18"/>
<text text-anchor="middle" x="365" y="-246.1" font-family="Helvetica,sans-Serif" font-size="8.00" fill="#000000">type:entity</text>
</g>
<!-- n3&#45;&gt;n13 -->
<g id="edge2" class="edge">
<title>n3&#45;&gt;n13</title>
<path fill="none" stroke="#0000ff" d="M524.7788,-154.2054C516.9237,-168.1233 504.4614,-186.9149 489,-199 462.9174,-219.3869 427.2774,-232.2879 400.8987,-239.7045"/>
<polygon fill="#0000ff" stroke="#0000ff" points="399.6829,-236.4067 390.9276,-242.3728 401.4925,-243.1688 399.6829,-236.4067"/>
<text text-anchor="middle" x="449.5" y="-238.6" font-family="Helvetica,sans-Serif" font-size="8.00" fill="#000000">type:used</text>
</g>
<!-- n14 -->
<g id="node14" class="node">
<title>n14</title>
<ellipse fill="#fff68f" stroke="#000000" cx="365" cy="-194" rx="27" ry="18"/>
<text text-anchor="middle" x="365" y="-192.1" font-family="Helvetica,sans-Serif" font-size="8.00" fill="#000000">type:entity</text>
</g>
<!-- n3&#45;&gt;n14 -->
<g id="edge3" class="edge">
<title>n3&#45;&gt;n14</title>
<path fill="none" stroke="#0000ff" d="M506.5849,-154.1827C500.9266,-157.4348 494.8921,-160.5594 489,-163 460.5306,-174.7924 426.4604,-182.9131 401.2429,-187.8755"/>
<polygon fill="#0000ff" stroke="#0000ff" points="400.535,-184.4473 391.3616,-189.7481 401.8384,-191.3248 400.535,-184.4473"/>
<text text-anchor="middle" x="449.5" y="-188.6" font-family="Helvetica,sans-Serif" font-size="8.00" fill="#000000">type:used</text>
</g>
<!-- n4&#45;&gt;n3 -->
<g id="edge11" class="edge">
<title>n4&#45;&gt;n3</title>
<path fill="none" stroke="#0000ff" d="M863.5469,-90.5816C857.7872,-92.1983 851.7236,-93.7664 846,-95 748.2118,-116.0766 630.6963,-127.978 571.6999,-133.0469"/>
<polygon fill="#0000ff" stroke="#0000ff" points="571.0544,-129.5887 561.3829,-133.9145 571.641,-136.5641 571.0544,-129.5887"/>
<text text-anchor="middle" x="712.5" y="-124.6" font-family="Helvetica,sans-Serif" font-size="8.00" fill="#000000">type:wasInformedBy</text>
</g>
<!-- n9 -->
<g id="node9" class="node">
<title>n9</title>
<ellipse fill="#fff68f" stroke="#000000" cx="712.5" cy="-23" rx="27" ry="18"/>
<text text-anchor="middle" x="712.5" y="-21.1" font-family="Helvetica,sans-Serif" font-size="8.00" fill="#000000">type:entity</text>
</g>
<!-- n4&#45;&gt;n9 -->
<g id="edge6" class="edge">
<title>n4&#45;&gt;n9</title>
<path fill="none" stroke="#0000ff" d="M863.8897,-73.0392C832.3776,-62.6234 780.3479,-45.4259 746.246,-34.1541"/>
<polygon fill="#0000ff" stroke="#0000ff" points="747.3014,-30.8168 736.7082,-31.0016 745.1046,-37.4632 747.3014,-30.8168"/>
<text text-anchor="middle" x="806.5" y="-68.6" font-family="Helvetica,sans-Serif" font-size="8.00" fill="#000000">type:used</text>
</g>
<!-- n11 -->
<g id="node11" class="node">
<title>n11</title>
<ellipse fill="#fff68f" stroke="#000000" cx="712.5" cy="-82" rx="27" ry="18"/>
<text text-anchor="middle" x="712.5" y="-80.1" font-family="Helvetica,sans-Serif" font-size="8.00" fill="#000000">type:entity</text>
</g>
<!-- n4&#45;&gt;n11 -->
<g id="edge7" class="edge">
<title>n4&#45;&gt;n11</title>
<path fill="none" stroke="#0000ff" d="M863.8897,-82C833.3967,-82 783.6917,-82 749.6095,-82"/>
<polygon fill="#0000ff" stroke="#0000ff" points="749.5725,-78.5001 739.5724,-82 749.5724,-85.5001 749.5725,-78.5001"/>
<text text-anchor="middle" x="806.5" y="-84.6" font-family="Helvetica,sans-Serif" font-size="8.00" fill="#000000">type:used</text>
</g>
<!-- n5&#45;&gt;n4 -->
<g id="edge12" class="edge">
<title>n5&#45;&gt;n4</title>
<path fill="none" stroke="#0000ff" d="M1026.7175,-54.5235C999.721,-59.989 958.199,-68.3953 928.1911,-74.4705"/>
<polygon fill="#0000ff" stroke="#0000ff" points="927.2065,-71.0988 918.0998,-76.5135 928.5955,-77.9596 927.2065,-71.0988"/>
<text text-anchor="middle" x="972.5" y="-74.6" font-family="Helvetica,sans-Serif" font-size="8.00" fill="#000000">type:wasInformedBy</text>
</g>
<!-- n12 -->
<g id="node12" class="node">
<title>n12</title>
<ellipse fill="#fff68f" stroke="#000000" cx="27" cy="-93" rx="27" ry="18"/>
<text text-anchor="middle" x="27" y="-91.1" font-family="Helvetica,sans-Serif" font-size="8.00" fill="#000000">type:entity</text>
</g>
<!-- n6&#45;&gt;n12 -->
<g id="edge13" class="edge">
<title>n6&#45;&gt;n12</title>
<path fill="none" stroke="#0000ff" d="M168.8472,-93C140.513,-93 95.8905,-93 64.2686,-93"/>
<polygon fill="#0000ff" stroke="#0000ff" points="64.0854,-89.5001 54.0854,-93 64.0854,-96.5001 64.0854,-89.5001"/>
<text text-anchor="middle" x="111.5" y="-95.6" font-family="Helvetica,sans-Serif" font-size="8.00" fill="#000000">type:wasDerivedFrom</text>
</g>
<!-- n7&#45;&gt;n6 -->
<g id="edge14" class="edge">
<title>n7&#45;&gt;n6</title>
<path fill="none" stroke="#0000ff" d="M337.8472,-93C309.513,-93 264.8905,-93 233.2686,-93"/>
<polygon fill="#0000ff" stroke="#0000ff" points="233.0854,-89.5001 223.0854,-93 233.0854,-96.5001 233.0854,-89.5001"/>
<text text-anchor="middle" x="280.5" y="-95.6" font-family="Helvetica,sans-Serif" font-size="8.00" fill="#000000">type:wasDerivedFrom</text>
</g>
<!-- n8 -->
<g id="node8" class="node">
<title>n8</title>
<ellipse fill="#fff68f" stroke="#000000" cx="534" cy="-68" rx="27" ry="18"/>
<text text-anchor="middle" x="534" y="-66.1" font-family="Helvetica,sans-Serif" font-size="8.00" fill="#000000">type:entity</text>
</g>
<!-- n8&#45;&gt;n7 -->
<g id="edge15" class="edge">
<title>n8&#45;&gt;n7</title>
<path fill="none" stroke="#0000ff" d="M508.6571,-61.7798C483.1335,-56.6607 442.928,-51.7559 410,-62 402.7758,-64.2475 395.6855,-68.1032 389.3467,-72.3469"/>
<polygon fill="#0000ff" stroke="#0000ff" points="387.2503,-69.5438 381.2269,-78.2598 391.371,-75.2025 387.2503,-69.5438"/>
<text text-anchor="middle" x="449.5" y="-64.6" font-family="Helvetica,sans-Serif" font-size="8.00" fill="#000000">type:wasDerivedFrom</text>
</g>
<!-- n9&#45;&gt;n3 -->
<g id="edge8" class="edge">
<title>n9&#45;&gt;n3</title>
<path fill="none" stroke="#0000ff" d="M692.7154,-35.5247C663.0514,-54.3036 606.594,-90.0441 569.632,-113.443"/>
<polygon fill="#0000ff" stroke="#0000ff" points="567.7193,-110.5114 561.1422,-118.8176 571.4635,-116.4259 567.7193,-110.5114"/>
<text text-anchor="middle" x="618.5" y="-107.6" font-family="Helvetica,sans-Serif" font-size="8.00" fill="#000000">type:wasGeneratedBy</text>
</g>
<!-- n9&#45;&gt;n6 -->
<g id="edge16" class="edge">
<title>n9&#45;&gt;n6</title>
<path fill="none" stroke="#0000ff" d="M685.2252,-23.3129C632.0114,-24.2518 510.733,-28.005 410,-43 345.852,-52.549 272.5406,-71.4618 230.5175,-83.0931"/>
<polygon fill="#0000ff" stroke="#0000ff" points="229.4731,-79.7508 220.7836,-85.8124 231.3566,-86.4926 229.4731,-79.7508"/>
<text text-anchor="middle" x="449.5" y="-45.6" font-family="Helvetica,sans-Serif" font-size="8.00" fill="#000000">type:wasDerivedFrom</text>
</g>
<!-- n10 -->
<g id="node10" class="node">
<title>n10</title>
<ellipse fill="#fff68f" stroke="#000000" cx="891" cy="-18" rx="27" ry="18"/>
<text text-anchor="middle" x="891" y="-16.1" font-family="Helvetica,sans-Serif" font-size="8.00" fill="#000000">type:entity</text>
</g>
<!-- n10&#45;&gt;n9 -->
<g id="edge17" class="edge">
<title>n10&#45;&gt;n9</title>
<path fill="none" stroke="#0000ff" d="M863.8956,-17.7107C838.766,-17.563 800.3416,-17.6435 767,-19 761.3716,-19.229 755.4223,-19.5669 749.6037,-19.951"/>
<polygon fill="#0000ff" stroke="#0000ff" points="749.0957,-16.4782 739.369,-20.6785 749.592,-23.4606 749.0957,-16.4782"/>
<text text-anchor="middle" x="806.5" y="-21.6" font-family="Helvetica,sans-Serif" font-size="8.00" fill="#000000">type:wasDerivedFrom</text>
</g>
</g>
</svg>
