<?xml version="1.0" encoding="UTF-8" standalone="no"?>
<!DOCTYPE svg PUBLIC "-//W3C//DTD SVG 1.1//EN"
 "http://www.w3.org/Graphics/SVG/1.1/DTD/svg11.dtd">
<!-- Generated by graphviz version 2.36.0 (20140111.2315)
 -->
<!-- Title: clingo2dot Pages: 1 -->
<svg width="852pt" height="143pt"
 viewBox="0.00 0.00 852.00 143.00" xmlns="http://www.w3.org/2000/svg" xmlns:xlink="http://www.w3.org/1999/xlink">
<g id="graph0" class="graph" transform="scale(1 1) rotate(0) translate(4 139)">
<title>clingo2dot</title>
<polygon fill="white" stroke="none" points="-4,4 -4,-139 848,-139 848,4 -4,4"/>
<!-- n81 -->
<g id="node1" class="node"><title>n81</title>
<polygon fill="#cae1ff" stroke="black" points="593.5,-49 432.5,-49 432.5,-13 593.5,-13 593.5,-49"/>
<text text-anchor="middle" x="513" y="-33.6" font-family="Helvetica,sans-Serif" font-size="8.00">name:[&#39;/home/arthur/ProvMark/stage/test.txt&#39;]</text>
<text text-anchor="middle" x="513" y="-24.6" font-family="Helvetica,sans-Serif" font-size="8.00">node_id:79</text>
<text text-anchor="middle" x="513" y="-15.6" font-family="Helvetica,sans-Serif" font-size="8.00">type:2</text>
</g>
<!-- n80 -->
<g id="node5" class="node"><title>n80</title>
<polygon fill="#cae1ff" stroke="black" points="344,-69.5 290,-69.5 290,-24.5 344,-24.5 344,-69.5"/>
<text text-anchor="middle" x="317" y="-54.1" font-family="Helvetica,sans-Serif" font-size="8.00">ref_count:1</text>
<text text-anchor="middle" x="317" y="-45.1" font-family="Helvetica,sans-Serif" font-size="8.00">name:omega</text>
<text text-anchor="middle" x="317" y="-36.1" font-family="Helvetica,sans-Serif" font-size="8.00">node_id:78</text>
<text text-anchor="middle" x="317" y="-27.1" font-family="Helvetica,sans-Serif" font-size="8.00">type:4</text>
</g>
<!-- n81&#45;&gt;n80 -->
<g id="edge1" class="edge"><title>n81&#45;&gt;n80</title>
<path fill="none" stroke="blue" d="M432.182,-26.7872C409.382,-26.8639 384.596,-28.1768 362,-32 359.332,-32.4515 356.608,-33.042 353.888,-33.7274"/>
<polygon fill="blue" stroke="blue" points="352.797,-30.3996 344.167,-36.5462 354.746,-37.1227 352.797,-30.3996"/>
<text text-anchor="middle" x="388" y="-43.6" font-family="Helvetica,sans-Serif" font-size="8.00">state:0</text>
<text text-anchor="middle" x="388" y="-34.6" font-family="Helvetica,sans-Serif" font-size="8.00">type:relatedTo</text>
</g>
<!-- n83 -->
<g id="node2" class="node"><title>n83</title>
<polygon fill="#cae1ff" stroke="black" points="540,-128.5 486,-128.5 486,-83.5 540,-83.5 540,-128.5"/>
<text text-anchor="middle" x="513" y="-113.1" font-family="Helvetica,sans-Serif" font-size="8.00">ref_count:0</text>
<text text-anchor="middle" x="513" y="-104.1" font-family="Helvetica,sans-Serif" font-size="8.00">name:omega</text>
<text text-anchor="middle" x="513" y="-95.1" font-family="Helvetica,sans-Serif" font-size="8.00">node_id:81</text>
<text text-anchor="middle" x="513" y="-86.1" font-family="Helvetica,sans-Serif" font-size="8.00">type:4</text>
</g>
<!-- n3 -->
<g id="node4" class="node"><title>n3</title>
<ellipse fill="green" stroke="black" cx="101" cy="-111" rx="27" ry="18"/>
<text text-anchor="middle" x="101" y="-109.1" font-family="Helvetica,sans-Serif" font-size="8.00">Dummy Node</text>
</g>
<!-- n83&#45;&gt;n3 -->
<g id="edge5" class="edge"><title>n83&#45;&gt;n3</title>
<path fill="none" stroke="blue" d="M485.729,-106.32C414.857,-107.185 219.621,-109.566 138.296,-110.557"/>
<polygon fill="blue" stroke="blue" points="138.009,-107.061 128.052,-110.682 138.094,-114.06 138.009,-107.061"/>
<text text-anchor="middle" x="317" y="-119.6" font-family="Helvetica,sans-Serif" font-size="8.00">state:5</text>
<text text-anchor="middle" x="317" y="-110.6" font-family="Helvetica,sans-Serif" font-size="8.00">type:relatedTo</text>
</g>
<!-- n83&#45;&gt;n80 -->
<g id="edge6" class="edge"><title>n83&#45;&gt;n80</title>
<path fill="none" stroke="blue" d="M485.836,-98.043C451.752,-87.6773 392.012,-69.5088 353.764,-57.8766"/>
<polygon fill="blue" stroke="blue" points="354.644,-54.4861 344.058,-54.9249 352.607,-61.1832 354.644,-54.4861"/>
<text text-anchor="middle" x="388" y="-86.6" font-family="Helvetica,sans-Serif" font-size="8.00">state:0</text>
<text text-anchor="middle" x="388" y="-77.6" font-family="Helvetica,sans-Serif" font-size="8.00">type:relatedTo</text>
</g>
<!-- n84 -->
<g id="node3" class="node"><title>n84</title>
<polygon fill="#cae1ff" stroke="black" points="201.5,-62.5 0.5,-62.5 0.5,0.5 201.5,0.5 201.5,-62.5"/>
<text text-anchor="middle" x="101" y="-47.1" font-family="Helvetica,sans-Serif" font-size="8.00">fn:chmod</text>
<text text-anchor="middle" x="101" y="-38.1" font-family="Helvetica,sans-Serif" font-size="8.00">ret:0</text>
<text text-anchor="middle" x="101" y="-29.1" font-family="Helvetica,sans-Serif" font-size="8.00">arg_values:[&#39;/home/arthur/ProvMark/stage/test.txt&#39;, &#39;420&#39;]</text>
<text text-anchor="middle" x="101" y="-20.1" font-family="Helvetica,sans-Serif" font-size="8.00">arg_keys:[&#39;path&#39;, &#39;mode&#39;]</text>
<text text-anchor="middle" x="101" y="-11.1" font-family="Helvetica,sans-Serif" font-size="8.00">node_id:82</text>
<text text-anchor="middle" x="101" y="-2.1" font-family="Helvetica,sans-Serif" font-size="8.00">type:5</text>
</g>
<!-- n80&#45;&gt;n84 -->
<g id="edge2" class="edge"><title>n80&#45;&gt;n84</title>
<path fill="none" stroke="blue" d="M289.833,-36.5427C284.05,-34.6667 277.889,-32.994 272,-32 252.705,-28.7432 232.002,-27.1062 211.915,-26.4684"/>
<polygon fill="blue" stroke="blue" points="211.876,-22.9666 201.796,-26.2278 211.71,-29.9646 211.876,-22.9666"/>
<text text-anchor="middle" x="246" y="-43.6" font-family="Helvetica,sans-Serif" font-size="8.00">state:0</text>
<text text-anchor="middle" x="246" y="-34.6" font-family="Helvetica,sans-Serif" font-size="8.00">type:relatedTo</text>
</g>
<!-- n80&#45;&gt;n3 -->
<g id="edge3" class="edge"><title>n80&#45;&gt;n3</title>
<path fill="none" stroke="blue" d="M289.759,-54.8477C250.909,-66.4665 178.098,-88.2417 135.462,-100.993"/>
<polygon fill="blue" stroke="blue" points="134.4,-97.657 125.822,-103.876 136.406,-104.363 134.4,-97.657"/>
<text text-anchor="middle" x="246" y="-87.6" font-family="Helvetica,sans-Serif" font-size="8.00">state:10</text>
<text text-anchor="middle" x="246" y="-78.6" font-family="Helvetica,sans-Serif" font-size="8.00">type:relatedTo</text>
</g>
<!-- n82 -->
<g id="node6" class="node"><title>n82</title>
<polygon fill="#cae1ff" stroke="black" points="843.5,-49 682.5,-49 682.5,-13 843.5,-13 843.5,-49"/>
<text text-anchor="middle" x="763" y="-33.6" font-family="Helvetica,sans-Serif" font-size="8.00">name:[&#39;/home/arthur/ProvMark/stage/test.txt&#39;]</text>
<text text-anchor="middle" x="763" y="-24.6" font-family="Helvetica,sans-Serif" font-size="8.00">node_id:80</text>
<text text-anchor="middle" x="763" y="-15.6" font-family="Helvetica,sans-Serif" font-size="8.00">type:2</text>
</g>
<!-- n82&#45;&gt;n81 -->
<g id="edge4" class="edge"><title>n82&#45;&gt;n81</title>
<path fill="none" stroke="blue" d="M682.166,-31C657.165,-31 629.409,-31 603.771,-31"/>
<polygon fill="blue" stroke="blue" points="603.684,-27.5001 593.684,-31 603.684,-34.5001 603.684,-27.5001"/>
<text text-anchor="middle" x="638" y="-42.6" font-family="Helvetica,sans-Serif" font-size="8.00">state:0</text>
<text text-anchor="middle" x="638" y="-33.6" font-family="Helvetica,sans-Serif" font-size="8.00">type:relatedTo</text>
</g>
</g>
</svg>
