<?xml version="1.0" encoding="UTF-8" standalone="no"?>
<!DOCTYPE svg PUBLIC "-//W3C//DTD SVG 1.1//EN"
 "http://www.w3.org/Graphics/SVG/1.1/DTD/svg11.dtd">
<!-- Generated by graphviz version 2.36.0 (20140111.2315)
 -->
<!-- Title: clingo2dot Pages: 1 -->
<svg width="888pt" height="143pt"
 viewBox="0.00 0.00 888.00 143.00" xmlns="http://www.w3.org/2000/svg" xmlns:xlink="http://www.w3.org/1999/xlink">
<g id="graph0" class="graph" transform="scale(1 1) rotate(0) translate(4 139)">
<title>clingo2dot</title>
<polygon fill="white" stroke="none" points="-4,4 -4,-139 884,-139 884,4 -4,4"/>
<!-- n80 -->
<g id="node1" class="node"><title>n80</title>
<polygon fill="#cae1ff" stroke="black" points="380,-69.5 326,-69.5 326,-24.5 380,-24.5 380,-69.5"/>
<text text-anchor="middle" x="353" y="-54.1" font-family="Helvetica,sans-Serif" font-size="8.00">name:omega</text>
<text text-anchor="middle" x="353" y="-45.1" font-family="Helvetica,sans-Serif" font-size="8.00">node_id:78</text>
<text text-anchor="middle" x="353" y="-36.1" font-family="Helvetica,sans-Serif" font-size="8.00">ref_count:1</text>
<text text-anchor="middle" x="353" y="-27.1" font-family="Helvetica,sans-Serif" font-size="8.00">type:4</text>
</g>
<!-- n3 -->
<g id="node2" class="node"><title>n3</title>
<ellipse fill="green" stroke="black" cx="119" cy="-111" rx="27" ry="18"/>
<text text-anchor="middle" x="119" y="-109.1" font-family="Helvetica,sans-Serif" font-size="8.00">Dummy Node</text>
</g>
<!-- n80&#45;&gt;n3 -->
<g id="edge3" class="edge"><title>n80&#45;&gt;n3</title>
<path fill="none" stroke="blue" d="M325.838,-54.2172C283.664,-65.8514 200.668,-88.7466 153.977,-101.627"/>
<polygon fill="blue" stroke="blue" points="153.025,-98.2587 144.316,-104.292 154.887,-105.007 153.025,-98.2587"/>
<text text-anchor="middle" x="282" y="-85.6" font-family="Helvetica,sans-Serif" font-size="8.00">state:10</text>
<text text-anchor="middle" x="282" y="-76.6" font-family="Helvetica,sans-Serif" font-size="8.00">type:relatedTo</text>
</g>
<!-- n84 -->
<g id="node4" class="node"><title>n84</title>
<polygon fill="#cae1ff" stroke="black" points="238,-62.5 0,-62.5 0,0.5 238,0.5 238,-62.5"/>
<text text-anchor="middle" x="119" y="-47.1" font-family="Helvetica,sans-Serif" font-size="8.00">fn:chown</text>
<text text-anchor="middle" x="119" y="-38.1" font-family="Helvetica,sans-Serif" font-size="8.00">arg_keys:[&#39;path&#39;, &#39;owner&#39;, &#39;group&#39;]</text>
<text text-anchor="middle" x="119" y="-29.1" font-family="Helvetica,sans-Serif" font-size="8.00">arg_values:[&#39;/home/arthur/ProvMark/stage/test.txt&#39;, &#39;arthur&#39;, &#39;arthur&#39;]</text>
<text text-anchor="middle" x="119" y="-20.1" font-family="Helvetica,sans-Serif" font-size="8.00">node_id:82</text>
<text text-anchor="middle" x="119" y="-11.1" font-family="Helvetica,sans-Serif" font-size="8.00">ret:0</text>
<text text-anchor="middle" x="119" y="-2.1" font-family="Helvetica,sans-Serif" font-size="8.00">type:5</text>
</g>
<!-- n80&#45;&gt;n84 -->
<g id="edge1" class="edge"><title>n80&#45;&gt;n84</title>
<path fill="none" stroke="blue" d="M325.834,-36.5402C320.05,-34.6644 313.889,-32.9924 308,-32 288.795,-28.7639 268.329,-26.982 248.234,-26.1523"/>
<polygon fill="blue" stroke="blue" points="248.2,-22.6493 238.088,-25.8108 247.965,-29.6453 248.2,-22.6493"/>
<text text-anchor="middle" x="282" y="-43.6" font-family="Helvetica,sans-Serif" font-size="8.00">state:0</text>
<text text-anchor="middle" x="282" y="-34.6" font-family="Helvetica,sans-Serif" font-size="8.00">type:relatedTo</text>
</g>
<!-- n82 -->
<g id="node3" class="node"><title>n82</title>
<polygon fill="#cae1ff" stroke="black" points="879.5,-49 718.5,-49 718.5,-13 879.5,-13 879.5,-49"/>
<text text-anchor="middle" x="799" y="-33.6" font-family="Helvetica,sans-Serif" font-size="8.00">name:[&#39;/home/arthur/ProvMark/stage/test.txt&#39;]</text>
<text text-anchor="middle" x="799" y="-24.6" font-family="Helvetica,sans-Serif" font-size="8.00">node_id:80</text>
<text text-anchor="middle" x="799" y="-15.6" font-family="Helvetica,sans-Serif" font-size="8.00">type:2</text>
</g>
<!-- n81 -->
<g id="node5" class="node"><title>n81</title>
<polygon fill="#cae1ff" stroke="black" points="629.5,-49 468.5,-49 468.5,-13 629.5,-13 629.5,-49"/>
<text text-anchor="middle" x="549" y="-33.6" font-family="Helvetica,sans-Serif" font-size="8.00">name:[&#39;/home/arthur/ProvMark/stage/test.txt&#39;]</text>
<text text-anchor="middle" x="549" y="-24.6" font-family="Helvetica,sans-Serif" font-size="8.00">node_id:79</text>
<text text-anchor="middle" x="549" y="-15.6" font-family="Helvetica,sans-Serif" font-size="8.00">type:2</text>
</g>
<!-- n82&#45;&gt;n81 -->
<g id="edge4" class="edge"><title>n82&#45;&gt;n81</title>
<path fill="none" stroke="blue" d="M718.166,-31C693.165,-31 665.409,-31 639.771,-31"/>
<polygon fill="blue" stroke="blue" points="639.684,-27.5001 629.684,-31 639.684,-34.5001 639.684,-27.5001"/>
<text text-anchor="middle" x="674" y="-42.6" font-family="Helvetica,sans-Serif" font-size="8.00">state:0</text>
<text text-anchor="middle" x="674" y="-33.6" font-family="Helvetica,sans-Serif" font-size="8.00">type:relatedTo</text>
</g>
<!-- n81&#45;&gt;n80 -->
<g id="edge6" class="edge"><title>n81&#45;&gt;n80</title>
<path fill="none" stroke="blue" d="M468.182,-26.7872C445.382,-26.8639 420.596,-28.1768 398,-32 395.332,-32.4515 392.608,-33.042 389.888,-33.7274"/>
<polygon fill="blue" stroke="blue" points="388.797,-30.3996 380.167,-36.5462 390.746,-37.1227 388.797,-30.3996"/>
<text text-anchor="middle" x="424" y="-43.6" font-family="Helvetica,sans-Serif" font-size="8.00">state:0</text>
<text text-anchor="middle" x="424" y="-34.6" font-family="Helvetica,sans-Serif" font-size="8.00">type:relatedTo</text>
</g>
<!-- n83 -->
<g id="node6" class="node"><title>n83</title>
<polygon fill="#cae1ff" stroke="black" points="576,-128.5 522,-128.5 522,-83.5 576,-83.5 576,-128.5"/>
<text text-anchor="middle" x="549" y="-113.1" font-family="Helvetica,sans-Serif" font-size="8.00">name:omega</text>
<text text-anchor="middle" x="549" y="-104.1" font-family="Helvetica,sans-Serif" font-size="8.00">node_id:81</text>
<text text-anchor="middle" x="549" y="-95.1" font-family="Helvetica,sans-Serif" font-size="8.00">ref_count:0</text>
<text text-anchor="middle" x="549" y="-86.1" font-family="Helvetica,sans-Serif" font-size="8.00">type:4</text>
</g>
<!-- n83&#45;&gt;n80 -->
<g id="edge2" class="edge"><title>n83&#45;&gt;n80</title>
<path fill="none" stroke="blue" d="M521.836,-98.043C487.752,-87.6773 428.012,-69.5088 389.764,-57.8766"/>
<polygon fill="blue" stroke="blue" points="390.644,-54.4861 380.058,-54.9249 388.607,-61.1832 390.644,-54.4861"/>
<text text-anchor="middle" x="424" y="-86.6" font-family="Helvetica,sans-Serif" font-size="8.00">state:0</text>
<text text-anchor="middle" x="424" y="-77.6" font-family="Helvetica,sans-Serif" font-size="8.00">type:relatedTo</text>
</g>
<!-- n83&#45;&gt;n3 -->
<g id="edge5" class="edge"><title>n83&#45;&gt;n3</title>
<path fill="none" stroke="blue" d="M521.871,-106.305C448.509,-107.162 240.507,-109.592 156.179,-110.577"/>
<polygon fill="blue" stroke="blue" points="156.017,-107.079 146.058,-110.696 156.099,-114.078 156.017,-107.079"/>
<text text-anchor="middle" x="353" y="-119.6" font-family="Helvetica,sans-Serif" font-size="8.00">state:5</text>
<text text-anchor="middle" x="353" y="-110.6" font-family="Helvetica,sans-Serif" font-size="8.00">type:relatedTo</text>
</g>
</g>
</svg>
