<?xml version="1.0" encoding="UTF-8" standalone="no"?>
<!DOCTYPE svg PUBLIC "-//W3C//DTD SVG 1.1//EN"
 "http://www.w3.org/Graphics/SVG/1.1/DTD/svg11.dtd">
<!-- Generated by graphviz version 2.36.0 (20140111.2315)
 -->
<!-- Title: clingo2dot Pages: 1 -->
<svg width="354pt" height="70pt"
 viewBox="0.00 0.00 354.00 70.00" xmlns="http://www.w3.org/2000/svg" xmlns:xlink="http://www.w3.org/1999/xlink">
<g id="graph0" class="graph" transform="scale(1 1) rotate(0) translate(4 66)">
<title>clingo2dot</title>
<polygon fill="white" stroke="none" points="-4,4 -4,-66 350,-66 350,4 -4,4"/>
<!-- n85 -->
<g id="node1" class="node"><title>n85</title>
<polygon fill="#cae1ff" stroke="black" points="346,-62.5 292,-62.5 292,0.5 346,0.5 346,-62.5"/>
<text text-anchor="middle" x="319" y="-47.1" font-family="Helvetica,sans-Serif" font-size="8.00">ret:0</text>
<text text-anchor="middle" x="319" y="-38.1" font-family="Helvetica,sans-Serif" font-size="8.00">fn:close</text>
<text text-anchor="middle" x="319" y="-29.1" font-family="Helvetica,sans-Serif" font-size="8.00">arg_keys:[&#39;fd&#39;]</text>
<text text-anchor="middle" x="319" y="-20.1" font-family="Helvetica,sans-Serif" font-size="8.00">node_id:83</text>
<text text-anchor="middle" x="319" y="-11.1" font-family="Helvetica,sans-Serif" font-size="8.00">arg_values:[&#39;3&#39;]</text>
<text text-anchor="middle" x="319" y="-2.1" font-family="Helvetica,sans-Serif" font-size="8.00">type:5</text>
</g>
<!-- n82 -->
<g id="node2" class="node"><title>n82</title>
<polygon fill="#cae1ff" stroke="black" points="204,-62.5 1.42109e-14,-62.5 1.42109e-14,0.5 204,0.5 204,-62.5"/>
<text text-anchor="middle" x="102" y="-47.1" font-family="Helvetica,sans-Serif" font-size="8.00">ret:3</text>
<text text-anchor="middle" x="102" y="-38.1" font-family="Helvetica,sans-Serif" font-size="8.00">fn:open</text>
<text text-anchor="middle" x="102" y="-29.1" font-family="Helvetica,sans-Serif" font-size="8.00">arg_keys:[&#39;pathname&#39;, &#39;flags&#39;, &#39;mode&#39;]</text>
<text text-anchor="middle" x="102" y="-20.1" font-family="Helvetica,sans-Serif" font-size="8.00">node_id:80</text>
<text text-anchor="middle" x="102" y="-11.1" font-family="Helvetica,sans-Serif" font-size="8.00">arg_values:[&#39;/home/arthur/ProvMark/stage/test.txt&#39;, &#39;2&#39;, &#39;0&#39;]</text>
<text text-anchor="middle" x="102" y="-2.1" font-family="Helvetica,sans-Serif" font-size="8.00">type:5</text>
</g>
<!-- n85&#45;&gt;n82 -->
<g id="edge1" class="edge"><title>n85&#45;&gt;n82</title>
<path fill="none" stroke="blue" d="M291.637,-31C271.877,-31 243.372,-31 214.484,-31"/>
<polygon fill="blue" stroke="blue" points="214.263,-27.5001 204.263,-31 214.263,-34.5001 214.263,-27.5001"/>
<text text-anchor="middle" x="248" y="-42.6" font-family="Helvetica,sans-Serif" font-size="8.00">state:0</text>
<text text-anchor="middle" x="248" y="-33.6" font-family="Helvetica,sans-Serif" font-size="8.00">type:relatedTo</text>
</g>
</g>
</svg>
