<?xml version="1.0" encoding="UTF-8" standalone="no"?>
<!DOCTYPE svg PUBLIC "-//W3C//DTD SVG 1.1//EN"
 "http://www.w3.org/Graphics/SVG/1.1/DTD/svg11.dtd">
<!-- Generated by graphviz version 2.36.0 (20140111.2315)
 -->
<!-- Title: clingo2dot Pages: 1 -->
<svg width="894pt" height="133pt"
 viewBox="0.00 0.00 894.00 133.00" xmlns="http://www.w3.org/2000/svg" xmlns:xlink="http://www.w3.org/1999/xlink">
<g id="graph0" class="graph" transform="scale(1 1) rotate(0) translate(4 129)">
<title>clingo2dot</title>
<polygon fill="white" stroke="none" points="-4,4 -4,-129 890,-129 890,4 -4,4"/>
<!-- n83 -->
<g id="node1" class="node"><title>n83</title>
<polygon fill="#cae1ff" stroke="black" points="886,-112 710,-112 710,-76 886,-76 886,-112"/>
<text text-anchor="middle" x="798" y="-96.6" font-family="Helvetica,sans-Serif" font-size="8.00">name:[&#39;/home/arthur/ProvMark/stage/newtest.txt&#39;]</text>
<text text-anchor="middle" x="798" y="-87.6" font-family="Helvetica,sans-Serif" font-size="8.00">node_id:81</text>
<text text-anchor="middle" x="798" y="-78.6" font-family="Helvetica,sans-Serif" font-size="8.00">type:2</text>
</g>
<!-- n81 -->
<g id="node2" class="node"><title>n81</title>
<polygon fill="#cae1ff" stroke="black" points="622,-112 446,-112 446,-76 622,-76 622,-112"/>
<text text-anchor="middle" x="534" y="-96.6" font-family="Helvetica,sans-Serif" font-size="8.00">name:[&#39;/home/arthur/ProvMark/stage/newtest.txt&#39;]</text>
<text text-anchor="middle" x="534" y="-87.6" font-family="Helvetica,sans-Serif" font-size="8.00">node_id:79</text>
<text text-anchor="middle" x="534" y="-78.6" font-family="Helvetica,sans-Serif" font-size="8.00">type:2</text>
</g>
<!-- n83&#45;&gt;n81 -->
<g id="edge2" class="edge"><title>n83&#45;&gt;n81</title>
<path fill="none" stroke="blue" d="M709.758,-94C684.92,-94 657.712,-94 632.316,-94"/>
<polygon fill="blue" stroke="blue" points="632.308,-90.5001 622.308,-94 632.308,-97.5001 632.308,-90.5001"/>
<text text-anchor="middle" x="666" y="-105.6" font-family="Helvetica,sans-Serif" font-size="8.00">state:0</text>
<text text-anchor="middle" x="666" y="-96.6" font-family="Helvetica,sans-Serif" font-size="8.00">type:relatedTo</text>
</g>
<!-- n80 -->
<g id="node6" class="node"><title>n80</title>
<polygon fill="#cae1ff" stroke="black" points="358,-108.5 304,-108.5 304,-63.5 358,-63.5 358,-108.5"/>
<text text-anchor="middle" x="331" y="-93.1" font-family="Helvetica,sans-Serif" font-size="8.00">name:3</text>
<text text-anchor="middle" x="331" y="-84.1" font-family="Helvetica,sans-Serif" font-size="8.00">node_id:78</text>
<text text-anchor="middle" x="331" y="-75.1" font-family="Helvetica,sans-Serif" font-size="8.00">ref_count:1</text>
<text text-anchor="middle" x="331" y="-66.1" font-family="Helvetica,sans-Serif" font-size="8.00">type:4</text>
</g>
<!-- n81&#45;&gt;n80 -->
<g id="edge3" class="edge"><title>n81&#45;&gt;n80</title>
<path fill="none" stroke="blue" d="M445.715,-90.526C418.583,-89.4461 390.144,-88.3142 368.492,-87.4524"/>
<polygon fill="blue" stroke="blue" points="368.576,-83.9531 358.444,-87.0525 368.297,-90.9475 368.576,-83.9531"/>
<text text-anchor="middle" x="402" y="-101.6" font-family="Helvetica,sans-Serif" font-size="8.00">state:3</text>
<text text-anchor="middle" x="402" y="-92.6" font-family="Helvetica,sans-Serif" font-size="8.00">type:relatedTo</text>
</g>
<!-- n3 -->
<g id="node3" class="node"><title>n3</title>
<ellipse fill="green" stroke="black" cx="108" cy="-18" rx="27" ry="18"/>
<text text-anchor="middle" x="108" y="-16.1" font-family="Helvetica,sans-Serif" font-size="8.00">Dummy Node</text>
</g>
<!-- n82 -->
<g id="node4" class="node"><title>n82</title>
<polygon fill="#cae1ff" stroke="black" points="216,-125.5 0,-125.5 0,-62.5 216,-62.5 216,-125.5"/>
<text text-anchor="middle" x="108" y="-110.1" font-family="Helvetica,sans-Serif" font-size="8.00">ret:3</text>
<text text-anchor="middle" x="108" y="-101.1" font-family="Helvetica,sans-Serif" font-size="8.00">node_id:80</text>
<text text-anchor="middle" x="108" y="-92.1" font-family="Helvetica,sans-Serif" font-size="8.00">arg_keys:[&#39;pathname&#39;, &#39;mode&#39;]</text>
<text text-anchor="middle" x="108" y="-83.1" font-family="Helvetica,sans-Serif" font-size="8.00">fn:creat</text>
<text text-anchor="middle" x="108" y="-74.1" font-family="Helvetica,sans-Serif" font-size="8.00">arg_values:[&#39;/home/arthur/ProvMark/stage/newtest.txt&#39;, &#39;504&#39;]</text>
<text text-anchor="middle" x="108" y="-65.1" font-family="Helvetica,sans-Serif" font-size="8.00">type:5</text>
</g>
<!-- n84 -->
<g id="node5" class="node"><title>n84</title>
<polygon fill="#cae1ff" stroke="black" points="561,-45.5 507,-45.5 507,-0.5 561,-0.5 561,-45.5"/>
<text text-anchor="middle" x="534" y="-30.1" font-family="Helvetica,sans-Serif" font-size="8.00">name:3</text>
<text text-anchor="middle" x="534" y="-21.1" font-family="Helvetica,sans-Serif" font-size="8.00">node_id:82</text>
<text text-anchor="middle" x="534" y="-12.1" font-family="Helvetica,sans-Serif" font-size="8.00">ref_count:0</text>
<text text-anchor="middle" x="534" y="-3.1" font-family="Helvetica,sans-Serif" font-size="8.00">type:4</text>
</g>
<!-- n84&#45;&gt;n3 -->
<g id="edge4" class="edge"><title>n84&#45;&gt;n3</title>
<path fill="none" stroke="blue" d="M506.797,-22.691C433.903,-21.8314 228.62,-19.4106 145.062,-18.4253"/>
<polygon fill="blue" stroke="blue" points="145.069,-14.9252 135.028,-18.3069 144.986,-21.9247 145.069,-14.9252"/>
<text text-anchor="middle" x="331" y="-32.6" font-family="Helvetica,sans-Serif" font-size="8.00">state:5</text>
<text text-anchor="middle" x="331" y="-23.6" font-family="Helvetica,sans-Serif" font-size="8.00">type:relatedTo</text>
</g>
<!-- n84&#45;&gt;n80 -->
<g id="edge1" class="edge"><title>n84&#45;&gt;n80</title>
<path fill="none" stroke="blue" d="M506.828,-25.6772C474.921,-29.6081 419.834,-38.5705 376,-57 372.964,-58.2765 369.912,-59.7675 366.908,-61.3874"/>
<polygon fill="blue" stroke="blue" points="364.962,-58.4709 358.106,-66.5482 368.502,-64.5095 364.962,-58.4709"/>
<text text-anchor="middle" x="402" y="-68.6" font-family="Helvetica,sans-Serif" font-size="8.00">state:0</text>
<text text-anchor="middle" x="402" y="-59.6" font-family="Helvetica,sans-Serif" font-size="8.00">type:relatedTo</text>
</g>
<!-- n80&#45;&gt;n3 -->
<g id="edge6" class="edge"><title>n80&#45;&gt;n3</title>
<path fill="none" stroke="blue" d="M303.887,-66.5652C298.203,-62.9797 292.068,-59.564 286,-57 239.438,-37.3246 181.615,-26.9852 144.999,-22.0126"/>
<polygon fill="blue" stroke="blue" points="145.173,-18.506 134.806,-20.693 144.274,-25.4481 145.173,-18.506"/>
<text text-anchor="middle" x="260" y="-68.6" font-family="Helvetica,sans-Serif" font-size="8.00">state:10</text>
<text text-anchor="middle" x="260" y="-59.6" font-family="Helvetica,sans-Serif" font-size="8.00">type:relatedTo</text>
</g>
<!-- n80&#45;&gt;n82 -->
<g id="edge5" class="edge"><title>n80&#45;&gt;n82</title>
<path fill="none" stroke="blue" d="M303.781,-86.9491C284.092,-87.6618 255.615,-88.6927 226.487,-89.7471"/>
<polygon fill="blue" stroke="blue" points="226.038,-86.261 216.171,-90.1205 226.291,-93.2564 226.038,-86.261"/>
<text text-anchor="middle" x="260" y="-101.6" font-family="Helvetica,sans-Serif" font-size="8.00">state:0</text>
<text text-anchor="middle" x="260" y="-92.6" font-family="Helvetica,sans-Serif" font-size="8.00">type:relatedTo</text>
</g>
</g>
</svg>
