<?xml version="1.0" encoding="UTF-8" standalone="no"?>
<!DOCTYPE svg PUBLIC "-//W3C//DTD SVG 1.1//EN"
 "http://www.w3.org/Graphics/SVG/1.1/DTD/svg11.dtd">
<!-- Generated by graphviz version 2.36.0 (20140111.2315)
 -->
<!-- Title: clingo2dot Pages: 1 -->
<svg width="240pt" height="134pt"
 viewBox="0.00 0.00 240.00 134.00" xmlns="http://www.w3.org/2000/svg" xmlns:xlink="http://www.w3.org/1999/xlink">
<g id="graph0" class="graph" transform="scale(1 1) rotate(0) translate(4 130)">
<title>clingo2dot</title>
<polygon fill="white" stroke="none" points="-4,4 -4,-130 236,-130 236,4 -4,4"/>
<!-- n81 -->
<g id="node1" class="node"><title>n81</title>
<polygon fill="#cae1ff" stroke="black" points="89.5,-62.5 0.5,-62.5 0.5,0.5 89.5,0.5 89.5,-62.5"/>
<text text-anchor="middle" x="45" y="-47.1" font-family="Helvetica,sans-Serif" font-size="8.00">node_id:79</text>
<text text-anchor="middle" x="45" y="-38.1" font-family="Helvetica,sans-Serif" font-size="8.00">arg_keys:[&#39;oldfd&#39;, &#39;newfd&#39;]</text>
<text text-anchor="middle" x="45" y="-29.1" font-family="Helvetica,sans-Serif" font-size="8.00">fn:dup2</text>
<text text-anchor="middle" x="45" y="-20.1" font-family="Helvetica,sans-Serif" font-size="8.00">arg_values:[&#39;1&#39;, &#39;2&#39;]</text>
<text text-anchor="middle" x="45" y="-11.1" font-family="Helvetica,sans-Serif" font-size="8.00">ret:2</text>
<text text-anchor="middle" x="45" y="-2.1" font-family="Helvetica,sans-Serif" font-size="8.00">type:5</text>
</g>
<!-- n80 -->
<g id="node2" class="node"><title>n80</title>
<polygon fill="#cae1ff" stroke="black" points="232,-117 178,-117 178,-81 232,-81 232,-117"/>
<text text-anchor="middle" x="205" y="-101.6" font-family="Helvetica,sans-Serif" font-size="8.00">node_id:78</text>
<text text-anchor="middle" x="205" y="-92.6" font-family="Helvetica,sans-Serif" font-size="8.00">name:2</text>
<text text-anchor="middle" x="205" y="-83.6" font-family="Helvetica,sans-Serif" font-size="8.00">type:4</text>
</g>
<!-- n3 -->
<g id="node3" class="node"><title>n3</title>
<ellipse fill="green" stroke="black" cx="45" cy="-99" rx="27" ry="18"/>
<text text-anchor="middle" x="45" y="-97.1" font-family="Helvetica,sans-Serif" font-size="8.00">Dummy Node</text>
</g>
<!-- n80&#45;&gt;n3 -->
<g id="edge1" class="edge"><title>n80&#45;&gt;n3</title>
<path fill="none" stroke="blue" d="M177.91,-99C151.837,-99 111.534,-99 82.3366,-99"/>
<polygon fill="blue" stroke="blue" points="82.1293,-95.5001 72.1292,-99 82.1292,-102.5 82.1293,-95.5001"/>
<text text-anchor="middle" x="134" y="-110.6" font-family="Helvetica,sans-Serif" font-size="8.00">state:5</text>
<text text-anchor="middle" x="134" y="-101.6" font-family="Helvetica,sans-Serif" font-size="8.00">type:relatedTo</text>
</g>
<!-- n65 -->
<g id="node4" class="node"><title>n65</title>
<ellipse fill="green" stroke="black" cx="205" cy="-31" rx="27" ry="18"/>
<text text-anchor="middle" x="205" y="-29.1" font-family="Helvetica,sans-Serif" font-size="8.00">Dummy Node</text>
</g>
<!-- n65&#45;&gt;n81 -->
<g id="edge2" class="edge"><title>n65&#45;&gt;n81</title>
<path fill="none" stroke="blue" d="M177.91,-31C156.785,-31 126.32,-31 99.9888,-31"/>
<polygon fill="blue" stroke="blue" points="99.7529,-27.5001 89.7529,-31 99.7528,-34.5001 99.7529,-27.5001"/>
<text text-anchor="middle" x="134" y="-42.6" font-family="Helvetica,sans-Serif" font-size="8.00">state:0</text>
<text text-anchor="middle" x="134" y="-33.6" font-family="Helvetica,sans-Serif" font-size="8.00">type:relatedTo</text>
</g>
</g>
</svg>
