<?xml version="1.0" encoding="UTF-8" standalone="no"?>
<!DOCTYPE svg PUBLIC "-//W3C//DTD SVG 1.1//EN"
 "http://www.w3.org/Graphics/SVG/1.1/DTD/svg11.dtd">
<!-- Generated by graphviz version 2.36.0 (20140111.2315)
 -->
<!-- Title: clingo2dot Pages: 1 -->
<svg width="264pt" height="134pt"
 viewBox="0.00 0.00 264.00 134.00" xmlns="http://www.w3.org/2000/svg" xmlns:xlink="http://www.w3.org/1999/xlink">
<g id="graph0" class="graph" transform="scale(1 1) rotate(0) translate(4 130)">
<title>clingo2dot</title>
<polygon fill="white" stroke="none" points="-4,4 -4,-130 260,-130 260,4 -4,4"/>
<!-- n65 -->
<g id="node1" class="node"><title>n65</title>
<ellipse fill="green" stroke="black" cx="229" cy="-31" rx="27" ry="18"/>
<text text-anchor="middle" x="229" y="-29.1" font-family="Helvetica,sans-Serif" font-size="8.00">Dummy Node</text>
</g>
<!-- n81 -->
<g id="node2" class="node"><title>n81</title>
<polygon fill="#cae1ff" stroke="black" points="113.5,-62.5 0.5,-62.5 0.5,0.5 113.5,0.5 113.5,-62.5"/>
<text text-anchor="middle" x="57" y="-47.1" font-family="Helvetica,sans-Serif" font-size="8.00">node_id:79</text>
<text text-anchor="middle" x="57" y="-38.1" font-family="Helvetica,sans-Serif" font-size="8.00">arg_values:[&#39;1&#39;, &#39;2&#39;, &#39;524288&#39;]</text>
<text text-anchor="middle" x="57" y="-29.1" font-family="Helvetica,sans-Serif" font-size="8.00">arg_keys:[&#39;oldfd&#39;, &#39;newfd&#39;, &#39;flags&#39;]</text>
<text text-anchor="middle" x="57" y="-20.1" font-family="Helvetica,sans-Serif" font-size="8.00">fn:dup3</text>
<text text-anchor="middle" x="57" y="-11.1" font-family="Helvetica,sans-Serif" font-size="8.00">ret:2</text>
<text text-anchor="middle" x="57" y="-2.1" font-family="Helvetica,sans-Serif" font-size="8.00">type:5</text>
</g>
<!-- n65&#45;&gt;n81 -->
<g id="edge2" class="edge"><title>n65&#45;&gt;n81</title>
<path fill="none" stroke="blue" d="M201.81,-31C181.081,-31 151.199,-31 124.038,-31"/>
<polygon fill="blue" stroke="blue" points="123.787,-27.5001 113.787,-31 123.787,-34.5001 123.787,-27.5001"/>
<text text-anchor="middle" x="158" y="-42.6" font-family="Helvetica,sans-Serif" font-size="8.00">state:0</text>
<text text-anchor="middle" x="158" y="-33.6" font-family="Helvetica,sans-Serif" font-size="8.00">type:relatedTo</text>
</g>
<!-- n3 -->
<g id="node3" class="node"><title>n3</title>
<ellipse fill="green" stroke="black" cx="57" cy="-99" rx="27" ry="18"/>
<text text-anchor="middle" x="57" y="-97.1" font-family="Helvetica,sans-Serif" font-size="8.00">Dummy Node</text>
</g>
<!-- n80 -->
<g id="node4" class="node"><title>n80</title>
<polygon fill="#cae1ff" stroke="black" points="256,-117 202,-117 202,-81 256,-81 256,-117"/>
<text text-anchor="middle" x="229" y="-101.6" font-family="Helvetica,sans-Serif" font-size="8.00">node_id:78</text>
<text text-anchor="middle" x="229" y="-92.6" font-family="Helvetica,sans-Serif" font-size="8.00">name:2</text>
<text text-anchor="middle" x="229" y="-83.6" font-family="Helvetica,sans-Serif" font-size="8.00">type:4</text>
</g>
<!-- n80&#45;&gt;n3 -->
<g id="edge1" class="edge"><title>n80&#45;&gt;n3</title>
<path fill="none" stroke="blue" d="M201.81,-99C173.108,-99 126.86,-99 94.5841,-99"/>
<polygon fill="blue" stroke="blue" points="94.2197,-95.5001 84.2197,-99 94.2197,-102.5 94.2197,-95.5001"/>
<text text-anchor="middle" x="158" y="-110.6" font-family="Helvetica,sans-Serif" font-size="8.00">state:5</text>
<text text-anchor="middle" x="158" y="-101.6" font-family="Helvetica,sans-Serif" font-size="8.00">type:relatedTo</text>
</g>
</g>
</svg>
