<?xml version="1.0" encoding="UTF-8" standalone="no"?>
<!DOCTYPE svg PUBLIC "-//W3C//DTD SVG 1.1//EN"
 "http://www.w3.org/Graphics/SVG/1.1/DTD/svg11.dtd">
<!-- Generated by graphviz version 2.36.0 (20140111.2315)
 -->
<!-- Title: clingo2dot Pages: 1 -->
<svg width="204pt" height="153pt"
 viewBox="0.00 0.00 204.00 153.00" xmlns="http://www.w3.org/2000/svg" xmlns:xlink="http://www.w3.org/1999/xlink">
<g id="graph0" class="graph" transform="scale(1 1) rotate(0) translate(4 149)">
<title>clingo2dot</title>
<polygon fill="white" stroke="none" points="-4,4 -4,-149 200,-149 200,4 -4,4"/>
<!-- n3 -->
<g id="node1" class="node"><title>n3</title>
<polygon fill="#cae1ff" stroke="black" points="54,-90 0,-90 0,-54 54,-54 54,-90"/>
<text text-anchor="middle" x="27" y="-70.1" font-family="Helvetica,sans-Serif" font-size="8.00">status:0</text>
<text text-anchor="middle" x="27" y="-61.1" font-family="Helvetica,sans-Serif" font-size="8.00">type:3</text>
</g>
<!-- n64 -->
<g id="node2" class="node"><title>n64</title>
<ellipse fill="green" stroke="black" cx="169" cy="-126" rx="27" ry="18"/>
<text text-anchor="middle" x="169" y="-124.1" font-family="Helvetica,sans-Serif" font-size="8.00">Dummy Node</text>
</g>
<!-- n64&#45;&gt;n3 -->
<g id="edge2" class="edge"><title>n64&#45;&gt;n3</title>
<path fill="none" stroke="blue" d="M142.278,-122.55C122.436,-119.254 94.6454,-113.234 72,-103 67.5508,-100.989 63.0849,-98.5079 58.7943,-95.8319"/>
<polygon fill="blue" stroke="blue" points="60.5548,-92.7988 50.2954,-90.1538 56.6661,-98.6193 60.5548,-92.7988"/>
<text text-anchor="middle" x="98" y="-129.6" font-family="Helvetica,sans-Serif" font-size="8.00">state:0</text>
<text text-anchor="middle" x="98" y="-120.6" font-family="Helvetica,sans-Serif" font-size="8.00">type:relatedTo</text>
</g>
<!-- n66 -->
<g id="node3" class="node"><title>n66</title>
<ellipse fill="green" stroke="black" cx="169" cy="-72" rx="27" ry="18"/>
<text text-anchor="middle" x="169" y="-70.1" font-family="Helvetica,sans-Serif" font-size="8.00">Dummy Node</text>
</g>
<!-- n66&#45;&gt;n3 -->
<g id="edge1" class="edge"><title>n66&#45;&gt;n3</title>
<path fill="none" stroke="blue" d="M141.995,-72C120.228,-72 88.9167,-72 64.6151,-72"/>
<polygon fill="blue" stroke="blue" points="64.3407,-68.5001 54.3406,-72 64.3406,-75.5001 64.3407,-68.5001"/>
<text text-anchor="middle" x="98" y="-83.6" font-family="Helvetica,sans-Serif" font-size="8.00">state:0</text>
<text text-anchor="middle" x="98" y="-74.6" font-family="Helvetica,sans-Serif" font-size="8.00">type:relatedTo</text>
</g>
<!-- n65 -->
<g id="node4" class="node"><title>n65</title>
<ellipse fill="green" stroke="black" cx="169" cy="-18" rx="27" ry="18"/>
<text text-anchor="middle" x="169" y="-16.1" font-family="Helvetica,sans-Serif" font-size="8.00">Dummy Node</text>
</g>
<!-- n65&#45;&gt;n3 -->
<g id="edge3" class="edge"><title>n65&#45;&gt;n3</title>
<path fill="none" stroke="blue" d="M142.278,-21.4503C122.436,-24.7463 94.6454,-30.7658 72,-41 67.5508,-43.0107 63.0849,-45.4921 58.7943,-48.1681"/>
<polygon fill="blue" stroke="blue" points="56.6661,-45.3807 50.2954,-53.8462 60.5548,-51.2012 56.6661,-45.3807"/>
<text text-anchor="middle" x="98" y="-52.6" font-family="Helvetica,sans-Serif" font-size="8.00">state:0</text>
<text text-anchor="middle" x="98" y="-43.6" font-family="Helvetica,sans-Serif" font-size="8.00">type:relatedTo</text>
</g>
</g>
</svg>
