<?xml version="1.0" encoding="UTF-8" standalone="no"?>
<!DOCTYPE svg PUBLIC "-//W3C//DTD SVG 1.1//EN"
 "http://www.w3.org/Graphics/SVG/1.1/DTD/svg11.dtd">
<!-- Generated by graphviz version 2.36.0 (20140111.2315)
 -->
<!-- Title: clingo2dot Pages: 1 -->
<svg width="876pt" height="132pt"
 viewBox="0.00 0.00 876.00 132.00" xmlns="http://www.w3.org/2000/svg" xmlns:xlink="http://www.w3.org/1999/xlink">
<g id="graph0" class="graph" transform="scale(1 1) rotate(0) translate(4 128)">
<title>clingo2dot</title>
<polygon fill="white" stroke="none" points="-4,4 -4,-128 872,-128 872,4 -4,4"/>
<!-- n84 -->
<g id="node1" class="node"><title>n84</title>
<polygon fill="#cae1ff" stroke="black" points="617.5,-111 456.5,-111 456.5,-75 617.5,-75 617.5,-111"/>
<text text-anchor="middle" x="537" y="-95.6" font-family="Helvetica,sans-Serif" font-size="8.00">node_id:82</text>
<text text-anchor="middle" x="537" y="-86.6" font-family="Helvetica,sans-Serif" font-size="8.00">name:[&#39;/home/arthur/ProvMark/stage/test.txt&#39;]</text>
<text text-anchor="middle" x="537" y="-77.6" font-family="Helvetica,sans-Serif" font-size="8.00">type:2</text>
</g>
<!-- n83 -->
<g id="node2" class="node"><title>n83</title>
<polygon fill="#cae1ff" stroke="black" points="368,-107.5 314,-107.5 314,-62.5 368,-62.5 368,-107.5"/>
<text text-anchor="middle" x="341" y="-92.1" font-family="Helvetica,sans-Serif" font-size="8.00">node_id:81</text>
<text text-anchor="middle" x="341" y="-83.1" font-family="Helvetica,sans-Serif" font-size="8.00">name:omega</text>
<text text-anchor="middle" x="341" y="-74.1" font-family="Helvetica,sans-Serif" font-size="8.00">ref_count:1</text>
<text text-anchor="middle" x="341" y="-65.1" font-family="Helvetica,sans-Serif" font-size="8.00">type:4</text>
</g>
<!-- n84&#45;&gt;n83 -->
<g id="edge3" class="edge"><title>n84&#45;&gt;n83</title>
<path fill="none" stroke="blue" d="M456.253,-89.7115C429.31,-88.6004 400.531,-87.4137 378.597,-86.5092"/>
<polygon fill="blue" stroke="blue" points="378.554,-83.0045 368.418,-86.0894 378.265,-89.9985 378.554,-83.0045"/>
<text text-anchor="middle" x="412" y="-100.6" font-family="Helvetica,sans-Serif" font-size="8.00">state:0</text>
<text text-anchor="middle" x="412" y="-91.6" font-family="Helvetica,sans-Serif" font-size="8.00">type:relatedTo</text>
</g>
<!-- n87 -->
<g id="node3" class="node"><title>n87</title>
<polygon fill="#cae1ff" stroke="black" points="225.5,-124.5 0.5,-124.5 0.5,-61.5 225.5,-61.5 225.5,-124.5"/>
<text text-anchor="middle" x="113" y="-109.1" font-family="Helvetica,sans-Serif" font-size="8.00">arg_keys:[&#39;dirfd&#39;, &#39;pathname&#39;, &#39;mode&#39;, &#39;flags&#39;]</text>
<text text-anchor="middle" x="113" y="-100.1" font-family="Helvetica,sans-Serif" font-size="8.00">node_id:85</text>
<text text-anchor="middle" x="113" y="-91.1" font-family="Helvetica,sans-Serif" font-size="8.00">ret:0</text>
<text text-anchor="middle" x="113" y="-82.1" font-family="Helvetica,sans-Serif" font-size="8.00">fn:fchmodat</text>
<text text-anchor="middle" x="113" y="-73.1" font-family="Helvetica,sans-Serif" font-size="8.00">arg_values:[&#39;3&#39;, &#39;/home/arthur/ProvMark/stage/test.txt&#39;, &#39;420&#39;, &#39;0&#39;]</text>
<text text-anchor="middle" x="113" y="-64.1" font-family="Helvetica,sans-Serif" font-size="8.00">type:5</text>
</g>
<!-- n83&#45;&gt;n87 -->
<g id="edge1" class="edge"><title>n83&#45;&gt;n87</title>
<path fill="none" stroke="blue" d="M313.633,-85.9334C293.809,-86.6351 265.094,-87.6515 235.594,-88.6958"/>
<polygon fill="blue" stroke="blue" points="235.442,-85.1989 225.572,-89.0506 235.689,-92.1945 235.442,-85.1989"/>
<text text-anchor="middle" x="270" y="-100.6" font-family="Helvetica,sans-Serif" font-size="8.00">state:0</text>
<text text-anchor="middle" x="270" y="-91.6" font-family="Helvetica,sans-Serif" font-size="8.00">type:relatedTo</text>
</g>
<!-- n3 -->
<g id="node6" class="node"><title>n3</title>
<ellipse fill="green" stroke="black" cx="113" cy="-18" rx="27" ry="18"/>
<text text-anchor="middle" x="113" y="-16.1" font-family="Helvetica,sans-Serif" font-size="8.00">Dummy Node</text>
</g>
<!-- n83&#45;&gt;n3 -->
<g id="edge5" class="edge"><title>n83&#45;&gt;n3</title>
<path fill="none" stroke="blue" d="M313.909,-65.5132C308.223,-61.9315 302.082,-58.5305 296,-56 247.648,-35.8818 187.48,-26.0009 149.896,-21.462"/>
<polygon fill="blue" stroke="blue" points="150.256,-17.9804 139.923,-20.3193 149.459,-24.9349 150.256,-17.9804"/>
<text text-anchor="middle" x="270" y="-67.6" font-family="Helvetica,sans-Serif" font-size="8.00">state:10</text>
<text text-anchor="middle" x="270" y="-58.6" font-family="Helvetica,sans-Serif" font-size="8.00">type:relatedTo</text>
</g>
<!-- n85 -->
<g id="node4" class="node"><title>n85</title>
<polygon fill="#cae1ff" stroke="black" points="867.5,-111 706.5,-111 706.5,-75 867.5,-75 867.5,-111"/>
<text text-anchor="middle" x="787" y="-95.6" font-family="Helvetica,sans-Serif" font-size="8.00">node_id:83</text>
<text text-anchor="middle" x="787" y="-86.6" font-family="Helvetica,sans-Serif" font-size="8.00">name:[&#39;/home/arthur/ProvMark/stage/test.txt&#39;]</text>
<text text-anchor="middle" x="787" y="-77.6" font-family="Helvetica,sans-Serif" font-size="8.00">type:2</text>
</g>
<!-- n85&#45;&gt;n84 -->
<g id="edge2" class="edge"><title>n85&#45;&gt;n84</title>
<path fill="none" stroke="blue" d="M706.166,-93C681.165,-93 653.409,-93 627.771,-93"/>
<polygon fill="blue" stroke="blue" points="627.684,-89.5001 617.684,-93 627.684,-96.5001 627.684,-89.5001"/>
<text text-anchor="middle" x="662" y="-104.6" font-family="Helvetica,sans-Serif" font-size="8.00">state:0</text>
<text text-anchor="middle" x="662" y="-95.6" font-family="Helvetica,sans-Serif" font-size="8.00">type:relatedTo</text>
</g>
<!-- n86 -->
<g id="node5" class="node"><title>n86</title>
<polygon fill="#cae1ff" stroke="black" points="564,-44.5 510,-44.5 510,0.5 564,0.5 564,-44.5"/>
<text text-anchor="middle" x="537" y="-29.1" font-family="Helvetica,sans-Serif" font-size="8.00">node_id:84</text>
<text text-anchor="middle" x="537" y="-20.1" font-family="Helvetica,sans-Serif" font-size="8.00">name:omega</text>
<text text-anchor="middle" x="537" y="-11.1" font-family="Helvetica,sans-Serif" font-size="8.00">ref_count:0</text>
<text text-anchor="middle" x="537" y="-2.1" font-family="Helvetica,sans-Serif" font-size="8.00">type:4</text>
</g>
<!-- n86&#45;&gt;n83 -->
<g id="edge6" class="edge"><title>n86&#45;&gt;n83</title>
<path fill="none" stroke="blue" d="M509.915,-25.0192C479.28,-29.2129 427.392,-38.362 386,-56 382.97,-57.2911 379.922,-58.7926 376.921,-60.4198"/>
<polygon fill="blue" stroke="blue" points="374.97,-57.5069 368.125,-65.5935 378.519,-63.5407 374.97,-57.5069"/>
<text text-anchor="middle" x="412" y="-67.6" font-family="Helvetica,sans-Serif" font-size="8.00">state:0</text>
<text text-anchor="middle" x="412" y="-58.6" font-family="Helvetica,sans-Serif" font-size="8.00">type:relatedTo</text>
</g>
<!-- n86&#45;&gt;n3 -->
<g id="edge4" class="edge"><title>n86&#45;&gt;n3</title>
<path fill="none" stroke="blue" d="M509.92,-21.7528C437.457,-21.0659 233.541,-19.1331 150.188,-18.343"/>
<polygon fill="blue" stroke="blue" points="150.208,-14.8431 140.175,-18.2481 150.141,-21.8428 150.208,-14.8431"/>
<text text-anchor="middle" x="341" y="-32.6" font-family="Helvetica,sans-Serif" font-size="8.00">state:5</text>
<text text-anchor="middle" x="341" y="-23.6" font-family="Helvetica,sans-Serif" font-size="8.00">type:relatedTo</text>
</g>
</g>
</svg>
