<?xml version="1.0" encoding="UTF-8" standalone="no"?>
<!DOCTYPE svg PUBLIC "-//W3C//DTD SVG 1.1//EN"
 "http://www.w3.org/Graphics/SVG/1.1/DTD/svg11.dtd">
<!-- Generated by graphviz version 2.36.0 (20140111.2315)
 -->
<!-- Title: clingo2dot Pages: 1 -->
<svg width="912pt" height="132pt"
 viewBox="0.00 0.00 912.00 132.00" xmlns="http://www.w3.org/2000/svg" xmlns:xlink="http://www.w3.org/1999/xlink">
<g id="graph0" class="graph" transform="scale(1 1) rotate(0) translate(4 128)">
<title>clingo2dot</title>
<polygon fill="white" stroke="none" points="-4,4 -4,-128 908,-128 908,4 -4,4"/>
<!-- n83 -->
<g id="node1" class="node"><title>n83</title>
<polygon fill="#cae1ff" stroke="black" points="404,-107.5 350,-107.5 350,-62.5 404,-62.5 404,-107.5"/>
<text text-anchor="middle" x="377" y="-92.1" font-family="Helvetica,sans-Serif" font-size="8.00">name:omega</text>
<text text-anchor="middle" x="377" y="-83.1" font-family="Helvetica,sans-Serif" font-size="8.00">node_id:81</text>
<text text-anchor="middle" x="377" y="-74.1" font-family="Helvetica,sans-Serif" font-size="8.00">ref_count:1</text>
<text text-anchor="middle" x="377" y="-65.1" font-family="Helvetica,sans-Serif" font-size="8.00">type:4</text>
</g>
<!-- n87 -->
<g id="node2" class="node"><title>n87</title>
<polygon fill="#cae1ff" stroke="black" points="262,-124.5 0,-124.5 0,-61.5 262,-61.5 262,-124.5"/>
<text text-anchor="middle" x="131" y="-109.1" font-family="Helvetica,sans-Serif" font-size="8.00">ret:0</text>
<text text-anchor="middle" x="131" y="-100.1" font-family="Helvetica,sans-Serif" font-size="8.00">node_id:85</text>
<text text-anchor="middle" x="131" y="-91.1" font-family="Helvetica,sans-Serif" font-size="8.00">arg_values:[&#39;3&#39;, &#39;/home/arthur/ProvMark/stage/test.txt&#39;, &#39;arthur&#39;, &#39;arthur&#39;, &#39;0&#39;]</text>
<text text-anchor="middle" x="131" y="-82.1" font-family="Helvetica,sans-Serif" font-size="8.00">arg_keys:[&#39;dirfd&#39;, &#39;pathname&#39;, &#39;owner&#39;, &#39;group&#39;, &#39;flags&#39;]</text>
<text text-anchor="middle" x="131" y="-73.1" font-family="Helvetica,sans-Serif" font-size="8.00">fn:fchownat</text>
<text text-anchor="middle" x="131" y="-64.1" font-family="Helvetica,sans-Serif" font-size="8.00">type:5</text>
</g>
<!-- n83&#45;&gt;n87 -->
<g id="edge2" class="edge"><title>n83&#45;&gt;n87</title>
<path fill="none" stroke="blue" d="M349.888,-85.8561C330.393,-86.4953 302.073,-87.4238 272.265,-88.4012"/>
<polygon fill="blue" stroke="blue" points="271.989,-84.9082 262.109,-88.7341 272.219,-91.9045 271.989,-84.9082"/>
<text text-anchor="middle" x="306" y="-100.6" font-family="Helvetica,sans-Serif" font-size="8.00">state:0</text>
<text text-anchor="middle" x="306" y="-91.6" font-family="Helvetica,sans-Serif" font-size="8.00">type:relatedTo</text>
</g>
<!-- n3 -->
<g id="node6" class="node"><title>n3</title>
<ellipse fill="green" stroke="black" cx="131" cy="-18" rx="27" ry="18"/>
<text text-anchor="middle" x="131" y="-16.1" font-family="Helvetica,sans-Serif" font-size="8.00">Dummy Node</text>
</g>
<!-- n83&#45;&gt;n3 -->
<g id="edge5" class="edge"><title>n83&#45;&gt;n3</title>
<path fill="none" stroke="blue" d="M349.944,-65.4279C344.255,-61.8523 338.104,-58.4754 332,-56 277.465,-33.8851 209.263,-24.4624 168.243,-20.577"/>
<polygon fill="blue" stroke="blue" points="168.446,-17.0814 158.175,-19.6835 167.827,-24.054 168.446,-17.0814"/>
<text text-anchor="middle" x="306" y="-67.6" font-family="Helvetica,sans-Serif" font-size="8.00">state:10</text>
<text text-anchor="middle" x="306" y="-58.6" font-family="Helvetica,sans-Serif" font-size="8.00">type:relatedTo</text>
</g>
<!-- n85 -->
<g id="node3" class="node"><title>n85</title>
<polygon fill="#cae1ff" stroke="black" points="903.5,-111 742.5,-111 742.5,-75 903.5,-75 903.5,-111"/>
<text text-anchor="middle" x="823" y="-95.6" font-family="Helvetica,sans-Serif" font-size="8.00">name:[&#39;/home/arthur/ProvMark/stage/test.txt&#39;]</text>
<text text-anchor="middle" x="823" y="-86.6" font-family="Helvetica,sans-Serif" font-size="8.00">node_id:83</text>
<text text-anchor="middle" x="823" y="-77.6" font-family="Helvetica,sans-Serif" font-size="8.00">type:2</text>
</g>
<!-- n84 -->
<g id="node4" class="node"><title>n84</title>
<polygon fill="#cae1ff" stroke="black" points="653.5,-111 492.5,-111 492.5,-75 653.5,-75 653.5,-111"/>
<text text-anchor="middle" x="573" y="-95.6" font-family="Helvetica,sans-Serif" font-size="8.00">name:[&#39;/home/arthur/ProvMark/stage/test.txt&#39;]</text>
<text text-anchor="middle" x="573" y="-86.6" font-family="Helvetica,sans-Serif" font-size="8.00">node_id:82</text>
<text text-anchor="middle" x="573" y="-77.6" font-family="Helvetica,sans-Serif" font-size="8.00">type:2</text>
</g>
<!-- n85&#45;&gt;n84 -->
<g id="edge3" class="edge"><title>n85&#45;&gt;n84</title>
<path fill="none" stroke="blue" d="M742.166,-93C717.165,-93 689.409,-93 663.771,-93"/>
<polygon fill="blue" stroke="blue" points="663.684,-89.5001 653.684,-93 663.684,-96.5001 663.684,-89.5001"/>
<text text-anchor="middle" x="698" y="-104.6" font-family="Helvetica,sans-Serif" font-size="8.00">state:0</text>
<text text-anchor="middle" x="698" y="-95.6" font-family="Helvetica,sans-Serif" font-size="8.00">type:relatedTo</text>
</g>
<!-- n84&#45;&gt;n83 -->
<g id="edge1" class="edge"><title>n84&#45;&gt;n83</title>
<path fill="none" stroke="blue" d="M492.253,-89.7115C465.31,-88.6004 436.531,-87.4137 414.597,-86.5092"/>
<polygon fill="blue" stroke="blue" points="414.554,-83.0045 404.418,-86.0894 414.265,-89.9985 414.554,-83.0045"/>
<text text-anchor="middle" x="448" y="-100.6" font-family="Helvetica,sans-Serif" font-size="8.00">state:0</text>
<text text-anchor="middle" x="448" y="-91.6" font-family="Helvetica,sans-Serif" font-size="8.00">type:relatedTo</text>
</g>
<!-- n86 -->
<g id="node5" class="node"><title>n86</title>
<polygon fill="#cae1ff" stroke="black" points="600,-44.5 546,-44.5 546,0.5 600,0.5 600,-44.5"/>
<text text-anchor="middle" x="573" y="-29.1" font-family="Helvetica,sans-Serif" font-size="8.00">name:omega</text>
<text text-anchor="middle" x="573" y="-20.1" font-family="Helvetica,sans-Serif" font-size="8.00">node_id:84</text>
<text text-anchor="middle" x="573" y="-11.1" font-family="Helvetica,sans-Serif" font-size="8.00">ref_count:0</text>
<text text-anchor="middle" x="573" y="-2.1" font-family="Helvetica,sans-Serif" font-size="8.00">type:4</text>
</g>
<!-- n86&#45;&gt;n83 -->
<g id="edge6" class="edge"><title>n86&#45;&gt;n83</title>
<path fill="none" stroke="blue" d="M545.915,-25.0192C515.28,-29.2129 463.392,-38.362 422,-56 418.97,-57.2911 415.922,-58.7926 412.921,-60.4198"/>
<polygon fill="blue" stroke="blue" points="410.97,-57.5069 404.125,-65.5935 414.519,-63.5407 410.97,-57.5069"/>
<text text-anchor="middle" x="448" y="-67.6" font-family="Helvetica,sans-Serif" font-size="8.00">state:0</text>
<text text-anchor="middle" x="448" y="-58.6" font-family="Helvetica,sans-Serif" font-size="8.00">type:relatedTo</text>
</g>
<!-- n86&#45;&gt;n3 -->
<g id="edge4" class="edge"><title>n86&#45;&gt;n3</title>
<path fill="none" stroke="blue" d="M545.794,-21.7618C470.669,-21.0788 254.431,-19.113 168.165,-18.3288"/>
<polygon fill="blue" stroke="blue" points="168.1,-14.8281 158.069,-18.237 168.037,-21.8278 168.1,-14.8281"/>
<text text-anchor="middle" x="377" y="-32.6" font-family="Helvetica,sans-Serif" font-size="8.00">state:5</text>
<text text-anchor="middle" x="377" y="-23.6" font-family="Helvetica,sans-Serif" font-size="8.00">type:relatedTo</text>
</g>
</g>
</svg>
