<?xml version="1.0" encoding="UTF-8" standalone="no"?>
<!DOCTYPE svg PUBLIC "-//W3C//DTD SVG 1.1//EN"
 "http://www.w3.org/Graphics/SVG/1.1/DTD/svg11.dtd">
<!-- Generated by graphviz version 2.36.0 (20140111.2315)
 -->
<!-- Title: clingo2dot Pages: 1 -->
<svg width="1144pt" height="1746pt"
 viewBox="0.00 0.00 1144.00 1746.00" xmlns="http://www.w3.org/2000/svg" xmlns:xlink="http://www.w3.org/1999/xlink">
<g id="graph0" class="graph" transform="scale(1 1) rotate(0) translate(4 1742)">
<title>clingo2dot</title>
<polygon fill="white" stroke="none" points="-4,4 -4,-1742 1140,-1742 1140,4 -4,4"/>
<!-- n80 -->
<g id="node1" class="node"><title>n80</title>
<polygon fill="#cae1ff" stroke="black" points="514,-886.5 460,-886.5 460,-841.5 514,-841.5 514,-886.5"/>
<text text-anchor="middle" x="487" y="-871.1" font-family="Helvetica,sans-Serif" font-size="8.00">node_id:78</text>
<text text-anchor="middle" x="487" y="-862.1" font-family="Helvetica,sans-Serif" font-size="8.00">opus_lite:1</text>
<text text-anchor="middle" x="487" y="-853.1" font-family="Helvetica,sans-Serif" font-size="8.00">status:1</text>
<text text-anchor="middle" x="487" y="-844.1" font-family="Helvetica,sans-Serif" font-size="8.00">type:3</text>
</g>
<!-- n104 -->
<g id="node2" class="node"><title>n104</title>
<polygon fill="#cae1ff" stroke="black" points="313,-1737.5 201,-1737.5 201,-1692.5 313,-1692.5 313,-1737.5"/>
<text text-anchor="middle" x="257" y="-1722.1" font-family="Helvetica,sans-Serif" font-size="8.00">node_id:102</text>
<text text-anchor="middle" x="257" y="-1713.1" font-family="Helvetica,sans-Serif" font-size="8.00">value:18446744073709551615</text>
<text text-anchor="middle" x="257" y="-1704.1" font-family="Helvetica,sans-Serif" font-size="8.00">name:RLIMIT_FSIZE</text>
<text text-anchor="middle" x="257" y="-1695.1" font-family="Helvetica,sans-Serif" font-size="8.00">type:1</text>
</g>
<!-- n80&#45;&gt;n104 -->
<g id="edge23" class="edge"><title>n80&#45;&gt;n104</title>
<path fill="none" stroke="blue" d="M485.547,-886.472C482.878,-1014.3 468.397,-1645.17 442,-1676 413.319,-1709.5 363.69,-1718.51 323.197,-1719.54"/>
<polygon fill="blue" stroke="blue" points="323.082,-1716.04 313.118,-1719.64 323.152,-1723.04 323.082,-1716.04"/>
<text text-anchor="middle" x="416" y="-1720.6" font-family="Helvetica,sans-Serif" font-size="8.00">state:0</text>
<text text-anchor="middle" x="416" y="-1711.6" font-family="Helvetica,sans-Serif" font-size="8.00">type:relatedTo</text>
</g>
<!-- n97 -->
<g id="node3" class="node"><title>n97</title>
<polygon fill="#cae1ff" stroke="black" points="284,-1674.5 230,-1674.5 230,-1629.5 284,-1629.5 284,-1674.5"/>
<text text-anchor="middle" x="257" y="-1659.1" font-family="Helvetica,sans-Serif" font-size="8.00">node_id:95</text>
<text text-anchor="middle" x="257" y="-1650.1" font-family="Helvetica,sans-Serif" font-size="8.00">value:x86_64</text>
<text text-anchor="middle" x="257" y="-1641.1" font-family="Helvetica,sans-Serif" font-size="8.00">name:machine</text>
<text text-anchor="middle" x="257" y="-1632.1" font-family="Helvetica,sans-Serif" font-size="8.00">type:1</text>
</g>
<!-- n80&#45;&gt;n97 -->
<g id="edge36" class="edge"><title>n80&#45;&gt;n97</title>
<path fill="none" stroke="blue" d="M486.262,-886.474C487.44,-1005.15 490.259,-1555.6 442,-1612 405.95,-1654.13 336.891,-1657.99 294.393,-1655.8"/>
<polygon fill="blue" stroke="blue" points="294.405,-1652.29 284.197,-1655.13 293.947,-1659.28 294.405,-1652.29"/>
<text text-anchor="middle" x="416" y="-1656.6" font-family="Helvetica,sans-Serif" font-size="8.00">state:0</text>
<text text-anchor="middle" x="416" y="-1647.6" font-family="Helvetica,sans-Serif" font-size="8.00">type:relatedTo</text>
</g>
<!-- n89 -->
<g id="node4" class="node"><title>n89</title>
<polygon fill="#cae1ff" stroke="black" points="324.5,-1611.5 189.5,-1611.5 189.5,-1566.5 324.5,-1566.5 324.5,-1611.5"/>
<text text-anchor="middle" x="257" y="-1596.1" font-family="Helvetica,sans-Serif" font-size="8.00">node_id:87</text>
<text text-anchor="middle" x="257" y="-1587.1" font-family="Helvetica,sans-Serif" font-size="8.00">value:/home/arthur/ProvMark/working</text>
<text text-anchor="middle" x="257" y="-1578.1" font-family="Helvetica,sans-Serif" font-size="8.00">name:cwd</text>
<text text-anchor="middle" x="257" y="-1569.1" font-family="Helvetica,sans-Serif" font-size="8.00">type:1</text>
</g>
<!-- n80&#45;&gt;n89 -->
<g id="edge28" class="edge"><title>n80&#45;&gt;n89</title>
<path fill="none" stroke="blue" d="M486.124,-886.369C486.544,-998.568 485.91,-1496.7 442,-1548 415.921,-1578.47 372.645,-1589.16 334.612,-1592.03"/>
<polygon fill="blue" stroke="blue" points="334.336,-1588.54 324.558,-1592.62 334.746,-1595.53 334.336,-1588.54"/>
<text text-anchor="middle" x="416" y="-1592.6" font-family="Helvetica,sans-Serif" font-size="8.00">state:0</text>
<text text-anchor="middle" x="416" y="-1583.6" font-family="Helvetica,sans-Serif" font-size="8.00">type:relatedTo</text>
</g>
<!-- n110 -->
<g id="node5" class="node"><title>n110</title>
<polygon fill="#cae1ff" stroke="black" points="299,-1548.5 215,-1548.5 215,-1503.5 299,-1503.5 299,-1548.5"/>
<text text-anchor="middle" x="257" y="-1533.1" font-family="Helvetica,sans-Serif" font-size="8.00">node_id:108</text>
<text text-anchor="middle" x="257" y="-1524.1" font-family="Helvetica,sans-Serif" font-size="8.00">value:15711</text>
<text text-anchor="middle" x="257" y="-1515.1" font-family="Helvetica,sans-Serif" font-size="8.00">name:RLIMIT_NPROC</text>
<text text-anchor="middle" x="257" y="-1506.1" font-family="Helvetica,sans-Serif" font-size="8.00">type:1</text>
</g>
<!-- n80&#45;&gt;n110 -->
<g id="edge16" class="edge"><title>n80&#45;&gt;n110</title>
<path fill="none" stroke="blue" d="M485.961,-886.338C485.574,-991.928 481.59,-1437.81 442,-1484 409.792,-1521.58 351.535,-1529.43 309.181,-1529.56"/>
<polygon fill="blue" stroke="blue" points="309.091,-1526.06 299.053,-1529.44 309.012,-1533.06 309.091,-1526.06"/>
<text text-anchor="middle" x="416" y="-1528.6" font-family="Helvetica,sans-Serif" font-size="8.00">state:0</text>
<text text-anchor="middle" x="416" y="-1519.6" font-family="Helvetica,sans-Serif" font-size="8.00">type:relatedTo</text>
</g>
<!-- n93 -->
<g id="node6" class="node"><title>n93</title>
<polygon fill="#cae1ff" stroke="black" points="284.5,-1485.5 229.5,-1485.5 229.5,-1440.5 284.5,-1440.5 284.5,-1485.5"/>
<text text-anchor="middle" x="257" y="-1470.1" font-family="Helvetica,sans-Serif" font-size="8.00">node_id:91</text>
<text text-anchor="middle" x="257" y="-1461.1" font-family="Helvetica,sans-Serif" font-size="8.00">value:Linux</text>
<text text-anchor="middle" x="257" y="-1452.1" font-family="Helvetica,sans-Serif" font-size="8.00">name:sysname</text>
<text text-anchor="middle" x="257" y="-1443.1" font-family="Helvetica,sans-Serif" font-size="8.00">type:1</text>
</g>
<!-- n80&#45;&gt;n93 -->
<g id="edge33" class="edge"><title>n80&#45;&gt;n93</title>
<path fill="none" stroke="blue" d="M485.762,-886.293C484.509,-984.914 477.31,-1378.93 442,-1420 405.921,-1461.97 337.487,-1467.3 295.01,-1466.05"/>
<polygon fill="blue" stroke="blue" points="294.947,-1462.54 284.806,-1465.61 294.645,-1469.54 294.947,-1462.54"/>
<text text-anchor="middle" x="416" y="-1464.6" font-family="Helvetica,sans-Serif" font-size="8.00">state:0</text>
<text text-anchor="middle" x="416" y="-1455.6" font-family="Helvetica,sans-Serif" font-size="8.00">type:relatedTo</text>
</g>
<!-- n95 -->
<g id="node8" class="node"><title>n95</title>
<polygon fill="#cae1ff" stroke="black" points="297.5,-1422.5 216.5,-1422.5 216.5,-1377.5 297.5,-1377.5 297.5,-1422.5"/>
<text text-anchor="middle" x="257" y="-1407.1" font-family="Helvetica,sans-Serif" font-size="8.00">node_id:93</text>
<text text-anchor="middle" x="257" y="-1398.1" font-family="Helvetica,sans-Serif" font-size="8.00">value:4.4.0&#45;38&#45;generic</text>
<text text-anchor="middle" x="257" y="-1389.1" font-family="Helvetica,sans-Serif" font-size="8.00">name:release</text>
<text text-anchor="middle" x="257" y="-1380.1" font-family="Helvetica,sans-Serif" font-size="8.00">type:1</text>
</g>
<!-- n80&#45;&gt;n95 -->
<g id="edge5" class="edge"><title>n80&#45;&gt;n95</title>
<path fill="none" stroke="blue" d="M485.502,-886.391C483.268,-977.737 472.898,-1319.06 442,-1355 409.319,-1393.01 350.32,-1401.71 307.932,-1402.53"/>
<polygon fill="blue" stroke="blue" points="307.792,-1399.03 297.81,-1402.58 307.829,-1406.03 307.792,-1399.03"/>
<text text-anchor="middle" x="416" y="-1400.6" font-family="Helvetica,sans-Serif" font-size="8.00">state:0</text>
<text text-anchor="middle" x="416" y="-1391.6" font-family="Helvetica,sans-Serif" font-size="8.00">type:relatedTo</text>
</g>
<!-- n115 -->
<g id="node9" class="node"><title>n115</title>
<polygon fill="#cae1ff" stroke="black" points="298,-1359.5 216,-1359.5 216,-1314.5 298,-1314.5 298,-1359.5"/>
<text text-anchor="middle" x="257" y="-1344.1" font-family="Helvetica,sans-Serif" font-size="8.00">node_id:113</text>
<text text-anchor="middle" x="257" y="-1335.1" font-family="Helvetica,sans-Serif" font-size="8.00">value:8388608</text>
<text text-anchor="middle" x="257" y="-1326.1" font-family="Helvetica,sans-Serif" font-size="8.00">name:RLIMIT_STACK</text>
<text text-anchor="middle" x="257" y="-1317.1" font-family="Helvetica,sans-Serif" font-size="8.00">type:1</text>
</g>
<!-- n80&#45;&gt;n115 -->
<g id="edge8" class="edge"><title>n80&#45;&gt;n115</title>
<path fill="none" stroke="blue" d="M485.163,-886.478C481.856,-969.993 468.56,-1259.21 442,-1290 409.271,-1327.94 350.559,-1337.4 308.246,-1338.82"/>
<polygon fill="blue" stroke="blue" points="308.066,-1335.32 298.137,-1339.02 308.205,-1342.32 308.066,-1335.32"/>
<text text-anchor="middle" x="416" y="-1335.6" font-family="Helvetica,sans-Serif" font-size="8.00">state:0</text>
<text text-anchor="middle" x="416" y="-1326.6" font-family="Helvetica,sans-Serif" font-size="8.00">type:relatedTo</text>
</g>
<!-- n100 -->
<g id="node12" class="node"><title>n100</title>
<polygon fill="#cae1ff" stroke="black" points="313,-1296.5 201,-1296.5 201,-1251.5 313,-1251.5 313,-1296.5"/>
<text text-anchor="middle" x="257" y="-1281.1" font-family="Helvetica,sans-Serif" font-size="8.00">node_id:98</text>
<text text-anchor="middle" x="257" y="-1272.1" font-family="Helvetica,sans-Serif" font-size="8.00">value:18446744073709551615</text>
<text text-anchor="middle" x="257" y="-1263.1" font-family="Helvetica,sans-Serif" font-size="8.00">name:RLIMIT_CPU</text>
<text text-anchor="middle" x="257" y="-1254.1" font-family="Helvetica,sans-Serif" font-size="8.00">type:1</text>
</g>
<!-- n80&#45;&gt;n100 -->
<g id="edge22" class="edge"><title>n80&#45;&gt;n100</title>
<path fill="none" stroke="blue" d="M486.422,-886.341C487.29,-957.029 486.234,-1174.15 442,-1225 412.799,-1258.57 363.442,-1270.39 323.195,-1274.04"/>
<polygon fill="blue" stroke="blue" points="322.882,-1270.56 313.176,-1274.8 323.413,-1277.54 322.882,-1270.56"/>
<text text-anchor="middle" x="416" y="-1270.6" font-family="Helvetica,sans-Serif" font-size="8.00">state:0</text>
<text text-anchor="middle" x="416" y="-1261.6" font-family="Helvetica,sans-Serif" font-size="8.00">type:relatedTo</text>
</g>
<!-- n94 -->
<g id="node15" class="node"><title>n94</title>
<polygon fill="#cae1ff" stroke="black" points="298,-1233.5 216,-1233.5 216,-1188.5 298,-1188.5 298,-1233.5"/>
<text text-anchor="middle" x="257" y="-1218.1" font-family="Helvetica,sans-Serif" font-size="8.00">node_id:92</text>
<text text-anchor="middle" x="257" y="-1209.1" font-family="Helvetica,sans-Serif" font-size="8.00">value:arthur&#45;VirtualBox</text>
<text text-anchor="middle" x="257" y="-1200.1" font-family="Helvetica,sans-Serif" font-size="8.00">name:nodename</text>
<text text-anchor="middle" x="257" y="-1191.1" font-family="Helvetica,sans-Serif" font-size="8.00">type:1</text>
</g>
<!-- n80&#45;&gt;n94 -->
<g id="edge11" class="edge"><title>n80&#45;&gt;n94</title>
<path fill="none" stroke="blue" d="M485.723,-886.599C484.5,-948.596 477.875,-1119.42 442,-1160 408.733,-1197.63 350.395,-1208.58 308.313,-1211.25"/>
<polygon fill="blue" stroke="blue" points="308.072,-1207.76 298.259,-1211.75 308.421,-1214.75 308.072,-1207.76"/>
<text text-anchor="middle" x="416" y="-1205.6" font-family="Helvetica,sans-Serif" font-size="8.00">state:0</text>
<text text-anchor="middle" x="416" y="-1196.6" font-family="Helvetica,sans-Serif" font-size="8.00">type:relatedTo</text>
</g>
<!-- n98 -->
<g id="node17" class="node"><title>n98</title>
<polygon fill="#cae1ff" stroke="black" points="313,-1170.5 201,-1170.5 201,-1125.5 313,-1125.5 313,-1170.5"/>
<text text-anchor="middle" x="257" y="-1155.1" font-family="Helvetica,sans-Serif" font-size="8.00">node_id:96</text>
<text text-anchor="middle" x="257" y="-1146.1" font-family="Helvetica,sans-Serif" font-size="8.00">value:18446744073709551615</text>
<text text-anchor="middle" x="257" y="-1137.1" font-family="Helvetica,sans-Serif" font-size="8.00">name:RLIMIT_AS</text>
<text text-anchor="middle" x="257" y="-1128.1" font-family="Helvetica,sans-Serif" font-size="8.00">type:1</text>
</g>
<!-- n80&#45;&gt;n98 -->
<g id="edge6" class="edge"><title>n80&#45;&gt;n98</title>
<path fill="none" stroke="blue" d="M484.639,-886.411C481.045,-938.256 469.613,-1064.38 442,-1095 412.139,-1128.11 363.056,-1141.08 323.092,-1145.92"/>
<polygon fill="blue" stroke="blue" points="322.717,-1142.44 313.145,-1146.98 323.46,-1149.4 322.717,-1142.44"/>
<text text-anchor="middle" x="416" y="-1140.6" font-family="Helvetica,sans-Serif" font-size="8.00">state:0</text>
<text text-anchor="middle" x="416" y="-1131.6" font-family="Helvetica,sans-Serif" font-size="8.00">type:relatedTo</text>
</g>
<!-- n113 -->
<g id="node18" class="node"><title>n113</title>
<polygon fill="#cae1ff" stroke="black" points="313,-1107.5 201,-1107.5 201,-1062.5 313,-1062.5 313,-1107.5"/>
<text text-anchor="middle" x="257" y="-1092.1" font-family="Helvetica,sans-Serif" font-size="8.00">node_id:111</text>
<text text-anchor="middle" x="257" y="-1083.1" font-family="Helvetica,sans-Serif" font-size="8.00">value:18446744073709551615</text>
<text text-anchor="middle" x="257" y="-1074.1" font-family="Helvetica,sans-Serif" font-size="8.00">name:RLIMIT_RTTIME</text>
<text text-anchor="middle" x="257" y="-1065.1" font-family="Helvetica,sans-Serif" font-size="8.00">type:1</text>
</g>
<!-- n80&#45;&gt;n113 -->
<g id="edge21" class="edge"><title>n80&#45;&gt;n113</title>
<path fill="none" stroke="blue" d="M486.345,-886.347C485.659,-921.321 479.206,-989.107 442,-1029 411.622,-1061.57 362.946,-1075.41 323.288,-1081.18"/>
<polygon fill="blue" stroke="blue" points="322.613,-1077.74 313.155,-1082.52 323.526,-1084.68 322.613,-1077.74"/>
<text text-anchor="middle" x="416" y="-1075.6" font-family="Helvetica,sans-Serif" font-size="8.00">state:0</text>
<text text-anchor="middle" x="416" y="-1066.6" font-family="Helvetica,sans-Serif" font-size="8.00">type:relatedTo</text>
</g>
<!-- n109 -->
<g id="node19" class="node"><title>n109</title>
<polygon fill="#cae1ff" stroke="black" points="299,-1044.5 215,-1044.5 215,-999.5 299,-999.5 299,-1044.5"/>
<text text-anchor="middle" x="257" y="-1029.1" font-family="Helvetica,sans-Serif" font-size="8.00">node_id:107</text>
<text text-anchor="middle" x="257" y="-1020.1" font-family="Helvetica,sans-Serif" font-size="8.00">value:1024</text>
<text text-anchor="middle" x="257" y="-1011.1" font-family="Helvetica,sans-Serif" font-size="8.00">name:RLIMIT_NOFILE</text>
<text text-anchor="middle" x="257" y="-1002.1" font-family="Helvetica,sans-Serif" font-size="8.00">type:1</text>
</g>
<!-- n80&#45;&gt;n109 -->
<g id="edge30" class="edge"><title>n80&#45;&gt;n109</title>
<path fill="none" stroke="blue" d="M482.257,-886.264C477.162,-909.778 465.797,-946.379 442,-968 405.542,-1001.12 349.762,-1014 309.174,-1018.96"/>
<polygon fill="blue" stroke="blue" points="308.759,-1015.49 299.203,-1020.06 309.527,-1022.45 308.759,-1015.49"/>
<text text-anchor="middle" x="416" y="-1009.6" font-family="Helvetica,sans-Serif" font-size="8.00">state:0</text>
<text text-anchor="middle" x="416" y="-1000.6" font-family="Helvetica,sans-Serif" font-size="8.00">type:relatedTo</text>
</g>
<!-- n91 -->
<g id="node20" class="node"><title>n91</title>
<polygon fill="#cae1ff" stroke="black" points="284,-981.5 230,-981.5 230,-936.5 284,-936.5 284,-981.5"/>
<text text-anchor="middle" x="257" y="-966.1" font-family="Helvetica,sans-Serif" font-size="8.00">node_id:89</text>
<text text-anchor="middle" x="257" y="-957.1" font-family="Helvetica,sans-Serif" font-size="8.00">value:root</text>
<text text-anchor="middle" x="257" y="-948.1" font-family="Helvetica,sans-Serif" font-size="8.00">name:uid</text>
<text text-anchor="middle" x="257" y="-939.1" font-family="Helvetica,sans-Serif" font-size="8.00">type:1</text>
</g>
<!-- n80&#45;&gt;n91 -->
<g id="edge7" class="edge"><title>n80&#45;&gt;n91</title>
<path fill="none" stroke="blue" d="M470.711,-886.297C463.112,-895.824 453.166,-906.276 442,-913 395.848,-940.794 333.528,-951.85 294.56,-956.211"/>
<polygon fill="blue" stroke="blue" points="293.812,-952.769 284.221,-957.271 294.526,-959.732 293.812,-952.769"/>
<text text-anchor="middle" x="416" y="-948.6" font-family="Helvetica,sans-Serif" font-size="8.00">state:0</text>
<text text-anchor="middle" x="416" y="-939.6" font-family="Helvetica,sans-Serif" font-size="8.00">type:relatedTo</text>
</g>
<!-- n107 -->
<g id="node21" class="node"><title>n107</title>
<polygon fill="#cae1ff" stroke="black" points="307.5,-918.5 206.5,-918.5 206.5,-873.5 307.5,-873.5 307.5,-918.5"/>
<text text-anchor="middle" x="257" y="-903.1" font-family="Helvetica,sans-Serif" font-size="8.00">node_id:105</text>
<text text-anchor="middle" x="257" y="-894.1" font-family="Helvetica,sans-Serif" font-size="8.00">value:819200</text>
<text text-anchor="middle" x="257" y="-885.1" font-family="Helvetica,sans-Serif" font-size="8.00">name:RLIMIT_MSGQUEUE</text>
<text text-anchor="middle" x="257" y="-876.1" font-family="Helvetica,sans-Serif" font-size="8.00">type:1</text>
</g>
<!-- n80&#45;&gt;n107 -->
<g id="edge3" class="edge"><title>n80&#45;&gt;n107</title>
<path fill="none" stroke="blue" d="M459.565,-870.479C453.798,-871.76 447.712,-873.012 442,-874 400.884,-881.11 354.201,-886.663 318.146,-890.411"/>
<polygon fill="blue" stroke="blue" points="317.387,-886.97 307.795,-891.468 318.098,-893.934 317.387,-886.97"/>
<text text-anchor="middle" x="416" y="-893.6" font-family="Helvetica,sans-Serif" font-size="8.00">state:0</text>
<text text-anchor="middle" x="416" y="-884.6" font-family="Helvetica,sans-Serif" font-size="8.00">type:relatedTo</text>
</g>
<!-- n111 -->
<g id="node22" class="node"><title>n111</title>
<polygon fill="#cae1ff" stroke="black" points="313,-855.5 201,-855.5 201,-810.5 313,-810.5 313,-855.5"/>
<text text-anchor="middle" x="257" y="-840.1" font-family="Helvetica,sans-Serif" font-size="8.00">node_id:109</text>
<text text-anchor="middle" x="257" y="-831.1" font-family="Helvetica,sans-Serif" font-size="8.00">value:18446744073709551615</text>
<text text-anchor="middle" x="257" y="-822.1" font-family="Helvetica,sans-Serif" font-size="8.00">name:RLIMIT_RSS</text>
<text text-anchor="middle" x="257" y="-813.1" font-family="Helvetica,sans-Serif" font-size="8.00">type:1</text>
</g>
<!-- n80&#45;&gt;n111 -->
<g id="edge32" class="edge"><title>n80&#45;&gt;n111</title>
<path fill="none" stroke="blue" d="M459.867,-852.466C454.081,-850.32 447.911,-848.336 442,-847 403.32,-838.256 359.028,-834.695 323.593,-833.349"/>
<polygon fill="blue" stroke="blue" points="323.482,-829.843 313.373,-833.012 323.252,-836.84 323.482,-829.843"/>
<text text-anchor="middle" x="416" y="-858.6" font-family="Helvetica,sans-Serif" font-size="8.00">state:0</text>
<text text-anchor="middle" x="416" y="-849.6" font-family="Helvetica,sans-Serif" font-size="8.00">type:relatedTo</text>
</g>
<!-- n96 -->
<g id="node24" class="node"><title>n96</title>
<polygon fill="#cae1ff" stroke="black" points="371.5,-792.5 142.5,-792.5 142.5,-747.5 371.5,-747.5 371.5,-792.5"/>
<text text-anchor="middle" x="257" y="-777.1" font-family="Helvetica,sans-Serif" font-size="8.00">node_id:94</text>
<text text-anchor="middle" x="257" y="-768.1" font-family="Helvetica,sans-Serif" font-size="8.00">value:#57~14.04.1&#45;Ubuntu SMP Tue Sep 6 17:20:43 UTC 2016</text>
<text text-anchor="middle" x="257" y="-759.1" font-family="Helvetica,sans-Serif" font-size="8.00">name:version</text>
<text text-anchor="middle" x="257" y="-750.1" font-family="Helvetica,sans-Serif" font-size="8.00">type:1</text>
</g>
<!-- n80&#45;&gt;n96 -->
<g id="edge1" class="edge"><title>n80&#45;&gt;n96</title>
<path fill="none" stroke="blue" d="M473.732,-841.687C466.113,-829.893 455.247,-816.199 442,-808 423.721,-796.686 402.658,-788.679 381.456,-783.026"/>
<polygon fill="blue" stroke="blue" points="382.265,-779.62 371.715,-780.59 380.568,-786.411 382.265,-779.62"/>
<text text-anchor="middle" x="416" y="-819.6" font-family="Helvetica,sans-Serif" font-size="8.00">state:0</text>
<text text-anchor="middle" x="416" y="-810.6" font-family="Helvetica,sans-Serif" font-size="8.00">type:relatedTo</text>
</g>
<!-- n108 -->
<g id="node25" class="node"><title>n108</title>
<polygon fill="#cae1ff" stroke="black" points="294,-729.5 220,-729.5 220,-684.5 294,-684.5 294,-729.5"/>
<text text-anchor="middle" x="257" y="-714.1" font-family="Helvetica,sans-Serif" font-size="8.00">node_id:106</text>
<text text-anchor="middle" x="257" y="-705.1" font-family="Helvetica,sans-Serif" font-size="8.00">value:0</text>
<text text-anchor="middle" x="257" y="-696.1" font-family="Helvetica,sans-Serif" font-size="8.00">name:RLIMIT_NICE</text>
<text text-anchor="middle" x="257" y="-687.1" font-family="Helvetica,sans-Serif" font-size="8.00">type:1</text>
</g>
<!-- n80&#45;&gt;n108 -->
<g id="edge19" class="edge"><title>n80&#45;&gt;n108</title>
<path fill="none" stroke="blue" d="M482.943,-841.35C478.39,-816.558 467.442,-777.367 442,-755 403.909,-721.513 345.272,-710.932 304.466,-707.824"/>
<polygon fill="blue" stroke="blue" points="304.443,-704.315 294.24,-707.172 303.997,-711.301 304.443,-704.315"/>
<text text-anchor="middle" x="416" y="-766.6" font-family="Helvetica,sans-Serif" font-size="8.00">state:0</text>
<text text-anchor="middle" x="416" y="-757.6" font-family="Helvetica,sans-Serif" font-size="8.00">type:relatedTo</text>
</g>
<!-- n101 -->
<g id="node26" class="node"><title>n101</title>
<polygon fill="#cae1ff" stroke="black" points="313,-666.5 201,-666.5 201,-621.5 313,-621.5 313,-666.5"/>
<text text-anchor="middle" x="257" y="-651.1" font-family="Helvetica,sans-Serif" font-size="8.00">node_id:99</text>
<text text-anchor="middle" x="257" y="-642.1" font-family="Helvetica,sans-Serif" font-size="8.00">value:18446744073709551615</text>
<text text-anchor="middle" x="257" y="-633.1" font-family="Helvetica,sans-Serif" font-size="8.00">name:RLIMIT_DATA</text>
<text text-anchor="middle" x="257" y="-624.1" font-family="Helvetica,sans-Serif" font-size="8.00">type:1</text>
</g>
<!-- n80&#45;&gt;n101 -->
<g id="edge17" class="edge"><title>n80&#45;&gt;n101</title>
<path fill="none" stroke="blue" d="M486.663,-841.661C486.466,-805.995 480.739,-736.131 442,-696 411.353,-664.252 362.923,-651.454 323.44,-646.486"/>
<polygon fill="blue" stroke="blue" points="323.677,-642.991 313.35,-645.36 322.9,-649.948 323.677,-642.991"/>
<text text-anchor="middle" x="416" y="-707.6" font-family="Helvetica,sans-Serif" font-size="8.00">state:0</text>
<text text-anchor="middle" x="416" y="-698.6" font-family="Helvetica,sans-Serif" font-size="8.00">type:relatedTo</text>
</g>
<!-- n92 -->
<g id="node27" class="node"><title>n92</title>
<polygon fill="#cae1ff" stroke="black" points="284,-603.5 230,-603.5 230,-558.5 284,-558.5 284,-603.5"/>
<text text-anchor="middle" x="257" y="-588.1" font-family="Helvetica,sans-Serif" font-size="8.00">node_id:90</text>
<text text-anchor="middle" x="257" y="-579.1" font-family="Helvetica,sans-Serif" font-size="8.00">value:root</text>
<text text-anchor="middle" x="257" y="-570.1" font-family="Helvetica,sans-Serif" font-size="8.00">name:gid</text>
<text text-anchor="middle" x="257" y="-561.1" font-family="Helvetica,sans-Serif" font-size="8.00">type:1</text>
</g>
<!-- n80&#45;&gt;n92 -->
<g id="edge31" class="edge"><title>n80&#45;&gt;n92</title>
<path fill="none" stroke="blue" d="M484.639,-841.589C481.045,-789.744 469.613,-663.622 442,-633 404.394,-591.297 336.144,-582.002 294.169,-580.495"/>
<polygon fill="blue" stroke="blue" points="294.176,-576.995 284.099,-580.265 294.016,-583.993 294.176,-576.995"/>
<text text-anchor="middle" x="416" y="-644.6" font-family="Helvetica,sans-Serif" font-size="8.00">state:0</text>
<text text-anchor="middle" x="416" y="-635.6" font-family="Helvetica,sans-Serif" font-size="8.00">type:relatedTo</text>
</g>
<!-- n114 -->
<g id="node28" class="node"><title>n114</title>
<polygon fill="#cae1ff" stroke="black" points="309.5,-540.5 204.5,-540.5 204.5,-495.5 309.5,-495.5 309.5,-540.5"/>
<text text-anchor="middle" x="257" y="-525.1" font-family="Helvetica,sans-Serif" font-size="8.00">node_id:112</text>
<text text-anchor="middle" x="257" y="-516.1" font-family="Helvetica,sans-Serif" font-size="8.00">value:15711</text>
<text text-anchor="middle" x="257" y="-507.1" font-family="Helvetica,sans-Serif" font-size="8.00">name:RLIMIT_SIGPENDING</text>
<text text-anchor="middle" x="257" y="-498.1" font-family="Helvetica,sans-Serif" font-size="8.00">type:1</text>
</g>
<!-- n80&#45;&gt;n114 -->
<g id="edge2" class="edge"><title>n80&#45;&gt;n114</title>
<path fill="none" stroke="blue" d="M485.695,-841.491C484.4,-779.74 477.607,-609.574 442,-569 411.765,-534.547 360.507,-522.434 319.76,-518.579"/>
<polygon fill="blue" stroke="blue" points="319.894,-515.078 309.646,-517.768 319.334,-522.056 319.894,-515.078"/>
<text text-anchor="middle" x="416" y="-580.6" font-family="Helvetica,sans-Serif" font-size="8.00">state:0</text>
<text text-anchor="middle" x="416" y="-571.6" font-family="Helvetica,sans-Serif" font-size="8.00">type:relatedTo</text>
</g>
<!-- n3 -->
<g id="node29" class="node"><title>n3</title>
<ellipse fill="green" stroke="black" cx="257" cy="-459" rx="27" ry="18"/>
<text text-anchor="middle" x="257" y="-457.1" font-family="Helvetica,sans-Serif" font-size="8.00">Dummy Node</text>
</g>
<!-- n80&#45;&gt;n3 -->
<g id="edge20" class="edge"><title>n80&#45;&gt;n3</title>
<path fill="none" stroke="blue" d="M486.399,-841.295C487.17,-770.508 485.786,-555.547 442,-505 405.43,-462.784 336.54,-456.316 294.216,-456.758"/>
<polygon fill="blue" stroke="blue" points="293.976,-453.263 284.063,-457.002 294.144,-460.261 293.976,-453.263"/>
<text text-anchor="middle" x="416" y="-516.6" font-family="Helvetica,sans-Serif" font-size="8.00">state:0</text>
<text text-anchor="middle" x="416" y="-507.6" font-family="Helvetica,sans-Serif" font-size="8.00">type:relatedTo</text>
</g>
<!-- n90 -->
<g id="node31" class="node"><title>n90</title>
<polygon fill="#cae1ff" stroke="black" points="286,-422.5 228,-422.5 228,-377.5 286,-377.5 286,-422.5"/>
<text text-anchor="middle" x="257" y="-407.1" font-family="Helvetica,sans-Serif" font-size="8.00">node_id:88</text>
<text text-anchor="middle" x="257" y="-398.1" font-family="Helvetica,sans-Serif" font-size="8.00">value:</text>
<text text-anchor="middle" x="257" y="-389.1" font-family="Helvetica,sans-Serif" font-size="8.00">name:cmd_args</text>
<text text-anchor="middle" x="257" y="-380.1" font-family="Helvetica,sans-Serif" font-size="8.00">type:1</text>
</g>
<!-- n80&#45;&gt;n90 -->
<g id="edge18" class="edge"><title>n80&#45;&gt;n90</title>
<path fill="none" stroke="blue" d="M485.182,-841.654C481.942,-758.631 468.854,-471.153 442,-441 405.781,-400.332 338.908,-395.21 296.532,-396.606"/>
<polygon fill="blue" stroke="blue" points="296.146,-393.12 286.321,-397.084 296.473,-400.112 296.146,-393.12"/>
<text text-anchor="middle" x="416" y="-452.6" font-family="Helvetica,sans-Serif" font-size="8.00">state:0</text>
<text text-anchor="middle" x="416" y="-443.6" font-family="Helvetica,sans-Serif" font-size="8.00">type:relatedTo</text>
</g>
<!-- n105 -->
<g id="node32" class="node"><title>n105</title>
<polygon fill="#cae1ff" stroke="black" points="313,-359.5 201,-359.5 201,-314.5 313,-314.5 313,-359.5"/>
<text text-anchor="middle" x="257" y="-344.1" font-family="Helvetica,sans-Serif" font-size="8.00">node_id:103</text>
<text text-anchor="middle" x="257" y="-335.1" font-family="Helvetica,sans-Serif" font-size="8.00">value:18446744073709551615</text>
<text text-anchor="middle" x="257" y="-326.1" font-family="Helvetica,sans-Serif" font-size="8.00">name:RLIMIT_LOCKS</text>
<text text-anchor="middle" x="257" y="-317.1" font-family="Helvetica,sans-Serif" font-size="8.00">type:1</text>
</g>
<!-- n80&#45;&gt;n105 -->
<g id="edge26" class="edge"><title>n80&#45;&gt;n105</title>
<path fill="none" stroke="blue" d="M485.489,-841.563C483.222,-750.825 472.781,-414.207 442,-379 412.973,-345.799 363.607,-335.9 323.312,-333.977"/>
<polygon fill="blue" stroke="blue" points="323.39,-330.478 313.281,-333.651 323.162,-337.474 323.39,-330.478"/>
<text text-anchor="middle" x="416" y="-390.6" font-family="Helvetica,sans-Serif" font-size="8.00">state:0</text>
<text text-anchor="middle" x="416" y="-381.6" font-family="Helvetica,sans-Serif" font-size="8.00">type:relatedTo</text>
</g>
<!-- n106 -->
<g id="node33" class="node"><title>n106</title>
<polygon fill="#cae1ff" stroke="black" points="304.5,-296.5 209.5,-296.5 209.5,-251.5 304.5,-251.5 304.5,-296.5"/>
<text text-anchor="middle" x="257" y="-281.1" font-family="Helvetica,sans-Serif" font-size="8.00">node_id:104</text>
<text text-anchor="middle" x="257" y="-272.1" font-family="Helvetica,sans-Serif" font-size="8.00">value:65536</text>
<text text-anchor="middle" x="257" y="-263.1" font-family="Helvetica,sans-Serif" font-size="8.00">name:RLIMIT_MEMLOCK</text>
<text text-anchor="middle" x="257" y="-254.1" font-family="Helvetica,sans-Serif" font-size="8.00">type:1</text>
</g>
<!-- n80&#45;&gt;n106 -->
<g id="edge9" class="edge"><title>n80&#45;&gt;n106</title>
<path fill="none" stroke="blue" d="M485.74,-841.696C484.397,-743.932 476.894,-356.33 442,-316 411.004,-280.175 356.331,-271.419 314.611,-270.583"/>
<polygon fill="blue" stroke="blue" points="314.595,-267.083 304.576,-270.528 314.556,-274.083 314.595,-267.083"/>
<text text-anchor="middle" x="416" y="-327.6" font-family="Helvetica,sans-Serif" font-size="8.00">state:0</text>
<text text-anchor="middle" x="416" y="-318.6" font-family="Helvetica,sans-Serif" font-size="8.00">type:relatedTo</text>
</g>
<!-- n99 -->
<g id="node34" class="node"><title>n99</title>
<polygon fill="#cae1ff" stroke="black" points="296,-233.5 218,-233.5 218,-188.5 296,-188.5 296,-233.5"/>
<text text-anchor="middle" x="257" y="-218.1" font-family="Helvetica,sans-Serif" font-size="8.00">node_id:97</text>
<text text-anchor="middle" x="257" y="-209.1" font-family="Helvetica,sans-Serif" font-size="8.00">value:0</text>
<text text-anchor="middle" x="257" y="-200.1" font-family="Helvetica,sans-Serif" font-size="8.00">name:RLIMIT_CORE</text>
<text text-anchor="middle" x="257" y="-191.1" font-family="Helvetica,sans-Serif" font-size="8.00">type:1</text>
</g>
<!-- n80&#45;&gt;n99 -->
<g id="edge14" class="edge"><title>n80&#45;&gt;n99</title>
<path fill="none" stroke="blue" d="M485.936,-841.638C485.433,-736.951 480.998,-298.451 442,-253 409.082,-214.635 349.013,-207.258 306.474,-207.452"/>
<polygon fill="blue" stroke="blue" points="306.267,-203.955 296.334,-207.642 306.398,-210.954 306.267,-203.955"/>
<text text-anchor="middle" x="416" y="-264.6" font-family="Helvetica,sans-Serif" font-size="8.00">state:0</text>
<text text-anchor="middle" x="416" y="-255.6" font-family="Helvetica,sans-Serif" font-size="8.00">type:relatedTo</text>
</g>
<!-- n103 -->
<g id="node36" class="node"><title>n103</title>
<polygon fill="#cae1ff" stroke="black" points="313,-170.5 201,-170.5 201,-125.5 313,-125.5 313,-170.5"/>
<text text-anchor="middle" x="257" y="-155.1" font-family="Helvetica,sans-Serif" font-size="8.00">node_id:101</text>
<text text-anchor="middle" x="257" y="-146.1" font-family="Helvetica,sans-Serif" font-size="8.00">value:18446744073709551615</text>
<text text-anchor="middle" x="257" y="-137.1" font-family="Helvetica,sans-Serif" font-size="8.00">name:RLIMIT_LOCKS</text>
<text text-anchor="middle" x="257" y="-128.1" font-family="Helvetica,sans-Serif" font-size="8.00">type:1</text>
</g>
<!-- n80&#45;&gt;n103 -->
<g id="edge38" class="edge"><title>n80&#45;&gt;n103</title>
<path fill="none" stroke="blue" d="M486.097,-841.595C486.373,-730.341 485.117,-240.593 442,-190 413.297,-156.32 363.668,-146.487 323.182,-144.713"/>
<polygon fill="blue" stroke="blue" points="323.2,-141.212 313.104,-144.426 323,-148.209 323.2,-141.212"/>
<text text-anchor="middle" x="416" y="-201.6" font-family="Helvetica,sans-Serif" font-size="8.00">state:0</text>
<text text-anchor="middle" x="416" y="-192.6" font-family="Helvetica,sans-Serif" font-size="8.00">type:relatedTo</text>
</g>
<!-- n102 -->
<g id="node37" class="node"><title>n102</title>
<polygon fill="#cae1ff" stroke="black" points="313,-107.5 201,-107.5 201,-62.5 313,-62.5 313,-107.5"/>
<text text-anchor="middle" x="257" y="-92.1" font-family="Helvetica,sans-Serif" font-size="8.00">node_id:100</text>
<text text-anchor="middle" x="257" y="-83.1" font-family="Helvetica,sans-Serif" font-size="8.00">value:18446744073709551615</text>
<text text-anchor="middle" x="257" y="-74.1" font-family="Helvetica,sans-Serif" font-size="8.00">name:RLIMIT_FSIZE</text>
<text text-anchor="middle" x="257" y="-65.1" font-family="Helvetica,sans-Serif" font-size="8.00">type:1</text>
</g>
<!-- n80&#45;&gt;n102 -->
<g id="edge29" class="edge"><title>n80&#45;&gt;n102</title>
<path fill="none" stroke="blue" d="M486.231,-841.479C487.234,-723.791 489.236,-182.739 442,-127 413.39,-93.2399 363.757,-83.4113 323.245,-81.6597"/>
<polygon fill="blue" stroke="blue" points="323.253,-78.1587 313.16,-81.3788 323.058,-85.156 323.253,-78.1587"/>
<text text-anchor="middle" x="416" y="-138.6" font-family="Helvetica,sans-Serif" font-size="8.00">state:0</text>
<text text-anchor="middle" x="416" y="-129.6" font-family="Helvetica,sans-Serif" font-size="8.00">type:relatedTo</text>
</g>
<!-- n112 -->
<g id="node38" class="node"><title>n112</title>
<polygon fill="#cae1ff" stroke="black" points="299.5,-44.5 214.5,-44.5 214.5,0.5 299.5,0.5 299.5,-44.5"/>
<text text-anchor="middle" x="257" y="-29.1" font-family="Helvetica,sans-Serif" font-size="8.00">node_id:110</text>
<text text-anchor="middle" x="257" y="-20.1" font-family="Helvetica,sans-Serif" font-size="8.00">value:0</text>
<text text-anchor="middle" x="257" y="-11.1" font-family="Helvetica,sans-Serif" font-size="8.00">name:RLIMIT_RTPRIO</text>
<text text-anchor="middle" x="257" y="-2.1" font-family="Helvetica,sans-Serif" font-size="8.00">type:1</text>
</g>
<!-- n80&#45;&gt;n112 -->
<g id="edge34" class="edge"><title>n80&#45;&gt;n112</title>
<path fill="none" stroke="blue" d="M485.519,-841.454C482.721,-714.611 467.755,-94.5364 442,-64 410.189,-26.2834 352.137,-18.406 309.722,-18.3138"/>
<polygon fill="blue" stroke="blue" points="309.53,-14.8158 299.573,-18.4374 309.615,-21.8152 309.53,-14.8158"/>
<text text-anchor="middle" x="416" y="-75.6" font-family="Helvetica,sans-Serif" font-size="8.00">state:0</text>
<text text-anchor="middle" x="416" y="-66.6" font-family="Helvetica,sans-Serif" font-size="8.00">type:relatedTo</text>
</g>
<!-- n81 -->
<g id="node7" class="node"><title>n81</title>
<polygon fill="#cae1ff" stroke="black" points="656,-1010 602,-1010 602,-974 656,-974 656,-1010"/>
<text text-anchor="middle" x="629" y="-994.6" font-family="Helvetica,sans-Serif" font-size="8.00">node_id:79</text>
<text text-anchor="middle" x="629" y="-985.6" font-family="Helvetica,sans-Serif" font-size="8.00">name:2</text>
<text text-anchor="middle" x="629" y="-976.6" font-family="Helvetica,sans-Serif" font-size="8.00">type:4</text>
</g>
<!-- n81&#45;&gt;n80 -->
<g id="edge15" class="edge"><title>n81&#45;&gt;n80</title>
<path fill="none" stroke="blue" d="M601.802,-983.46C580.905,-975.598 551.934,-962.225 532,-943 518.337,-929.824 507.766,-911.472 500.413,-895.772"/>
<polygon fill="blue" stroke="blue" points="503.511,-894.126 496.252,-886.41 497.115,-896.969 503.511,-894.126"/>
<text text-anchor="middle" x="558" y="-987.6" font-family="Helvetica,sans-Serif" font-size="8.00">state:5</text>
<text text-anchor="middle" x="558" y="-978.6" font-family="Helvetica,sans-Serif" font-size="8.00">type:relatedTo</text>
</g>
<!-- n85 -->
<g id="node10" class="node"><title>n85</title>
<polygon fill="#cae1ff" stroke="black" points="656,-886.5 602,-886.5 602,-841.5 656,-841.5 656,-886.5"/>
<text text-anchor="middle" x="629" y="-871.1" font-family="Helvetica,sans-Serif" font-size="8.00">ref_count:1</text>
<text text-anchor="middle" x="629" y="-862.1" font-family="Helvetica,sans-Serif" font-size="8.00">node_id:83</text>
<text text-anchor="middle" x="629" y="-853.1" font-family="Helvetica,sans-Serif" font-size="8.00">name:omega</text>
<text text-anchor="middle" x="629" y="-844.1" font-family="Helvetica,sans-Serif" font-size="8.00">type:4</text>
</g>
<!-- n85&#45;&gt;n80 -->
<g id="edge4" class="edge"><title>n85&#45;&gt;n80</title>
<path fill="none" stroke="blue" d="M601.995,-864C580.228,-864 548.917,-864 524.615,-864"/>
<polygon fill="blue" stroke="blue" points="524.341,-860.5 514.341,-864 524.341,-867.5 524.341,-860.5"/>
<text text-anchor="middle" x="558" y="-875.6" font-family="Helvetica,sans-Serif" font-size="8.00">state:10</text>
<text text-anchor="middle" x="558" y="-866.6" font-family="Helvetica,sans-Serif" font-size="8.00">type:relatedTo</text>
</g>
<!-- n87 -->
<g id="node11" class="node"><title>n87</title>
<polygon fill="#cae1ff" stroke="black" points="1135.5,-840 984.5,-840 984.5,-804 1135.5,-804 1135.5,-840"/>
<text text-anchor="middle" x="1060" y="-824.6" font-family="Helvetica,sans-Serif" font-size="8.00">node_id:85</text>
<text text-anchor="middle" x="1060" y="-815.6" font-family="Helvetica,sans-Serif" font-size="8.00">name:[&#39;/home/arthur/ProvMark/stage/test&#39;]</text>
<text text-anchor="middle" x="1060" y="-806.6" font-family="Helvetica,sans-Serif" font-size="8.00">type:2</text>
</g>
<!-- n86 -->
<g id="node35" class="node"><title>n86</title>
<polygon fill="#cae1ff" stroke="black" points="895.5,-840 744.5,-840 744.5,-804 895.5,-804 895.5,-840"/>
<text text-anchor="middle" x="820" y="-824.6" font-family="Helvetica,sans-Serif" font-size="8.00">node_id:84</text>
<text text-anchor="middle" x="820" y="-815.6" font-family="Helvetica,sans-Serif" font-size="8.00">name:[&#39;/home/arthur/ProvMark/stage/test&#39;]</text>
<text text-anchor="middle" x="820" y="-806.6" font-family="Helvetica,sans-Serif" font-size="8.00">type:2</text>
</g>
<!-- n87&#45;&gt;n86 -->
<g id="edge27" class="edge"><title>n87&#45;&gt;n86</title>
<path fill="none" stroke="blue" d="M984.348,-822C959.436,-822 931.498,-822 905.868,-822"/>
<polygon fill="blue" stroke="blue" points="905.796,-818.5 895.796,-822 905.796,-825.5 905.796,-818.5"/>
<text text-anchor="middle" x="940" y="-833.6" font-family="Helvetica,sans-Serif" font-size="8.00">state:0</text>
<text text-anchor="middle" x="940" y="-824.6" font-family="Helvetica,sans-Serif" font-size="8.00">type:relatedTo</text>
</g>
<!-- n6 -->
<g id="node13" class="node"><title>n6</title>
<ellipse fill="green" stroke="black" cx="629" cy="-793" rx="27" ry="18"/>
<text text-anchor="middle" x="629" y="-791.1" font-family="Helvetica,sans-Serif" font-size="8.00">Dummy Node</text>
</g>
<!-- n84 -->
<g id="node14" class="node"><title>n84</title>
<polygon fill="#cae1ff" stroke="black" points="54,-477 0,-477 0,-441 54,-441 54,-477"/>
<text text-anchor="middle" x="27" y="-461.6" font-family="Helvetica,sans-Serif" font-size="8.00">fn:fork</text>
<text text-anchor="middle" x="27" y="-452.6" font-family="Helvetica,sans-Serif" font-size="8.00">node_id:82</text>
<text text-anchor="middle" x="27" y="-443.6" font-family="Helvetica,sans-Serif" font-size="8.00">type:5</text>
</g>
<!-- n83 -->
<g id="node16" class="node"><title>n83</title>
<polygon fill="#cae1ff" stroke="black" points="656,-757 602,-757 602,-721 656,-721 656,-757"/>
<text text-anchor="middle" x="629" y="-741.6" font-family="Helvetica,sans-Serif" font-size="8.00">node_id:81</text>
<text text-anchor="middle" x="629" y="-732.6" font-family="Helvetica,sans-Serif" font-size="8.00">name:0</text>
<text text-anchor="middle" x="629" y="-723.6" font-family="Helvetica,sans-Serif" font-size="8.00">type:4</text>
</g>
<!-- n83&#45;&gt;n80 -->
<g id="edge13" class="edge"><title>n83&#45;&gt;n80</title>
<path fill="none" stroke="blue" d="M607.643,-757.176C584.865,-777.513 547.639,-810.751 520.754,-834.755"/>
<polygon fill="blue" stroke="blue" points="518.247,-832.301 513.119,-841.572 522.909,-837.523 518.247,-832.301"/>
<text text-anchor="middle" x="558" y="-835.6" font-family="Helvetica,sans-Serif" font-size="8.00">state:5</text>
<text text-anchor="middle" x="558" y="-826.6" font-family="Helvetica,sans-Serif" font-size="8.00">type:relatedTo</text>
</g>
<!-- n88 -->
<g id="node23" class="node"><title>n88</title>
<polygon fill="#cae1ff" stroke="black" points="847,-923.5 793,-923.5 793,-878.5 847,-878.5 847,-923.5"/>
<text text-anchor="middle" x="820" y="-908.1" font-family="Helvetica,sans-Serif" font-size="8.00">ref_count:0</text>
<text text-anchor="middle" x="820" y="-899.1" font-family="Helvetica,sans-Serif" font-size="8.00">node_id:86</text>
<text text-anchor="middle" x="820" y="-890.1" font-family="Helvetica,sans-Serif" font-size="8.00">name:omega</text>
<text text-anchor="middle" x="820" y="-881.1" font-family="Helvetica,sans-Serif" font-size="8.00">type:4</text>
</g>
<!-- n88&#45;&gt;n80 -->
<g id="edge37" class="edge"><title>n88&#45;&gt;n80</title>
<path fill="none" stroke="blue" d="M792.645,-905.679C774.081,-908.73 748.606,-912.428 726,-914 639.574,-920.011 612.665,-926.602 532,-895 528.955,-893.807 525.92,-892.361 522.949,-890.753"/>
<polygon fill="blue" stroke="blue" points="524.657,-887.696 514.285,-885.535 521.046,-893.692 524.657,-887.696"/>
<text text-anchor="middle" x="629" y="-931.6" font-family="Helvetica,sans-Serif" font-size="8.00">state:5</text>
<text text-anchor="middle" x="629" y="-922.6" font-family="Helvetica,sans-Serif" font-size="8.00">type:relatedTo</text>
</g>
<!-- n88&#45;&gt;n85 -->
<g id="edge35" class="edge"><title>n88&#45;&gt;n85</title>
<path fill="none" stroke="blue" d="M792.72,-895.855C759.714,-889.394 702.934,-878.278 665.932,-871.034"/>
<polygon fill="blue" stroke="blue" points="666.543,-867.587 656.056,-869.101 665.198,-874.457 666.543,-867.587"/>
<text text-anchor="middle" x="700" y="-894.6" font-family="Helvetica,sans-Serif" font-size="8.00">state:0</text>
<text text-anchor="middle" x="700" y="-885.6" font-family="Helvetica,sans-Serif" font-size="8.00">type:relatedTo</text>
</g>
<!-- n3&#45;&gt;n84 -->
<g id="edge12" class="edge"><title>n3&#45;&gt;n84</title>
<path fill="none" stroke="blue" d="M229.846,-459C189.152,-459 110.566,-459 64.3717,-459"/>
<polygon fill="blue" stroke="blue" points="64.1997,-455.5 54.1997,-459 64.1996,-462.5 64.1997,-455.5"/>
<text text-anchor="middle" x="98" y="-470.6" font-family="Helvetica,sans-Serif" font-size="8.00">state:0</text>
<text text-anchor="middle" x="98" y="-461.6" font-family="Helvetica,sans-Serif" font-size="8.00">type:relatedTo</text>
</g>
<!-- n82 -->
<g id="node30" class="node"><title>n82</title>
<polygon fill="#cae1ff" stroke="black" points="656,-703 602,-703 602,-667 656,-667 656,-703"/>
<text text-anchor="middle" x="629" y="-687.6" font-family="Helvetica,sans-Serif" font-size="8.00">node_id:80</text>
<text text-anchor="middle" x="629" y="-678.6" font-family="Helvetica,sans-Serif" font-size="8.00">name:1</text>
<text text-anchor="middle" x="629" y="-669.6" font-family="Helvetica,sans-Serif" font-size="8.00">type:4</text>
</g>
<!-- n82&#45;&gt;n80 -->
<g id="edge24" class="edge"><title>n82&#45;&gt;n80</title>
<path fill="none" stroke="blue" d="M601.9,-696.758C580.49,-707.588 550.755,-725.526 532,-749 512.619,-773.258 501.066,-807.01 494.698,-831.673"/>
<polygon fill="blue" stroke="blue" points="491.238,-831.089 492.278,-841.633 498.04,-832.742 491.238,-831.089"/>
<text text-anchor="middle" x="558" y="-760.6" font-family="Helvetica,sans-Serif" font-size="8.00">state:5</text>
<text text-anchor="middle" x="558" y="-751.6" font-family="Helvetica,sans-Serif" font-size="8.00">type:relatedTo</text>
</g>
<!-- n86&#45;&gt;n85 -->
<g id="edge10" class="edge"><title>n86&#45;&gt;n85</title>
<path fill="none" stroke="blue" d="M744.216,-827.591C721.34,-830.555 696.332,-835.083 674,-842 671.247,-842.853 668.454,-843.863 665.682,-844.975"/>
<polygon fill="blue" stroke="blue" points="664.151,-841.824 656.413,-849.061 666.975,-848.229 664.151,-841.824"/>
<text text-anchor="middle" x="700" y="-853.6" font-family="Helvetica,sans-Serif" font-size="8.00">state:7</text>
<text text-anchor="middle" x="700" y="-844.6" font-family="Helvetica,sans-Serif" font-size="8.00">type:relatedTo</text>
</g>
<!-- n86&#45;&gt;n6 -->
<g id="edge25" class="edge"><title>n86&#45;&gt;n6</title>
<path fill="none" stroke="blue" d="M779.111,-803.933C762.972,-797.552 743.943,-791.177 726,-788 703.243,-783.971 697.074,-786.693 674,-788 671.287,-788.154 668.485,-788.36 665.669,-788.602"/>
<polygon fill="blue" stroke="blue" points="665.159,-785.135 655.551,-789.601 665.847,-792.101 665.159,-785.135"/>
<text text-anchor="middle" x="700" y="-799.6" font-family="Helvetica,sans-Serif" font-size="8.00">state:0</text>
<text text-anchor="middle" x="700" y="-790.6" font-family="Helvetica,sans-Serif" font-size="8.00">type:relatedTo</text>
</g>
</g>
</svg>
