<?xml version="1.0" encoding="UTF-8" standalone="no"?>
<!DOCTYPE svg PUBLIC "-//W3C//DTD SVG 1.1//EN"
 "http://www.w3.org/Graphics/SVG/1.1/DTD/svg11.dtd">
<!-- Generated by graphviz version 2.36.0 (20140111.2315)
 -->
<!-- Title: clingo2dot Pages: 1 -->
<svg width="1204pt" height="185pt"
 viewBox="0.00 0.00 1204.00 185.00" xmlns="http://www.w3.org/2000/svg" xmlns:xlink="http://www.w3.org/1999/xlink">
<g id="graph0" class="graph" transform="scale(1 1) rotate(0) translate(4 181)">
<title>clingo2dot</title>
<polygon fill="white" stroke="none" points="-4,4 -4,-181 1200,-181 1200,4 -4,4"/>
<!-- n88 -->
<g id="node1" class="node"><title>n88</title>
<polygon fill="#cae1ff" stroke="black" points="375.5,-102.5 0.5,-102.5 0.5,-39.5 375.5,-39.5 375.5,-102.5"/>
<text text-anchor="middle" x="188" y="-87.1" font-family="Helvetica,sans-Serif" font-size="8.00">node_id:86</text>
<text text-anchor="middle" x="188" y="-78.1" font-family="Helvetica,sans-Serif" font-size="8.00">arg_keys:[&#39;olddirfd&#39;, &#39;oldpath&#39;, &#39;newdirfd&#39;, &#39;newpath&#39;, &#39;flags&#39;]</text>
<text text-anchor="middle" x="188" y="-69.1" font-family="Helvetica,sans-Serif" font-size="8.00">fn:linkat</text>
<text text-anchor="middle" x="188" y="-60.1" font-family="Helvetica,sans-Serif" font-size="8.00">arg_values:[&#39;3&#39;, &#39;/home/arthur/ProvMark/stage/test.txt&#39;, &#39;3&#39;, &#39;/home/arthur/ProvMark/stage/linkat&#45;test.txt&#39;, &#39;0&#39;]</text>
<text text-anchor="middle" x="188" y="-51.1" font-family="Helvetica,sans-Serif" font-size="8.00">ret:0</text>
<text text-anchor="middle" x="188" y="-42.1" font-family="Helvetica,sans-Serif" font-size="8.00">type:5</text>
</g>
<!-- n85 -->
<g id="node2" class="node"><title>n85</title>
<polygon fill="#cae1ff" stroke="black" points="788,-90 606,-90 606,-54 788,-54 788,-90"/>
<text text-anchor="middle" x="697" y="-74.6" font-family="Helvetica,sans-Serif" font-size="8.00">node_id:83</text>
<text text-anchor="middle" x="697" y="-65.6" font-family="Helvetica,sans-Serif" font-size="8.00">name:[&#39;/home/arthur/ProvMark/stage/linkat&#45;test.txt&#39;]</text>
<text text-anchor="middle" x="697" y="-56.6" font-family="Helvetica,sans-Serif" font-size="8.00">type:2</text>
</g>
<!-- n83 -->
<g id="node7" class="node"><title>n83</title>
<polygon fill="#cae1ff" stroke="black" points="518,-93.5 464,-93.5 464,-48.5 518,-48.5 518,-93.5"/>
<text text-anchor="middle" x="491" y="-78.1" font-family="Helvetica,sans-Serif" font-size="8.00">node_id:81</text>
<text text-anchor="middle" x="491" y="-69.1" font-family="Helvetica,sans-Serif" font-size="8.00">ref_count:1</text>
<text text-anchor="middle" x="491" y="-60.1" font-family="Helvetica,sans-Serif" font-size="8.00">name:omega</text>
<text text-anchor="middle" x="491" y="-51.1" font-family="Helvetica,sans-Serif" font-size="8.00">type:4</text>
</g>
<!-- n85&#45;&gt;n83 -->
<g id="edge4" class="edge"><title>n85&#45;&gt;n83</title>
<path fill="none" stroke="blue" d="M605.929,-71.5585C578.594,-71.4245 550.101,-71.2848 528.447,-71.1787"/>
<polygon fill="blue" stroke="blue" points="528.419,-67.6786 518.402,-71.1294 528.384,-74.6785 528.419,-67.6786"/>
<text text-anchor="middle" x="562" y="-83.6" font-family="Helvetica,sans-Serif" font-size="8.00">state:0</text>
<text text-anchor="middle" x="562" y="-74.6" font-family="Helvetica,sans-Serif" font-size="8.00">type:relatedTo</text>
</g>
<!-- n84 -->
<g id="node3" class="node"><title>n84</title>
<polygon fill="#cae1ff" stroke="black" points="777.5,-36 616.5,-36 616.5,-0 777.5,-0 777.5,-36"/>
<text text-anchor="middle" x="697" y="-20.6" font-family="Helvetica,sans-Serif" font-size="8.00">node_id:82</text>
<text text-anchor="middle" x="697" y="-11.6" font-family="Helvetica,sans-Serif" font-size="8.00">name:[&#39;/home/arthur/ProvMark/stage/test.txt&#39;]</text>
<text text-anchor="middle" x="697" y="-2.6" font-family="Helvetica,sans-Serif" font-size="8.00">type:2</text>
</g>
<!-- n84&#45;&gt;n83 -->
<g id="edge7" class="edge"><title>n84&#45;&gt;n83</title>
<path fill="none" stroke="blue" d="M616.461,-22.2374C590.19,-25.5102 561.243,-31.192 536,-41 532.984,-42.172 529.97,-43.5842 527.014,-45.1492"/>
<polygon fill="blue" stroke="blue" points="525.232,-42.1367 518.376,-50.2145 528.773,-48.1751 525.232,-42.1367"/>
<text text-anchor="middle" x="562" y="-52.6" font-family="Helvetica,sans-Serif" font-size="8.00">state:0</text>
<text text-anchor="middle" x="562" y="-43.6" font-family="Helvetica,sans-Serif" font-size="8.00">type:relatedTo</text>
</g>
<!-- n86 -->
<g id="node4" class="node"><title>n86</title>
<polygon fill="#cae1ff" stroke="black" points="1196,-63 876,-63 876,-27 1196,-27 1196,-63"/>
<text text-anchor="middle" x="1036" y="-47.6" font-family="Helvetica,sans-Serif" font-size="8.00">node_id:84</text>
<text text-anchor="middle" x="1036" y="-38.6" font-family="Helvetica,sans-Serif" font-size="8.00">name:[&#39;/home/arthur/ProvMark/stage/test.txt&#39;, &#39;/home/arthur/ProvMark/stage/linkat&#45;test.txt&#39;]</text>
<text text-anchor="middle" x="1036" y="-29.6" font-family="Helvetica,sans-Serif" font-size="8.00">type:2</text>
</g>
<!-- n86&#45;&gt;n85 -->
<g id="edge1" class="edge"><title>n86&#45;&gt;n85</title>
<path fill="none" stroke="blue" d="M875.875,-57.7489C849.363,-59.873 822.541,-62.022 798.044,-63.9846"/>
<polygon fill="blue" stroke="blue" points="797.747,-60.4971 788.058,-64.7847 798.306,-67.4748 797.747,-60.4971"/>
<text text-anchor="middle" x="832" y="-75.6" font-family="Helvetica,sans-Serif" font-size="8.00">state:0</text>
<text text-anchor="middle" x="832" y="-66.6" font-family="Helvetica,sans-Serif" font-size="8.00">type:relatedTo</text>
</g>
<!-- n86&#45;&gt;n84 -->
<g id="edge8" class="edge"><title>n86&#45;&gt;n84</title>
<path fill="none" stroke="blue" d="M875.806,-30.4468C869.795,-29.949 863.844,-29.465 858,-29 835.273,-27.1918 810.715,-25.4149 787.824,-23.8343"/>
<polygon fill="blue" stroke="blue" points="787.998,-20.3381 777.782,-23.1461 787.519,-27.3217 787.998,-20.3381"/>
<text text-anchor="middle" x="832" y="-40.6" font-family="Helvetica,sans-Serif" font-size="8.00">state:0</text>
<text text-anchor="middle" x="832" y="-31.6" font-family="Helvetica,sans-Serif" font-size="8.00">type:relatedTo</text>
</g>
<!-- n3 -->
<g id="node5" class="node"><title>n3</title>
<ellipse fill="green" stroke="black" cx="188" cy="-151" rx="27" ry="18"/>
<text text-anchor="middle" x="188" y="-149.1" font-family="Helvetica,sans-Serif" font-size="8.00">Dummy Node</text>
</g>
<!-- n87 -->
<g id="node6" class="node"><title>n87</title>
<polygon fill="#cae1ff" stroke="black" points="724,-169.5 670,-169.5 670,-124.5 724,-124.5 724,-169.5"/>
<text text-anchor="middle" x="697" y="-154.1" font-family="Helvetica,sans-Serif" font-size="8.00">node_id:85</text>
<text text-anchor="middle" x="697" y="-145.1" font-family="Helvetica,sans-Serif" font-size="8.00">ref_count:0</text>
<text text-anchor="middle" x="697" y="-136.1" font-family="Helvetica,sans-Serif" font-size="8.00">name:omega</text>
<text text-anchor="middle" x="697" y="-127.1" font-family="Helvetica,sans-Serif" font-size="8.00">type:4</text>
</g>
<!-- n87&#45;&gt;n3 -->
<g id="edge6" class="edge"><title>n87&#45;&gt;n3</title>
<path fill="none" stroke="blue" d="M669.813,-147.584C647.943,-148.048 615.94,-148.671 588,-149 454.254,-150.574 295.276,-150.911 225.215,-150.982"/>
<polygon fill="blue" stroke="blue" points="225.141,-147.482 215.144,-150.991 225.147,-154.482 225.141,-147.482"/>
<text text-anchor="middle" x="491" y="-161.6" font-family="Helvetica,sans-Serif" font-size="8.00">state:5</text>
<text text-anchor="middle" x="491" y="-152.6" font-family="Helvetica,sans-Serif" font-size="8.00">type:relatedTo</text>
</g>
<!-- n87&#45;&gt;n83 -->
<g id="edge5" class="edge"><title>n87&#45;&gt;n83</title>
<path fill="none" stroke="blue" d="M669.994,-141.527C637.664,-134.203 581.228,-119.693 536,-99 533.036,-97.6439 530.035,-96.1154 527.067,-94.49"/>
<polygon fill="blue" stroke="blue" points="528.731,-91.4087 518.329,-89.3978 525.207,-97.4567 528.731,-91.4087"/>
<text text-anchor="middle" x="562" y="-130.6" font-family="Helvetica,sans-Serif" font-size="8.00">state:0</text>
<text text-anchor="middle" x="562" y="-121.6" font-family="Helvetica,sans-Serif" font-size="8.00">type:relatedTo</text>
</g>
<!-- n83&#45;&gt;n88 -->
<g id="edge2" class="edge"><title>n83&#45;&gt;n88</title>
<path fill="none" stroke="blue" d="M463.815,-71C444.649,-71 416.692,-71 385.858,-71"/>
<polygon fill="blue" stroke="blue" points="385.753,-67.5001 375.753,-71 385.753,-74.5001 385.753,-67.5001"/>
<text text-anchor="middle" x="420" y="-82.6" font-family="Helvetica,sans-Serif" font-size="8.00">state:0</text>
<text text-anchor="middle" x="420" y="-73.6" font-family="Helvetica,sans-Serif" font-size="8.00">type:relatedTo</text>
</g>
<!-- n83&#45;&gt;n3 -->
<g id="edge3" class="edge"><title>n83&#45;&gt;n3</title>
<path fill="none" stroke="blue" d="M463.854,-89.8239C458.172,-93.2814 452.046,-96.5626 446,-99 370.91,-129.269 276.115,-142.578 225.235,-147.883"/>
<polygon fill="blue" stroke="blue" points="224.671,-144.422 215.068,-148.897 225.365,-151.388 224.671,-144.422"/>
<text text-anchor="middle" x="420" y="-127.6" font-family="Helvetica,sans-Serif" font-size="8.00">state:10</text>
<text text-anchor="middle" x="420" y="-118.6" font-family="Helvetica,sans-Serif" font-size="8.00">type:relatedTo</text>
</g>
</g>
</svg>
