<?xml version="1.0" encoding="UTF-8" standalone="no"?>
<!DOCTYPE svg PUBLIC "-//W3C//DTD SVG 1.1//EN"
 "http://www.w3.org/Graphics/SVG/1.1/DTD/svg11.dtd">
<!-- Generated by graphviz version 2.36.0 (20140111.2315)
 -->
<!-- Title: clingo2dot Pages: 1 -->
<svg width="1148pt" height="185pt"
 viewBox="0.00 0.00 1148.00 185.00" xmlns="http://www.w3.org/2000/svg" xmlns:xlink="http://www.w3.org/1999/xlink">
<g id="graph0" class="graph" transform="scale(1 1) rotate(0) translate(4 181)">
<title>clingo2dot</title>
<polygon fill="white" stroke="none" points="-4,4 -4,-181 1144,-181 1144,4 -4,4"/>
<!-- n84 -->
<g id="node1" class="node"><title>n84</title>
<polygon fill="#cae1ff" stroke="black" points="677,-169.5 623,-169.5 623,-124.5 677,-124.5 677,-169.5"/>
<text text-anchor="middle" x="650" y="-154.1" font-family="Helvetica,sans-Serif" font-size="8.00">node_id:82</text>
<text text-anchor="middle" x="650" y="-145.1" font-family="Helvetica,sans-Serif" font-size="8.00">ref_count:0</text>
<text text-anchor="middle" x="650" y="-136.1" font-family="Helvetica,sans-Serif" font-size="8.00">name:omega</text>
<text text-anchor="middle" x="650" y="-127.1" font-family="Helvetica,sans-Serif" font-size="8.00">type:4</text>
</g>
<!-- n80 -->
<g id="node2" class="node"><title>n80</title>
<polygon fill="#cae1ff" stroke="black" points="474,-93.5 420,-93.5 420,-48.5 474,-48.5 474,-93.5"/>
<text text-anchor="middle" x="447" y="-78.1" font-family="Helvetica,sans-Serif" font-size="8.00">node_id:78</text>
<text text-anchor="middle" x="447" y="-69.1" font-family="Helvetica,sans-Serif" font-size="8.00">ref_count:1</text>
<text text-anchor="middle" x="447" y="-60.1" font-family="Helvetica,sans-Serif" font-size="8.00">name:omega</text>
<text text-anchor="middle" x="447" y="-51.1" font-family="Helvetica,sans-Serif" font-size="8.00">type:4</text>
</g>
<!-- n84&#45;&gt;n80 -->
<g id="edge2" class="edge"><title>n84&#45;&gt;n80</title>
<path fill="none" stroke="blue" d="M622.93,-141.318C591.124,-133.874 536.138,-119.334 492,-99 489.039,-97.6361 486.041,-96.102 483.075,-94.4727"/>
<polygon fill="blue" stroke="blue" points="484.741,-91.3923 474.34,-89.3737 481.212,-97.4377 484.741,-91.3923"/>
<text text-anchor="middle" x="518" y="-130.6" font-family="Helvetica,sans-Serif" font-size="8.00">state:0</text>
<text text-anchor="middle" x="518" y="-121.6" font-family="Helvetica,sans-Serif" font-size="8.00">type:relatedTo</text>
</g>
<!-- n3 -->
<g id="node4" class="node"><title>n3</title>
<ellipse fill="green" stroke="black" cx="166" cy="-151" rx="27" ry="18"/>
<text text-anchor="middle" x="166" y="-149.1" font-family="Helvetica,sans-Serif" font-size="8.00">Dummy Node</text>
</g>
<!-- n84&#45;&gt;n3 -->
<g id="edge3" class="edge"><title>n84&#45;&gt;n3</title>
<path fill="none" stroke="blue" d="M622.679,-147.602C601.443,-148.063 570.8,-148.674 544,-149 418.82,-150.524 270.246,-150.887 203.113,-150.973"/>
<polygon fill="blue" stroke="blue" points="203.05,-147.473 193.054,-150.985 203.058,-154.473 203.05,-147.473"/>
<text text-anchor="middle" x="447" y="-161.6" font-family="Helvetica,sans-Serif" font-size="8.00">state:5</text>
<text text-anchor="middle" x="447" y="-152.6" font-family="Helvetica,sans-Serif" font-size="8.00">type:relatedTo</text>
</g>
<!-- n80&#45;&gt;n3 -->
<g id="edge4" class="edge"><title>n80&#45;&gt;n3</title>
<path fill="none" stroke="blue" d="M419.82,-89.7391C414.14,-93.2028 408.024,-96.5079 402,-99 334.693,-126.844 250.088,-140.879 202.95,-147"/>
<polygon fill="blue" stroke="blue" points="202.409,-143.541 192.922,-148.256 203.279,-150.487 202.409,-143.541"/>
<text text-anchor="middle" x="376" y="-128.6" font-family="Helvetica,sans-Serif" font-size="8.00">state:10</text>
<text text-anchor="middle" x="376" y="-119.6" font-family="Helvetica,sans-Serif" font-size="8.00">type:relatedTo</text>
</g>
<!-- n85 -->
<g id="node7" class="node"><title>n85</title>
<polygon fill="#cae1ff" stroke="black" points="332,-102.5 0,-102.5 0,-39.5 332,-39.5 332,-102.5"/>
<text text-anchor="middle" x="166" y="-87.1" font-family="Helvetica,sans-Serif" font-size="8.00">ret:0</text>
<text text-anchor="middle" x="166" y="-78.1" font-family="Helvetica,sans-Serif" font-size="8.00">arg_values:[&#39;/home/arthur/ProvMark/stage/test.txt&#39;, &#39;/home/arthur/ProvMark/stage/link&#45;test.txt&#39;]</text>
<text text-anchor="middle" x="166" y="-69.1" font-family="Helvetica,sans-Serif" font-size="8.00">node_id:83</text>
<text text-anchor="middle" x="166" y="-60.1" font-family="Helvetica,sans-Serif" font-size="8.00">arg_keys:[&#39;path1&#39;, &#39;path2&#39;]</text>
<text text-anchor="middle" x="166" y="-51.1" font-family="Helvetica,sans-Serif" font-size="8.00">fn:link</text>
<text text-anchor="middle" x="166" y="-42.1" font-family="Helvetica,sans-Serif" font-size="8.00">type:5</text>
</g>
<!-- n80&#45;&gt;n85 -->
<g id="edge7" class="edge"><title>n80&#45;&gt;n85</title>
<path fill="none" stroke="blue" d="M419.752,-71C400.618,-71 372.843,-71 342.641,-71"/>
<polygon fill="blue" stroke="blue" points="342.314,-67.5001 332.314,-71 342.314,-74.5001 342.314,-67.5001"/>
<text text-anchor="middle" x="376" y="-82.6" font-family="Helvetica,sans-Serif" font-size="8.00">state:0</text>
<text text-anchor="middle" x="376" y="-73.6" font-family="Helvetica,sans-Serif" font-size="8.00">type:relatedTo</text>
</g>
<!-- n82 -->
<g id="node3" class="node"><title>n82</title>
<polygon fill="#cae1ff" stroke="black" points="737.5,-90 562.5,-90 562.5,-54 737.5,-54 737.5,-90"/>
<text text-anchor="middle" x="650" y="-74.6" font-family="Helvetica,sans-Serif" font-size="8.00">node_id:80</text>
<text text-anchor="middle" x="650" y="-65.6" font-family="Helvetica,sans-Serif" font-size="8.00">name:[&#39;/home/arthur/ProvMark/stage/link&#45;test.txt&#39;]</text>
<text text-anchor="middle" x="650" y="-56.6" font-family="Helvetica,sans-Serif" font-size="8.00">type:2</text>
</g>
<!-- n82&#45;&gt;n80 -->
<g id="edge1" class="edge"><title>n82&#45;&gt;n80</title>
<path fill="none" stroke="blue" d="M562.3,-71.5687C534.907,-71.4324 506.12,-71.2892 484.288,-71.1805"/>
<polygon fill="blue" stroke="blue" points="484.183,-67.6801 474.166,-71.1302 484.149,-74.68 484.183,-67.6801"/>
<text text-anchor="middle" x="518" y="-83.6" font-family="Helvetica,sans-Serif" font-size="8.00">state:0</text>
<text text-anchor="middle" x="518" y="-74.6" font-family="Helvetica,sans-Serif" font-size="8.00">type:relatedTo</text>
</g>
<!-- n81 -->
<g id="node5" class="node"><title>n81</title>
<polygon fill="#cae1ff" stroke="black" points="730.5,-36 569.5,-36 569.5,-0 730.5,-0 730.5,-36"/>
<text text-anchor="middle" x="650" y="-20.6" font-family="Helvetica,sans-Serif" font-size="8.00">node_id:79</text>
<text text-anchor="middle" x="650" y="-11.6" font-family="Helvetica,sans-Serif" font-size="8.00">name:[&#39;/home/arthur/ProvMark/stage/test.txt&#39;]</text>
<text text-anchor="middle" x="650" y="-2.6" font-family="Helvetica,sans-Serif" font-size="8.00">type:2</text>
</g>
<!-- n81&#45;&gt;n80 -->
<g id="edge8" class="edge"><title>n81&#45;&gt;n80</title>
<path fill="none" stroke="blue" d="M569.343,-22.6157C543.994,-25.9289 516.253,-31.5391 492,-41 488.985,-42.176 485.973,-43.5912 483.017,-45.1582"/>
<polygon fill="blue" stroke="blue" points="481.234,-42.1468 474.381,-50.2273 484.777,-48.1838 481.234,-42.1468"/>
<text text-anchor="middle" x="518" y="-52.6" font-family="Helvetica,sans-Serif" font-size="8.00">state:0</text>
<text text-anchor="middle" x="518" y="-43.6" font-family="Helvetica,sans-Serif" font-size="8.00">type:relatedTo</text>
</g>
<!-- n83 -->
<g id="node6" class="node"><title>n83</title>
<polygon fill="#cae1ff" stroke="black" points="1139.5,-63 826.5,-63 826.5,-27 1139.5,-27 1139.5,-63"/>
<text text-anchor="middle" x="983" y="-47.6" font-family="Helvetica,sans-Serif" font-size="8.00">node_id:81</text>
<text text-anchor="middle" x="983" y="-38.6" font-family="Helvetica,sans-Serif" font-size="8.00">name:[&#39;/home/arthur/ProvMark/stage/test.txt&#39;, &#39;/home/arthur/ProvMark/stage/link&#45;test.txt&#39;]</text>
<text text-anchor="middle" x="983" y="-29.6" font-family="Helvetica,sans-Serif" font-size="8.00">type:2</text>
</g>
<!-- n83&#45;&gt;n82 -->
<g id="edge6" class="edge"><title>n83&#45;&gt;n82</title>
<path fill="none" stroke="blue" d="M826.192,-57.7094C799.518,-59.8853 772.506,-62.0886 747.942,-64.0923"/>
<polygon fill="blue" stroke="blue" points="747.618,-60.607 737.936,-64.9085 748.187,-67.5839 747.618,-60.607"/>
<text text-anchor="middle" x="782" y="-75.6" font-family="Helvetica,sans-Serif" font-size="8.00">state:0</text>
<text text-anchor="middle" x="782" y="-66.6" font-family="Helvetica,sans-Serif" font-size="8.00">type:relatedTo</text>
</g>
<!-- n83&#45;&gt;n81 -->
<g id="edge5" class="edge"><title>n83&#45;&gt;n81</title>
<path fill="none" stroke="blue" d="M858.129,-26.9918C841.31,-25.0256 824.252,-23.2775 808,-22 786.196,-20.286 762.642,-19.2534 740.575,-18.6435"/>
<polygon fill="blue" stroke="blue" points="740.637,-15.1441 730.552,-18.3921 740.461,-22.1419 740.637,-15.1441"/>
<text text-anchor="middle" x="782" y="-33.6" font-family="Helvetica,sans-Serif" font-size="8.00">state:0</text>
<text text-anchor="middle" x="782" y="-24.6" font-family="Helvetica,sans-Serif" font-size="8.00">type:relatedTo</text>
</g>
</g>
</svg>
