<?xml version="1.0" encoding="UTF-8" standalone="no"?>
<!DOCTYPE svg PUBLIC "-//W3C//DTD SVG 1.1//EN"
 "http://www.w3.org/Graphics/SVG/1.1/DTD/svg11.dtd">
<!-- Generated by graphviz version 2.36.0 (20140111.2315)
 -->
<!-- Title: clingo2dot Pages: 1 -->
<svg width="904pt" height="132pt"
 viewBox="0.00 0.00 904.00 132.00" xmlns="http://www.w3.org/2000/svg" xmlns:xlink="http://www.w3.org/1999/xlink">
<g id="graph0" class="graph" transform="scale(1 1) rotate(0) translate(4 128)">
<title>clingo2dot</title>
<polygon fill="white" stroke="none" points="-4,4 -4,-128 900,-128 900,4 -4,4"/>
<!-- n81 -->
<g id="node1" class="node"><title>n81</title>
<polygon fill="#cae1ff" stroke="black" points="632,-111 456,-111 456,-75 632,-75 632,-111"/>
<text text-anchor="middle" x="544" y="-95.6" font-family="Helvetica,sans-Serif" font-size="8.00">node_id:79</text>
<text text-anchor="middle" x="544" y="-86.6" font-family="Helvetica,sans-Serif" font-size="8.00">name:[&#39;/home/arthur/ProvMark/stage/newtest.txt&#39;]</text>
<text text-anchor="middle" x="544" y="-77.6" font-family="Helvetica,sans-Serif" font-size="8.00">type:2</text>
</g>
<!-- n80 -->
<g id="node2" class="node"><title>n80</title>
<polygon fill="#cae1ff" stroke="black" points="368,-107.5 314,-107.5 314,-62.5 368,-62.5 368,-107.5"/>
<text text-anchor="middle" x="341" y="-92.1" font-family="Helvetica,sans-Serif" font-size="8.00">node_id:78</text>
<text text-anchor="middle" x="341" y="-83.1" font-family="Helvetica,sans-Serif" font-size="8.00">name:omega</text>
<text text-anchor="middle" x="341" y="-74.1" font-family="Helvetica,sans-Serif" font-size="8.00">ref_count:1</text>
<text text-anchor="middle" x="341" y="-65.1" font-family="Helvetica,sans-Serif" font-size="8.00">type:4</text>
</g>
<!-- n81&#45;&gt;n80 -->
<g id="edge2" class="edge"><title>n81&#45;&gt;n80</title>
<path fill="none" stroke="blue" d="M455.715,-89.526C428.583,-88.4461 400.144,-87.3142 378.492,-86.4524"/>
<polygon fill="blue" stroke="blue" points="378.576,-82.9531 368.444,-86.0525 378.297,-89.9475 378.576,-82.9531"/>
<text text-anchor="middle" x="412" y="-100.6" font-family="Helvetica,sans-Serif" font-size="8.00">state:0</text>
<text text-anchor="middle" x="412" y="-91.6" font-family="Helvetica,sans-Serif" font-size="8.00">type:relatedTo</text>
</g>
<!-- n84 -->
<g id="node3" class="node"><title>n84</title>
<polygon fill="#cae1ff" stroke="black" points="225.5,-124.5 0.5,-124.5 0.5,-61.5 225.5,-61.5 225.5,-124.5"/>
<text text-anchor="middle" x="113" y="-109.1" font-family="Helvetica,sans-Serif" font-size="8.00">node_id:82</text>
<text text-anchor="middle" x="113" y="-100.1" font-family="Helvetica,sans-Serif" font-size="8.00">ret:0</text>
<text text-anchor="middle" x="113" y="-91.1" font-family="Helvetica,sans-Serif" font-size="8.00">arg_keys:[&#39;pathname&#39;, &#39;mode&#39;]</text>
<text text-anchor="middle" x="113" y="-82.1" font-family="Helvetica,sans-Serif" font-size="8.00">fn:__xmknod</text>
<text text-anchor="middle" x="113" y="-73.1" font-family="Helvetica,sans-Serif" font-size="8.00">arg_values:[&#39;/home/arthur/ProvMark/stage/newtest.txt&#39;, &#39;33252&#39;]</text>
<text text-anchor="middle" x="113" y="-64.1" font-family="Helvetica,sans-Serif" font-size="8.00">type:5</text>
</g>
<!-- n80&#45;&gt;n84 -->
<g id="edge1" class="edge"><title>n80&#45;&gt;n84</title>
<path fill="none" stroke="blue" d="M313.633,-85.9334C293.809,-86.6351 265.094,-87.6515 235.594,-88.6958"/>
<polygon fill="blue" stroke="blue" points="235.442,-85.1989 225.572,-89.0506 235.689,-92.1945 235.442,-85.1989"/>
<text text-anchor="middle" x="270" y="-100.6" font-family="Helvetica,sans-Serif" font-size="8.00">state:0</text>
<text text-anchor="middle" x="270" y="-91.6" font-family="Helvetica,sans-Serif" font-size="8.00">type:relatedTo</text>
</g>
<!-- n3 -->
<g id="node4" class="node"><title>n3</title>
<ellipse fill="green" stroke="black" cx="113" cy="-18" rx="27" ry="18"/>
<text text-anchor="middle" x="113" y="-16.1" font-family="Helvetica,sans-Serif" font-size="8.00">Dummy Node</text>
</g>
<!-- n80&#45;&gt;n3 -->
<g id="edge5" class="edge"><title>n80&#45;&gt;n3</title>
<path fill="none" stroke="blue" d="M313.909,-65.5132C308.223,-61.9315 302.082,-58.5305 296,-56 247.648,-35.8818 187.48,-26.0009 149.896,-21.462"/>
<polygon fill="blue" stroke="blue" points="150.256,-17.9804 139.923,-20.3193 149.459,-24.9349 150.256,-17.9804"/>
<text text-anchor="middle" x="270" y="-67.6" font-family="Helvetica,sans-Serif" font-size="8.00">state:10</text>
<text text-anchor="middle" x="270" y="-58.6" font-family="Helvetica,sans-Serif" font-size="8.00">type:relatedTo</text>
</g>
<!-- n82 -->
<g id="node5" class="node"><title>n82</title>
<polygon fill="#cae1ff" stroke="black" points="896,-111 720,-111 720,-75 896,-75 896,-111"/>
<text text-anchor="middle" x="808" y="-95.6" font-family="Helvetica,sans-Serif" font-size="8.00">node_id:80</text>
<text text-anchor="middle" x="808" y="-86.6" font-family="Helvetica,sans-Serif" font-size="8.00">name:[&#39;/home/arthur/ProvMark/stage/newtest.txt&#39;]</text>
<text text-anchor="middle" x="808" y="-77.6" font-family="Helvetica,sans-Serif" font-size="8.00">type:2</text>
</g>
<!-- n82&#45;&gt;n81 -->
<g id="edge3" class="edge"><title>n82&#45;&gt;n81</title>
<path fill="none" stroke="blue" d="M719.758,-93C694.92,-93 667.712,-93 642.316,-93"/>
<polygon fill="blue" stroke="blue" points="642.308,-89.5001 632.308,-93 642.308,-96.5001 642.308,-89.5001"/>
<text text-anchor="middle" x="676" y="-104.6" font-family="Helvetica,sans-Serif" font-size="8.00">state:0</text>
<text text-anchor="middle" x="676" y="-95.6" font-family="Helvetica,sans-Serif" font-size="8.00">type:relatedTo</text>
</g>
<!-- n83 -->
<g id="node6" class="node"><title>n83</title>
<polygon fill="#cae1ff" stroke="black" points="571,-44.5 517,-44.5 517,0.5 571,0.5 571,-44.5"/>
<text text-anchor="middle" x="544" y="-29.1" font-family="Helvetica,sans-Serif" font-size="8.00">node_id:81</text>
<text text-anchor="middle" x="544" y="-20.1" font-family="Helvetica,sans-Serif" font-size="8.00">name:omega</text>
<text text-anchor="middle" x="544" y="-11.1" font-family="Helvetica,sans-Serif" font-size="8.00">ref_count:0</text>
<text text-anchor="middle" x="544" y="-2.1" font-family="Helvetica,sans-Serif" font-size="8.00">type:4</text>
</g>
<!-- n83&#45;&gt;n80 -->
<g id="edge4" class="edge"><title>n83&#45;&gt;n80</title>
<path fill="none" stroke="blue" d="M516.828,-24.6772C484.921,-28.6081 429.834,-37.5705 386,-56 382.964,-57.2765 379.912,-58.7675 376.908,-60.3874"/>
<polygon fill="blue" stroke="blue" points="374.962,-57.4709 368.106,-65.5482 378.502,-63.5095 374.962,-57.4709"/>
<text text-anchor="middle" x="412" y="-67.6" font-family="Helvetica,sans-Serif" font-size="8.00">state:0</text>
<text text-anchor="middle" x="412" y="-58.6" font-family="Helvetica,sans-Serif" font-size="8.00">type:relatedTo</text>
</g>
<!-- n83&#45;&gt;n3 -->
<g id="edge6" class="edge"><title>n83&#45;&gt;n3</title>
<path fill="none" stroke="blue" d="M516.81,-21.7558C443.276,-21.0702 234.788,-19.1262 150.264,-18.3381"/>
<polygon fill="blue" stroke="blue" points="150.151,-14.837 140.119,-18.2435 150.086,-21.8367 150.151,-14.837"/>
<text text-anchor="middle" x="341" y="-32.6" font-family="Helvetica,sans-Serif" font-size="8.00">state:5</text>
<text text-anchor="middle" x="341" y="-23.6" font-family="Helvetica,sans-Serif" font-size="8.00">type:relatedTo</text>
</g>
</g>
</svg>
