<?xml version="1.0" encoding="UTF-8" standalone="no"?>
<!DOCTYPE svg PUBLIC "-//W3C//DTD SVG 1.1//EN"
 "http://www.w3.org/Graphics/SVG/1.1/DTD/svg11.dtd">
<!-- Generated by graphviz version 2.36.0 (20140111.2315)
 -->
<!-- Title: clingo2dot Pages: 1 -->
<svg width="808pt" height="132pt"
 viewBox="0.00 0.00 808.00 132.00" xmlns="http://www.w3.org/2000/svg" xmlns:xlink="http://www.w3.org/1999/xlink">
<g id="graph0" class="graph" transform="scale(1 1) rotate(0) translate(4 128)">
<title>clingo2dot</title>
<polygon fill="white" stroke="none" points="-4,4 -4,-128 804,-128 804,4 -4,4"/>
<!-- n81 -->
<g id="node1" class="node"><title>n81</title>
<polygon fill="#cae1ff" stroke="black" points="536,-111 360,-111 360,-75 536,-75 536,-111"/>
<text text-anchor="middle" x="448" y="-95.6" font-family="Helvetica,sans-Serif" font-size="8.00">name:[&#39;/home/arthur/ProvMark/stage/newtest.txt&#39;]</text>
<text text-anchor="middle" x="448" y="-86.6" font-family="Helvetica,sans-Serif" font-size="8.00">node_id:82</text>
<text text-anchor="middle" x="448" y="-77.6" font-family="Helvetica,sans-Serif" font-size="8.00">type:2</text>
</g>
<!-- n80 -->
<g id="node5" class="node"><title>n80</title>
<polygon fill="#cae1ff" stroke="black" points="272,-107.5 218,-107.5 218,-62.5 272,-62.5 272,-107.5"/>
<text text-anchor="middle" x="245" y="-92.1" font-family="Helvetica,sans-Serif" font-size="8.00">name:omega</text>
<text text-anchor="middle" x="245" y="-83.1" font-family="Helvetica,sans-Serif" font-size="8.00">ref_count:1</text>
<text text-anchor="middle" x="245" y="-74.1" font-family="Helvetica,sans-Serif" font-size="8.00">node_id:81</text>
<text text-anchor="middle" x="245" y="-65.1" font-family="Helvetica,sans-Serif" font-size="8.00">type:4</text>
</g>
<!-- n81&#45;&gt;n80 -->
<g id="edge4" class="edge"><title>n81&#45;&gt;n80</title>
<path fill="none" stroke="blue" d="M359.715,-89.526C332.583,-88.4461 304.144,-87.3142 282.492,-86.4524"/>
<polygon fill="blue" stroke="blue" points="282.576,-82.9531 272.444,-86.0525 282.297,-89.9475 282.576,-82.9531"/>
<text text-anchor="middle" x="316" y="-100.6" font-family="Helvetica,sans-Serif" font-size="8.00">state:0</text>
<text text-anchor="middle" x="316" y="-91.6" font-family="Helvetica,sans-Serif" font-size="8.00">type:relatedTo</text>
</g>
<!-- n84 -->
<g id="node2" class="node"><title>n84</title>
<polygon fill="#cae1ff" stroke="black" points="130,-124.5 0,-124.5 0,-61.5 130,-61.5 130,-124.5"/>
<text text-anchor="middle" x="65" y="-109.1" font-family="Helvetica,sans-Serif" font-size="8.00">arg_values:[&#39;3&#39;, &#39;newtest.txt&#39;, &#39;33252&#39;]</text>
<text text-anchor="middle" x="65" y="-100.1" font-family="Helvetica,sans-Serif" font-size="8.00">arg_keys:[&#39;dirfd&#39;, &#39;pathname&#39;, &#39;mode&#39;]</text>
<text text-anchor="middle" x="65" y="-91.1" font-family="Helvetica,sans-Serif" font-size="8.00">ret:0</text>
<text text-anchor="middle" x="65" y="-82.1" font-family="Helvetica,sans-Serif" font-size="8.00">fn:__xmknodat</text>
<text text-anchor="middle" x="65" y="-73.1" font-family="Helvetica,sans-Serif" font-size="8.00">node_id:85</text>
<text text-anchor="middle" x="65" y="-64.1" font-family="Helvetica,sans-Serif" font-size="8.00">type:5</text>
</g>
<!-- n82 -->
<g id="node3" class="node"><title>n82</title>
<polygon fill="#cae1ff" stroke="black" points="800,-111 624,-111 624,-75 800,-75 800,-111"/>
<text text-anchor="middle" x="712" y="-95.6" font-family="Helvetica,sans-Serif" font-size="8.00">name:[&#39;/home/arthur/ProvMark/stage/newtest.txt&#39;]</text>
<text text-anchor="middle" x="712" y="-86.6" font-family="Helvetica,sans-Serif" font-size="8.00">node_id:83</text>
<text text-anchor="middle" x="712" y="-77.6" font-family="Helvetica,sans-Serif" font-size="8.00">type:2</text>
</g>
<!-- n82&#45;&gt;n81 -->
<g id="edge5" class="edge"><title>n82&#45;&gt;n81</title>
<path fill="none" stroke="blue" d="M623.758,-93C598.92,-93 571.712,-93 546.316,-93"/>
<polygon fill="blue" stroke="blue" points="546.308,-89.5001 536.308,-93 546.308,-96.5001 546.308,-89.5001"/>
<text text-anchor="middle" x="580" y="-104.6" font-family="Helvetica,sans-Serif" font-size="8.00">state:0</text>
<text text-anchor="middle" x="580" y="-95.6" font-family="Helvetica,sans-Serif" font-size="8.00">type:relatedTo</text>
</g>
<!-- n83 -->
<g id="node4" class="node"><title>n83</title>
<polygon fill="#cae1ff" stroke="black" points="475,-44.5 421,-44.5 421,0.5 475,0.5 475,-44.5"/>
<text text-anchor="middle" x="448" y="-29.1" font-family="Helvetica,sans-Serif" font-size="8.00">name:omega</text>
<text text-anchor="middle" x="448" y="-20.1" font-family="Helvetica,sans-Serif" font-size="8.00">ref_count:0</text>
<text text-anchor="middle" x="448" y="-11.1" font-family="Helvetica,sans-Serif" font-size="8.00">node_id:84</text>
<text text-anchor="middle" x="448" y="-2.1" font-family="Helvetica,sans-Serif" font-size="8.00">type:4</text>
</g>
<!-- n83&#45;&gt;n80 -->
<g id="edge2" class="edge"><title>n83&#45;&gt;n80</title>
<path fill="none" stroke="blue" d="M420.828,-24.6772C388.921,-28.6081 333.834,-37.5705 290,-56 286.964,-57.2765 283.912,-58.7675 280.908,-60.3874"/>
<polygon fill="blue" stroke="blue" points="278.962,-57.4709 272.106,-65.5482 282.502,-63.5095 278.962,-57.4709"/>
<text text-anchor="middle" x="316" y="-67.6" font-family="Helvetica,sans-Serif" font-size="8.00">state:0</text>
<text text-anchor="middle" x="316" y="-58.6" font-family="Helvetica,sans-Serif" font-size="8.00">type:relatedTo</text>
</g>
<!-- n3 -->
<g id="node6" class="node"><title>n3</title>
<ellipse fill="green" stroke="black" cx="65" cy="-18" rx="27" ry="18"/>
<text text-anchor="middle" x="65" y="-16.1" font-family="Helvetica,sans-Serif" font-size="8.00">Dummy Node</text>
</g>
<!-- n83&#45;&gt;n3 -->
<g id="edge3" class="edge"><title>n83&#45;&gt;n3</title>
<path fill="none" stroke="blue" d="M420.812,-21.7251C354.256,-21.0263 178.501,-19.1811 102.203,-18.3801"/>
<polygon fill="blue" stroke="blue" points="102.155,-14.8795 92.1185,-18.2742 102.081,-21.8791 102.155,-14.8795"/>
<text text-anchor="middle" x="245" y="-32.6" font-family="Helvetica,sans-Serif" font-size="8.00">state:5</text>
<text text-anchor="middle" x="245" y="-23.6" font-family="Helvetica,sans-Serif" font-size="8.00">type:relatedTo</text>
</g>
<!-- n80&#45;&gt;n84 -->
<g id="edge1" class="edge"><title>n80&#45;&gt;n84</title>
<path fill="none" stroke="blue" d="M217.735,-86.1804C197.237,-87.1017 167.704,-88.429 140.131,-89.6683"/>
<polygon fill="blue" stroke="blue" points="139.914,-86.1744 130.081,-90.1199 140.228,-93.1673 139.914,-86.1744"/>
<text text-anchor="middle" x="174" y="-101.6" font-family="Helvetica,sans-Serif" font-size="8.00">state:0</text>
<text text-anchor="middle" x="174" y="-92.6" font-family="Helvetica,sans-Serif" font-size="8.00">type:relatedTo</text>
</g>
<!-- n80&#45;&gt;n3 -->
<g id="edge6" class="edge"><title>n80&#45;&gt;n3</title>
<path fill="none" stroke="blue" d="M217.688,-66.5643C212.018,-63.0786 205.939,-59.6879 200,-57 167.704,-42.3843 128.555,-31.7362 100.935,-25.2945"/>
<polygon fill="blue" stroke="blue" points="101.478,-21.829 90.9517,-23.0322 99.9308,-28.6559 101.478,-21.829"/>
<text text-anchor="middle" x="174" y="-68.6" font-family="Helvetica,sans-Serif" font-size="8.00">state:10</text>
<text text-anchor="middle" x="174" y="-59.6" font-family="Helvetica,sans-Serif" font-size="8.00">type:relatedTo</text>
</g>
</g>
</svg>
