<?xml version="1.0" encoding="UTF-8" standalone="no"?>
<!DOCTYPE svg PUBLIC "-//W3C//DTD SVG 1.1//EN"
 "http://www.w3.org/Graphics/SVG/1.1/DTD/svg11.dtd">
<!-- Generated by graphviz version 2.36.0 (20140111.2315)
 -->
<!-- Title: clingo2dot Pages: 1 -->
<svg width="280pt" height="70pt"
 viewBox="0.00 0.00 280.00 70.00" xmlns="http://www.w3.org/2000/svg" xmlns:xlink="http://www.w3.org/1999/xlink">
<g id="graph0" class="graph" transform="scale(1 1) rotate(0) translate(4 66)">
<title>clingo2dot</title>
<polygon fill="white" stroke="none" points="-4,4 -4,-66 276,-66 276,4 -4,4"/>
<!-- n3 -->
<g id="node1" class="node"><title>n3</title>
<ellipse fill="green" stroke="black" cx="245" cy="-31" rx="27" ry="18"/>
<text text-anchor="middle" x="245" y="-29.1" font-family="Helvetica,sans-Serif" font-size="8.00">Dummy Node</text>
</g>
<!-- n80 -->
<g id="node2" class="node"><title>n80</title>
<polygon fill="#cae1ff" stroke="black" points="130,-62.5 0,-62.5 0,0.5 130,0.5 130,-62.5"/>
<text text-anchor="middle" x="65" y="-47.1" font-family="Helvetica,sans-Serif" font-size="8.00">fn:open</text>
<text text-anchor="middle" x="65" y="-38.1" font-family="Helvetica,sans-Serif" font-size="8.00">arg_keys:[&#39;pathname&#39;, &#39;flags&#39;, &#39;mode&#39;]</text>
<text text-anchor="middle" x="65" y="-29.1" font-family="Helvetica,sans-Serif" font-size="8.00">arg_values:[&#39;test.txt&#39;, &#39;2&#39;, &#39;0&#39;]</text>
<text text-anchor="middle" x="65" y="-20.1" font-family="Helvetica,sans-Serif" font-size="8.00">node_id:78</text>
<text text-anchor="middle" x="65" y="-11.1" font-family="Helvetica,sans-Serif" font-size="8.00">ret:&#45;1</text>
<text text-anchor="middle" x="65" y="-2.1" font-family="Helvetica,sans-Serif" font-size="8.00">type:5</text>
</g>
<!-- n3&#45;&gt;n80 -->
<g id="edge1" class="edge"><title>n3&#45;&gt;n80</title>
<path fill="none" stroke="blue" d="M217.735,-31C197.237,-31 167.704,-31 140.131,-31"/>
<polygon fill="blue" stroke="blue" points="140.081,-27.5001 130.081,-31 140.081,-34.5001 140.081,-27.5001"/>
<text text-anchor="middle" x="174" y="-42.6" font-family="Helvetica,sans-Serif" font-size="8.00">state:0</text>
<text text-anchor="middle" x="174" y="-33.6" font-family="Helvetica,sans-Serif" font-size="8.00">type:relatedTo</text>
</g>
</g>
</svg>
