<?xml version="1.0" encoding="UTF-8" standalone="no"?>
<!DOCTYPE svg PUBLIC "-//W3C//DTD SVG 1.1//EN"
 "http://www.w3.org/Graphics/SVG/1.1/DTD/svg11.dtd">
<!-- Generated by graphviz version 2.36.0 (20140111.2315)
 -->
<!-- Title: clingo2dot Pages: 1 -->
<svg width="898pt" height="143pt"
 viewBox="0.00 0.00 898.00 143.00" xmlns="http://www.w3.org/2000/svg" xmlns:xlink="http://www.w3.org/1999/xlink">
<g id="graph0" class="graph" transform="scale(1 1) rotate(0) translate(4 139)">
<title>clingo2dot</title>
<polygon fill="white" stroke="none" points="-4,4 -4,-139 894,-139 894,4 -4,4"/>
<!-- n83 -->
<g id="node1" class="node"><title>n83</title>
<polygon fill="#cae1ff" stroke="black" points="390,-69.5 336,-69.5 336,-24.5 390,-24.5 390,-69.5"/>
<text text-anchor="middle" x="363" y="-54.1" font-family="Helvetica,sans-Serif" font-size="8.00">name:4</text>
<text text-anchor="middle" x="363" y="-45.1" font-family="Helvetica,sans-Serif" font-size="8.00">ref_count:1</text>
<text text-anchor="middle" x="363" y="-36.1" font-family="Helvetica,sans-Serif" font-size="8.00">node_id:81</text>
<text text-anchor="middle" x="363" y="-27.1" font-family="Helvetica,sans-Serif" font-size="8.00">type:4</text>
</g>
<!-- n85 -->
<g id="node2" class="node"><title>n85</title>
<polygon fill="#cae1ff" stroke="black" points="247.5,-62.5 0.5,-62.5 0.5,0.5 247.5,0.5 247.5,-62.5"/>
<text text-anchor="middle" x="124" y="-47.1" font-family="Helvetica,sans-Serif" font-size="8.00">arg_keys:[&#39;dirfd&#39;, &#39;pathname&#39;, &#39;flags&#39;, &#39;mode&#39;, &#39;file_path&#39;]</text>
<text text-anchor="middle" x="124" y="-38.1" font-family="Helvetica,sans-Serif" font-size="8.00">ret:4</text>
<text text-anchor="middle" x="124" y="-29.1" font-family="Helvetica,sans-Serif" font-size="8.00">arg_values:[&#39;3&#39;, &#39;test.txt&#39;, &#39;2&#39;, &#39;0&#39;, &#39;/home/arthur/ProvMark/stage/test.txt&#39;]</text>
<text text-anchor="middle" x="124" y="-20.1" font-family="Helvetica,sans-Serif" font-size="8.00">node_id:83</text>
<text text-anchor="middle" x="124" y="-11.1" font-family="Helvetica,sans-Serif" font-size="8.00">fn:openat</text>
<text text-anchor="middle" x="124" y="-2.1" font-family="Helvetica,sans-Serif" font-size="8.00">type:5</text>
</g>
<!-- n83&#45;&gt;n85 -->
<g id="edge3" class="edge"><title>n83&#45;&gt;n85</title>
<path fill="none" stroke="blue" d="M335.834,-36.5396C330.05,-34.6638 323.889,-32.992 318,-32 298.638,-28.7387 278.027,-26.9181 257.754,-26.0494"/>
<polygon fill="blue" stroke="blue" points="257.632,-22.5431 247.515,-25.6883 257.385,-29.5387 257.632,-22.5431"/>
<text text-anchor="middle" x="292" y="-43.6" font-family="Helvetica,sans-Serif" font-size="8.00">state:0</text>
<text text-anchor="middle" x="292" y="-34.6" font-family="Helvetica,sans-Serif" font-size="8.00">type:relatedTo</text>
</g>
<!-- n3 -->
<g id="node5" class="node"><title>n3</title>
<ellipse fill="green" stroke="black" cx="124" cy="-111" rx="27" ry="18"/>
<text text-anchor="middle" x="124" y="-109.1" font-family="Helvetica,sans-Serif" font-size="8.00">Dummy Node</text>
</g>
<!-- n83&#45;&gt;n3 -->
<g id="edge6" class="edge"><title>n83&#45;&gt;n3</title>
<path fill="none" stroke="blue" d="M335.945,-54.12C330.045,-55.7284 323.808,-57.4256 318,-59 262.351,-74.0853 197.638,-91.4936 159.068,-101.855"/>
<polygon fill="blue" stroke="blue" points="158.13,-98.4828 149.38,-104.457 159.946,-105.243 158.13,-98.4828"/>
<text text-anchor="middle" x="292" y="-83.6" font-family="Helvetica,sans-Serif" font-size="8.00">state:10</text>
<text text-anchor="middle" x="292" y="-74.6" font-family="Helvetica,sans-Serif" font-size="8.00">type:relatedTo</text>
</g>
<!-- n90 -->
<g id="node3" class="node"><title>n90</title>
<polygon fill="#cae1ff" stroke="black" points="586,-128.5 532,-128.5 532,-83.5 586,-83.5 586,-128.5"/>
<text text-anchor="middle" x="559" y="-113.1" font-family="Helvetica,sans-Serif" font-size="8.00">name:4</text>
<text text-anchor="middle" x="559" y="-104.1" font-family="Helvetica,sans-Serif" font-size="8.00">ref_count:0</text>
<text text-anchor="middle" x="559" y="-95.1" font-family="Helvetica,sans-Serif" font-size="8.00">node_id:88</text>
<text text-anchor="middle" x="559" y="-86.1" font-family="Helvetica,sans-Serif" font-size="8.00">type:4</text>
</g>
<!-- n90&#45;&gt;n83 -->
<g id="edge5" class="edge"><title>n90&#45;&gt;n83</title>
<path fill="none" stroke="blue" d="M531.836,-98.043C497.752,-87.6773 438.012,-69.5088 399.764,-57.8766"/>
<polygon fill="blue" stroke="blue" points="400.644,-54.4861 390.058,-54.9249 398.607,-61.1832 400.644,-54.4861"/>
<text text-anchor="middle" x="434" y="-86.6" font-family="Helvetica,sans-Serif" font-size="8.00">state:0</text>
<text text-anchor="middle" x="434" y="-77.6" font-family="Helvetica,sans-Serif" font-size="8.00">type:relatedTo</text>
</g>
<!-- n90&#45;&gt;n3 -->
<g id="edge1" class="edge"><title>n90&#45;&gt;n3</title>
<path fill="none" stroke="blue" d="M531.889,-106.302C457.894,-107.156 246.667,-109.595 161.377,-110.58"/>
<polygon fill="blue" stroke="blue" points="161.104,-107.083 151.145,-110.698 161.185,-114.082 161.104,-107.083"/>
<text text-anchor="middle" x="363" y="-119.6" font-family="Helvetica,sans-Serif" font-size="8.00">state:5</text>
<text text-anchor="middle" x="363" y="-110.6" font-family="Helvetica,sans-Serif" font-size="8.00">type:relatedTo</text>
</g>
<!-- n84 -->
<g id="node4" class="node"><title>n84</title>
<polygon fill="#cae1ff" stroke="black" points="639.5,-49 478.5,-49 478.5,-13 639.5,-13 639.5,-49"/>
<text text-anchor="middle" x="559" y="-33.6" font-family="Helvetica,sans-Serif" font-size="8.00">name:[&#39;/home/arthur/ProvMark/stage/test.txt&#39;]</text>
<text text-anchor="middle" x="559" y="-24.6" font-family="Helvetica,sans-Serif" font-size="8.00">node_id:82</text>
<text text-anchor="middle" x="559" y="-15.6" font-family="Helvetica,sans-Serif" font-size="8.00">type:2</text>
</g>
<!-- n84&#45;&gt;n83 -->
<g id="edge2" class="edge"><title>n84&#45;&gt;n83</title>
<path fill="none" stroke="blue" d="M478.182,-26.7872C455.382,-26.8639 430.596,-28.1768 408,-32 405.332,-32.4515 402.608,-33.042 399.888,-33.7274"/>
<polygon fill="blue" stroke="blue" points="398.797,-30.3996 390.167,-36.5462 400.746,-37.1227 398.797,-30.3996"/>
<text text-anchor="middle" x="434" y="-43.6" font-family="Helvetica,sans-Serif" font-size="8.00">state:4</text>
<text text-anchor="middle" x="434" y="-34.6" font-family="Helvetica,sans-Serif" font-size="8.00">type:relatedTo</text>
</g>
<!-- n89 -->
<g id="node6" class="node"><title>n89</title>
<polygon fill="#cae1ff" stroke="black" points="889.5,-49 728.5,-49 728.5,-13 889.5,-13 889.5,-49"/>
<text text-anchor="middle" x="809" y="-33.6" font-family="Helvetica,sans-Serif" font-size="8.00">name:[&#39;/home/arthur/ProvMark/stage/test.txt&#39;]</text>
<text text-anchor="middle" x="809" y="-24.6" font-family="Helvetica,sans-Serif" font-size="8.00">node_id:87</text>
<text text-anchor="middle" x="809" y="-15.6" font-family="Helvetica,sans-Serif" font-size="8.00">type:2</text>
</g>
<!-- n89&#45;&gt;n84 -->
<g id="edge4" class="edge"><title>n89&#45;&gt;n84</title>
<path fill="none" stroke="blue" d="M728.166,-31C703.165,-31 675.409,-31 649.771,-31"/>
<polygon fill="blue" stroke="blue" points="649.684,-27.5001 639.684,-31 649.684,-34.5001 649.684,-27.5001"/>
<text text-anchor="middle" x="684" y="-42.6" font-family="Helvetica,sans-Serif" font-size="8.00">state:0</text>
<text text-anchor="middle" x="684" y="-33.6" font-family="Helvetica,sans-Serif" font-size="8.00">type:relatedTo</text>
</g>
</g>
</svg>
