<?xml version="1.0" encoding="UTF-8" standalone="no"?>
<!DOCTYPE svg PUBLIC "-//W3C//DTD SVG 1.1//EN"
 "http://www.w3.org/Graphics/SVG/1.1/DTD/svg11.dtd">
<!-- Generated by graphviz version 2.36.0 (20140111.2315)
 -->
<!-- Title: clingo2dot Pages: 1 -->
<svg width="682pt" height="332pt"
 viewBox="0.00 0.00 682.00 331.73" xmlns="http://www.w3.org/2000/svg" xmlns:xlink="http://www.w3.org/1999/xlink">
<g id="graph0" class="graph" transform="scale(1 1) rotate(0) translate(4 327.733)">
<title>clingo2dot</title>
<polygon fill="white" stroke="none" points="-4,4 -4,-327.733 678,-327.733 678,4 -4,4"/>
<!-- n80 -->
<g id="node1" class="node"><title>n80</title>
<polygon fill="#cae1ff" stroke="black" points="248,-108.233 194,-108.233 194,-63.2332 248,-63.2332 248,-108.233"/>
<text text-anchor="middle" x="221" y="-92.8332" font-family="Helvetica,sans-Serif" font-size="8.00">node_id:78</text>
<text text-anchor="middle" x="221" y="-83.8332" font-family="Helvetica,sans-Serif" font-size="8.00">name:3</text>
<text text-anchor="middle" x="221" y="-74.8332" font-family="Helvetica,sans-Serif" font-size="8.00">ref_count:0</text>
<text text-anchor="middle" x="221" y="-65.8332" font-family="Helvetica,sans-Serif" font-size="8.00">type:4</text>
</g>
<!-- n3 -->
<g id="node5" class="node"><title>n3</title>
<ellipse fill="green" stroke="black" cx="53" cy="-144.733" rx="27" ry="18"/>
<text text-anchor="middle" x="53" y="-142.833" font-family="Helvetica,sans-Serif" font-size="8.00">Dummy Node</text>
</g>
<!-- n80&#45;&gt;n3 -->
<g id="edge3" class="edge"><title>n80&#45;&gt;n3</title>
<path fill="none" stroke="blue" d="M193.676,-88.1972C174.007,-90.6237 146.715,-95.2455 124,-103.733 108.925,-109.366 93.3614,-118.139 80.7489,-126.126"/>
<polygon fill="blue" stroke="blue" points="78.5972,-123.351 72.1357,-131.748 82.4229,-129.213 78.5972,-123.351"/>
<text text-anchor="middle" x="150" y="-115.333" font-family="Helvetica,sans-Serif" font-size="8.00">state:10</text>
<text text-anchor="middle" x="150" y="-106.333" font-family="Helvetica,sans-Serif" font-size="8.00">type:relatedTo</text>
</g>
<!-- n83 -->
<g id="node10" class="node"><title>n83</title>
<polygon fill="#cae1ff" stroke="black" points="106,-84.2332 7.10543e-15,-84.2332 7.10543e-15,-21.2332 106,-21.2332 106,-84.2332"/>
<text text-anchor="middle" x="53" y="-68.8332" font-family="Helvetica,sans-Serif" font-size="8.00">ret:0</text>
<text text-anchor="middle" x="53" y="-59.8332" font-family="Helvetica,sans-Serif" font-size="8.00">arg_keys:[&#39;read_fd&#39;, &#39;write_fd&#39;]</text>
<text text-anchor="middle" x="53" y="-50.8332" font-family="Helvetica,sans-Serif" font-size="8.00">node_id:81</text>
<text text-anchor="middle" x="53" y="-41.8332" font-family="Helvetica,sans-Serif" font-size="8.00">fn:pipe</text>
<text text-anchor="middle" x="53" y="-32.8332" font-family="Helvetica,sans-Serif" font-size="8.00">arg_values:[&#39;3&#39;, &#39;4&#39;]</text>
<text text-anchor="middle" x="53" y="-23.8332" font-family="Helvetica,sans-Serif" font-size="8.00">type:5</text>
</g>
<!-- n80&#45;&gt;n83 -->
<g id="edge13" class="edge"><title>n80&#45;&gt;n83</title>
<path fill="none" stroke="blue" d="M194.493,-63.2035C188.765,-59.3257 182.459,-55.8628 176,-53.7332 157.157,-47.5202 135.769,-45.7201 116.222,-45.9353"/>
<polygon fill="blue" stroke="blue" points="116.088,-42.4376 106.191,-46.2188 116.286,-49.4348 116.088,-42.4376"/>
<text text-anchor="middle" x="150" y="-65.3332" font-family="Helvetica,sans-Serif" font-size="8.00">state:0</text>
<text text-anchor="middle" x="150" y="-56.3332" font-family="Helvetica,sans-Serif" font-size="8.00">type:relatedTo</text>
</g>
<!-- n82 -->
<g id="node2" class="node"><title>n82</title>
<polygon fill="#cae1ff" stroke="black" points="390,-178.733 336,-178.733 336,-142.733 390,-142.733 390,-178.733"/>
<text text-anchor="middle" x="363" y="-158.833" font-family="Helvetica,sans-Serif" font-size="8.00">node_id:80</text>
<text text-anchor="middle" x="363" y="-149.833" font-family="Helvetica,sans-Serif" font-size="8.00">type:2</text>
</g>
<!-- n82&#45;&gt;n80 -->
<g id="edge4" class="edge"><title>n82&#45;&gt;n80</title>
<path fill="none" stroke="blue" d="M335.608,-150.645C315.905,-142.705 288.598,-130.821 266,-117.733 262.966,-115.976 259.886,-114.055 256.838,-112.055"/>
<polygon fill="blue" stroke="blue" points="258.626,-109.038 248.396,-106.281 254.674,-114.816 258.626,-109.038"/>
<text text-anchor="middle" x="292" y="-155.333" font-family="Helvetica,sans-Serif" font-size="8.00">state:2</text>
<text text-anchor="middle" x="292" y="-146.333" font-family="Helvetica,sans-Serif" font-size="8.00">type:relatedTo</text>
</g>
<!-- n81 -->
<g id="node3" class="node"><title>n81</title>
<polygon fill="#cae1ff" stroke="black" points="248,-243.233 194,-243.233 194,-198.233 248,-198.233 248,-243.233"/>
<text text-anchor="middle" x="221" y="-227.833" font-family="Helvetica,sans-Serif" font-size="8.00">node_id:79</text>
<text text-anchor="middle" x="221" y="-218.833" font-family="Helvetica,sans-Serif" font-size="8.00">name:4</text>
<text text-anchor="middle" x="221" y="-209.833" font-family="Helvetica,sans-Serif" font-size="8.00">ref_count:0</text>
<text text-anchor="middle" x="221" y="-200.833" font-family="Helvetica,sans-Serif" font-size="8.00">type:4</text>
</g>
<!-- n82&#45;&gt;n81 -->
<g id="edge8" class="edge"><title>n82&#45;&gt;n81</title>
<path fill="none" stroke="blue" d="M335.606,-178.992C329.942,-182.491 323.886,-185.931 318,-188.733 298.86,-197.843 276.437,-205.474 258.077,-210.997"/>
<polygon fill="blue" stroke="blue" points="256.957,-207.677 248.342,-213.844 258.922,-214.396 256.957,-207.677"/>
<text text-anchor="middle" x="292" y="-220.333" font-family="Helvetica,sans-Serif" font-size="8.00">state:3</text>
<text text-anchor="middle" x="292" y="-211.333" font-family="Helvetica,sans-Serif" font-size="8.00">type:relatedTo</text>
</g>
<!-- n81&#45;&gt;n3 -->
<g id="edge5" class="edge"><title>n81&#45;&gt;n3</title>
<path fill="none" stroke="blue" d="M193.561,-201.996C187.9,-198.36 181.857,-194.747 176,-191.733 147.263,-176.946 112.753,-164.069 87.7807,-155.551"/>
<polygon fill="blue" stroke="blue" points="88.636,-152.146 78.0421,-152.285 86.4102,-158.783 88.636,-152.146"/>
<text text-anchor="middle" x="150" y="-203.333" font-family="Helvetica,sans-Serif" font-size="8.00">state:10</text>
<text text-anchor="middle" x="150" y="-194.333" font-family="Helvetica,sans-Serif" font-size="8.00">type:relatedTo</text>
</g>
<!-- n84 -->
<g id="node7" class="node"><title>n84</title>
<polygon fill="#cae1ff" stroke="black" points="106,-259.233 7.10543e-15,-259.233 7.10543e-15,-196.233 106,-196.233 106,-259.233"/>
<text text-anchor="middle" x="53" y="-243.833" font-family="Helvetica,sans-Serif" font-size="8.00">ret:0</text>
<text text-anchor="middle" x="53" y="-234.833" font-family="Helvetica,sans-Serif" font-size="8.00">arg_keys:[&#39;read_fd&#39;, &#39;write_fd&#39;]</text>
<text text-anchor="middle" x="53" y="-225.833" font-family="Helvetica,sans-Serif" font-size="8.00">node_id:82</text>
<text text-anchor="middle" x="53" y="-216.833" font-family="Helvetica,sans-Serif" font-size="8.00">fn:pipe</text>
<text text-anchor="middle" x="53" y="-207.833" font-family="Helvetica,sans-Serif" font-size="8.00">arg_values:[&#39;3&#39;, &#39;4&#39;]</text>
<text text-anchor="middle" x="53" y="-198.833" font-family="Helvetica,sans-Serif" font-size="8.00">type:5</text>
</g>
<!-- n81&#45;&gt;n84 -->
<g id="edge2" class="edge"><title>n81&#45;&gt;n84</title>
<path fill="none" stroke="blue" d="M193.697,-221.842C172.944,-222.717 143.134,-223.975 116.376,-225.103"/>
<polygon fill="blue" stroke="blue" points="116.139,-221.61 106.296,-225.528 116.434,-228.603 116.139,-221.61"/>
<text text-anchor="middle" x="150" y="-236.333" font-family="Helvetica,sans-Serif" font-size="8.00">state:0</text>
<text text-anchor="middle" x="150" y="-227.333" font-family="Helvetica,sans-Serif" font-size="8.00">type:relatedTo</text>
</g>
<!-- n87 -->
<g id="node4" class="node"><title>n87</title>
<polygon fill="#cae1ff" stroke="black" points="390,-116.233 336,-116.233 336,-71.2332 390,-71.2332 390,-116.233"/>
<text text-anchor="middle" x="363" y="-100.833" font-family="Helvetica,sans-Serif" font-size="8.00">node_id:85</text>
<text text-anchor="middle" x="363" y="-91.8332" font-family="Helvetica,sans-Serif" font-size="8.00">name:3</text>
<text text-anchor="middle" x="363" y="-82.8332" font-family="Helvetica,sans-Serif" font-size="8.00">ref_count:0</text>
<text text-anchor="middle" x="363" y="-73.8332" font-family="Helvetica,sans-Serif" font-size="8.00">type:4</text>
</g>
<!-- n87&#45;&gt;n80 -->
<g id="edge11" class="edge"><title>n87&#45;&gt;n80</title>
<path fill="none" stroke="blue" d="M335.552,-88.8787C329.786,-88.0017 323.704,-87.214 318,-86.7332 298.285,-85.0714 276.213,-84.7357 258.208,-84.8536"/>
<polygon fill="blue" stroke="blue" points="258.085,-81.3547 248.126,-84.9688 258.165,-88.3542 258.085,-81.3547"/>
<text text-anchor="middle" x="292" y="-98.3332" font-family="Helvetica,sans-Serif" font-size="8.00">state:0</text>
<text text-anchor="middle" x="292" y="-89.3332" font-family="Helvetica,sans-Serif" font-size="8.00">type:relatedTo</text>
</g>
<!-- n87&#45;&gt;n3 -->
<g id="edge12" class="edge"><title>n87&#45;&gt;n3</title>
<path fill="none" stroke="blue" d="M335.971,-107.148C330.179,-109.683 323.98,-112.06 318,-113.733 238.755,-135.912 141.819,-142.234 90.2846,-144.029"/>
<polygon fill="blue" stroke="blue" points="89.8865,-140.539 79.9996,-144.347 90.1032,-147.536 89.8865,-140.539"/>
<text text-anchor="middle" x="221" y="-148.333" font-family="Helvetica,sans-Serif" font-size="8.00">state:10</text>
<text text-anchor="middle" x="221" y="-139.333" font-family="Helvetica,sans-Serif" font-size="8.00">type:relatedTo</text>
</g>
<!-- n89 -->
<g id="node6" class="node"><title>n89</title>
<polygon fill="#cae1ff" stroke="black" points="532,-68.2332 478,-68.2332 478,-23.2332 532,-23.2332 532,-68.2332"/>
<text text-anchor="middle" x="505" y="-52.8332" font-family="Helvetica,sans-Serif" font-size="8.00">node_id:87</text>
<text text-anchor="middle" x="505" y="-43.8332" font-family="Helvetica,sans-Serif" font-size="8.00">name:3</text>
<text text-anchor="middle" x="505" y="-34.8332" font-family="Helvetica,sans-Serif" font-size="8.00">ref_count:0</text>
<text text-anchor="middle" x="505" y="-25.8332" font-family="Helvetica,sans-Serif" font-size="8.00">type:4</text>
</g>
<!-- n89&#45;&gt;n87 -->
<g id="edge14" class="edge"><title>n89&#45;&gt;n87</title>
<path fill="none" stroke="blue" d="M477.83,-50.8643C458.239,-55.1065 430.977,-61.8683 408,-70.7332 405.118,-71.8453 402.18,-73.0968 399.258,-74.427"/>
<polygon fill="blue" stroke="blue" points="397.552,-71.3646 390.073,-78.8689 400.599,-77.6665 397.552,-71.3646"/>
<text text-anchor="middle" x="434" y="-82.3332" font-family="Helvetica,sans-Serif" font-size="8.00">state:0</text>
<text text-anchor="middle" x="434" y="-73.3332" font-family="Helvetica,sans-Serif" font-size="8.00">type:relatedTo</text>
</g>
<!-- n89&#45;&gt;n3 -->
<g id="edge10" class="edge"><title>n89&#45;&gt;n3</title>
<path fill="none" stroke="blue" d="M477.939,-36.1639C411.763,-13.6709 234.652,35.0358 124,-42.7332 104.677,-56.3141 118.655,-72.7914 106,-92.7332 98.5509,-104.471 88.0307,-115.632 78.3996,-124.583"/>
<polygon fill="blue" stroke="blue" points="76.0603,-121.979 70.9421,-131.256 80.7281,-127.196 76.0603,-121.979"/>
<text text-anchor="middle" x="292" y="-14.3332" font-family="Helvetica,sans-Serif" font-size="8.00">state:5</text>
<text text-anchor="middle" x="292" y="-5.33319" font-family="Helvetica,sans-Serif" font-size="8.00">type:relatedTo</text>
</g>
<!-- n85 -->
<g id="node8" class="node"><title>n85</title>
<polygon fill="#cae1ff" stroke="black" points="532,-137.733 478,-137.733 478,-101.733 532,-101.733 532,-137.733"/>
<text text-anchor="middle" x="505" y="-117.833" font-family="Helvetica,sans-Serif" font-size="8.00">node_id:83</text>
<text text-anchor="middle" x="505" y="-108.833" font-family="Helvetica,sans-Serif" font-size="8.00">type:2</text>
</g>
<!-- n85&#45;&gt;n82 -->
<g id="edge9" class="edge"><title>n85&#45;&gt;n82</title>
<path fill="none" stroke="blue" d="M477.718,-131.25C471.942,-133.566 465.813,-135.86 460,-137.733 440.546,-144.002 418.384,-149.422 400.259,-153.423"/>
<polygon fill="blue" stroke="blue" points="399.414,-150.024 390.376,-155.553 400.889,-156.867 399.414,-150.024"/>
<text text-anchor="middle" x="434" y="-163.333" font-family="Helvetica,sans-Serif" font-size="8.00">state:0</text>
<text text-anchor="middle" x="434" y="-154.333" font-family="Helvetica,sans-Serif" font-size="8.00">type:relatedTo</text>
</g>
<!-- n85&#45;&gt;n87 -->
<g id="edge1" class="edge"><title>n85&#45;&gt;n87</title>
<path fill="none" stroke="blue" d="M477.964,-114.289C472.063,-113.088 465.821,-111.844 460,-110.733 440.264,-106.968 418.191,-103.039 400.19,-99.9086"/>
<polygon fill="blue" stroke="blue" points="400.561,-96.4209 390.111,-98.1647 399.368,-103.318 400.561,-96.4209"/>
<text text-anchor="middle" x="434" y="-122.333" font-family="Helvetica,sans-Serif" font-size="8.00">state:2</text>
<text text-anchor="middle" x="434" y="-113.333" font-family="Helvetica,sans-Serif" font-size="8.00">type:relatedTo</text>
</g>
<!-- n88 -->
<g id="node9" class="node"><title>n88</title>
<polygon fill="#cae1ff" stroke="black" points="674,-137.733 620,-137.733 620,-101.733 674,-101.733 674,-137.733"/>
<text text-anchor="middle" x="647" y="-117.833" font-family="Helvetica,sans-Serif" font-size="8.00">node_id:86</text>
<text text-anchor="middle" x="647" y="-108.833" font-family="Helvetica,sans-Serif" font-size="8.00">type:2</text>
</g>
<!-- n88&#45;&gt;n85 -->
<g id="edge6" class="edge"><title>n88&#45;&gt;n85</title>
<path fill="none" stroke="blue" d="M619.995,-119.733C598.228,-119.733 566.917,-119.733 542.615,-119.733"/>
<polygon fill="blue" stroke="blue" points="542.341,-116.233 532.341,-119.733 542.341,-123.233 542.341,-116.233"/>
<text text-anchor="middle" x="576" y="-131.333" font-family="Helvetica,sans-Serif" font-size="8.00">state:0</text>
<text text-anchor="middle" x="576" y="-122.333" font-family="Helvetica,sans-Serif" font-size="8.00">type:relatedTo</text>
</g>
<!-- n86 -->
<g id="node11" class="node"><title>n86</title>
<polygon fill="#cae1ff" stroke="black" points="390,-304.233 336,-304.233 336,-259.233 390,-259.233 390,-304.233"/>
<text text-anchor="middle" x="363" y="-288.833" font-family="Helvetica,sans-Serif" font-size="8.00">node_id:84</text>
<text text-anchor="middle" x="363" y="-279.833" font-family="Helvetica,sans-Serif" font-size="8.00">name:4</text>
<text text-anchor="middle" x="363" y="-270.833" font-family="Helvetica,sans-Serif" font-size="8.00">ref_count:0</text>
<text text-anchor="middle" x="363" y="-261.833" font-family="Helvetica,sans-Serif" font-size="8.00">type:4</text>
</g>
<!-- n86&#45;&gt;n81 -->
<g id="edge15" class="edge"><title>n86&#45;&gt;n81</title>
<path fill="none" stroke="blue" d="M335.986,-269.789C330.084,-267.113 323.836,-264.305 318,-261.733 298.131,-252.976 275.832,-243.435 257.73,-235.762"/>
<polygon fill="blue" stroke="blue" points="258.72,-232.381 248.147,-231.709 255.993,-238.828 258.72,-232.381"/>
<text text-anchor="middle" x="292" y="-273.333" font-family="Helvetica,sans-Serif" font-size="8.00">state:0</text>
<text text-anchor="middle" x="292" y="-264.333" font-family="Helvetica,sans-Serif" font-size="8.00">type:relatedTo</text>
</g>
<!-- n86&#45;&gt;n3 -->
<g id="edge7" class="edge"><title>n86&#45;&gt;n3</title>
<path fill="none" stroke="blue" d="M335.917,-288.03C287.015,-298.123 181.332,-311.547 124,-255.733 101.291,-233.626 123.19,-213.359 106,-186.733 99.8945,-177.276 90.9502,-168.956 82.1949,-162.269"/>
<polygon fill="blue" stroke="blue" points="84.1265,-159.347 73.9575,-156.374 80.0528,-165.04 84.1265,-159.347"/>
<text text-anchor="middle" x="221" y="-308.333" font-family="Helvetica,sans-Serif" font-size="8.00">state:5</text>
<text text-anchor="middle" x="221" y="-299.333" font-family="Helvetica,sans-Serif" font-size="8.00">type:relatedTo</text>
</g>
</g>
</svg>
