<?xml version="1.0" encoding="UTF-8" standalone="no"?>
<!DOCTYPE svg PUBLIC "-//W3C//DTD SVG 1.1//EN"
 "http://www.w3.org/Graphics/SVG/1.1/DTD/svg11.dtd">
<!-- Generated by graphviz version 2.36.0 (20140111.2315)
 -->
<!-- Title: clingo2dot Pages: 1 -->
<svg width="706pt" height="303pt"
 viewBox="0.00 0.00 706.00 302.70" xmlns="http://www.w3.org/2000/svg" xmlns:xlink="http://www.w3.org/1999/xlink">
<g id="graph0" class="graph" transform="scale(1 1) rotate(0) translate(4 298.699)">
<title>clingo2dot</title>
<polygon fill="white" stroke="none" points="-4,4 -4,-298.699 702,-298.699 702,4 -4,4"/>
<!-- n82 -->
<g id="node1" class="node"><title>n82</title>
<polygon fill="#cae1ff" stroke="black" points="414,-231.699 360,-231.699 360,-195.699 414,-195.699 414,-231.699"/>
<text text-anchor="middle" x="387" y="-211.799" font-family="Helvetica,sans-Serif" font-size="8.00">node_id:80</text>
<text text-anchor="middle" x="387" y="-202.799" font-family="Helvetica,sans-Serif" font-size="8.00">type:2</text>
</g>
<!-- n81 -->
<g id="node2" class="node"><title>n81</title>
<polygon fill="#cae1ff" stroke="black" points="272,-179.199 218,-179.199 218,-134.199 272,-134.199 272,-179.199"/>
<text text-anchor="middle" x="245" y="-163.799" font-family="Helvetica,sans-Serif" font-size="8.00">node_id:79</text>
<text text-anchor="middle" x="245" y="-154.799" font-family="Helvetica,sans-Serif" font-size="8.00">ref_count:0</text>
<text text-anchor="middle" x="245" y="-145.799" font-family="Helvetica,sans-Serif" font-size="8.00">name:4</text>
<text text-anchor="middle" x="245" y="-136.799" font-family="Helvetica,sans-Serif" font-size="8.00">type:4</text>
</g>
<!-- n82&#45;&gt;n81 -->
<g id="edge8" class="edge"><title>n82&#45;&gt;n81</title>
<path fill="none" stroke="blue" d="M359.693,-210.883C339.787,-208.004 312.186,-202.378 290,-191.699 286.141,-189.842 282.313,-187.593 278.617,-185.141"/>
<polygon fill="blue" stroke="blue" points="280.446,-182.145 270.285,-179.142 276.355,-187.826 280.446,-182.145"/>
<text text-anchor="middle" x="316" y="-219.299" font-family="Helvetica,sans-Serif" font-size="8.00">state:3</text>
<text text-anchor="middle" x="316" y="-210.299" font-family="Helvetica,sans-Serif" font-size="8.00">type:relatedTo</text>
</g>
<!-- n80 -->
<g id="node4" class="node"><title>n80</title>
<polygon fill="#cae1ff" stroke="black" points="272,-268.199 218,-268.199 218,-223.199 272,-223.199 272,-268.199"/>
<text text-anchor="middle" x="245" y="-252.799" font-family="Helvetica,sans-Serif" font-size="8.00">node_id:78</text>
<text text-anchor="middle" x="245" y="-243.799" font-family="Helvetica,sans-Serif" font-size="8.00">ref_count:0</text>
<text text-anchor="middle" x="245" y="-234.799" font-family="Helvetica,sans-Serif" font-size="8.00">name:3</text>
<text text-anchor="middle" x="245" y="-225.799" font-family="Helvetica,sans-Serif" font-size="8.00">type:4</text>
</g>
<!-- n82&#45;&gt;n80 -->
<g id="edge5" class="edge"><title>n82&#45;&gt;n80</title>
<path fill="none" stroke="blue" d="M362.469,-231.839C356.144,-235.803 349.084,-239.475 342,-241.699 322.975,-247.672 300.785,-248.939 282.535,-248.592"/>
<polygon fill="blue" stroke="blue" points="282.417,-245.086 272.298,-248.225 282.166,-252.081 282.417,-245.086"/>
<text text-anchor="middle" x="316" y="-260.299" font-family="Helvetica,sans-Serif" font-size="8.00">state:2</text>
<text text-anchor="middle" x="316" y="-251.299" font-family="Helvetica,sans-Serif" font-size="8.00">type:relatedTo</text>
</g>
<!-- n84 -->
<g id="node5" class="node"><title>n84</title>
<polygon fill="#cae1ff" stroke="black" points="130,-195.199 0,-195.199 0,-132.199 130,-132.199 130,-195.199"/>
<text text-anchor="middle" x="65" y="-179.799" font-family="Helvetica,sans-Serif" font-size="8.00">fn:pipe2</text>
<text text-anchor="middle" x="65" y="-170.799" font-family="Helvetica,sans-Serif" font-size="8.00">ret:0</text>
<text text-anchor="middle" x="65" y="-161.799" font-family="Helvetica,sans-Serif" font-size="8.00">node_id:82</text>
<text text-anchor="middle" x="65" y="-152.799" font-family="Helvetica,sans-Serif" font-size="8.00">arg_keys:[&#39;read_fd&#39;, &#39;write_fd&#39;, &#39;flags&#39;]</text>
<text text-anchor="middle" x="65" y="-143.799" font-family="Helvetica,sans-Serif" font-size="8.00">arg_values:[&#39;3&#39;, &#39;4&#39;, &#39;524288&#39;]</text>
<text text-anchor="middle" x="65" y="-134.799" font-family="Helvetica,sans-Serif" font-size="8.00">type:5</text>
</g>
<!-- n81&#45;&gt;n84 -->
<g id="edge10" class="edge"><title>n81&#45;&gt;n84</title>
<path fill="none" stroke="blue" d="M217.735,-157.732C197.237,-158.538 167.704,-159.699 140.131,-160.784"/>
<polygon fill="blue" stroke="blue" points="139.936,-157.289 130.081,-161.179 140.211,-164.283 139.936,-157.289"/>
<text text-anchor="middle" x="174" y="-172.299" font-family="Helvetica,sans-Serif" font-size="8.00">state:0</text>
<text text-anchor="middle" x="174" y="-163.299" font-family="Helvetica,sans-Serif" font-size="8.00">type:relatedTo</text>
</g>
<!-- n3 -->
<g id="node7" class="node"><title>n3</title>
<ellipse fill="green" stroke="black" cx="65" cy="-80.6991" rx="27" ry="18"/>
<text text-anchor="middle" x="65" y="-78.7991" font-family="Helvetica,sans-Serif" font-size="8.00">Dummy Node</text>
</g>
<!-- n81&#45;&gt;n3 -->
<g id="edge1" class="edge"><title>n81&#45;&gt;n3</title>
<path fill="none" stroke="blue" d="M217.631,-137.823C211.965,-134.197 205.902,-130.624 200,-127.699 167.341,-111.517 127.712,-98.3497 100.056,-90.1126"/>
<polygon fill="blue" stroke="blue" points="101.024,-86.7492 90.4438,-87.3045 99.0611,-93.4683 101.024,-86.7492"/>
<text text-anchor="middle" x="174" y="-139.299" font-family="Helvetica,sans-Serif" font-size="8.00">state:10</text>
<text text-anchor="middle" x="174" y="-130.299" font-family="Helvetica,sans-Serif" font-size="8.00">type:relatedTo</text>
</g>
<!-- n88 -->
<g id="node3" class="node"><title>n88</title>
<polygon fill="#cae1ff" stroke="black" points="698,-191.699 644,-191.699 644,-155.699 698,-155.699 698,-191.699"/>
<text text-anchor="middle" x="671" y="-171.799" font-family="Helvetica,sans-Serif" font-size="8.00">node_id:86</text>
<text text-anchor="middle" x="671" y="-162.799" font-family="Helvetica,sans-Serif" font-size="8.00">type:2</text>
</g>
<!-- n85 -->
<g id="node11" class="node"><title>n85</title>
<polygon fill="#cae1ff" stroke="black" points="556,-191.699 502,-191.699 502,-155.699 556,-155.699 556,-191.699"/>
<text text-anchor="middle" x="529" y="-171.799" font-family="Helvetica,sans-Serif" font-size="8.00">node_id:83</text>
<text text-anchor="middle" x="529" y="-162.799" font-family="Helvetica,sans-Serif" font-size="8.00">type:2</text>
</g>
<!-- n88&#45;&gt;n85 -->
<g id="edge14" class="edge"><title>n88&#45;&gt;n85</title>
<path fill="none" stroke="blue" d="M643.995,-173.699C622.228,-173.699 590.917,-173.699 566.615,-173.699"/>
<polygon fill="blue" stroke="blue" points="566.341,-170.199 556.341,-173.699 566.341,-177.199 566.341,-170.199"/>
<text text-anchor="middle" x="600" y="-185.299" font-family="Helvetica,sans-Serif" font-size="8.00">state:0</text>
<text text-anchor="middle" x="600" y="-176.299" font-family="Helvetica,sans-Serif" font-size="8.00">type:relatedTo</text>
</g>
<!-- n80&#45;&gt;n3 -->
<g id="edge4" class="edge"><title>n80&#45;&gt;n3</title>
<path fill="none" stroke="blue" d="M217.574,-229.854C211.807,-226.46 205.718,-222.926 200,-219.699 177.141,-206.798 164.218,-212.338 148,-191.699 128.418,-166.779 148.482,-148.445 130,-122.699 121.662,-111.085 109.03,-101.815 97.1856,-94.97"/>
<polygon fill="blue" stroke="blue" points="98.8279,-91.8792 88.3653,-90.2098 95.5032,-98.0393 98.8279,-91.8792"/>
<text text-anchor="middle" x="174" y="-231.299" font-family="Helvetica,sans-Serif" font-size="8.00">state:10</text>
<text text-anchor="middle" x="174" y="-222.299" font-family="Helvetica,sans-Serif" font-size="8.00">type:relatedTo</text>
</g>
<!-- n83 -->
<g id="node9" class="node"><title>n83</title>
<polygon fill="#cae1ff" stroke="black" points="130,-295.199 0,-295.199 0,-232.199 130,-232.199 130,-295.199"/>
<text text-anchor="middle" x="65" y="-279.799" font-family="Helvetica,sans-Serif" font-size="8.00">fn:pipe2</text>
<text text-anchor="middle" x="65" y="-270.799" font-family="Helvetica,sans-Serif" font-size="8.00">ret:0</text>
<text text-anchor="middle" x="65" y="-261.799" font-family="Helvetica,sans-Serif" font-size="8.00">node_id:81</text>
<text text-anchor="middle" x="65" y="-252.799" font-family="Helvetica,sans-Serif" font-size="8.00">arg_keys:[&#39;read_fd&#39;, &#39;write_fd&#39;, &#39;flags&#39;]</text>
<text text-anchor="middle" x="65" y="-243.799" font-family="Helvetica,sans-Serif" font-size="8.00">arg_values:[&#39;3&#39;, &#39;4&#39;, &#39;524288&#39;]</text>
<text text-anchor="middle" x="65" y="-234.799" font-family="Helvetica,sans-Serif" font-size="8.00">type:5</text>
</g>
<!-- n80&#45;&gt;n83 -->
<g id="edge2" class="edge"><title>n80&#45;&gt;n83</title>
<path fill="none" stroke="blue" d="M217.735,-248.355C197.237,-250.428 167.704,-253.414 140.131,-256.203"/>
<polygon fill="blue" stroke="blue" points="139.678,-252.73 130.081,-257.219 140.383,-259.695 139.678,-252.73"/>
<text text-anchor="middle" x="174" y="-266.299" font-family="Helvetica,sans-Serif" font-size="8.00">state:0</text>
<text text-anchor="middle" x="174" y="-257.299" font-family="Helvetica,sans-Serif" font-size="8.00">type:relatedTo</text>
</g>
<!-- n87 -->
<g id="node6" class="node"><title>n87</title>
<polygon fill="#cae1ff" stroke="black" points="414,-160.199 360,-160.199 360,-115.199 414,-115.199 414,-160.199"/>
<text text-anchor="middle" x="387" y="-144.799" font-family="Helvetica,sans-Serif" font-size="8.00">node_id:85</text>
<text text-anchor="middle" x="387" y="-135.799" font-family="Helvetica,sans-Serif" font-size="8.00">ref_count:0</text>
<text text-anchor="middle" x="387" y="-126.799" font-family="Helvetica,sans-Serif" font-size="8.00">name:3</text>
<text text-anchor="middle" x="387" y="-117.799" font-family="Helvetica,sans-Serif" font-size="8.00">type:4</text>
</g>
<!-- n87&#45;&gt;n80 -->
<g id="edge12" class="edge"><title>n87&#45;&gt;n80</title>
<path fill="none" stroke="blue" d="M359.718,-141.486C335.163,-145.462 300.729,-152.301 290,-160.699 285.249,-164.418 271.724,-191.281 260.912,-213.827"/>
<polygon fill="blue" stroke="blue" points="257.614,-212.611 256.477,-223.145 263.935,-215.619 257.614,-212.611"/>
<text text-anchor="middle" x="316" y="-172.299" font-family="Helvetica,sans-Serif" font-size="8.00">state:0</text>
<text text-anchor="middle" x="316" y="-163.299" font-family="Helvetica,sans-Serif" font-size="8.00">type:relatedTo</text>
</g>
<!-- n87&#45;&gt;n3 -->
<g id="edge13" class="edge"><title>n87&#45;&gt;n3</title>
<path fill="none" stroke="blue" d="M369.068,-115.383C361.7,-107.388 352.373,-99.2358 342,-94.6991 261.846,-59.6427 155.849,-67.4234 101.49,-74.8028"/>
<polygon fill="blue" stroke="blue" points="100.731,-71.3758 91.3298,-76.2606 101.726,-78.3048 100.731,-71.3758"/>
<text text-anchor="middle" x="245" y="-86.2991" font-family="Helvetica,sans-Serif" font-size="8.00">state:10</text>
<text text-anchor="middle" x="245" y="-77.2991" font-family="Helvetica,sans-Serif" font-size="8.00">type:relatedTo</text>
</g>
<!-- n86 -->
<g id="node8" class="node"><title>n86</title>
<polygon fill="#cae1ff" stroke="black" points="414,-63.1991 360,-63.1991 360,-18.1991 414,-18.1991 414,-63.1991"/>
<text text-anchor="middle" x="387" y="-47.7991" font-family="Helvetica,sans-Serif" font-size="8.00">node_id:84</text>
<text text-anchor="middle" x="387" y="-38.7991" font-family="Helvetica,sans-Serif" font-size="8.00">ref_count:0</text>
<text text-anchor="middle" x="387" y="-29.7991" font-family="Helvetica,sans-Serif" font-size="8.00">name:4</text>
<text text-anchor="middle" x="387" y="-20.7991" font-family="Helvetica,sans-Serif" font-size="8.00">type:4</text>
</g>
<!-- n86&#45;&gt;n81 -->
<g id="edge11" class="edge"><title>n86&#45;&gt;n81</title>
<path fill="none" stroke="blue" d="M359.648,-59.3777C339.965,-73.651 312.667,-94.1365 290,-113.699 285.118,-117.912 280.092,-122.53 275.26,-127.127"/>
<polygon fill="blue" stroke="blue" points="272.629,-124.803 267.878,-134.273 277.497,-129.833 272.629,-124.803"/>
<text text-anchor="middle" x="316" y="-125.299" font-family="Helvetica,sans-Serif" font-size="8.00">state:0</text>
<text text-anchor="middle" x="316" y="-116.299" font-family="Helvetica,sans-Serif" font-size="8.00">type:relatedTo</text>
</g>
<!-- n86&#45;&gt;n3 -->
<g id="edge7" class="edge"><title>n86&#45;&gt;n3</title>
<path fill="none" stroke="blue" d="M359.773,-38.0383C336.689,-35.8375 302.154,-32.8875 272,-31.6991 248.019,-30.7539 241.709,-27.972 218,-31.6991 175.182,-38.4301 127.977,-55.2126 97.7101,-67.2606"/>
<polygon fill="blue" stroke="blue" points="96.0798,-64.1447 88.1257,-71.1435 98.7082,-70.6325 96.0798,-64.1447"/>
<text text-anchor="middle" x="245" y="-43.2991" font-family="Helvetica,sans-Serif" font-size="8.00">state:5</text>
<text text-anchor="middle" x="245" y="-34.2991" font-family="Helvetica,sans-Serif" font-size="8.00">type:relatedTo</text>
</g>
<!-- n89 -->
<g id="node10" class="node"><title>n89</title>
<polygon fill="#cae1ff" stroke="black" points="556,-81.1991 502,-81.1991 502,-36.1991 556,-36.1991 556,-81.1991"/>
<text text-anchor="middle" x="529" y="-65.7991" font-family="Helvetica,sans-Serif" font-size="8.00">node_id:87</text>
<text text-anchor="middle" x="529" y="-56.7991" font-family="Helvetica,sans-Serif" font-size="8.00">ref_count:0</text>
<text text-anchor="middle" x="529" y="-47.7991" font-family="Helvetica,sans-Serif" font-size="8.00">name:3</text>
<text text-anchor="middle" x="529" y="-38.7991" font-family="Helvetica,sans-Serif" font-size="8.00">type:4</text>
</g>
<!-- n89&#45;&gt;n87 -->
<g id="edge9" class="edge"><title>n89&#45;&gt;n87</title>
<path fill="none" stroke="blue" d="M501.995,-73.3732C479.838,-85.8763 447.79,-103.96 423.314,-117.772"/>
<polygon fill="blue" stroke="blue" points="421.33,-114.873 414.341,-122.835 424.77,-120.969 421.33,-114.873"/>
<text text-anchor="middle" x="458" y="-124.299" font-family="Helvetica,sans-Serif" font-size="8.00">state:0</text>
<text text-anchor="middle" x="458" y="-115.299" font-family="Helvetica,sans-Serif" font-size="8.00">type:relatedTo</text>
</g>
<!-- n89&#45;&gt;n3 -->
<g id="edge15" class="edge"><title>n89&#45;&gt;n3</title>
<path fill="none" stroke="blue" d="M501.685,-44.2888C479.116,-32.6401 445.368,-16.8801 414,-8.69906 382.89,-0.585286 374.113,-3.25644 342,-1.69906 254.855,2.52718 229.235,0.128433 148,-31.6991 128.38,-39.3862 108.035,-51.5137 92.519,-61.78"/>
<polygon fill="blue" stroke="blue" points="90.2996,-59.0559 83.9831,-67.5619 94.2254,-64.8515 90.2996,-59.0559"/>
<text text-anchor="middle" x="316" y="-13.2991" font-family="Helvetica,sans-Serif" font-size="8.00">state:5</text>
<text text-anchor="middle" x="316" y="-4.29906" font-family="Helvetica,sans-Serif" font-size="8.00">type:relatedTo</text>
</g>
<!-- n85&#45;&gt;n82 -->
<g id="edge6" class="edge"><title>n85&#45;&gt;n82</title>
<path fill="none" stroke="blue" d="M501.995,-181.129C480.033,-187.404 448.354,-196.455 423.963,-203.424"/>
<polygon fill="blue" stroke="blue" points="422.994,-200.061 414.341,-206.173 424.917,-206.791 422.994,-200.061"/>
<text text-anchor="middle" x="458" y="-213.299" font-family="Helvetica,sans-Serif" font-size="8.00">state:0</text>
<text text-anchor="middle" x="458" y="-204.299" font-family="Helvetica,sans-Serif" font-size="8.00">type:relatedTo</text>
</g>
<!-- n85&#45;&gt;n87 -->
<g id="edge3" class="edge"><title>n85&#45;&gt;n87</title>
<path fill="none" stroke="blue" d="M501.677,-163.432C495.903,-161.376 489.785,-159.344 484,-157.699 464.471,-152.145 442.304,-147.425 424.194,-143.968"/>
<polygon fill="blue" stroke="blue" points="424.795,-140.52 414.323,-142.131 423.514,-147.402 424.795,-140.52"/>
<text text-anchor="middle" x="458" y="-169.299" font-family="Helvetica,sans-Serif" font-size="8.00">state:2</text>
<text text-anchor="middle" x="458" y="-160.299" font-family="Helvetica,sans-Serif" font-size="8.00">type:relatedTo</text>
</g>
</g>
</svg>
