<?xml version="1.0" encoding="UTF-8" standalone="no"?>
<!DOCTYPE svg PUBLIC "-//W3C//DTD SVG 1.1//EN"
 "http://www.w3.org/Graphics/SVG/1.1/DTD/svg11.dtd">
<!-- Generated by graphviz version 2.36.0 (20140111.2315)
 -->
<!-- Title: clingo2dot Pages: 1 -->
<svg width="1934pt" height="279pt"
 viewBox="0.00 0.00 1934.00 279.37" xmlns="http://www.w3.org/2000/svg" xmlns:xlink="http://www.w3.org/1999/xlink">
<g id="graph0" class="graph" transform="scale(1 1) rotate(0) translate(4 275.367)">
<title>clingo2dot</title>
<polygon fill="white" stroke="none" points="-4,4 -4,-275.367 1930,-275.367 1930,4 -4,4"/>
<!-- n93 -->
<g id="node1" class="node"><title>n93</title>
<polygon fill="#cae1ff" stroke="black" points="355.5,-234.867 0.5,-234.867 0.5,-171.867 355.5,-171.867 355.5,-234.867"/>
<text text-anchor="middle" x="178" y="-219.467" font-family="Helvetica,sans-Serif" font-size="8.00">node_id:91</text>
<text text-anchor="middle" x="178" y="-210.467" font-family="Helvetica,sans-Serif" font-size="8.00">arg_values:[&#39;/home/arthur/ProvMark/stage/test.txt&#39;, &#39;/home/arthur/ProvMark/stage/renameat&#45;test.txt&#39;]</text>
<text text-anchor="middle" x="178" y="-201.467" font-family="Helvetica,sans-Serif" font-size="8.00">fn:renameat</text>
<text text-anchor="middle" x="178" y="-192.467" font-family="Helvetica,sans-Serif" font-size="8.00">ret:0</text>
<text text-anchor="middle" x="178" y="-183.467" font-family="Helvetica,sans-Serif" font-size="8.00">arg_keys:[&#39;oldpath&#39;, &#39;newpath&#39;]</text>
<text text-anchor="middle" x="178" y="-174.467" font-family="Helvetica,sans-Serif" font-size="8.00">type:5</text>
</g>
<!-- n85 -->
<g id="node2" class="node"><title>n85</title>
<polygon fill="#cae1ff" stroke="black" points="785.5,-271.367 586.5,-271.367 586.5,-235.367 785.5,-235.367 785.5,-271.367"/>
<text text-anchor="middle" x="686" y="-255.967" font-family="Helvetica,sans-Serif" font-size="8.00">node_id:83</text>
<text text-anchor="middle" x="686" y="-246.967" font-family="Helvetica,sans-Serif" font-size="8.00">name:[&#39;/home/arthur/ProvMark/stage/renameat&#45;test.txt&#39;]</text>
<text text-anchor="middle" x="686" y="-237.967" font-family="Helvetica,sans-Serif" font-size="8.00">type:2</text>
</g>
<!-- n83 -->
<g id="node12" class="node"><title>n83</title>
<polygon fill="#cae1ff" stroke="black" points="498,-225.867 444,-225.867 444,-180.867 498,-180.867 498,-225.867"/>
<text text-anchor="middle" x="471" y="-210.467" font-family="Helvetica,sans-Serif" font-size="8.00">ref_count:1</text>
<text text-anchor="middle" x="471" y="-201.467" font-family="Helvetica,sans-Serif" font-size="8.00">node_id:81</text>
<text text-anchor="middle" x="471" y="-192.467" font-family="Helvetica,sans-Serif" font-size="8.00">name:omega</text>
<text text-anchor="middle" x="471" y="-183.467" font-family="Helvetica,sans-Serif" font-size="8.00">type:4</text>
</g>
<!-- n85&#45;&gt;n83 -->
<g id="edge3" class="edge"><title>n85&#45;&gt;n83</title>
<path fill="none" stroke="blue" d="M586.304,-247.856C562.788,-244.552 538.112,-239.39 516,-231.367 512.936,-230.255 509.863,-228.902 506.846,-227.398"/>
<polygon fill="blue" stroke="blue" points="508.464,-224.294 498.019,-222.522 505.08,-230.421 508.464,-224.294"/>
<text text-anchor="middle" x="542" y="-255.967" font-family="Helvetica,sans-Serif" font-size="8.00">state:0</text>
<text text-anchor="middle" x="542" y="-246.967" font-family="Helvetica,sans-Serif" font-size="8.00">type:relatedTo</text>
</g>
<!-- n91 -->
<g id="node3" class="node"><title>n91</title>
<polygon fill="#cae1ff" stroke="black" points="713,-46.8666 659,-46.8666 659,-1.86662 713,-1.86662 713,-46.8666"/>
<text text-anchor="middle" x="686" y="-31.4666" font-family="Helvetica,sans-Serif" font-size="8.00">ref_count:0</text>
<text text-anchor="middle" x="686" y="-22.4666" font-family="Helvetica,sans-Serif" font-size="8.00">node_id:89</text>
<text text-anchor="middle" x="686" y="-13.4666" font-family="Helvetica,sans-Serif" font-size="8.00">name:omega</text>
<text text-anchor="middle" x="686" y="-4.46662" font-family="Helvetica,sans-Serif" font-size="8.00">type:4</text>
</g>
<!-- n88 -->
<g id="node6" class="node"><title>n88</title>
<polygon fill="#cae1ff" stroke="black" points="498,-83.8666 444,-83.8666 444,-38.8666 498,-38.8666 498,-83.8666"/>
<text text-anchor="middle" x="471" y="-68.4666" font-family="Helvetica,sans-Serif" font-size="8.00">ref_count:2</text>
<text text-anchor="middle" x="471" y="-59.4666" font-family="Helvetica,sans-Serif" font-size="8.00">node_id:86</text>
<text text-anchor="middle" x="471" y="-50.4666" font-family="Helvetica,sans-Serif" font-size="8.00">name:omega</text>
<text text-anchor="middle" x="471" y="-41.4666" font-family="Helvetica,sans-Serif" font-size="8.00">type:4</text>
</g>
<!-- n91&#45;&gt;n88 -->
<g id="edge6" class="edge"><title>n91&#45;&gt;n88</title>
<path fill="none" stroke="blue" d="M658.794,-24.7264C625.193,-25.7372 565.371,-29.3982 516,-42.3666 513.208,-43.0999 510.366,-43.9833 507.537,-44.9626"/>
<polygon fill="blue" stroke="blue" points="506.157,-41.743 498.066,-48.5835 508.657,-48.2815 506.157,-41.743"/>
<text text-anchor="middle" x="542" y="-53.9666" font-family="Helvetica,sans-Serif" font-size="8.00">state:0</text>
<text text-anchor="middle" x="542" y="-44.9666" font-family="Helvetica,sans-Serif" font-size="8.00">type:relatedTo</text>
</g>
<!-- n3 -->
<g id="node10" class="node"><title>n3</title>
<ellipse fill="green" stroke="black" cx="178" cy="-95.3666" rx="27" ry="18"/>
<text text-anchor="middle" x="178" y="-93.4666" font-family="Helvetica,sans-Serif" font-size="8.00">Dummy Node</text>
</g>
<!-- n91&#45;&gt;n3 -->
<g id="edge2" class="edge"><title>n91&#45;&gt;n3</title>
<path fill="none" stroke="blue" d="M658.762,-20.2962C622.663,-14.9213 555.598,-5.74306 498,-2.36662 474.041,-0.962115 467.659,1.66437 444,-2.36662 355.864,-17.383 258.028,-58.6016 209.607,-80.7821"/>
<polygon fill="blue" stroke="blue" points="207.926,-77.7031 200.322,-85.0805 210.867,-84.0555 207.926,-77.7031"/>
<text text-anchor="middle" x="471" y="-13.9666" font-family="Helvetica,sans-Serif" font-size="8.00">state:5</text>
<text text-anchor="middle" x="471" y="-4.96662" font-family="Helvetica,sans-Serif" font-size="8.00">type:relatedTo</text>
</g>
<!-- n92 -->
<g id="node4" class="node"><title>n92</title>
<polygon fill="#cae1ff" stroke="black" points="1906.5,-165.367 1745.5,-165.367 1745.5,-129.367 1906.5,-129.367 1906.5,-165.367"/>
<text text-anchor="middle" x="1826" y="-149.967" font-family="Helvetica,sans-Serif" font-size="8.00">node_id:90</text>
<text text-anchor="middle" x="1826" y="-140.967" font-family="Helvetica,sans-Serif" font-size="8.00">name:[&#39;/home/arthur/ProvMark/stage/test.txt&#39;]</text>
<text text-anchor="middle" x="1826" y="-131.967" font-family="Helvetica,sans-Serif" font-size="8.00">type:2</text>
</g>
<!-- n89 -->
<g id="node8" class="node"><title>n89</title>
<polygon fill="#cae1ff" stroke="black" points="1637.5,-138.367 1300.5,-138.367 1300.5,-102.367 1637.5,-102.367 1637.5,-138.367"/>
<text text-anchor="middle" x="1469" y="-122.967" font-family="Helvetica,sans-Serif" font-size="8.00">node_id:87</text>
<text text-anchor="middle" x="1469" y="-113.967" font-family="Helvetica,sans-Serif" font-size="8.00">name:[&#39;/home/arthur/ProvMark/stage/test.txt&#39;, &#39;/home/arthur/ProvMark/stage/renameat&#45;test.txt&#39;]</text>
<text text-anchor="middle" x="1469" y="-104.967" font-family="Helvetica,sans-Serif" font-size="8.00">type:2</text>
</g>
<!-- n92&#45;&gt;n89 -->
<g id="edge5" class="edge"><title>n92&#45;&gt;n89</title>
<path fill="none" stroke="blue" d="M1745.33,-141.307C1716.21,-139.093 1681.99,-136.49 1647.75,-133.885"/>
<polygon fill="blue" stroke="blue" points="1647.85,-130.383 1637.61,-133.115 1647.32,-137.363 1647.85,-130.383"/>
<text text-anchor="middle" x="1682" y="-149.967" font-family="Helvetica,sans-Serif" font-size="8.00">state:6</text>
<text text-anchor="middle" x="1682" y="-140.967" font-family="Helvetica,sans-Serif" font-size="8.00">type:relatedTo</text>
</g>
<!-- n87 -->
<g id="node5" class="node"><title>n87</title>
<polygon fill="#cae1ff" stroke="black" points="713,-160.867 659,-160.867 659,-115.867 713,-115.867 713,-160.867"/>
<text text-anchor="middle" x="686" y="-145.467" font-family="Helvetica,sans-Serif" font-size="8.00">ref_count:0</text>
<text text-anchor="middle" x="686" y="-136.467" font-family="Helvetica,sans-Serif" font-size="8.00">node_id:85</text>
<text text-anchor="middle" x="686" y="-127.467" font-family="Helvetica,sans-Serif" font-size="8.00">name:omega</text>
<text text-anchor="middle" x="686" y="-118.467" font-family="Helvetica,sans-Serif" font-size="8.00">type:4</text>
</g>
<!-- n87&#45;&gt;n3 -->
<g id="edge13" class="edge"><title>n87&#45;&gt;n3</title>
<path fill="none" stroke="blue" d="M658.861,-136.145C574.887,-129.009 311.847,-106.656 215.139,-98.4378"/>
<polygon fill="blue" stroke="blue" points="215.244,-94.9341 204.983,-97.5747 214.651,-101.909 215.244,-94.9341"/>
<text text-anchor="middle" x="471" y="-133.967" font-family="Helvetica,sans-Serif" font-size="8.00">state:5</text>
<text text-anchor="middle" x="471" y="-124.967" font-family="Helvetica,sans-Serif" font-size="8.00">type:relatedTo</text>
</g>
<!-- n87&#45;&gt;n83 -->
<g id="edge15" class="edge"><title>n87&#45;&gt;n83</title>
<path fill="none" stroke="blue" d="M658.768,-139.961C624.624,-142.814 563.688,-150.593 516,-171.367 512.969,-172.687 509.945,-174.244 506.981,-175.949"/>
<polygon fill="blue" stroke="blue" points="504.913,-173.116 498.33,-181.418 508.653,-179.033 504.913,-173.116"/>
<text text-anchor="middle" x="542" y="-182.967" font-family="Helvetica,sans-Serif" font-size="8.00">state:0</text>
<text text-anchor="middle" x="542" y="-173.967" font-family="Helvetica,sans-Serif" font-size="8.00">type:relatedTo</text>
</g>
<!-- n88&#45;&gt;n3 -->
<g id="edge7" class="edge"><title>n88&#45;&gt;n3</title>
<path fill="none" stroke="blue" d="M443.92,-64.4138C391.673,-70.5182 274.115,-84.2535 214.747,-91.19"/>
<polygon fill="blue" stroke="blue" points="214.235,-87.7259 204.709,-92.3628 215.048,-94.6786 214.235,-87.7259"/>
<text text-anchor="middle" x="400" y="-83.9666" font-family="Helvetica,sans-Serif" font-size="8.00">state:10</text>
<text text-anchor="middle" x="400" y="-74.9666" font-family="Helvetica,sans-Serif" font-size="8.00">type:relatedTo</text>
</g>
<!-- n86 -->
<g id="node7" class="node"><title>n86</title>
<polygon fill="#cae1ff" stroke="black" points="1211.5,-217.367 874.5,-217.367 874.5,-181.367 1211.5,-181.367 1211.5,-217.367"/>
<text text-anchor="middle" x="1043" y="-201.967" font-family="Helvetica,sans-Serif" font-size="8.00">node_id:84</text>
<text text-anchor="middle" x="1043" y="-192.967" font-family="Helvetica,sans-Serif" font-size="8.00">name:[&#39;/home/arthur/ProvMark/stage/test.txt&#39;, &#39;/home/arthur/ProvMark/stage/renameat&#45;test.txt&#39;]</text>
<text text-anchor="middle" x="1043" y="-183.967" font-family="Helvetica,sans-Serif" font-size="8.00">type:2</text>
</g>
<!-- n86&#45;&gt;n85 -->
<g id="edge9" class="edge"><title>n86&#45;&gt;n85</title>
<path fill="none" stroke="blue" d="M932.391,-217.398C907.303,-221.427 880.74,-225.615 856,-229.367 836.575,-232.312 815.876,-235.342 795.866,-238.214"/>
<polygon fill="blue" stroke="blue" points="795.196,-234.774 785.793,-239.656 796.188,-241.704 795.196,-234.774"/>
<text text-anchor="middle" x="830" y="-247.967" font-family="Helvetica,sans-Serif" font-size="8.00">state:0</text>
<text text-anchor="middle" x="830" y="-238.967" font-family="Helvetica,sans-Serif" font-size="8.00">type:relatedTo</text>
</g>
<!-- n84 -->
<g id="node11" class="node"><title>n84</title>
<polygon fill="#cae1ff" stroke="black" points="766.5,-217.367 605.5,-217.367 605.5,-181.367 766.5,-181.367 766.5,-217.367"/>
<text text-anchor="middle" x="686" y="-201.967" font-family="Helvetica,sans-Serif" font-size="8.00">node_id:82</text>
<text text-anchor="middle" x="686" y="-192.967" font-family="Helvetica,sans-Serif" font-size="8.00">name:[&#39;/home/arthur/ProvMark/stage/test.txt&#39;]</text>
<text text-anchor="middle" x="686" y="-183.967" font-family="Helvetica,sans-Serif" font-size="8.00">type:2</text>
</g>
<!-- n86&#45;&gt;n84 -->
<g id="edge14" class="edge"><title>n86&#45;&gt;n84</title>
<path fill="none" stroke="blue" d="M874.376,-199.367C840.812,-199.367 806.777,-199.367 777.089,-199.367"/>
<polygon fill="blue" stroke="blue" points="776.777,-195.867 766.777,-199.367 776.777,-202.867 776.777,-195.867"/>
<text text-anchor="middle" x="830" y="-210.967" font-family="Helvetica,sans-Serif" font-size="8.00">state:0</text>
<text text-anchor="middle" x="830" y="-201.967" font-family="Helvetica,sans-Serif" font-size="8.00">type:relatedTo</text>
</g>
<!-- n89&#45;&gt;n88 -->
<g id="edge4" class="edge"><title>n89&#45;&gt;n88</title>
<path fill="none" stroke="blue" d="M1300.22,-117.779C1109.6,-113.356 789.503,-101.426 516,-69.3666 513.503,-69.074 510.935,-68.7274 508.352,-68.3452"/>
<polygon fill="blue" stroke="blue" points="508.876,-64.8845 498.443,-66.7334 507.752,-71.7937 508.876,-64.8845"/>
<text text-anchor="middle" x="830" y="-110.967" font-family="Helvetica,sans-Serif" font-size="8.00">state:3</text>
<text text-anchor="middle" x="830" y="-101.967" font-family="Helvetica,sans-Serif" font-size="8.00">type:relatedTo</text>
</g>
<!-- n89&#45;&gt;n86 -->
<g id="edge1" class="edge"><title>n89&#45;&gt;n86</title>
<path fill="none" stroke="blue" d="M1371.26,-138.392C1305.45,-150.654 1218.35,-166.882 1150.55,-179.514"/>
<polygon fill="blue" stroke="blue" points="1149.88,-176.078 1140.69,-181.351 1151.17,-182.96 1149.88,-176.078"/>
<text text-anchor="middle" x="1256" y="-176.967" font-family="Helvetica,sans-Serif" font-size="8.00">state:0</text>
<text text-anchor="middle" x="1256" y="-167.967" font-family="Helvetica,sans-Serif" font-size="8.00">type:relatedTo</text>
</g>
<!-- n90 -->
<g id="node9" class="node"><title>n90</title>
<polygon fill="#cae1ff" stroke="black" points="1925.5,-111.367 1726.5,-111.367 1726.5,-75.3666 1925.5,-75.3666 1925.5,-111.367"/>
<text text-anchor="middle" x="1826" y="-95.9666" font-family="Helvetica,sans-Serif" font-size="8.00">node_id:88</text>
<text text-anchor="middle" x="1826" y="-86.9666" font-family="Helvetica,sans-Serif" font-size="8.00">name:[&#39;/home/arthur/ProvMark/stage/renameat&#45;test.txt&#39;]</text>
<text text-anchor="middle" x="1826" y="-77.9666" font-family="Helvetica,sans-Serif" font-size="8.00">type:2</text>
</g>
<!-- n90&#45;&gt;n89 -->
<g id="edge12" class="edge"><title>n90&#45;&gt;n89</title>
<path fill="none" stroke="blue" d="M1726.23,-99.4489C1703.18,-100.965 1678.72,-102.65 1656,-104.367 1653.29,-104.571 1650.56,-104.78 1647.81,-104.991"/>
<polygon fill="blue" stroke="blue" points="1647.49,-101.506 1637.79,-105.772 1648.03,-108.485 1647.49,-101.506"/>
<text text-anchor="middle" x="1682" y="-115.967" font-family="Helvetica,sans-Serif" font-size="8.00">state:0</text>
<text text-anchor="middle" x="1682" y="-106.967" font-family="Helvetica,sans-Serif" font-size="8.00">type:relatedTo</text>
</g>
<!-- n84&#45;&gt;n83 -->
<g id="edge10" class="edge"><title>n84&#45;&gt;n83</title>
<path fill="none" stroke="blue" d="M605.384,-200.862C572.003,-201.489 534.851,-202.186 508.252,-202.686"/>
<polygon fill="blue" stroke="blue" points="508.184,-199.186 498.251,-202.874 508.315,-206.185 508.184,-199.186"/>
<text text-anchor="middle" x="542" y="-214.967" font-family="Helvetica,sans-Serif" font-size="8.00">state:0</text>
<text text-anchor="middle" x="542" y="-205.967" font-family="Helvetica,sans-Serif" font-size="8.00">type:relatedTo</text>
</g>
<!-- n83&#45;&gt;n93 -->
<g id="edge11" class="edge"><title>n83&#45;&gt;n93</title>
<path fill="none" stroke="blue" d="M443.92,-203.367C424.66,-203.367 396.525,-203.367 365.701,-203.367"/>
<polygon fill="blue" stroke="blue" points="365.607,-199.867 355.607,-203.367 365.607,-206.867 365.607,-199.867"/>
<text text-anchor="middle" x="400" y="-214.967" font-family="Helvetica,sans-Serif" font-size="8.00">state:0</text>
<text text-anchor="middle" x="400" y="-205.967" font-family="Helvetica,sans-Serif" font-size="8.00">type:relatedTo</text>
</g>
<!-- n83&#45;&gt;n3 -->
<g id="edge8" class="edge"><title>n83&#45;&gt;n3</title>
<path fill="none" stroke="blue" d="M443.836,-182.954C438.155,-179.095 432.035,-175.341 426,-172.367 354.347,-137.046 263.04,-113.638 213.969,-102.638"/>
<polygon fill="blue" stroke="blue" points="214.68,-99.2109 204.162,-100.479 213.175,-106.047 214.68,-99.2109"/>
<text text-anchor="middle" x="400" y="-183.967" font-family="Helvetica,sans-Serif" font-size="8.00">state:10</text>
<text text-anchor="middle" x="400" y="-174.967" font-family="Helvetica,sans-Serif" font-size="8.00">type:relatedTo</text>
</g>
</g>
</svg>
