<?xml version="1.0" encoding="UTF-8" standalone="no"?>
<!DOCTYPE svg PUBLIC "-//W3C//DTD SVG 1.1//EN"
 "http://www.w3.org/Graphics/SVG/1.1/DTD/svg11.dtd">
<!-- Generated by graphviz version 2.36.0 (20140111.2315)
 -->
<!-- Title: clingo2dot Pages: 1 -->
<svg width="250pt" height="196pt"
 viewBox="0.00 0.00 250.00 196.00" xmlns="http://www.w3.org/2000/svg" xmlns:xlink="http://www.w3.org/1999/xlink">
<g id="graph0" class="graph" transform="scale(1 1) rotate(0) translate(4 192)">
<title>clingo2dot</title>
<polygon fill="white" stroke="none" points="-4,4 -4,-192 246,-192 246,4 -4,4"/>
<!-- n3 -->
<g id="node1" class="node"><title>n3</title>
<ellipse fill="green" stroke="black" cx="215" cy="-94" rx="27" ry="18"/>
<text text-anchor="middle" x="215" y="-92.1" font-family="Helvetica,sans-Serif" font-size="8.00">Dummy Node</text>
</g>
<!-- n80 -->
<g id="node2" class="node"><title>n80</title>
<polygon fill="#cae1ff" stroke="black" points="77,-188.5 23,-188.5 23,-143.5 77,-143.5 77,-188.5"/>
<text text-anchor="middle" x="50" y="-173.1" font-family="Helvetica,sans-Serif" font-size="8.00">name:rgid</text>
<text text-anchor="middle" x="50" y="-164.1" font-family="Helvetica,sans-Serif" font-size="8.00">node_id:78</text>
<text text-anchor="middle" x="50" y="-155.1" font-family="Helvetica,sans-Serif" font-size="8.00">value:arthur</text>
<text text-anchor="middle" x="50" y="-146.1" font-family="Helvetica,sans-Serif" font-size="8.00">type:1</text>
</g>
<!-- n3&#45;&gt;n80 -->
<g id="edge1" class="edge"><title>n3&#45;&gt;n80</title>
<path fill="none" stroke="blue" d="M197.159,-107.555C189.247,-113.471 179.484,-120.149 170,-125 143.445,-138.582 111.376,-149.337 87.2227,-156.418"/>
<polygon fill="blue" stroke="blue" points="86.0493,-153.113 77.3953,-159.225 87.972,-159.844 86.0493,-153.113"/>
<text text-anchor="middle" x="144" y="-157.6" font-family="Helvetica,sans-Serif" font-size="8.00">state:0</text>
<text text-anchor="middle" x="144" y="-148.6" font-family="Helvetica,sans-Serif" font-size="8.00">type:relatedTo</text>
</g>
<!-- n82 -->
<g id="node3" class="node"><title>n82</title>
<polygon fill="#cae1ff" stroke="black" points="100,-125.5 0,-125.5 0,-62.5 100,-62.5 100,-125.5"/>
<text text-anchor="middle" x="50" y="-110.1" font-family="Helvetica,sans-Serif" font-size="8.00">node_id:80</text>
<text text-anchor="middle" x="50" y="-101.1" font-family="Helvetica,sans-Serif" font-size="8.00">arg_keys:[&#39;rgid&#39;, &#39;egid&#39;]</text>
<text text-anchor="middle" x="50" y="-92.1" font-family="Helvetica,sans-Serif" font-size="8.00">arg_values:[&#39;arthur&#39;, &#39;arthur&#39;]</text>
<text text-anchor="middle" x="50" y="-83.1" font-family="Helvetica,sans-Serif" font-size="8.00">ret:0</text>
<text text-anchor="middle" x="50" y="-74.1" font-family="Helvetica,sans-Serif" font-size="8.00">fn:setregid</text>
<text text-anchor="middle" x="50" y="-65.1" font-family="Helvetica,sans-Serif" font-size="8.00">type:5</text>
</g>
<!-- n3&#45;&gt;n82 -->
<g id="edge2" class="edge"><title>n3&#45;&gt;n82</title>
<path fill="none" stroke="blue" d="M187.811,-94C166.904,-94 136.802,-94 110.154,-94"/>
<polygon fill="blue" stroke="blue" points="110.137,-90.5001 100.137,-94 110.137,-97.5001 110.137,-90.5001"/>
<text text-anchor="middle" x="144" y="-105.6" font-family="Helvetica,sans-Serif" font-size="8.00">state:0</text>
<text text-anchor="middle" x="144" y="-96.6" font-family="Helvetica,sans-Serif" font-size="8.00">type:relatedTo</text>
</g>
<!-- n81 -->
<g id="node4" class="node"><title>n81</title>
<polygon fill="#cae1ff" stroke="black" points="77,-44.5 23,-44.5 23,0.5 77,0.5 77,-44.5"/>
<text text-anchor="middle" x="50" y="-29.1" font-family="Helvetica,sans-Serif" font-size="8.00">name:egid</text>
<text text-anchor="middle" x="50" y="-20.1" font-family="Helvetica,sans-Serif" font-size="8.00">node_id:79</text>
<text text-anchor="middle" x="50" y="-11.1" font-family="Helvetica,sans-Serif" font-size="8.00">value:arthur</text>
<text text-anchor="middle" x="50" y="-2.1" font-family="Helvetica,sans-Serif" font-size="8.00">type:1</text>
</g>
<!-- n3&#45;&gt;n81 -->
<g id="edge3" class="edge"><title>n3&#45;&gt;n81</title>
<path fill="none" stroke="blue" d="M197.159,-80.4447C189.247,-74.5288 179.484,-67.8509 170,-63 143.445,-49.4176 111.376,-38.663 87.2227,-31.5822"/>
<polygon fill="blue" stroke="blue" points="87.972,-28.1563 77.3953,-28.775 86.0493,-34.8871 87.972,-28.1563"/>
<text text-anchor="middle" x="144" y="-74.6" font-family="Helvetica,sans-Serif" font-size="8.00">state:0</text>
<text text-anchor="middle" x="144" y="-65.6" font-family="Helvetica,sans-Serif" font-size="8.00">type:relatedTo</text>
</g>
</g>
</svg>
