<?xml version="1.0" encoding="UTF-8" standalone="no"?>
<!DOCTYPE svg PUBLIC "-//W3C//DTD SVG 1.1//EN"
 "http://www.w3.org/Graphics/SVG/1.1/DTD/svg11.dtd">
<!-- Generated by graphviz version 2.36.0 (20140111.2315)
 -->
<!-- Title: clingo2dot Pages: 1 -->
<svg width="250pt" height="196pt"
 viewBox="0.00 0.00 250.00 196.00" xmlns="http://www.w3.org/2000/svg" xmlns:xlink="http://www.w3.org/1999/xlink">
<g id="graph0" class="graph" transform="scale(1 1) rotate(0) translate(4 192)">
<title>clingo2dot</title>
<polygon fill="white" stroke="none" points="-4,4 -4,-192 246,-192 246,4 -4,4"/>
<!-- n82 -->
<g id="node1" class="node"><title>n82</title>
<polygon fill="#cae1ff" stroke="black" points="100,-188.5 0,-188.5 0,-125.5 100,-125.5 100,-188.5"/>
<text text-anchor="middle" x="50" y="-173.1" font-family="Helvetica,sans-Serif" font-size="8.00">ret:0</text>
<text text-anchor="middle" x="50" y="-164.1" font-family="Helvetica,sans-Serif" font-size="8.00">arg_values:[&#39;arthur&#39;, &#39;arthur&#39;]</text>
<text text-anchor="middle" x="50" y="-155.1" font-family="Helvetica,sans-Serif" font-size="8.00">node_id:80</text>
<text text-anchor="middle" x="50" y="-146.1" font-family="Helvetica,sans-Serif" font-size="8.00">fn:setreuid</text>
<text text-anchor="middle" x="50" y="-137.1" font-family="Helvetica,sans-Serif" font-size="8.00">arg_keys:[&#39;ruid&#39;, &#39;euid&#39;]</text>
<text text-anchor="middle" x="50" y="-128.1" font-family="Helvetica,sans-Serif" font-size="8.00">type:5</text>
</g>
<!-- n80 -->
<g id="node2" class="node"><title>n80</title>
<polygon fill="#cae1ff" stroke="black" points="77,-107.5 23,-107.5 23,-62.5 77,-62.5 77,-107.5"/>
<text text-anchor="middle" x="50" y="-92.1" font-family="Helvetica,sans-Serif" font-size="8.00">node_id:78</text>
<text text-anchor="middle" x="50" y="-83.1" font-family="Helvetica,sans-Serif" font-size="8.00">value:arthur</text>
<text text-anchor="middle" x="50" y="-74.1" font-family="Helvetica,sans-Serif" font-size="8.00">name:ruid</text>
<text text-anchor="middle" x="50" y="-65.1" font-family="Helvetica,sans-Serif" font-size="8.00">type:1</text>
</g>
<!-- n81 -->
<g id="node3" class="node"><title>n81</title>
<polygon fill="#cae1ff" stroke="black" points="77,-44.5 23,-44.5 23,0.5 77,0.5 77,-44.5"/>
<text text-anchor="middle" x="50" y="-29.1" font-family="Helvetica,sans-Serif" font-size="8.00">node_id:79</text>
<text text-anchor="middle" x="50" y="-20.1" font-family="Helvetica,sans-Serif" font-size="8.00">value:arthur</text>
<text text-anchor="middle" x="50" y="-11.1" font-family="Helvetica,sans-Serif" font-size="8.00">name:euid</text>
<text text-anchor="middle" x="50" y="-2.1" font-family="Helvetica,sans-Serif" font-size="8.00">type:1</text>
</g>
<!-- n3 -->
<g id="node4" class="node"><title>n3</title>
<ellipse fill="green" stroke="black" cx="215" cy="-85" rx="27" ry="18"/>
<text text-anchor="middle" x="215" y="-83.1" font-family="Helvetica,sans-Serif" font-size="8.00">Dummy Node</text>
</g>
<!-- n3&#45;&gt;n82 -->
<g id="edge1" class="edge"><title>n3&#45;&gt;n82</title>
<path fill="none" stroke="blue" d="M197.159,-98.5553C189.247,-104.471 179.484,-111.149 170,-116 151.11,-125.662 129.431,-133.892 109.796,-140.388"/>
<polygon fill="blue" stroke="blue" points="108.487,-137.132 100.042,-143.53 110.633,-143.795 108.487,-137.132"/>
<text text-anchor="middle" x="144" y="-148.6" font-family="Helvetica,sans-Serif" font-size="8.00">state:0</text>
<text text-anchor="middle" x="144" y="-139.6" font-family="Helvetica,sans-Serif" font-size="8.00">type:relatedTo</text>
</g>
<!-- n3&#45;&gt;n80 -->
<g id="edge3" class="edge"><title>n3&#45;&gt;n80</title>
<path fill="none" stroke="blue" d="M187.811,-85C160.602,-85 117.819,-85 87.344,-85"/>
<polygon fill="blue" stroke="blue" points="87.1238,-81.5001 77.1238,-85 87.1237,-88.5001 87.1238,-81.5001"/>
<text text-anchor="middle" x="144" y="-96.6" font-family="Helvetica,sans-Serif" font-size="8.00">state:0</text>
<text text-anchor="middle" x="144" y="-87.6" font-family="Helvetica,sans-Serif" font-size="8.00">type:relatedTo</text>
</g>
<!-- n3&#45;&gt;n81 -->
<g id="edge2" class="edge"><title>n3&#45;&gt;n81</title>
<path fill="none" stroke="blue" d="M197.309,-71.1396C189.426,-65.1621 179.646,-58.5203 170,-54 143.557,-41.6083 111.481,-33.3334 87.2963,-28.3082"/>
<polygon fill="blue" stroke="blue" points="87.9448,-24.8687 77.4542,-26.3509 86.5795,-31.7342 87.9448,-24.8687"/>
<text text-anchor="middle" x="144" y="-65.6" font-family="Helvetica,sans-Serif" font-size="8.00">state:0</text>
<text text-anchor="middle" x="144" y="-56.6" font-family="Helvetica,sans-Serif" font-size="8.00">type:relatedTo</text>
</g>
</g>
</svg>
