<?xml version="1.0" encoding="UTF-8" standalone="no"?>
<!DOCTYPE svg PUBLIC "-//W3C//DTD SVG 1.1//EN"
 "http://www.w3.org/Graphics/SVG/1.1/DTD/svg11.dtd">
<!-- Generated by graphviz version 2.36.0 (20140111.2315)
 -->
<!-- Title: clingo2dot Pages: 1 -->
<svg width="874pt" height="133pt"
 viewBox="0.00 0.00 874.00 133.00" xmlns="http://www.w3.org/2000/svg" xmlns:xlink="http://www.w3.org/1999/xlink">
<g id="graph0" class="graph" transform="scale(1 1) rotate(0) translate(4 129)">
<title>clingo2dot</title>
<polygon fill="white" stroke="none" points="-4,4 -4,-129 870,-129 870,4 -4,4"/>
<!-- n85 -->
<g id="node1" class="node"><title>n85</title>
<polygon fill="#cae1ff" stroke="black" points="865.5,-112 704.5,-112 704.5,-76 865.5,-76 865.5,-112"/>
<text text-anchor="middle" x="785" y="-96.6" font-family="Helvetica,sans-Serif" font-size="8.00">name:[&#39;/home/arthur/ProvMark/stage/test.txt&#39;]</text>
<text text-anchor="middle" x="785" y="-87.6" font-family="Helvetica,sans-Serif" font-size="8.00">node_id:83</text>
<text text-anchor="middle" x="785" y="-78.6" font-family="Helvetica,sans-Serif" font-size="8.00">type:2</text>
</g>
<!-- n84 -->
<g id="node5" class="node"><title>n84</title>
<polygon fill="#cae1ff" stroke="black" points="615.5,-112 454.5,-112 454.5,-76 615.5,-76 615.5,-112"/>
<text text-anchor="middle" x="535" y="-96.6" font-family="Helvetica,sans-Serif" font-size="8.00">name:[&#39;/home/arthur/ProvMark/stage/test.txt&#39;]</text>
<text text-anchor="middle" x="535" y="-87.6" font-family="Helvetica,sans-Serif" font-size="8.00">node_id:82</text>
<text text-anchor="middle" x="535" y="-78.6" font-family="Helvetica,sans-Serif" font-size="8.00">type:2</text>
</g>
<!-- n85&#45;&gt;n84 -->
<g id="edge4" class="edge"><title>n85&#45;&gt;n84</title>
<path fill="none" stroke="blue" d="M704.166,-94C679.165,-94 651.409,-94 625.771,-94"/>
<polygon fill="blue" stroke="blue" points="625.684,-90.5001 615.684,-94 625.684,-97.5001 625.684,-90.5001"/>
<text text-anchor="middle" x="660" y="-105.6" font-family="Helvetica,sans-Serif" font-size="8.00">state:0</text>
<text text-anchor="middle" x="660" y="-96.6" font-family="Helvetica,sans-Serif" font-size="8.00">type:relatedTo</text>
</g>
<!-- n3 -->
<g id="node2" class="node"><title>n3</title>
<ellipse fill="green" stroke="black" cx="112" cy="-18" rx="27" ry="18"/>
<text text-anchor="middle" x="112" y="-16.1" font-family="Helvetica,sans-Serif" font-size="8.00">Dummy Node</text>
</g>
<!-- n87 -->
<g id="node3" class="node"><title>n87</title>
<polygon fill="#cae1ff" stroke="black" points="223.5,-125.5 0.5,-125.5 0.5,-62.5 223.5,-62.5 223.5,-125.5"/>
<text text-anchor="middle" x="112" y="-110.1" font-family="Helvetica,sans-Serif" font-size="8.00">ret:0</text>
<text text-anchor="middle" x="112" y="-101.1" font-family="Helvetica,sans-Serif" font-size="8.00">node_id:85</text>
<text text-anchor="middle" x="112" y="-92.1" font-family="Helvetica,sans-Serif" font-size="8.00">fn:symlinkat</text>
<text text-anchor="middle" x="112" y="-83.1" font-family="Helvetica,sans-Serif" font-size="8.00">arg_keys:[&#39;oldpath&#39;, &#39;newdirfd&#39;, &#39;newpath&#39;]</text>
<text text-anchor="middle" x="112" y="-74.1" font-family="Helvetica,sans-Serif" font-size="8.00">arg_values:[&#39;test.txt&#39;, &#39;3&#39;, &#39;/home/arthur/ProvMark/stage/test.txt&#39;]</text>
<text text-anchor="middle" x="112" y="-65.1" font-family="Helvetica,sans-Serif" font-size="8.00">type:5</text>
</g>
<!-- n83 -->
<g id="node4" class="node"><title>n83</title>
<polygon fill="#cae1ff" stroke="black" points="366,-108.5 312,-108.5 312,-63.5 366,-63.5 366,-108.5"/>
<text text-anchor="middle" x="339" y="-93.1" font-family="Helvetica,sans-Serif" font-size="8.00">ref_count:1</text>
<text text-anchor="middle" x="339" y="-84.1" font-family="Helvetica,sans-Serif" font-size="8.00">name:omega</text>
<text text-anchor="middle" x="339" y="-75.1" font-family="Helvetica,sans-Serif" font-size="8.00">node_id:81</text>
<text text-anchor="middle" x="339" y="-66.1" font-family="Helvetica,sans-Serif" font-size="8.00">type:4</text>
</g>
<!-- n83&#45;&gt;n3 -->
<g id="edge1" class="edge"><title>n83&#45;&gt;n3</title>
<path fill="none" stroke="blue" d="M311.897,-66.5433C306.211,-62.9594 300.074,-59.5499 294,-57 246.118,-36.8977 186.587,-26.6356 149.179,-21.7997"/>
<polygon fill="blue" stroke="blue" points="149.132,-18.2678 138.78,-20.522 148.278,-25.2155 149.132,-18.2678"/>
<text text-anchor="middle" x="268" y="-68.6" font-family="Helvetica,sans-Serif" font-size="8.00">state:10</text>
<text text-anchor="middle" x="268" y="-59.6" font-family="Helvetica,sans-Serif" font-size="8.00">type:relatedTo</text>
</g>
<!-- n83&#45;&gt;n87 -->
<g id="edge3" class="edge"><title>n83&#45;&gt;n87</title>
<path fill="none" stroke="blue" d="M311.749,-86.9334C291.909,-87.6388 263.124,-88.6623 233.591,-89.7123"/>
<polygon fill="blue" stroke="blue" points="233.429,-86.2158 223.559,-90.069 233.677,-93.2114 233.429,-86.2158"/>
<text text-anchor="middle" x="268" y="-101.6" font-family="Helvetica,sans-Serif" font-size="8.00">state:0</text>
<text text-anchor="middle" x="268" y="-92.6" font-family="Helvetica,sans-Serif" font-size="8.00">type:relatedTo</text>
</g>
<!-- n84&#45;&gt;n83 -->
<g id="edge6" class="edge"><title>n84&#45;&gt;n83</title>
<path fill="none" stroke="blue" d="M454.253,-90.7115C427.31,-89.6004 398.531,-88.4137 376.597,-87.5092"/>
<polygon fill="blue" stroke="blue" points="376.554,-84.0045 366.418,-87.0894 376.265,-90.9985 376.554,-84.0045"/>
<text text-anchor="middle" x="410" y="-101.6" font-family="Helvetica,sans-Serif" font-size="8.00">state:0</text>
<text text-anchor="middle" x="410" y="-92.6" font-family="Helvetica,sans-Serif" font-size="8.00">type:relatedTo</text>
</g>
<!-- n86 -->
<g id="node6" class="node"><title>n86</title>
<polygon fill="#cae1ff" stroke="black" points="562,-45.5 508,-45.5 508,-0.5 562,-0.5 562,-45.5"/>
<text text-anchor="middle" x="535" y="-30.1" font-family="Helvetica,sans-Serif" font-size="8.00">ref_count:0</text>
<text text-anchor="middle" x="535" y="-21.1" font-family="Helvetica,sans-Serif" font-size="8.00">name:omega</text>
<text text-anchor="middle" x="535" y="-12.1" font-family="Helvetica,sans-Serif" font-size="8.00">node_id:84</text>
<text text-anchor="middle" x="535" y="-3.1" font-family="Helvetica,sans-Serif" font-size="8.00">type:4</text>
</g>
<!-- n86&#45;&gt;n3 -->
<g id="edge5" class="edge"><title>n86&#45;&gt;n3</title>
<path fill="none" stroke="blue" d="M507.982,-22.691C435.764,-21.8333 232.672,-19.4213 149.357,-18.4318"/>
<polygon fill="blue" stroke="blue" points="149.154,-14.9292 139.113,-18.3101 149.07,-21.9287 149.154,-14.9292"/>
<text text-anchor="middle" x="339" y="-32.6" font-family="Helvetica,sans-Serif" font-size="8.00">state:5</text>
<text text-anchor="middle" x="339" y="-23.6" font-family="Helvetica,sans-Serif" font-size="8.00">type:relatedTo</text>
</g>
<!-- n86&#45;&gt;n83 -->
<g id="edge2" class="edge"><title>n86&#45;&gt;n83</title>
<path fill="none" stroke="blue" d="M507.915,-26.0192C477.28,-30.2129 425.392,-39.362 384,-57 380.97,-58.2911 377.922,-59.7926 374.921,-61.4198"/>
<polygon fill="blue" stroke="blue" points="372.97,-58.5069 366.125,-66.5935 376.519,-64.5407 372.97,-58.5069"/>
<text text-anchor="middle" x="410" y="-68.6" font-family="Helvetica,sans-Serif" font-size="8.00">state:0</text>
<text text-anchor="middle" x="410" y="-59.6" font-family="Helvetica,sans-Serif" font-size="8.00">type:relatedTo</text>
</g>
</g>
</svg>
