<?xml version="1.0" encoding="UTF-8" standalone="no"?>
<!DOCTYPE svg PUBLIC "-//W3C//DTD SVG 1.1//EN"
 "http://www.w3.org/Graphics/SVG/1.1/DTD/svg11.dtd">
<!-- Generated by graphviz version 2.36.0 (20140111.2315)
 -->
<!-- Title: clingo2dot Pages: 1 -->
<svg width="1052pt" height="143pt"
 viewBox="0.00 0.00 1052.00 143.00" xmlns="http://www.w3.org/2000/svg" xmlns:xlink="http://www.w3.org/1999/xlink">
<g id="graph0" class="graph" transform="scale(1 1) rotate(0) translate(4 139)">
<title>clingo2dot</title>
<polygon fill="white" stroke="none" points="-4,4 -4,-139 1048,-139 1048,4 -4,4"/>
<!-- n84 -->
<g id="node1" class="node"><title>n84</title>
<polygon fill="#cae1ff" stroke="black" points="346,-62.5 0,-62.5 0,0.5 346,0.5 346,-62.5"/>
<text text-anchor="middle" x="173" y="-47.1" font-family="Helvetica,sans-Serif" font-size="8.00">ret:0</text>
<text text-anchor="middle" x="173" y="-38.1" font-family="Helvetica,sans-Serif" font-size="8.00">arg_keys:[&#39;oldpath&#39;, &#39;newpath&#39;]</text>
<text text-anchor="middle" x="173" y="-29.1" font-family="Helvetica,sans-Serif" font-size="8.00">node_id:82</text>
<text text-anchor="middle" x="173" y="-20.1" font-family="Helvetica,sans-Serif" font-size="8.00">arg_values:[&#39;/home/arthur/ProvMark/stage/test.txt&#39;, &#39;/home/arthur/ProvMark/stage/symlink&#45;test.txt&#39;]</text>
<text text-anchor="middle" x="173" y="-11.1" font-family="Helvetica,sans-Serif" font-size="8.00">fn:symlink</text>
<text text-anchor="middle" x="173" y="-2.1" font-family="Helvetica,sans-Serif" font-size="8.00">type:5</text>
</g>
<!-- n82 -->
<g id="node2" class="node"><title>n82</title>
<polygon fill="#cae1ff" stroke="black" points="1044,-49 854,-49 854,-13 1044,-13 1044,-49"/>
<text text-anchor="middle" x="949" y="-33.6" font-family="Helvetica,sans-Serif" font-size="8.00">name:[&#39;/home/arthur/ProvMark/stage/symlink&#45;test.txt&#39;]</text>
<text text-anchor="middle" x="949" y="-24.6" font-family="Helvetica,sans-Serif" font-size="8.00">node_id:80</text>
<text text-anchor="middle" x="949" y="-15.6" font-family="Helvetica,sans-Serif" font-size="8.00">type:2</text>
</g>
<!-- n81 -->
<g id="node4" class="node"><title>n81</title>
<polygon fill="#cae1ff" stroke="black" points="766,-49 576,-49 576,-13 766,-13 766,-49"/>
<text text-anchor="middle" x="671" y="-33.6" font-family="Helvetica,sans-Serif" font-size="8.00">name:[&#39;/home/arthur/ProvMark/stage/symlink&#45;test.txt&#39;]</text>
<text text-anchor="middle" x="671" y="-24.6" font-family="Helvetica,sans-Serif" font-size="8.00">node_id:79</text>
<text text-anchor="middle" x="671" y="-15.6" font-family="Helvetica,sans-Serif" font-size="8.00">type:2</text>
</g>
<!-- n82&#45;&gt;n81 -->
<g id="edge1" class="edge"><title>n82&#45;&gt;n81</title>
<path fill="none" stroke="blue" d="M853.788,-31C828.835,-31 801.751,-31 776.297,-31"/>
<polygon fill="blue" stroke="blue" points="776.255,-27.5001 766.255,-31 776.255,-34.5001 776.255,-27.5001"/>
<text text-anchor="middle" x="810" y="-42.6" font-family="Helvetica,sans-Serif" font-size="8.00">state:0</text>
<text text-anchor="middle" x="810" y="-33.6" font-family="Helvetica,sans-Serif" font-size="8.00">type:relatedTo</text>
</g>
<!-- n83 -->
<g id="node3" class="node"><title>n83</title>
<polygon fill="#cae1ff" stroke="black" points="698,-128.5 644,-128.5 644,-83.5 698,-83.5 698,-128.5"/>
<text text-anchor="middle" x="671" y="-113.1" font-family="Helvetica,sans-Serif" font-size="8.00">ref_count:0</text>
<text text-anchor="middle" x="671" y="-104.1" font-family="Helvetica,sans-Serif" font-size="8.00">name:omega</text>
<text text-anchor="middle" x="671" y="-95.1" font-family="Helvetica,sans-Serif" font-size="8.00">node_id:81</text>
<text text-anchor="middle" x="671" y="-86.1" font-family="Helvetica,sans-Serif" font-size="8.00">type:4</text>
</g>
<!-- n3 -->
<g id="node5" class="node"><title>n3</title>
<ellipse fill="green" stroke="black" cx="173" cy="-111" rx="27" ry="18"/>
<text text-anchor="middle" x="173" y="-109.1" font-family="Helvetica,sans-Serif" font-size="8.00">Dummy Node</text>
</g>
<!-- n83&#45;&gt;n3 -->
<g id="edge2" class="edge"><title>n83&#45;&gt;n3</title>
<path fill="none" stroke="blue" d="M643.683,-106.265C560.869,-107.1 305.472,-109.675 210.267,-110.634"/>
<polygon fill="blue" stroke="blue" points="210.218,-107.135 200.254,-110.735 210.288,-114.134 210.218,-107.135"/>
<text text-anchor="middle" x="461" y="-119.6" font-family="Helvetica,sans-Serif" font-size="8.00">state:5</text>
<text text-anchor="middle" x="461" y="-110.6" font-family="Helvetica,sans-Serif" font-size="8.00">type:relatedTo</text>
</g>
<!-- n80 -->
<g id="node6" class="node"><title>n80</title>
<polygon fill="#cae1ff" stroke="black" points="488,-69.5 434,-69.5 434,-24.5 488,-24.5 488,-69.5"/>
<text text-anchor="middle" x="461" y="-54.1" font-family="Helvetica,sans-Serif" font-size="8.00">ref_count:1</text>
<text text-anchor="middle" x="461" y="-45.1" font-family="Helvetica,sans-Serif" font-size="8.00">name:omega</text>
<text text-anchor="middle" x="461" y="-36.1" font-family="Helvetica,sans-Serif" font-size="8.00">node_id:78</text>
<text text-anchor="middle" x="461" y="-27.1" font-family="Helvetica,sans-Serif" font-size="8.00">type:4</text>
</g>
<!-- n83&#45;&gt;n80 -->
<g id="edge3" class="edge"><title>n83&#45;&gt;n80</title>
<path fill="none" stroke="blue" d="M643.657,-98.5276C606.695,-88.0432 539.328,-68.9343 497.834,-57.1644"/>
<polygon fill="blue" stroke="blue" points="498.705,-53.7735 488.129,-54.4117 496.795,-60.5078 498.705,-53.7735"/>
<text text-anchor="middle" x="532" y="-84.6" font-family="Helvetica,sans-Serif" font-size="8.00">state:0</text>
<text text-anchor="middle" x="532" y="-75.6" font-family="Helvetica,sans-Serif" font-size="8.00">type:relatedTo</text>
</g>
<!-- n81&#45;&gt;n80 -->
<g id="edge5" class="edge"><title>n81&#45;&gt;n80</title>
<path fill="none" stroke="blue" d="M575.885,-26.3888C552.898,-26.6861 528.46,-28.2064 506,-32 503.332,-32.4507 500.607,-33.0407 497.888,-33.7257"/>
<polygon fill="blue" stroke="blue" points="496.797,-30.3978 488.167,-36.5437 498.746,-37.121 496.797,-30.3978"/>
<text text-anchor="middle" x="532" y="-43.6" font-family="Helvetica,sans-Serif" font-size="8.00">state:0</text>
<text text-anchor="middle" x="532" y="-34.6" font-family="Helvetica,sans-Serif" font-size="8.00">type:relatedTo</text>
</g>
<!-- n80&#45;&gt;n84 -->
<g id="edge4" class="edge"><title>n80&#45;&gt;n84</title>
<path fill="none" stroke="blue" d="M433.835,-36.5349C428.051,-34.6594 421.89,-32.9889 416,-32 396.771,-28.7715 376.56,-26.6807 356.356,-25.4212"/>
<polygon fill="blue" stroke="blue" points="356.3,-21.9128 346.121,-24.8526 355.911,-28.902 356.3,-21.9128"/>
<text text-anchor="middle" x="390" y="-43.6" font-family="Helvetica,sans-Serif" font-size="8.00">state:0</text>
<text text-anchor="middle" x="390" y="-34.6" font-family="Helvetica,sans-Serif" font-size="8.00">type:relatedTo</text>
</g>
<!-- n80&#45;&gt;n3 -->
<g id="edge6" class="edge"><title>n80&#45;&gt;n3</title>
<path fill="none" stroke="blue" d="M433.536,-54.4688C427.771,-56.0254 421.693,-57.6132 416,-59 342.832,-76.8245 256.434,-94.6133 209.207,-104.062"/>
<polygon fill="blue" stroke="blue" points="208.309,-100.672 199.186,-106.06 209.678,-107.537 208.309,-100.672"/>
<text text-anchor="middle" x="390" y="-81.6" font-family="Helvetica,sans-Serif" font-size="8.00">state:10</text>
<text text-anchor="middle" x="390" y="-72.6" font-family="Helvetica,sans-Serif" font-size="8.00">type:relatedTo</text>
</g>
</g>
</svg>
