<?xml version="1.0" encoding="UTF-8" standalone="no"?>
<!DOCTYPE svg PUBLIC "-//W3C//DTD SVG 1.1//EN"
 "http://www.w3.org/Graphics/SVG/1.1/DTD/svg11.dtd">
<!-- Generated by graphviz version 2.36.0 (20140111.2315)
 -->
<!-- Title: clingo2dot Pages: 1 -->
<svg width="842pt" height="143pt"
 viewBox="0.00 0.00 842.00 143.00" xmlns="http://www.w3.org/2000/svg" xmlns:xlink="http://www.w3.org/1999/xlink">
<g id="graph0" class="graph" transform="scale(1 1) rotate(0) translate(4 139)">
<title>clingo2dot</title>
<polygon fill="white" stroke="none" points="-4,4 -4,-139 838,-139 838,4 -4,4"/>
<!-- n80 -->
<g id="node1" class="node"><title>n80</title>
<polygon fill="#cae1ff" stroke="black" points="334,-69.5 280,-69.5 280,-24.5 334,-24.5 334,-69.5"/>
<text text-anchor="middle" x="307" y="-54.1" font-family="Helvetica,sans-Serif" font-size="8.00">name:omega</text>
<text text-anchor="middle" x="307" y="-45.1" font-family="Helvetica,sans-Serif" font-size="8.00">node_id:78</text>
<text text-anchor="middle" x="307" y="-36.1" font-family="Helvetica,sans-Serif" font-size="8.00">ref_count:1</text>
<text text-anchor="middle" x="307" y="-27.1" font-family="Helvetica,sans-Serif" font-size="8.00">type:4</text>
</g>
<!-- n84 -->
<g id="node3" class="node"><title>n84</title>
<polygon fill="#cae1ff" stroke="black" points="192,-62.5 0,-62.5 0,0.5 192,0.5 192,-62.5"/>
<text text-anchor="middle" x="96" y="-47.1" font-family="Helvetica,sans-Serif" font-size="8.00">ret:0</text>
<text text-anchor="middle" x="96" y="-38.1" font-family="Helvetica,sans-Serif" font-size="8.00">fn:truncate</text>
<text text-anchor="middle" x="96" y="-29.1" font-family="Helvetica,sans-Serif" font-size="8.00">node_id:82</text>
<text text-anchor="middle" x="96" y="-20.1" font-family="Helvetica,sans-Serif" font-size="8.00">arg_values:[&#39;/home/arthur/ProvMark/stage/test.txt&#39;, &#39;0&#39;]</text>
<text text-anchor="middle" x="96" y="-11.1" font-family="Helvetica,sans-Serif" font-size="8.00">arg_keys:[&#39;path&#39;, &#39;length&#39;]</text>
<text text-anchor="middle" x="96" y="-2.1" font-family="Helvetica,sans-Serif" font-size="8.00">type:5</text>
</g>
<!-- n80&#45;&gt;n84 -->
<g id="edge6" class="edge"><title>n80&#45;&gt;n84</title>
<path fill="none" stroke="blue" d="M279.833,-36.5435C274.05,-34.6675 267.889,-32.9945 262,-32 242.79,-28.7557 222.141,-27.1645 202.174,-26.5772"/>
<polygon fill="blue" stroke="blue" points="202.195,-23.077 192.123,-26.3624 202.046,-30.0754 202.195,-23.077"/>
<text text-anchor="middle" x="236" y="-43.6" font-family="Helvetica,sans-Serif" font-size="8.00">state:0</text>
<text text-anchor="middle" x="236" y="-34.6" font-family="Helvetica,sans-Serif" font-size="8.00">type:relatedTo</text>
</g>
<!-- n3 -->
<g id="node6" class="node"><title>n3</title>
<ellipse fill="green" stroke="black" cx="96" cy="-111" rx="27" ry="18"/>
<text text-anchor="middle" x="96" y="-109.1" font-family="Helvetica,sans-Serif" font-size="8.00">Dummy Node</text>
</g>
<!-- n80&#45;&gt;n3 -->
<g id="edge3" class="edge"><title>n80&#45;&gt;n3</title>
<path fill="none" stroke="blue" d="M279.953,-54.9762C242.145,-66.5538 172.049,-88.0184 130.461,-100.754"/>
<polygon fill="blue" stroke="blue" points="129.326,-97.4407 120.789,-103.715 131.376,-104.134 129.326,-97.4407"/>
<text text-anchor="middle" x="236" y="-87.6" font-family="Helvetica,sans-Serif" font-size="8.00">state:10</text>
<text text-anchor="middle" x="236" y="-78.6" font-family="Helvetica,sans-Serif" font-size="8.00">type:relatedTo</text>
</g>
<!-- n82 -->
<g id="node2" class="node"><title>n82</title>
<polygon fill="#cae1ff" stroke="black" points="833.5,-49 672.5,-49 672.5,-13 833.5,-13 833.5,-49"/>
<text text-anchor="middle" x="753" y="-33.6" font-family="Helvetica,sans-Serif" font-size="8.00">name:[&#39;/home/arthur/ProvMark/stage/test.txt&#39;]</text>
<text text-anchor="middle" x="753" y="-24.6" font-family="Helvetica,sans-Serif" font-size="8.00">node_id:80</text>
<text text-anchor="middle" x="753" y="-15.6" font-family="Helvetica,sans-Serif" font-size="8.00">type:2</text>
</g>
<!-- n81 -->
<g id="node5" class="node"><title>n81</title>
<polygon fill="#cae1ff" stroke="black" points="583.5,-49 422.5,-49 422.5,-13 583.5,-13 583.5,-49"/>
<text text-anchor="middle" x="503" y="-33.6" font-family="Helvetica,sans-Serif" font-size="8.00">name:[&#39;/home/arthur/ProvMark/stage/test.txt&#39;]</text>
<text text-anchor="middle" x="503" y="-24.6" font-family="Helvetica,sans-Serif" font-size="8.00">node_id:79</text>
<text text-anchor="middle" x="503" y="-15.6" font-family="Helvetica,sans-Serif" font-size="8.00">type:2</text>
</g>
<!-- n82&#45;&gt;n81 -->
<g id="edge5" class="edge"><title>n82&#45;&gt;n81</title>
<path fill="none" stroke="blue" d="M672.166,-31C647.165,-31 619.409,-31 593.771,-31"/>
<polygon fill="blue" stroke="blue" points="593.684,-27.5001 583.684,-31 593.684,-34.5001 593.684,-27.5001"/>
<text text-anchor="middle" x="628" y="-42.6" font-family="Helvetica,sans-Serif" font-size="8.00">state:0</text>
<text text-anchor="middle" x="628" y="-33.6" font-family="Helvetica,sans-Serif" font-size="8.00">type:relatedTo</text>
</g>
<!-- n83 -->
<g id="node4" class="node"><title>n83</title>
<polygon fill="#cae1ff" stroke="black" points="530,-128.5 476,-128.5 476,-83.5 530,-83.5 530,-128.5"/>
<text text-anchor="middle" x="503" y="-113.1" font-family="Helvetica,sans-Serif" font-size="8.00">name:omega</text>
<text text-anchor="middle" x="503" y="-104.1" font-family="Helvetica,sans-Serif" font-size="8.00">node_id:81</text>
<text text-anchor="middle" x="503" y="-95.1" font-family="Helvetica,sans-Serif" font-size="8.00">ref_count:0</text>
<text text-anchor="middle" x="503" y="-86.1" font-family="Helvetica,sans-Serif" font-size="8.00">type:4</text>
</g>
<!-- n83&#45;&gt;n80 -->
<g id="edge2" class="edge"><title>n83&#45;&gt;n80</title>
<path fill="none" stroke="blue" d="M475.836,-98.043C441.752,-87.6773 382.012,-69.5088 343.764,-57.8766"/>
<polygon fill="blue" stroke="blue" points="344.644,-54.4861 334.058,-54.9249 342.607,-61.1832 344.644,-54.4861"/>
<text text-anchor="middle" x="378" y="-86.6" font-family="Helvetica,sans-Serif" font-size="8.00">state:0</text>
<text text-anchor="middle" x="378" y="-77.6" font-family="Helvetica,sans-Serif" font-size="8.00">type:relatedTo</text>
</g>
<!-- n83&#45;&gt;n3 -->
<g id="edge4" class="edge"><title>n83&#45;&gt;n3</title>
<path fill="none" stroke="blue" d="M475.739,-106.324C405.618,-107.19 213.863,-109.557 133.352,-110.551"/>
<polygon fill="blue" stroke="blue" points="133.158,-107.053 123.202,-110.677 133.244,-114.053 133.158,-107.053"/>
<text text-anchor="middle" x="307" y="-119.6" font-family="Helvetica,sans-Serif" font-size="8.00">state:5</text>
<text text-anchor="middle" x="307" y="-110.6" font-family="Helvetica,sans-Serif" font-size="8.00">type:relatedTo</text>
</g>
<!-- n81&#45;&gt;n80 -->
<g id="edge1" class="edge"><title>n81&#45;&gt;n80</title>
<path fill="none" stroke="blue" d="M422.182,-26.7872C399.382,-26.8639 374.596,-28.1768 352,-32 349.332,-32.4515 346.608,-33.042 343.888,-33.7274"/>
<polygon fill="blue" stroke="blue" points="342.797,-30.3996 334.167,-36.5462 344.746,-37.1227 342.797,-30.3996"/>
<text text-anchor="middle" x="378" y="-43.6" font-family="Helvetica,sans-Serif" font-size="8.00">state:0</text>
<text text-anchor="middle" x="378" y="-34.6" font-family="Helvetica,sans-Serif" font-size="8.00">type:relatedTo</text>
</g>
</g>
</svg>
