<?xml version="1.0" encoding="UTF-8" standalone="no"?>
<!DOCTYPE svg PUBLIC "-//W3C//DTD SVG 1.1//EN"
 "http://www.w3.org/Graphics/SVG/1.1/DTD/svg11.dtd">
<!-- Generated by graphviz version 2.36.0 (20140111.2315)
 -->
<!-- Title: clingo2dot Pages: 1 -->
<svg width="916pt" height="132pt"
 viewBox="0.00 0.00 916.00 132.00" xmlns="http://www.w3.org/2000/svg" xmlns:xlink="http://www.w3.org/1999/xlink">
<g id="graph0" class="graph" transform="scale(1 1) rotate(0) translate(4 128)">
<title>clingo2dot</title>
<polygon fill="white" stroke="none" points="-4,4 -4,-128 912,-128 912,4 -4,4"/>
<!-- n3 -->
<g id="node1" class="node"><title>n3</title>
<ellipse fill="green" stroke="black" cx="113" cy="-18" rx="27" ry="18"/>
<text text-anchor="middle" x="113" y="-16.1" font-family="Helvetica,sans-Serif" font-size="8.00">Dummy Node</text>
</g>
<!-- n87 -->
<g id="node2" class="node"><title>n87</title>
<polygon fill="#cae1ff" stroke="black" points="225.5,-124.5 0.5,-124.5 0.5,-61.5 225.5,-61.5 225.5,-124.5"/>
<text text-anchor="middle" x="113" y="-109.1" font-family="Helvetica,sans-Serif" font-size="8.00">fn:unlinkat</text>
<text text-anchor="middle" x="113" y="-100.1" font-family="Helvetica,sans-Serif" font-size="8.00">arg_keys:[&#39;dirfd&#39;, &#39;pathname&#39;, &#39;flags&#39;]</text>
<text text-anchor="middle" x="113" y="-91.1" font-family="Helvetica,sans-Serif" font-size="8.00">node_id:85</text>
<text text-anchor="middle" x="113" y="-82.1" font-family="Helvetica,sans-Serif" font-size="8.00">ret:0</text>
<text text-anchor="middle" x="113" y="-73.1" font-family="Helvetica,sans-Serif" font-size="8.00">arg_values:[&#39;3&#39;, &#39;/home/arthur/ProvMark/stage/linkat&#45;test.txt&#39;, &#39;0&#39;]</text>
<text text-anchor="middle" x="113" y="-64.1" font-family="Helvetica,sans-Serif" font-size="8.00">type:5</text>
</g>
<!-- n85 -->
<g id="node3" class="node"><title>n85</title>
<polygon fill="#cae1ff" stroke="black" points="908,-111 726,-111 726,-75 908,-75 908,-111"/>
<text text-anchor="middle" x="817" y="-95.6" font-family="Helvetica,sans-Serif" font-size="8.00">name:[&#39;/home/arthur/ProvMark/stage/linkat&#45;test.txt&#39;]</text>
<text text-anchor="middle" x="817" y="-86.6" font-family="Helvetica,sans-Serif" font-size="8.00">node_id:83</text>
<text text-anchor="middle" x="817" y="-77.6" font-family="Helvetica,sans-Serif" font-size="8.00">type:2</text>
</g>
<!-- n84 -->
<g id="node4" class="node"><title>n84</title>
<polygon fill="#cae1ff" stroke="black" points="638,-111 456,-111 456,-75 638,-75 638,-111"/>
<text text-anchor="middle" x="547" y="-95.6" font-family="Helvetica,sans-Serif" font-size="8.00">name:[&#39;/home/arthur/ProvMark/stage/linkat&#45;test.txt&#39;]</text>
<text text-anchor="middle" x="547" y="-86.6" font-family="Helvetica,sans-Serif" font-size="8.00">node_id:82</text>
<text text-anchor="middle" x="547" y="-77.6" font-family="Helvetica,sans-Serif" font-size="8.00">type:2</text>
</g>
<!-- n85&#45;&gt;n84 -->
<g id="edge3" class="edge"><title>n85&#45;&gt;n84</title>
<path fill="none" stroke="blue" d="M725.641,-93C700.933,-93 674.002,-93 648.753,-93"/>
<polygon fill="blue" stroke="blue" points="648.422,-89.5001 638.422,-93 648.422,-96.5001 648.422,-89.5001"/>
<text text-anchor="middle" x="682" y="-104.6" font-family="Helvetica,sans-Serif" font-size="8.00">state:6</text>
<text text-anchor="middle" x="682" y="-95.6" font-family="Helvetica,sans-Serif" font-size="8.00">type:relatedTo</text>
</g>
<!-- n83 -->
<g id="node5" class="node"><title>n83</title>
<polygon fill="#cae1ff" stroke="black" points="368,-107.5 314,-107.5 314,-62.5 368,-62.5 368,-107.5"/>
<text text-anchor="middle" x="341" y="-92.1" font-family="Helvetica,sans-Serif" font-size="8.00">name:omega</text>
<text text-anchor="middle" x="341" y="-83.1" font-family="Helvetica,sans-Serif" font-size="8.00">node_id:81</text>
<text text-anchor="middle" x="341" y="-74.1" font-family="Helvetica,sans-Serif" font-size="8.00">ref_count:1</text>
<text text-anchor="middle" x="341" y="-65.1" font-family="Helvetica,sans-Serif" font-size="8.00">type:4</text>
</g>
<!-- n84&#45;&gt;n83 -->
<g id="edge1" class="edge"><title>n84&#45;&gt;n83</title>
<path fill="none" stroke="blue" d="M455.929,-89.4678C428.594,-88.3959 400.101,-87.2785 378.447,-86.4293"/>
<polygon fill="blue" stroke="blue" points="378.531,-82.93 368.402,-86.0354 378.257,-89.9246 378.531,-82.93"/>
<text text-anchor="middle" x="412" y="-99.6" font-family="Helvetica,sans-Serif" font-size="8.00">state:3</text>
<text text-anchor="middle" x="412" y="-90.6" font-family="Helvetica,sans-Serif" font-size="8.00">type:relatedTo</text>
</g>
<!-- n83&#45;&gt;n3 -->
<g id="edge4" class="edge"><title>n83&#45;&gt;n3</title>
<path fill="none" stroke="blue" d="M313.988,-64.797C308.296,-61.0949 302.133,-57.5891 296,-55 247.805,-34.6525 187.596,-25.2347 149.959,-21.0656"/>
<polygon fill="blue" stroke="blue" points="150.28,-17.5802 139.971,-20.0242 149.554,-24.5424 150.28,-17.5802"/>
<text text-anchor="middle" x="270" y="-66.6" font-family="Helvetica,sans-Serif" font-size="8.00">state:10</text>
<text text-anchor="middle" x="270" y="-57.6" font-family="Helvetica,sans-Serif" font-size="8.00">type:relatedTo</text>
</g>
<!-- n83&#45;&gt;n87 -->
<g id="edge5" class="edge"><title>n83&#45;&gt;n87</title>
<path fill="none" stroke="blue" d="M313.633,-85.9334C293.809,-86.6351 265.094,-87.6515 235.594,-88.6958"/>
<polygon fill="blue" stroke="blue" points="235.442,-85.1989 225.572,-89.0506 235.689,-92.1945 235.442,-85.1989"/>
<text text-anchor="middle" x="270" y="-99.6" font-family="Helvetica,sans-Serif" font-size="8.00">state:0</text>
<text text-anchor="middle" x="270" y="-90.6" font-family="Helvetica,sans-Serif" font-size="8.00">type:relatedTo</text>
</g>
<!-- n86 -->
<g id="node6" class="node"><title>n86</title>
<polygon fill="#cae1ff" stroke="black" points="574,-44.5 520,-44.5 520,0.5 574,0.5 574,-44.5"/>
<text text-anchor="middle" x="547" y="-29.1" font-family="Helvetica,sans-Serif" font-size="8.00">name:omega</text>
<text text-anchor="middle" x="547" y="-20.1" font-family="Helvetica,sans-Serif" font-size="8.00">node_id:84</text>
<text text-anchor="middle" x="547" y="-11.1" font-family="Helvetica,sans-Serif" font-size="8.00">ref_count:0</text>
<text text-anchor="middle" x="547" y="-2.1" font-family="Helvetica,sans-Serif" font-size="8.00">type:4</text>
</g>
<!-- n86&#45;&gt;n3 -->
<g id="edge2" class="edge"><title>n86&#45;&gt;n3</title>
<path fill="none" stroke="blue" d="M519.949,-21.7588C446.126,-21.0752 235.386,-19.1239 150.293,-18.336"/>
<polygon fill="blue" stroke="blue" points="150.117,-14.8344 140.085,-18.2415 150.052,-21.8341 150.117,-14.8344"/>
<text text-anchor="middle" x="341" y="-32.6" font-family="Helvetica,sans-Serif" font-size="8.00">state:5</text>
<text text-anchor="middle" x="341" y="-23.6" font-family="Helvetica,sans-Serif" font-size="8.00">type:relatedTo</text>
</g>
<!-- n86&#45;&gt;n83 -->
<g id="edge6" class="edge"><title>n86&#45;&gt;n83</title>
<path fill="none" stroke="blue" d="M519.849,-24.2081C487.372,-27.6583 430.785,-36.0174 386,-55 382.936,-56.2989 379.863,-57.8258 376.845,-59.4908"/>
<polygon fill="blue" stroke="blue" points="374.776,-56.651 368.018,-64.8104 378.389,-62.6465 374.776,-56.651"/>
<text text-anchor="middle" x="412" y="-66.6" font-family="Helvetica,sans-Serif" font-size="8.00">state:0</text>
<text text-anchor="middle" x="412" y="-57.6" font-family="Helvetica,sans-Serif" font-size="8.00">type:relatedTo</text>
</g>
</g>
</svg>
