<?xml version="1.0" encoding="UTF-8" standalone="no"?>
<!DOCTYPE svg PUBLIC "-//W3C//DTD SVG 1.1//EN"
 "http://www.w3.org/Graphics/SVG/1.1/DTD/svg11.dtd">
<!-- Generated by graphviz version 2.36.0 (20140111.2315)
 -->
<!-- Title: clingo2dot Pages: 1 -->
<svg width="872pt" height="132pt"
 viewBox="0.00 0.00 872.00 132.00" xmlns="http://www.w3.org/2000/svg" xmlns:xlink="http://www.w3.org/1999/xlink">
<g id="graph0" class="graph" transform="scale(1 1) rotate(0) translate(4 128)">
<title>clingo2dot</title>
<polygon fill="white" stroke="none" points="-4,4 -4,-128 868,-128 868,4 -4,4"/>
<!-- n3 -->
<g id="node1" class="node"><title>n3</title>
<ellipse fill="green" stroke="black" cx="97" cy="-18" rx="27" ry="18"/>
<text text-anchor="middle" x="97" y="-16.1" font-family="Helvetica,sans-Serif" font-size="8.00">Dummy Node</text>
</g>
<!-- n82 -->
<g id="node2" class="node"><title>n82</title>
<polygon fill="#cae1ff" stroke="black" points="863.5,-111 688.5,-111 688.5,-75 863.5,-75 863.5,-111"/>
<text text-anchor="middle" x="776" y="-95.6" font-family="Helvetica,sans-Serif" font-size="8.00">node_id:80</text>
<text text-anchor="middle" x="776" y="-86.6" font-family="Helvetica,sans-Serif" font-size="8.00">name:[&#39;/home/arthur/ProvMark/stage/link&#45;test.txt&#39;]</text>
<text text-anchor="middle" x="776" y="-77.6" font-family="Helvetica,sans-Serif" font-size="8.00">type:2</text>
</g>
<!-- n81 -->
<g id="node4" class="node"><title>n81</title>
<polygon fill="#cae1ff" stroke="black" points="599.5,-111 424.5,-111 424.5,-75 599.5,-75 599.5,-111"/>
<text text-anchor="middle" x="512" y="-95.6" font-family="Helvetica,sans-Serif" font-size="8.00">node_id:79</text>
<text text-anchor="middle" x="512" y="-86.6" font-family="Helvetica,sans-Serif" font-size="8.00">name:[&#39;/home/arthur/ProvMark/stage/link&#45;test.txt&#39;]</text>
<text text-anchor="middle" x="512" y="-77.6" font-family="Helvetica,sans-Serif" font-size="8.00">type:2</text>
</g>
<!-- n82&#45;&gt;n81 -->
<g id="edge2" class="edge"><title>n82&#45;&gt;n81</title>
<path fill="none" stroke="blue" d="M688.485,-93C663.353,-93 635.741,-93 610.009,-93"/>
<polygon fill="blue" stroke="blue" points="609.871,-89.5001 599.871,-93 609.871,-96.5001 609.871,-89.5001"/>
<text text-anchor="middle" x="644" y="-104.6" font-family="Helvetica,sans-Serif" font-size="8.00">state:6</text>
<text text-anchor="middle" x="644" y="-95.6" font-family="Helvetica,sans-Serif" font-size="8.00">type:relatedTo</text>
</g>
<!-- n80 -->
<g id="node3" class="node"><title>n80</title>
<polygon fill="#cae1ff" stroke="black" points="336,-107.5 282,-107.5 282,-62.5 336,-62.5 336,-107.5"/>
<text text-anchor="middle" x="309" y="-92.1" font-family="Helvetica,sans-Serif" font-size="8.00">ref_count:1</text>
<text text-anchor="middle" x="309" y="-83.1" font-family="Helvetica,sans-Serif" font-size="8.00">node_id:78</text>
<text text-anchor="middle" x="309" y="-74.1" font-family="Helvetica,sans-Serif" font-size="8.00">name:omega</text>
<text text-anchor="middle" x="309" y="-65.1" font-family="Helvetica,sans-Serif" font-size="8.00">type:4</text>
</g>
<!-- n80&#45;&gt;n3 -->
<g id="edge5" class="edge"><title>n80&#45;&gt;n3</title>
<path fill="none" stroke="blue" d="M281.95,-64.8859C276.261,-61.1774 270.108,-57.6465 264,-55 221.401,-36.5426 168.509,-26.8003 134.037,-22.0304"/>
<polygon fill="blue" stroke="blue" points="134.334,-18.5393 123.963,-20.7056 133.421,-25.4796 134.334,-18.5393"/>
<text text-anchor="middle" x="238" y="-66.6" font-family="Helvetica,sans-Serif" font-size="8.00">state:10</text>
<text text-anchor="middle" x="238" y="-57.6" font-family="Helvetica,sans-Serif" font-size="8.00">type:relatedTo</text>
</g>
<!-- n84 -->
<g id="node6" class="node"><title>n84</title>
<polygon fill="#cae1ff" stroke="black" points="194,-124.5 1.42109e-14,-124.5 1.42109e-14,-61.5 194,-61.5 194,-124.5"/>
<text text-anchor="middle" x="97" y="-109.1" font-family="Helvetica,sans-Serif" font-size="8.00">arg_values:[&#39;/home/arthur/ProvMark/stage/link&#45;test.txt&#39;]</text>
<text text-anchor="middle" x="97" y="-100.1" font-family="Helvetica,sans-Serif" font-size="8.00">arg_keys:[&#39;pathname&#39;]</text>
<text text-anchor="middle" x="97" y="-91.1" font-family="Helvetica,sans-Serif" font-size="8.00">fn:unlink</text>
<text text-anchor="middle" x="97" y="-82.1" font-family="Helvetica,sans-Serif" font-size="8.00">ret:0</text>
<text text-anchor="middle" x="97" y="-73.1" font-family="Helvetica,sans-Serif" font-size="8.00">node_id:82</text>
<text text-anchor="middle" x="97" y="-64.1" font-family="Helvetica,sans-Serif" font-size="8.00">type:5</text>
</g>
<!-- n80&#45;&gt;n84 -->
<g id="edge1" class="edge"><title>n80&#45;&gt;n84</title>
<path fill="none" stroke="blue" d="M281.828,-85.997C261.961,-86.7539 233.22,-87.8488 204.344,-88.9488"/>
<polygon fill="blue" stroke="blue" points="203.998,-85.4593 194.139,-89.3376 204.265,-92.4543 203.998,-85.4593"/>
<text text-anchor="middle" x="238" y="-99.6" font-family="Helvetica,sans-Serif" font-size="8.00">state:0</text>
<text text-anchor="middle" x="238" y="-90.6" font-family="Helvetica,sans-Serif" font-size="8.00">type:relatedTo</text>
</g>
<!-- n81&#45;&gt;n80 -->
<g id="edge3" class="edge"><title>n81&#45;&gt;n80</title>
<path fill="none" stroke="blue" d="M424.3,-89.5492C396.907,-88.459 368.12,-87.3132 346.288,-86.4443"/>
<polygon fill="blue" stroke="blue" points="346.297,-82.942 336.166,-86.0414 346.019,-89.9365 346.297,-82.942"/>
<text text-anchor="middle" x="380" y="-99.6" font-family="Helvetica,sans-Serif" font-size="8.00">state:3</text>
<text text-anchor="middle" x="380" y="-90.6" font-family="Helvetica,sans-Serif" font-size="8.00">type:relatedTo</text>
</g>
<!-- n83 -->
<g id="node5" class="node"><title>n83</title>
<polygon fill="#cae1ff" stroke="black" points="539,-44.5 485,-44.5 485,0.5 539,0.5 539,-44.5"/>
<text text-anchor="middle" x="512" y="-29.1" font-family="Helvetica,sans-Serif" font-size="8.00">ref_count:0</text>
<text text-anchor="middle" x="512" y="-20.1" font-family="Helvetica,sans-Serif" font-size="8.00">node_id:81</text>
<text text-anchor="middle" x="512" y="-11.1" font-family="Helvetica,sans-Serif" font-size="8.00">name:omega</text>
<text text-anchor="middle" x="512" y="-2.1" font-family="Helvetica,sans-Serif" font-size="8.00">type:4</text>
</g>
<!-- n83&#45;&gt;n3 -->
<g id="edge4" class="edge"><title>n83&#45;&gt;n3</title>
<path fill="none" stroke="blue" d="M484.852,-21.7467C413.591,-21.0566 215.854,-19.1414 134.096,-18.3496"/>
<polygon fill="blue" stroke="blue" points="134.067,-14.8493 124.034,-18.2521 134,-21.8489 134.067,-14.8493"/>
<text text-anchor="middle" x="309" y="-32.6" font-family="Helvetica,sans-Serif" font-size="8.00">state:5</text>
<text text-anchor="middle" x="309" y="-23.6" font-family="Helvetica,sans-Serif" font-size="8.00">type:relatedTo</text>
</g>
<!-- n83&#45;&gt;n80 -->
<g id="edge6" class="edge"><title>n83&#45;&gt;n80</title>
<path fill="none" stroke="blue" d="M484.78,-24.3549C452.824,-27.9276 397.688,-36.3848 354,-55 350.938,-56.3047 347.867,-57.8357 344.85,-59.5036"/>
<polygon fill="blue" stroke="blue" points="342.779,-56.6654 336.025,-64.8284 346.396,-62.6589 342.779,-56.6654"/>
<text text-anchor="middle" x="380" y="-66.6" font-family="Helvetica,sans-Serif" font-size="8.00">state:0</text>
<text text-anchor="middle" x="380" y="-57.6" font-family="Helvetica,sans-Serif" font-size="8.00">type:relatedTo</text>
</g>
</g>
</svg>
