<?xml version="1.0" encoding="UTF-8" standalone="no"?>
<!DOCTYPE svg PUBLIC "-//W3C//DTD SVG 1.1//EN"
 "http://www.w3.org/Graphics/SVG/1.1/DTD/svg11.dtd">
<!-- Generated by graphviz version 2.36.0 (20140111.2315)
 -->
<!-- Title: clingo2dot Pages: 1 -->
<svg width="1002pt" height="1746pt"
 viewBox="0.00 0.00 1002.00 1746.00" xmlns="http://www.w3.org/2000/svg" xmlns:xlink="http://www.w3.org/1999/xlink">
<g id="graph0" class="graph" transform="scale(1 1) rotate(0) translate(4 1742)">
<title>clingo2dot</title>
<polygon fill="white" stroke="none" points="-4,4 -4,-1742 998,-1742 998,4 -4,4"/>
<!-- n85 -->
<g id="node1" class="node"><title>n85</title>
<polygon fill="#cae1ff" stroke="black" points="182.5,-1737.5 47.5,-1737.5 47.5,-1692.5 182.5,-1692.5 182.5,-1737.5"/>
<text text-anchor="middle" x="115" y="-1722.1" font-family="Helvetica,sans-Serif" font-size="8.00">node_id:83</text>
<text text-anchor="middle" x="115" y="-1713.1" font-family="Helvetica,sans-Serif" font-size="8.00">name:cwd</text>
<text text-anchor="middle" x="115" y="-1704.1" font-family="Helvetica,sans-Serif" font-size="8.00">value:/home/arthur/ProvMark/working</text>
<text text-anchor="middle" x="115" y="-1695.1" font-family="Helvetica,sans-Serif" font-size="8.00">type:1</text>
</g>
<!-- n100 -->
<g id="node2" class="node"><title>n100</title>
<polygon fill="#cae1ff" stroke="black" points="171,-1674.5 59,-1674.5 59,-1629.5 171,-1629.5 171,-1674.5"/>
<text text-anchor="middle" x="115" y="-1659.1" font-family="Helvetica,sans-Serif" font-size="8.00">node_id:98</text>
<text text-anchor="middle" x="115" y="-1650.1" font-family="Helvetica,sans-Serif" font-size="8.00">name:RLIMIT_FSIZE</text>
<text text-anchor="middle" x="115" y="-1641.1" font-family="Helvetica,sans-Serif" font-size="8.00">value:18446744073709551615</text>
<text text-anchor="middle" x="115" y="-1632.1" font-family="Helvetica,sans-Serif" font-size="8.00">type:1</text>
</g>
<!-- n110 -->
<g id="node3" class="node"><title>n110</title>
<polygon fill="#cae1ff" stroke="black" points="167.5,-1611.5 62.5,-1611.5 62.5,-1566.5 167.5,-1566.5 167.5,-1611.5"/>
<text text-anchor="middle" x="115" y="-1596.1" font-family="Helvetica,sans-Serif" font-size="8.00">node_id:108</text>
<text text-anchor="middle" x="115" y="-1587.1" font-family="Helvetica,sans-Serif" font-size="8.00">name:RLIMIT_SIGPENDING</text>
<text text-anchor="middle" x="115" y="-1578.1" font-family="Helvetica,sans-Serif" font-size="8.00">value:15711</text>
<text text-anchor="middle" x="115" y="-1569.1" font-family="Helvetica,sans-Serif" font-size="8.00">type:1</text>
</g>
<!-- n80 -->
<g id="node4" class="node"><title>n80</title>
<polygon fill="#cae1ff" stroke="black" points="372,-886.5 318,-886.5 318,-841.5 372,-841.5 372,-886.5"/>
<text text-anchor="middle" x="345" y="-871.1" font-family="Helvetica,sans-Serif" font-size="8.00">node_id:78</text>
<text text-anchor="middle" x="345" y="-862.1" font-family="Helvetica,sans-Serif" font-size="8.00">status:0</text>
<text text-anchor="middle" x="345" y="-853.1" font-family="Helvetica,sans-Serif" font-size="8.00">opus_lite:1</text>
<text text-anchor="middle" x="345" y="-844.1" font-family="Helvetica,sans-Serif" font-size="8.00">type:3</text>
</g>
<!-- n80&#45;&gt;n85 -->
<g id="edge35" class="edge"><title>n80&#45;&gt;n85</title>
<path fill="none" stroke="blue" d="M343.547,-886.472C340.878,-1014.3 326.397,-1645.17 300,-1676 273.975,-1706.4 230.701,-1716.63 192.657,-1719.04"/>
<polygon fill="blue" stroke="blue" points="192.426,-1715.54 182.599,-1719.5 192.751,-1722.54 192.426,-1715.54"/>
<text text-anchor="middle" x="274" y="-1720.6" font-family="Helvetica,sans-Serif" font-size="8.00">state:0</text>
<text text-anchor="middle" x="274" y="-1711.6" font-family="Helvetica,sans-Serif" font-size="8.00">type:relatedTo</text>
</g>
<!-- n80&#45;&gt;n100 -->
<g id="edge9" class="edge"><title>n80&#45;&gt;n100</title>
<path fill="none" stroke="blue" d="M344.262,-886.474C345.44,-1005.15 348.259,-1555.6 300,-1612 271.297,-1645.55 221.669,-1654.83 181.182,-1656.11"/>
<polygon fill="blue" stroke="blue" points="181.046,-1652.62 171.104,-1656.28 181.16,-1659.62 181.046,-1652.62"/>
<text text-anchor="middle" x="274" y="-1656.6" font-family="Helvetica,sans-Serif" font-size="8.00">state:0</text>
<text text-anchor="middle" x="274" y="-1647.6" font-family="Helvetica,sans-Serif" font-size="8.00">type:relatedTo</text>
</g>
<!-- n80&#45;&gt;n110 -->
<g id="edge28" class="edge"><title>n80&#45;&gt;n110</title>
<path fill="none" stroke="blue" d="M344.124,-886.369C344.544,-998.568 343.91,-1496.7 300,-1548 270.474,-1582.5 218.907,-1591.64 177.862,-1592.79"/>
<polygon fill="blue" stroke="blue" points="177.629,-1589.29 167.674,-1592.92 177.717,-1596.29 177.629,-1589.29"/>
<text text-anchor="middle" x="274" y="-1592.6" font-family="Helvetica,sans-Serif" font-size="8.00">state:0</text>
<text text-anchor="middle" x="274" y="-1583.6" font-family="Helvetica,sans-Serif" font-size="8.00">type:relatedTo</text>
</g>
<!-- n97 -->
<g id="node5" class="node"><title>n97</title>
<polygon fill="#cae1ff" stroke="black" points="171,-1548.5 59,-1548.5 59,-1503.5 171,-1503.5 171,-1548.5"/>
<text text-anchor="middle" x="115" y="-1533.1" font-family="Helvetica,sans-Serif" font-size="8.00">node_id:95</text>
<text text-anchor="middle" x="115" y="-1524.1" font-family="Helvetica,sans-Serif" font-size="8.00">name:RLIMIT_DATA</text>
<text text-anchor="middle" x="115" y="-1515.1" font-family="Helvetica,sans-Serif" font-size="8.00">value:18446744073709551615</text>
<text text-anchor="middle" x="115" y="-1506.1" font-family="Helvetica,sans-Serif" font-size="8.00">type:1</text>
</g>
<!-- n80&#45;&gt;n97 -->
<g id="edge25" class="edge"><title>n80&#45;&gt;n97</title>
<path fill="none" stroke="blue" d="M343.961,-886.338C343.574,-991.928 339.59,-1437.81 300,-1484 271.201,-1517.6 221.578,-1527.44 181.118,-1529.23"/>
<polygon fill="blue" stroke="blue" points="180.941,-1525.74 171.047,-1529.53 181.145,-1532.73 180.941,-1525.74"/>
<text text-anchor="middle" x="274" y="-1528.6" font-family="Helvetica,sans-Serif" font-size="8.00">state:0</text>
<text text-anchor="middle" x="274" y="-1519.6" font-family="Helvetica,sans-Serif" font-size="8.00">type:relatedTo</text>
</g>
<!-- n103 -->
<g id="node6" class="node"><title>n103</title>
<polygon fill="#cae1ff" stroke="black" points="165.5,-1485.5 64.5,-1485.5 64.5,-1440.5 165.5,-1440.5 165.5,-1485.5"/>
<text text-anchor="middle" x="115" y="-1470.1" font-family="Helvetica,sans-Serif" font-size="8.00">node_id:101</text>
<text text-anchor="middle" x="115" y="-1461.1" font-family="Helvetica,sans-Serif" font-size="8.00">name:RLIMIT_MSGQUEUE</text>
<text text-anchor="middle" x="115" y="-1452.1" font-family="Helvetica,sans-Serif" font-size="8.00">value:819200</text>
<text text-anchor="middle" x="115" y="-1443.1" font-family="Helvetica,sans-Serif" font-size="8.00">type:1</text>
</g>
<!-- n80&#45;&gt;n103 -->
<g id="edge21" class="edge"><title>n80&#45;&gt;n103</title>
<path fill="none" stroke="blue" d="M343.762,-886.293C342.509,-984.914 335.31,-1378.93 300,-1420 269.934,-1454.97 217.4,-1464.5 176.142,-1465.99"/>
<polygon fill="blue" stroke="blue" points="175.84,-1462.49 165.916,-1466.2 175.987,-1469.49 175.84,-1462.49"/>
<text text-anchor="middle" x="274" y="-1464.6" font-family="Helvetica,sans-Serif" font-size="8.00">state:0</text>
<text text-anchor="middle" x="274" y="-1455.6" font-family="Helvetica,sans-Serif" font-size="8.00">type:relatedTo</text>
</g>
<!-- n109 -->
<g id="node7" class="node"><title>n109</title>
<polygon fill="#cae1ff" stroke="black" points="171,-1422.5 59,-1422.5 59,-1377.5 171,-1377.5 171,-1422.5"/>
<text text-anchor="middle" x="115" y="-1407.1" font-family="Helvetica,sans-Serif" font-size="8.00">node_id:107</text>
<text text-anchor="middle" x="115" y="-1398.1" font-family="Helvetica,sans-Serif" font-size="8.00">name:RLIMIT_RTTIME</text>
<text text-anchor="middle" x="115" y="-1389.1" font-family="Helvetica,sans-Serif" font-size="8.00">value:18446744073709551615</text>
<text text-anchor="middle" x="115" y="-1380.1" font-family="Helvetica,sans-Serif" font-size="8.00">type:1</text>
</g>
<!-- n80&#45;&gt;n109 -->
<g id="edge26" class="edge"><title>n80&#45;&gt;n109</title>
<path fill="none" stroke="blue" d="M343.502,-886.391C341.268,-977.737 330.898,-1319.06 300,-1355 271.143,-1388.56 221.768,-1399.27 181.427,-1401.88"/>
<polygon fill="blue" stroke="blue" points="181.198,-1398.39 171.383,-1402.38 181.545,-1405.38 181.198,-1398.39"/>
<text text-anchor="middle" x="274" y="-1400.6" font-family="Helvetica,sans-Serif" font-size="8.00">state:0</text>
<text text-anchor="middle" x="274" y="-1391.6" font-family="Helvetica,sans-Serif" font-size="8.00">type:relatedTo</text>
</g>
<!-- n98 -->
<g id="node8" class="node"><title>n98</title>
<polygon fill="#cae1ff" stroke="black" points="171,-1359.5 59,-1359.5 59,-1314.5 171,-1314.5 171,-1359.5"/>
<text text-anchor="middle" x="115" y="-1344.1" font-family="Helvetica,sans-Serif" font-size="8.00">node_id:96</text>
<text text-anchor="middle" x="115" y="-1335.1" font-family="Helvetica,sans-Serif" font-size="8.00">name:RLIMIT_FSIZE</text>
<text text-anchor="middle" x="115" y="-1326.1" font-family="Helvetica,sans-Serif" font-size="8.00">value:18446744073709551615</text>
<text text-anchor="middle" x="115" y="-1317.1" font-family="Helvetica,sans-Serif" font-size="8.00">type:1</text>
</g>
<!-- n80&#45;&gt;n98 -->
<g id="edge16" class="edge"><title>n80&#45;&gt;n98</title>
<path fill="none" stroke="blue" d="M343.163,-886.478C339.856,-969.993 326.56,-1259.21 300,-1290 271.013,-1323.6 221.645,-1334.86 181.34,-1337.99"/>
<polygon fill="blue" stroke="blue" points="181.068,-1334.5 171.306,-1338.61 181.505,-1341.48 181.068,-1334.5"/>
<text text-anchor="middle" x="274" y="-1335.6" font-family="Helvetica,sans-Serif" font-size="8.00">state:0</text>
<text text-anchor="middle" x="274" y="-1326.6" font-family="Helvetica,sans-Serif" font-size="8.00">type:relatedTo</text>
</g>
<!-- n94 -->
<g id="node9" class="node"><title>n94</title>
<polygon fill="#cae1ff" stroke="black" points="171,-1296.5 59,-1296.5 59,-1251.5 171,-1251.5 171,-1296.5"/>
<text text-anchor="middle" x="115" y="-1281.1" font-family="Helvetica,sans-Serif" font-size="8.00">node_id:92</text>
<text text-anchor="middle" x="115" y="-1272.1" font-family="Helvetica,sans-Serif" font-size="8.00">name:RLIMIT_AS</text>
<text text-anchor="middle" x="115" y="-1263.1" font-family="Helvetica,sans-Serif" font-size="8.00">value:18446744073709551615</text>
<text text-anchor="middle" x="115" y="-1254.1" font-family="Helvetica,sans-Serif" font-size="8.00">type:1</text>
</g>
<!-- n80&#45;&gt;n94 -->
<g id="edge22" class="edge"><title>n80&#45;&gt;n94</title>
<path fill="none" stroke="blue" d="M344.422,-886.341C345.29,-957.029 344.234,-1174.15 300,-1225 270.799,-1258.57 221.442,-1270.39 181.195,-1274.04"/>
<polygon fill="blue" stroke="blue" points="180.882,-1270.56 171.176,-1274.8 181.413,-1277.54 180.882,-1270.56"/>
<text text-anchor="middle" x="274" y="-1270.6" font-family="Helvetica,sans-Serif" font-size="8.00">state:0</text>
<text text-anchor="middle" x="274" y="-1261.6" font-family="Helvetica,sans-Serif" font-size="8.00">type:relatedTo</text>
</g>
<!-- n107 -->
<g id="node11" class="node"><title>n107</title>
<polygon fill="#cae1ff" stroke="black" points="171,-1233.5 59,-1233.5 59,-1188.5 171,-1188.5 171,-1233.5"/>
<text text-anchor="middle" x="115" y="-1218.1" font-family="Helvetica,sans-Serif" font-size="8.00">node_id:105</text>
<text text-anchor="middle" x="115" y="-1209.1" font-family="Helvetica,sans-Serif" font-size="8.00">name:RLIMIT_RSS</text>
<text text-anchor="middle" x="115" y="-1200.1" font-family="Helvetica,sans-Serif" font-size="8.00">value:18446744073709551615</text>
<text text-anchor="middle" x="115" y="-1191.1" font-family="Helvetica,sans-Serif" font-size="8.00">type:1</text>
</g>
<!-- n80&#45;&gt;n107 -->
<g id="edge19" class="edge"><title>n80&#45;&gt;n107</title>
<path fill="none" stroke="blue" d="M343.723,-886.599C342.5,-948.596 335.875,-1119.42 300,-1160 270.548,-1193.31 221.446,-1205.72 181.37,-1209.98"/>
<polygon fill="blue" stroke="blue" points="181.032,-1206.49 171.394,-1210.89 181.672,-1213.46 181.032,-1206.49"/>
<text text-anchor="middle" x="274" y="-1205.6" font-family="Helvetica,sans-Serif" font-size="8.00">state:0</text>
<text text-anchor="middle" x="274" y="-1196.6" font-family="Helvetica,sans-Serif" font-size="8.00">type:relatedTo</text>
</g>
<!-- n89 -->
<g id="node12" class="node"><title>n89</title>
<polygon fill="#cae1ff" stroke="black" points="142.5,-1170.5 87.5,-1170.5 87.5,-1125.5 142.5,-1125.5 142.5,-1170.5"/>
<text text-anchor="middle" x="115" y="-1155.1" font-family="Helvetica,sans-Serif" font-size="8.00">node_id:87</text>
<text text-anchor="middle" x="115" y="-1146.1" font-family="Helvetica,sans-Serif" font-size="8.00">name:sysname</text>
<text text-anchor="middle" x="115" y="-1137.1" font-family="Helvetica,sans-Serif" font-size="8.00">value:Linux</text>
<text text-anchor="middle" x="115" y="-1128.1" font-family="Helvetica,sans-Serif" font-size="8.00">type:1</text>
</g>
<!-- n80&#45;&gt;n89 -->
<g id="edge14" class="edge"><title>n80&#45;&gt;n89</title>
<path fill="none" stroke="blue" d="M342.639,-886.411C339.045,-938.256 327.613,-1064.38 300,-1095 262.545,-1136.54 194.85,-1146.37 152.839,-1148.23"/>
<polygon fill="blue" stroke="blue" points="152.631,-1144.73 142.746,-1148.54 152.85,-1151.73 152.631,-1144.73"/>
<text text-anchor="middle" x="274" y="-1140.6" font-family="Helvetica,sans-Serif" font-size="8.00">state:0</text>
<text text-anchor="middle" x="274" y="-1131.6" font-family="Helvetica,sans-Serif" font-size="8.00">type:relatedTo</text>
</g>
<!-- n92 -->
<g id="node13" class="node"><title>n92</title>
<polygon fill="#cae1ff" stroke="black" points="229.5,-1107.5 0.5,-1107.5 0.5,-1062.5 229.5,-1062.5 229.5,-1107.5"/>
<text text-anchor="middle" x="115" y="-1092.1" font-family="Helvetica,sans-Serif" font-size="8.00">node_id:90</text>
<text text-anchor="middle" x="115" y="-1083.1" font-family="Helvetica,sans-Serif" font-size="8.00">name:version</text>
<text text-anchor="middle" x="115" y="-1074.1" font-family="Helvetica,sans-Serif" font-size="8.00">value:#57~14.04.1&#45;Ubuntu SMP Tue Sep 6 17:20:43 UTC 2016</text>
<text text-anchor="middle" x="115" y="-1065.1" font-family="Helvetica,sans-Serif" font-size="8.00">type:1</text>
</g>
<!-- n80&#45;&gt;n92 -->
<g id="edge32" class="edge"><title>n80&#45;&gt;n92</title>
<path fill="none" stroke="blue" d="M344.345,-886.347C343.659,-921.321 337.206,-989.107 300,-1029 283.587,-1046.6 261.832,-1058.73 239.044,-1067.07"/>
<polygon fill="blue" stroke="blue" points="237.906,-1063.76 229.577,-1070.31 240.171,-1070.38 237.906,-1063.76"/>
<text text-anchor="middle" x="274" y="-1075.6" font-family="Helvetica,sans-Serif" font-size="8.00">state:0</text>
<text text-anchor="middle" x="274" y="-1066.6" font-family="Helvetica,sans-Serif" font-size="8.00">type:relatedTo</text>
</g>
<!-- n91 -->
<g id="node14" class="node"><title>n91</title>
<polygon fill="#cae1ff" stroke="black" points="155.5,-1044.5 74.5,-1044.5 74.5,-999.5 155.5,-999.5 155.5,-1044.5"/>
<text text-anchor="middle" x="115" y="-1029.1" font-family="Helvetica,sans-Serif" font-size="8.00">node_id:89</text>
<text text-anchor="middle" x="115" y="-1020.1" font-family="Helvetica,sans-Serif" font-size="8.00">name:release</text>
<text text-anchor="middle" x="115" y="-1011.1" font-family="Helvetica,sans-Serif" font-size="8.00">value:4.4.0&#45;38&#45;generic</text>
<text text-anchor="middle" x="115" y="-1002.1" font-family="Helvetica,sans-Serif" font-size="8.00">type:1</text>
</g>
<!-- n80&#45;&gt;n91 -->
<g id="edge36" class="edge"><title>n80&#45;&gt;n91</title>
<path fill="none" stroke="blue" d="M340.257,-886.264C335.162,-909.778 323.797,-946.379 300,-968 263.088,-1001.54 206.369,-1014.32 165.664,-1019.15"/>
<polygon fill="blue" stroke="blue" points="165.254,-1015.67 155.682,-1020.21 165.997,-1022.63 165.254,-1015.67"/>
<text text-anchor="middle" x="274" y="-1009.6" font-family="Helvetica,sans-Serif" font-size="8.00">state:0</text>
<text text-anchor="middle" x="274" y="-1000.6" font-family="Helvetica,sans-Serif" font-size="8.00">type:relatedTo</text>
</g>
<!-- n104 -->
<g id="node15" class="node"><title>n104</title>
<polygon fill="#cae1ff" stroke="black" points="152,-981.5 78,-981.5 78,-936.5 152,-936.5 152,-981.5"/>
<text text-anchor="middle" x="115" y="-966.1" font-family="Helvetica,sans-Serif" font-size="8.00">node_id:102</text>
<text text-anchor="middle" x="115" y="-957.1" font-family="Helvetica,sans-Serif" font-size="8.00">name:RLIMIT_NICE</text>
<text text-anchor="middle" x="115" y="-948.1" font-family="Helvetica,sans-Serif" font-size="8.00">value:0</text>
<text text-anchor="middle" x="115" y="-939.1" font-family="Helvetica,sans-Serif" font-size="8.00">type:1</text>
</g>
<!-- n80&#45;&gt;n104 -->
<g id="edge10" class="edge"><title>n80&#45;&gt;n104</title>
<path fill="none" stroke="blue" d="M328.711,-886.297C321.112,-895.824 311.166,-906.276 300,-913 257.534,-938.573 201.382,-949.977 162.326,-955.032"/>
<polygon fill="blue" stroke="blue" points="161.797,-951.571 152.287,-956.241 162.634,-958.52 161.797,-951.571"/>
<text text-anchor="middle" x="274" y="-948.6" font-family="Helvetica,sans-Serif" font-size="8.00">state:0</text>
<text text-anchor="middle" x="274" y="-939.6" font-family="Helvetica,sans-Serif" font-size="8.00">type:relatedTo</text>
</g>
<!-- n111 -->
<g id="node18" class="node"><title>n111</title>
<polygon fill="#cae1ff" stroke="black" points="156,-918.5 74,-918.5 74,-873.5 156,-873.5 156,-918.5"/>
<text text-anchor="middle" x="115" y="-903.1" font-family="Helvetica,sans-Serif" font-size="8.00">node_id:109</text>
<text text-anchor="middle" x="115" y="-894.1" font-family="Helvetica,sans-Serif" font-size="8.00">name:RLIMIT_STACK</text>
<text text-anchor="middle" x="115" y="-885.1" font-family="Helvetica,sans-Serif" font-size="8.00">value:8388608</text>
<text text-anchor="middle" x="115" y="-876.1" font-family="Helvetica,sans-Serif" font-size="8.00">type:1</text>
</g>
<!-- n80&#45;&gt;n111 -->
<g id="edge7" class="edge"><title>n80&#45;&gt;n111</title>
<path fill="none" stroke="blue" d="M317.565,-870.479C311.798,-871.76 305.712,-873.012 300,-874 254.941,-881.792 203.195,-887.714 166.079,-891.439"/>
<polygon fill="blue" stroke="blue" points="165.624,-887.967 156.016,-892.432 166.311,-894.933 165.624,-887.967"/>
<text text-anchor="middle" x="274" y="-893.6" font-family="Helvetica,sans-Serif" font-size="8.00">state:0</text>
<text text-anchor="middle" x="274" y="-884.6" font-family="Helvetica,sans-Serif" font-size="8.00">type:relatedTo</text>
</g>
<!-- n95 -->
<g id="node19" class="node"><title>n95</title>
<polygon fill="#cae1ff" stroke="black" points="154,-855.5 76,-855.5 76,-810.5 154,-810.5 154,-855.5"/>
<text text-anchor="middle" x="115" y="-840.1" font-family="Helvetica,sans-Serif" font-size="8.00">node_id:93</text>
<text text-anchor="middle" x="115" y="-831.1" font-family="Helvetica,sans-Serif" font-size="8.00">name:RLIMIT_CORE</text>
<text text-anchor="middle" x="115" y="-822.1" font-family="Helvetica,sans-Serif" font-size="8.00">value:0</text>
<text text-anchor="middle" x="115" y="-813.1" font-family="Helvetica,sans-Serif" font-size="8.00">type:1</text>
</g>
<!-- n80&#45;&gt;n95 -->
<g id="edge30" class="edge"><title>n80&#45;&gt;n95</title>
<path fill="none" stroke="blue" d="M317.867,-852.466C312.081,-850.32 305.911,-848.336 300,-847 254.728,-836.766 201.766,-833.632 164.318,-832.839"/>
<polygon fill="blue" stroke="blue" points="164.242,-829.337 154.187,-832.673 164.128,-836.336 164.242,-829.337"/>
<text text-anchor="middle" x="274" y="-858.6" font-family="Helvetica,sans-Serif" font-size="8.00">state:0</text>
<text text-anchor="middle" x="274" y="-849.6" font-family="Helvetica,sans-Serif" font-size="8.00">type:relatedTo</text>
</g>
<!-- n96 -->
<g id="node21" class="node"><title>n96</title>
<polygon fill="#cae1ff" stroke="black" points="171,-792.5 59,-792.5 59,-747.5 171,-747.5 171,-792.5"/>
<text text-anchor="middle" x="115" y="-777.1" font-family="Helvetica,sans-Serif" font-size="8.00">node_id:94</text>
<text text-anchor="middle" x="115" y="-768.1" font-family="Helvetica,sans-Serif" font-size="8.00">name:RLIMIT_CPU</text>
<text text-anchor="middle" x="115" y="-759.1" font-family="Helvetica,sans-Serif" font-size="8.00">value:18446744073709551615</text>
<text text-anchor="middle" x="115" y="-750.1" font-family="Helvetica,sans-Serif" font-size="8.00">type:1</text>
</g>
<!-- n80&#45;&gt;n96 -->
<g id="edge4" class="edge"><title>n80&#45;&gt;n96</title>
<path fill="none" stroke="blue" d="M331.732,-841.687C324.113,-829.893 313.247,-816.199 300,-808 264.507,-786.031 218.521,-776.531 181.401,-772.522"/>
<polygon fill="blue" stroke="blue" points="181.474,-769.013 171.183,-771.532 180.798,-775.981 181.474,-769.013"/>
<text text-anchor="middle" x="274" y="-819.6" font-family="Helvetica,sans-Serif" font-size="8.00">state:0</text>
<text text-anchor="middle" x="274" y="-810.6" font-family="Helvetica,sans-Serif" font-size="8.00">type:relatedTo</text>
</g>
<!-- n87 -->
<g id="node23" class="node"><title>n87</title>
<polygon fill="#cae1ff" stroke="black" points="142,-729.5 88,-729.5 88,-684.5 142,-684.5 142,-729.5"/>
<text text-anchor="middle" x="115" y="-714.1" font-family="Helvetica,sans-Serif" font-size="8.00">node_id:85</text>
<text text-anchor="middle" x="115" y="-705.1" font-family="Helvetica,sans-Serif" font-size="8.00">name:uid</text>
<text text-anchor="middle" x="115" y="-696.1" font-family="Helvetica,sans-Serif" font-size="8.00">value:root</text>
<text text-anchor="middle" x="115" y="-687.1" font-family="Helvetica,sans-Serif" font-size="8.00">type:1</text>
</g>
<!-- n80&#45;&gt;n87 -->
<g id="edge3" class="edge"><title>n80&#45;&gt;n87</title>
<path fill="none" stroke="blue" d="M340.943,-841.35C336.39,-816.558 325.442,-777.367 300,-755 258.602,-718.606 192.935,-709.267 152.265,-707.173"/>
<polygon fill="blue" stroke="blue" points="152.376,-703.675 142.245,-706.778 152.1,-710.669 152.376,-703.675"/>
<text text-anchor="middle" x="274" y="-766.6" font-family="Helvetica,sans-Serif" font-size="8.00">state:0</text>
<text text-anchor="middle" x="274" y="-757.6" font-family="Helvetica,sans-Serif" font-size="8.00">type:relatedTo</text>
</g>
<!-- n99 -->
<g id="node24" class="node"><title>n99</title>
<polygon fill="#cae1ff" stroke="black" points="171,-666.5 59,-666.5 59,-621.5 171,-621.5 171,-666.5"/>
<text text-anchor="middle" x="115" y="-651.1" font-family="Helvetica,sans-Serif" font-size="8.00">node_id:97</text>
<text text-anchor="middle" x="115" y="-642.1" font-family="Helvetica,sans-Serif" font-size="8.00">name:RLIMIT_LOCKS</text>
<text text-anchor="middle" x="115" y="-633.1" font-family="Helvetica,sans-Serif" font-size="8.00">value:18446744073709551615</text>
<text text-anchor="middle" x="115" y="-624.1" font-family="Helvetica,sans-Serif" font-size="8.00">type:1</text>
</g>
<!-- n80&#45;&gt;n99 -->
<g id="edge20" class="edge"><title>n80&#45;&gt;n99</title>
<path fill="none" stroke="blue" d="M344.663,-841.661C344.466,-805.995 338.739,-736.131 300,-696 269.353,-664.252 220.923,-651.454 181.44,-646.486"/>
<polygon fill="blue" stroke="blue" points="181.677,-642.991 171.35,-645.36 180.9,-649.948 181.677,-642.991"/>
<text text-anchor="middle" x="274" y="-707.6" font-family="Helvetica,sans-Serif" font-size="8.00">state:0</text>
<text text-anchor="middle" x="274" y="-698.6" font-family="Helvetica,sans-Serif" font-size="8.00">type:relatedTo</text>
</g>
<!-- n102 -->
<g id="node25" class="node"><title>n102</title>
<polygon fill="#cae1ff" stroke="black" points="162.5,-603.5 67.5,-603.5 67.5,-558.5 162.5,-558.5 162.5,-603.5"/>
<text text-anchor="middle" x="115" y="-588.1" font-family="Helvetica,sans-Serif" font-size="8.00">node_id:100</text>
<text text-anchor="middle" x="115" y="-579.1" font-family="Helvetica,sans-Serif" font-size="8.00">name:RLIMIT_MEMLOCK</text>
<text text-anchor="middle" x="115" y="-570.1" font-family="Helvetica,sans-Serif" font-size="8.00">value:65536</text>
<text text-anchor="middle" x="115" y="-561.1" font-family="Helvetica,sans-Serif" font-size="8.00">type:1</text>
</g>
<!-- n80&#45;&gt;n102 -->
<g id="edge27" class="edge"><title>n80&#45;&gt;n102</title>
<path fill="none" stroke="blue" d="M342.639,-841.589C339.045,-789.744 327.613,-663.622 300,-633 268.132,-597.66 214.259,-585.593 173.017,-581.816"/>
<polygon fill="blue" stroke="blue" points="173.066,-578.31 162.825,-581.026 172.524,-585.289 173.066,-578.31"/>
<text text-anchor="middle" x="274" y="-644.6" font-family="Helvetica,sans-Serif" font-size="8.00">state:0</text>
<text text-anchor="middle" x="274" y="-635.6" font-family="Helvetica,sans-Serif" font-size="8.00">type:relatedTo</text>
</g>
<!-- n88 -->
<g id="node26" class="node"><title>n88</title>
<polygon fill="#cae1ff" stroke="black" points="142,-540.5 88,-540.5 88,-495.5 142,-495.5 142,-540.5"/>
<text text-anchor="middle" x="115" y="-525.1" font-family="Helvetica,sans-Serif" font-size="8.00">node_id:86</text>
<text text-anchor="middle" x="115" y="-516.1" font-family="Helvetica,sans-Serif" font-size="8.00">name:gid</text>
<text text-anchor="middle" x="115" y="-507.1" font-family="Helvetica,sans-Serif" font-size="8.00">value:root</text>
<text text-anchor="middle" x="115" y="-498.1" font-family="Helvetica,sans-Serif" font-size="8.00">type:1</text>
</g>
<!-- n80&#45;&gt;n88 -->
<g id="edge37" class="edge"><title>n80&#45;&gt;n88</title>
<path fill="none" stroke="blue" d="M343.695,-841.491C342.4,-779.74 335.607,-609.574 300,-569 263.013,-526.852 194.563,-518.137 152.383,-517.075"/>
<polygon fill="blue" stroke="blue" points="152.301,-513.574 142.26,-516.954 152.217,-520.573 152.301,-513.574"/>
<text text-anchor="middle" x="274" y="-580.6" font-family="Helvetica,sans-Serif" font-size="8.00">state:0</text>
<text text-anchor="middle" x="274" y="-571.6" font-family="Helvetica,sans-Serif" font-size="8.00">type:relatedTo</text>
</g>
<!-- n101 -->
<g id="node27" class="node"><title>n101</title>
<polygon fill="#cae1ff" stroke="black" points="171,-477.5 59,-477.5 59,-432.5 171,-432.5 171,-477.5"/>
<text text-anchor="middle" x="115" y="-462.1" font-family="Helvetica,sans-Serif" font-size="8.00">node_id:99</text>
<text text-anchor="middle" x="115" y="-453.1" font-family="Helvetica,sans-Serif" font-size="8.00">name:RLIMIT_LOCKS</text>
<text text-anchor="middle" x="115" y="-444.1" font-family="Helvetica,sans-Serif" font-size="8.00">value:18446744073709551615</text>
<text text-anchor="middle" x="115" y="-435.1" font-family="Helvetica,sans-Serif" font-size="8.00">type:1</text>
</g>
<!-- n80&#45;&gt;n101 -->
<g id="edge12" class="edge"><title>n80&#45;&gt;n101</title>
<path fill="none" stroke="blue" d="M344.398,-841.295C345.167,-770.51 343.779,-555.553 300,-505 270.833,-471.32 221.474,-459.234 181.218,-455.345"/>
<polygon fill="blue" stroke="blue" points="181.449,-451.852 171.197,-454.525 180.878,-458.829 181.449,-451.852"/>
<text text-anchor="middle" x="274" y="-516.6" font-family="Helvetica,sans-Serif" font-size="8.00">state:0</text>
<text text-anchor="middle" x="274" y="-507.6" font-family="Helvetica,sans-Serif" font-size="8.00">type:relatedTo</text>
</g>
<!-- n108 -->
<g id="node28" class="node"><title>n108</title>
<polygon fill="#cae1ff" stroke="black" points="157.5,-414.5 72.5,-414.5 72.5,-369.5 157.5,-369.5 157.5,-414.5"/>
<text text-anchor="middle" x="115" y="-399.1" font-family="Helvetica,sans-Serif" font-size="8.00">node_id:106</text>
<text text-anchor="middle" x="115" y="-390.1" font-family="Helvetica,sans-Serif" font-size="8.00">name:RLIMIT_RTPRIO</text>
<text text-anchor="middle" x="115" y="-381.1" font-family="Helvetica,sans-Serif" font-size="8.00">value:0</text>
<text text-anchor="middle" x="115" y="-372.1" font-family="Helvetica,sans-Serif" font-size="8.00">type:1</text>
</g>
<!-- n80&#45;&gt;n108 -->
<g id="edge2" class="edge"><title>n80&#45;&gt;n108</title>
<path fill="none" stroke="blue" d="M343.142,-841.688C339.76,-758.79 326.23,-471.697 300,-441 267.761,-403.271 210.059,-392.941 167.843,-390.851"/>
<polygon fill="blue" stroke="blue" points="167.858,-387.349 157.74,-390.491 167.609,-394.345 167.858,-387.349"/>
<text text-anchor="middle" x="274" y="-452.6" font-family="Helvetica,sans-Serif" font-size="8.00">state:0</text>
<text text-anchor="middle" x="274" y="-443.6" font-family="Helvetica,sans-Serif" font-size="8.00">type:relatedTo</text>
</g>
<!-- n90 -->
<g id="node29" class="node"><title>n90</title>
<polygon fill="#cae1ff" stroke="black" points="156,-351.5 74,-351.5 74,-306.5 156,-306.5 156,-351.5"/>
<text text-anchor="middle" x="115" y="-336.1" font-family="Helvetica,sans-Serif" font-size="8.00">node_id:88</text>
<text text-anchor="middle" x="115" y="-327.1" font-family="Helvetica,sans-Serif" font-size="8.00">name:nodename</text>
<text text-anchor="middle" x="115" y="-318.1" font-family="Helvetica,sans-Serif" font-size="8.00">value:arthur&#45;VirtualBox</text>
<text text-anchor="middle" x="115" y="-309.1" font-family="Helvetica,sans-Serif" font-size="8.00">type:1</text>
</g>
<!-- n80&#45;&gt;n90 -->
<g id="edge8" class="edge"><title>n80&#45;&gt;n90</title>
<path fill="none" stroke="blue" d="M343.466,-841.496C341.106,-750.487 330.353,-412.828 300,-377 267.57,-338.72 208.801,-328.973 166.394,-327.373"/>
<polygon fill="blue" stroke="blue" points="166.342,-323.871 156.261,-327.132 166.175,-330.869 166.342,-323.871"/>
<text text-anchor="middle" x="274" y="-388.6" font-family="Helvetica,sans-Serif" font-size="8.00">state:0</text>
<text text-anchor="middle" x="274" y="-379.6" font-family="Helvetica,sans-Serif" font-size="8.00">type:relatedTo</text>
</g>
<!-- n93 -->
<g id="node31" class="node"><title>n93</title>
<polygon fill="#cae1ff" stroke="black" points="142,-288.5 88,-288.5 88,-243.5 142,-243.5 142,-288.5"/>
<text text-anchor="middle" x="115" y="-273.1" font-family="Helvetica,sans-Serif" font-size="8.00">node_id:91</text>
<text text-anchor="middle" x="115" y="-264.1" font-family="Helvetica,sans-Serif" font-size="8.00">name:machine</text>
<text text-anchor="middle" x="115" y="-255.1" font-family="Helvetica,sans-Serif" font-size="8.00">value:x86_64</text>
<text text-anchor="middle" x="115" y="-246.1" font-family="Helvetica,sans-Serif" font-size="8.00">type:1</text>
</g>
<!-- n80&#45;&gt;n93 -->
<g id="edge13" class="edge"><title>n80&#45;&gt;n93</title>
<path fill="none" stroke="blue" d="M343.723,-841.596C342.31,-743.389 334.551,-354.004 300,-313 263.963,-270.233 194.9,-263.506 152.398,-263.835"/>
<polygon fill="blue" stroke="blue" points="152.124,-260.34 142.201,-264.053 152.273,-267.338 152.124,-260.34"/>
<text text-anchor="middle" x="274" y="-324.6" font-family="Helvetica,sans-Serif" font-size="8.00">state:0</text>
<text text-anchor="middle" x="274" y="-315.6" font-family="Helvetica,sans-Serif" font-size="8.00">type:relatedTo</text>
</g>
<!-- n86 -->
<g id="node33" class="node"><title>n86</title>
<polygon fill="#cae1ff" stroke="black" points="144,-225.5 86,-225.5 86,-180.5 144,-180.5 144,-225.5"/>
<text text-anchor="middle" x="115" y="-210.1" font-family="Helvetica,sans-Serif" font-size="8.00">node_id:84</text>
<text text-anchor="middle" x="115" y="-201.1" font-family="Helvetica,sans-Serif" font-size="8.00">name:cmd_args</text>
<text text-anchor="middle" x="115" y="-192.1" font-family="Helvetica,sans-Serif" font-size="8.00">value:</text>
<text text-anchor="middle" x="115" y="-183.1" font-family="Helvetica,sans-Serif" font-size="8.00">type:1</text>
</g>
<!-- n80&#45;&gt;n86 -->
<g id="edge15" class="edge"><title>n80&#45;&gt;n86</title>
<path fill="none" stroke="blue" d="M343.926,-841.51C343.378,-736.218 338.769,-295.157 300,-249 264.588,-206.84 196.935,-200.13 154.267,-200.547"/>
<polygon fill="blue" stroke="blue" points="154.171,-197.049 144.255,-200.78 154.333,-204.047 154.171,-197.049"/>
<text text-anchor="middle" x="274" y="-260.6" font-family="Helvetica,sans-Serif" font-size="8.00">state:0</text>
<text text-anchor="middle" x="274" y="-251.6" font-family="Helvetica,sans-Serif" font-size="8.00">type:relatedTo</text>
</g>
<!-- n105 -->
<g id="node34" class="node"><title>n105</title>
<polygon fill="#cae1ff" stroke="black" points="157,-162.5 73,-162.5 73,-117.5 157,-117.5 157,-162.5"/>
<text text-anchor="middle" x="115" y="-147.1" font-family="Helvetica,sans-Serif" font-size="8.00">node_id:103</text>
<text text-anchor="middle" x="115" y="-138.1" font-family="Helvetica,sans-Serif" font-size="8.00">name:RLIMIT_NOFILE</text>
<text text-anchor="middle" x="115" y="-129.1" font-family="Helvetica,sans-Serif" font-size="8.00">value:1024</text>
<text text-anchor="middle" x="115" y="-120.1" font-family="Helvetica,sans-Serif" font-size="8.00">type:1</text>
</g>
<!-- n80&#45;&gt;n105 -->
<g id="edge17" class="edge"><title>n80&#45;&gt;n105</title>
<path fill="none" stroke="blue" d="M344.093,-841.442C344.352,-729.427 343.028,-236.311 300,-185 268.083,-146.939 209.774,-138.126 167.328,-137.297"/>
<polygon fill="blue" stroke="blue" points="167.194,-133.796 157.176,-137.243 167.157,-140.796 167.194,-133.796"/>
<text text-anchor="middle" x="274" y="-196.6" font-family="Helvetica,sans-Serif" font-size="8.00">state:0</text>
<text text-anchor="middle" x="274" y="-187.6" font-family="Helvetica,sans-Serif" font-size="8.00">type:relatedTo</text>
</g>
<!-- n106 -->
<g id="node35" class="node"><title>n106</title>
<polygon fill="#cae1ff" stroke="black" points="157,-99.5 73,-99.5 73,-54.5 157,-54.5 157,-99.5"/>
<text text-anchor="middle" x="115" y="-84.1" font-family="Helvetica,sans-Serif" font-size="8.00">node_id:104</text>
<text text-anchor="middle" x="115" y="-75.1" font-family="Helvetica,sans-Serif" font-size="8.00">name:RLIMIT_NPROC</text>
<text text-anchor="middle" x="115" y="-66.1" font-family="Helvetica,sans-Serif" font-size="8.00">value:15711</text>
<text text-anchor="middle" x="115" y="-57.1" font-family="Helvetica,sans-Serif" font-size="8.00">type:1</text>
</g>
<!-- n80&#45;&gt;n106 -->
<g id="edge33" class="edge"><title>n80&#45;&gt;n106</title>
<path fill="none" stroke="blue" d="M344.231,-841.693C345.247,-723.901 347.367,-177.509 300,-121 268.13,-82.9791 209.813,-74.507 167.352,-73.9509"/>
<polygon fill="blue" stroke="blue" points="167.192,-70.451 157.196,-73.9626 167.2,-77.451 167.192,-70.451"/>
<text text-anchor="middle" x="274" y="-132.6" font-family="Helvetica,sans-Serif" font-size="8.00">state:0</text>
<text text-anchor="middle" x="274" y="-123.6" font-family="Helvetica,sans-Serif" font-size="8.00">type:relatedTo</text>
</g>
<!-- n3 -->
<g id="node37" class="node"><title>n3</title>
<ellipse fill="green" stroke="black" cx="115" cy="-18" rx="27" ry="18"/>
<text text-anchor="middle" x="115" y="-16.1" font-family="Helvetica,sans-Serif" font-size="8.00">Dummy Node</text>
</g>
<!-- n80&#45;&gt;n3 -->
<g id="edge11" class="edge"><title>n80&#45;&gt;n3</title>
<path fill="none" stroke="blue" d="M343.543,-841.667C340.846,-714.626 326.24,-87.6394 300,-57 263.873,-14.8154 194.529,-11.47 152.054,-13.9757"/>
<polygon fill="blue" stroke="blue" points="151.59,-10.5002 141.871,-14.7187 152.099,-17.4816 151.59,-10.5002"/>
<text text-anchor="middle" x="274" y="-68.6" font-family="Helvetica,sans-Serif" font-size="8.00">state:0</text>
<text text-anchor="middle" x="274" y="-59.6" font-family="Helvetica,sans-Serif" font-size="8.00">type:relatedTo</text>
</g>
<!-- n81 -->
<g id="node10" class="node"><title>n81</title>
<polygon fill="#cae1ff" stroke="black" points="514,-999.5 460,-999.5 460,-954.5 514,-954.5 514,-999.5"/>
<text text-anchor="middle" x="487" y="-984.1" font-family="Helvetica,sans-Serif" font-size="8.00">node_id:79</text>
<text text-anchor="middle" x="487" y="-975.1" font-family="Helvetica,sans-Serif" font-size="8.00">ref_count:1</text>
<text text-anchor="middle" x="487" y="-966.1" font-family="Helvetica,sans-Serif" font-size="8.00">name:omega</text>
<text text-anchor="middle" x="487" y="-957.1" font-family="Helvetica,sans-Serif" font-size="8.00">type:4</text>
</g>
<!-- n81&#45;&gt;n80 -->
<g id="edge6" class="edge"><title>n81&#45;&gt;n80</title>
<path fill="none" stroke="blue" d="M459.995,-956.01C437.545,-937.89 404.942,-911.574 380.348,-891.724"/>
<polygon fill="blue" stroke="blue" points="382.32,-888.818 372.341,-885.261 377.924,-894.265 382.32,-888.818"/>
<text text-anchor="middle" x="416" y="-952.6" font-family="Helvetica,sans-Serif" font-size="8.00">state:10</text>
<text text-anchor="middle" x="416" y="-943.6" font-family="Helvetica,sans-Serif" font-size="8.00">type:relatedTo</text>
</g>
<!-- n83 -->
<g id="node16" class="node"><title>n83</title>
<polygon fill="#cae1ff" stroke="black" points="993.5,-971 842.5,-971 842.5,-935 993.5,-935 993.5,-971"/>
<text text-anchor="middle" x="918" y="-955.6" font-family="Helvetica,sans-Serif" font-size="8.00">node_id:81</text>
<text text-anchor="middle" x="918" y="-946.6" font-family="Helvetica,sans-Serif" font-size="8.00">name:[&#39;/home/arthur/ProvMark/stage/test&#39;]</text>
<text text-anchor="middle" x="918" y="-937.6" font-family="Helvetica,sans-Serif" font-size="8.00">type:2</text>
</g>
<!-- n82 -->
<g id="node36" class="node"><title>n82</title>
<polygon fill="#cae1ff" stroke="black" points="753.5,-971 602.5,-971 602.5,-935 753.5,-935 753.5,-971"/>
<text text-anchor="middle" x="678" y="-955.6" font-family="Helvetica,sans-Serif" font-size="8.00">node_id:80</text>
<text text-anchor="middle" x="678" y="-946.6" font-family="Helvetica,sans-Serif" font-size="8.00">name:[&#39;/home/arthur/ProvMark/stage/test&#39;]</text>
<text text-anchor="middle" x="678" y="-937.6" font-family="Helvetica,sans-Serif" font-size="8.00">type:2</text>
</g>
<!-- n83&#45;&gt;n82 -->
<g id="edge18" class="edge"><title>n83&#45;&gt;n82</title>
<path fill="none" stroke="blue" d="M842.348,-953C817.436,-953 789.498,-953 763.868,-953"/>
<polygon fill="blue" stroke="blue" points="763.796,-949.5 753.796,-953 763.796,-956.5 763.796,-949.5"/>
<text text-anchor="middle" x="798" y="-964.6" font-family="Helvetica,sans-Serif" font-size="8.00">state:0</text>
<text text-anchor="middle" x="798" y="-955.6" font-family="Helvetica,sans-Serif" font-size="8.00">type:relatedTo</text>
</g>
<!-- n6 -->
<g id="node17" class="node"><title>n6</title>
<ellipse fill="green" stroke="black" cx="487" cy="-918" rx="27" ry="18"/>
<text text-anchor="middle" x="487" y="-916.1" font-family="Helvetica,sans-Serif" font-size="8.00">Dummy Node</text>
</g>
<!-- n114 -->
<g id="node20" class="node"><title>n114</title>
<polygon fill="#cae1ff" stroke="black" points="514,-882 460,-882 460,-846 514,-846 514,-882"/>
<text text-anchor="middle" x="487" y="-866.6" font-family="Helvetica,sans-Serif" font-size="8.00">node_id:112</text>
<text text-anchor="middle" x="487" y="-857.6" font-family="Helvetica,sans-Serif" font-size="8.00">name:0</text>
<text text-anchor="middle" x="487" y="-848.6" font-family="Helvetica,sans-Serif" font-size="8.00">type:4</text>
</g>
<!-- n114&#45;&gt;n80 -->
<g id="edge23" class="edge"><title>n114&#45;&gt;n80</title>
<path fill="none" stroke="blue" d="M459.995,-864C438.228,-864 406.917,-864 382.615,-864"/>
<polygon fill="blue" stroke="blue" points="382.341,-860.5 372.341,-864 382.341,-867.5 382.341,-860.5"/>
<text text-anchor="middle" x="416" y="-875.6" font-family="Helvetica,sans-Serif" font-size="8.00">state:0</text>
<text text-anchor="middle" x="416" y="-866.6" font-family="Helvetica,sans-Serif" font-size="8.00">type:relatedTo</text>
</g>
<!-- n84 -->
<g id="node22" class="node"><title>n84</title>
<polygon fill="#cae1ff" stroke="black" points="705,-1054.5 651,-1054.5 651,-1009.5 705,-1009.5 705,-1054.5"/>
<text text-anchor="middle" x="678" y="-1039.1" font-family="Helvetica,sans-Serif" font-size="8.00">node_id:82</text>
<text text-anchor="middle" x="678" y="-1030.1" font-family="Helvetica,sans-Serif" font-size="8.00">ref_count:0</text>
<text text-anchor="middle" x="678" y="-1021.1" font-family="Helvetica,sans-Serif" font-size="8.00">name:omega</text>
<text text-anchor="middle" x="678" y="-1012.1" font-family="Helvetica,sans-Serif" font-size="8.00">type:4</text>
</g>
<!-- n84&#45;&gt;n80 -->
<g id="edge1" class="edge"><title>n84&#45;&gt;n80</title>
<path fill="none" stroke="blue" d="M650.616,-1035.96C632.039,-1038.54 606.56,-1041.67 584,-1043 492.344,-1048.4 452,-1039.72 390,-972 370.469,-950.667 359.034,-919.511 352.741,-896.138"/>
<polygon fill="blue" stroke="blue" points="356.108,-895.176 350.276,-886.331 349.32,-896.882 356.108,-895.176"/>
<text text-anchor="middle" x="487" y="-1054.6" font-family="Helvetica,sans-Serif" font-size="8.00">state:5</text>
<text text-anchor="middle" x="487" y="-1045.6" font-family="Helvetica,sans-Serif" font-size="8.00">type:relatedTo</text>
</g>
<!-- n84&#45;&gt;n81 -->
<g id="edge31" class="edge"><title>n84&#45;&gt;n81</title>
<path fill="none" stroke="blue" d="M650.963,-1026.89C621.653,-1020.82 572.796,-1009.77 532,-996 529.265,-995.077 526.464,-994.055 523.664,-992.979"/>
<polygon fill="blue" stroke="blue" points="524.833,-989.676 514.25,-989.17 522.207,-996.165 524.833,-989.676"/>
<text text-anchor="middle" x="558" y="-1023.6" font-family="Helvetica,sans-Serif" font-size="8.00">state:0</text>
<text text-anchor="middle" x="558" y="-1014.6" font-family="Helvetica,sans-Serif" font-size="8.00">type:relatedTo</text>
</g>
<!-- n113 -->
<g id="node30" class="node"><title>n113</title>
<polygon fill="#cae1ff" stroke="black" points="514,-828 460,-828 460,-792 514,-792 514,-828"/>
<text text-anchor="middle" x="487" y="-812.6" font-family="Helvetica,sans-Serif" font-size="8.00">node_id:111</text>
<text text-anchor="middle" x="487" y="-803.6" font-family="Helvetica,sans-Serif" font-size="8.00">name:1</text>
<text text-anchor="middle" x="487" y="-794.6" font-family="Helvetica,sans-Serif" font-size="8.00">type:4</text>
</g>
<!-- n113&#45;&gt;n80 -->
<g id="edge5" class="edge"><title>n113&#45;&gt;n80</title>
<path fill="none" stroke="blue" d="M459.867,-813.519C440.053,-816.829 412.489,-822.836 390,-833 386.839,-834.429 383.669,-836.095 380.56,-837.9"/>
<polygon fill="blue" stroke="blue" points="378.618,-834.986 372.015,-843.271 382.344,-840.913 378.618,-834.986"/>
<text text-anchor="middle" x="416" y="-844.6" font-family="Helvetica,sans-Serif" font-size="8.00">state:0</text>
<text text-anchor="middle" x="416" y="-835.6" font-family="Helvetica,sans-Serif" font-size="8.00">type:relatedTo</text>
</g>
<!-- n112 -->
<g id="node32" class="node"><title>n112</title>
<polygon fill="#cae1ff" stroke="black" points="514,-774 460,-774 460,-738 514,-738 514,-774"/>
<text text-anchor="middle" x="487" y="-758.6" font-family="Helvetica,sans-Serif" font-size="8.00">node_id:110</text>
<text text-anchor="middle" x="487" y="-749.6" font-family="Helvetica,sans-Serif" font-size="8.00">name:2</text>
<text text-anchor="middle" x="487" y="-740.6" font-family="Helvetica,sans-Serif" font-size="8.00">type:4</text>
</g>
<!-- n112&#45;&gt;n80 -->
<g id="edge24" class="edge"><title>n112&#45;&gt;n80</title>
<path fill="none" stroke="blue" d="M459.903,-759.173C439.064,-762.853 410.123,-770.661 390,-787 375.548,-798.734 364.933,-816.56 357.754,-832.106"/>
<polygon fill="blue" stroke="blue" points="354.484,-830.848 353.724,-841.416 360.908,-833.629 354.484,-830.848"/>
<text text-anchor="middle" x="416" y="-798.6" font-family="Helvetica,sans-Serif" font-size="8.00">state:0</text>
<text text-anchor="middle" x="416" y="-789.6" font-family="Helvetica,sans-Serif" font-size="8.00">type:relatedTo</text>
</g>
<!-- n82&#45;&gt;n81 -->
<g id="edge34" class="edge"><title>n82&#45;&gt;n81</title>
<path fill="none" stroke="blue" d="M602.362,-960.225C579.72,-962.689 554.806,-965.673 532,-969 529.354,-969.386 526.624,-969.813 523.88,-970.263"/>
<polygon fill="blue" stroke="blue" points="523.271,-966.816 514.009,-971.96 524.457,-973.715 523.271,-966.816"/>
<text text-anchor="middle" x="558" y="-980.6" font-family="Helvetica,sans-Serif" font-size="8.00">state:7</text>
<text text-anchor="middle" x="558" y="-971.6" font-family="Helvetica,sans-Serif" font-size="8.00">type:relatedTo</text>
</g>
<!-- n82&#45;&gt;n6 -->
<g id="edge29" class="edge"><title>n82&#45;&gt;n6</title>
<path fill="none" stroke="blue" d="M602.487,-935.642C596.245,-934.35 590.022,-933.117 584,-932 564.204,-928.327 541.963,-925.032 523.878,-922.562"/>
<polygon fill="blue" stroke="blue" points="524.135,-919.066 513.759,-921.207 523.206,-926.004 524.135,-919.066"/>
<text text-anchor="middle" x="558" y="-943.6" font-family="Helvetica,sans-Serif" font-size="8.00">state:0</text>
<text text-anchor="middle" x="558" y="-934.6" font-family="Helvetica,sans-Serif" font-size="8.00">type:relatedTo</text>
</g>
</g>
</svg>
