<?xml version="1.0" encoding="UTF-8" standalone="no"?>
<!DOCTYPE svg PUBLIC "-//W3C//DTD SVG 1.1//EN"
 "http://www.w3.org/Graphics/SVG/1.1/DTD/svg11.dtd">
<!-- Generated by graphviz version 2.36.0 (20140111.2315)
 -->
<!-- Title: clingo2dot Pages: 1 -->
<svg width="600pt" height="191pt"
 viewBox="0.00 0.00 600.00 191.00" xmlns="http://www.w3.org/2000/svg" xmlns:xlink="http://www.w3.org/1999/xlink">
<g id="graph0" class="graph" transform="scale(1 1) rotate(0) translate(4 187)">
<title>clingo2dot</title>
<polygon fill="white" stroke="none" points="-4,4 -4,-187 596,-187 596,4 -4,4"/>
<!-- n19 -->
<g id="node1" class="node"><title>n19</title>
<ellipse fill="green" stroke="black" cx="27" cy="-106" rx="27" ry="18"/>
<text text-anchor="middle" x="27" y="-104.1" font-family="Helvetica,sans-Serif" font-size="8.00">Dummy Node</text>
</g>
<!-- n21 -->
<g id="node2" class="node"><title>n21</title>
<ellipse fill="#fff68f" stroke="black" cx="278" cy="-50" rx="105.218" ry="50.8235"/>
<text text-anchor="middle" x="278" y="-70.6" font-family="Helvetica,sans-Serif" font-size="8.00">permissions:0600</text>
<text text-anchor="middle" x="278" y="-61.6" font-family="Helvetica,sans-Serif" font-size="8.00">subtype:file</text>
<text text-anchor="middle" x="278" y="-52.6" font-family="Helvetica,sans-Serif" font-size="8.00">epoch:0</text>
<text text-anchor="middle" x="278" y="-43.6" font-family="Helvetica,sans-Serif" font-size="8.00">path:/home/arthur/ProvMark/stage/test.txt</text>
<text text-anchor="middle" x="278" y="-34.6" font-family="Helvetica,sans-Serif" font-size="8.00">version:0</text>
<text text-anchor="middle" x="278" y="-25.6" font-family="Helvetica,sans-Serif" font-size="8.00">source:syscall</text>
<text text-anchor="middle" x="278" y="-16.6" font-family="Helvetica,sans-Serif" font-size="8.00">type:Artifact</text>
</g>
<!-- n21&#45;&gt;n19 -->
<g id="edge1" class="edge"><title>n21&#45;&gt;n19</title>
<path fill="none" stroke="blue" d="M173.234,-55.4263C140.149,-59.4488 103.873,-66.3209 72,-78 65.8629,-80.2488 59.6882,-83.4558 53.9853,-86.9017"/>
<polygon fill="blue" stroke="blue" points="51.9735,-84.0347 45.4848,-92.4101 55.7803,-89.9091 51.9735,-84.0347"/>
<text text-anchor="middle" x="113" y="-107.6" font-family="Helvetica,sans-Serif" font-size="8.00">operation:open</text>
<text text-anchor="middle" x="113" y="-98.6" font-family="Helvetica,sans-Serif" font-size="8.00">flags:O_RDWR</text>
<text text-anchor="middle" x="113" y="-89.6" font-family="Helvetica,sans-Serif" font-size="8.00">source:syscall</text>
<text text-anchor="middle" x="113" y="-80.6" font-family="Helvetica,sans-Serif" font-size="8.00">type:WasGeneratedBy</text>
</g>
<!-- n22 -->
<g id="node3" class="node"><title>n22</title>
<ellipse fill="#fff68f" stroke="black" cx="547" cy="-102" rx="44.5955" ry="25.4118"/>
<text text-anchor="middle" x="547" y="-104.6" font-family="Helvetica,sans-Serif" font-size="8.00">permissions:0644</text>
<text text-anchor="middle" x="547" y="-95.6" font-family="Helvetica,sans-Serif" font-size="8.00">version:1</text>
<text text-anchor="middle" x="547" y="-86.6" font-family="Helvetica,sans-Serif" font-size="8.00">type:Artifact</text>
</g>
<!-- n22&#45;&gt;n19 -->
<g id="edge2" class="edge"><title>n22&#45;&gt;n19</title>
<path fill="none" stroke="blue" d="M510.117,-116.357C501.684,-119.111 492.634,-121.577 484,-123 303.325,-152.768 252.008,-156.565 72,-123 67.7433,-122.206 63.368,-121.015 59.1046,-119.625"/>
<polygon fill="blue" stroke="blue" points="60.0622,-116.249 49.4683,-116.112 57.6647,-122.825 60.0622,-116.249"/>
<text text-anchor="middle" x="278" y="-167.6" font-family="Helvetica,sans-Serif" font-size="8.00">mode:0644</text>
<text text-anchor="middle" x="278" y="-158.6" font-family="Helvetica,sans-Serif" font-size="8.00">operation:chmod</text>
<text text-anchor="middle" x="278" y="-149.6" font-family="Helvetica,sans-Serif" font-size="8.00">type:WasGeneratedBy</text>
</g>
<!-- n22&#45;&gt;n21 -->
<g id="edge3" class="edge"><title>n22&#45;&gt;n21</title>
<path fill="none" stroke="blue" d="M506.056,-91.9708C498.737,-90.2371 491.152,-88.5091 484,-87 452.868,-80.4305 418.922,-74.0065 387.773,-68.4038"/>
<polygon fill="blue" stroke="blue" points="388.226,-64.9293 377.766,-66.6145 386.993,-71.82 388.226,-64.9293"/>
<text text-anchor="middle" x="443" y="-107.6" font-family="Helvetica,sans-Serif" font-size="8.00">operation:update</text>
<text text-anchor="middle" x="443" y="-98.6" font-family="Helvetica,sans-Serif" font-size="8.00">source:syscall</text>
<text text-anchor="middle" x="443" y="-89.6" font-family="Helvetica,sans-Serif" font-size="8.00">type:WasDerivedFrom</text>
</g>
</g>
</svg>
