<?xml version="1.0" encoding="UTF-8" standalone="no"?>
<!DOCTYPE svg PUBLIC "-//W3C//DTD SVG 1.1//EN"
 "http://www.w3.org/Graphics/SVG/1.1/DTD/svg11.dtd">
<!-- Generated by graphviz version 2.36.0 (20140111.2315)
 -->
<!-- Title: clingo2dot Pages: 1 -->
<svg width="348pt" height="142pt"
 viewBox="0.00 0.00 348.00 142.00" xmlns="http://www.w3.org/2000/svg" xmlns:xlink="http://www.w3.org/1999/xlink">
<g id="graph0" class="graph" transform="scale(1 1) rotate(0) translate(4 138)">
<title>clingo2dot</title>
<polygon fill="white" stroke="none" points="-4,4 -4,-138 344,-138 344,4 -4,4"/>
<!-- n19 -->
<g id="node1" class="node"><title>n19</title>
<ellipse fill="green" stroke="black" cx="27" cy="-40" rx="27" ry="18"/>
<text text-anchor="middle" x="27" y="-38.1" font-family="Helvetica,sans-Serif" font-size="8.00">Dummy Node</text>
</g>
<!-- n21 -->
<g id="node2" class="node"><title>n21</title>
<polygon fill="#cae1ff" stroke="black" points="340,-80.5 168,-80.5 168,0.5 340,0.5 340,-80.5"/>
<text text-anchor="middle" x="254" y="-65.1" font-family="Helvetica,sans-Serif" font-size="8.00">source:syscall</text>
<text text-anchor="middle" x="254" y="-56.1" font-family="Helvetica,sans-Serif" font-size="8.00">gid:0</text>
<text text-anchor="middle" x="254" y="-47.1" font-family="Helvetica,sans-Serif" font-size="8.00">command line:/home/arthur/ProvMark/stage/test</text>
<text text-anchor="middle" x="254" y="-38.1" font-family="Helvetica,sans-Serif" font-size="8.00">uid:0</text>
<text text-anchor="middle" x="254" y="-29.1" font-family="Helvetica,sans-Serif" font-size="8.00">egid:0</text>
<text text-anchor="middle" x="254" y="-20.1" font-family="Helvetica,sans-Serif" font-size="8.00">name:test</text>
<text text-anchor="middle" x="254" y="-11.1" font-family="Helvetica,sans-Serif" font-size="8.00">euid:1000</text>
<text text-anchor="middle" x="254" y="-2.1" font-family="Helvetica,sans-Serif" font-size="8.00">type:Process</text>
</g>
<!-- n21&#45;&gt;n19 -->
<g id="edge1" class="edge"><title>n21&#45;&gt;n19</title>
<path fill="none" stroke="blue" d="M167.937,-40C132.074,-40 92.2492,-40 64.2842,-40"/>
<polygon fill="blue" stroke="blue" points="64.18,-36.5001 54.18,-40 64.18,-43.5001 64.18,-36.5001"/>
<text text-anchor="middle" x="111" y="-60.6" font-family="Helvetica,sans-Serif" font-size="8.00">source:syscall</text>
<text text-anchor="middle" x="111" y="-51.6" font-family="Helvetica,sans-Serif" font-size="8.00">operation:fork</text>
<text text-anchor="middle" x="111" y="-42.6" font-family="Helvetica,sans-Serif" font-size="8.00">type:WasTriggeredBy</text>
</g>
<!-- n21&#45;&gt;n21 -->
<g id="edge2" class="edge"><title>n21&#45;&gt;n21</title>
<path fill="none" stroke="blue" d="M280.259,-80.3868C278.423,-90.4662 269.67,-98 254,-98 243.717,-98 236.412,-94.7555 232.086,-89.6762"/>
<polygon fill="blue" stroke="blue" points="235.148,-87.9616 227.741,-80.3868 228.808,-90.9278 235.148,-87.9616"/>
<text text-anchor="middle" x="254" y="-118.6" font-family="Helvetica,sans-Serif" font-size="8.00">source:syscall</text>
<text text-anchor="middle" x="254" y="-109.6" font-family="Helvetica,sans-Serif" font-size="8.00">operation:exit</text>
<text text-anchor="middle" x="254" y="-100.6" font-family="Helvetica,sans-Serif" font-size="8.00">type:WasTriggeredBy</text>
</g>
</g>
</svg>
