<?xml version="1.0" encoding="UTF-8" standalone="no"?>
<!DOCTYPE svg PUBLIC "-//W3C//DTD SVG 1.1//EN"
 "http://www.w3.org/Graphics/SVG/1.1/DTD/svg11.dtd">
<!-- Generated by graphviz version 2.36.0 (20140111.2315)
 -->
<!-- Title: clingo2dot Pages: 1 -->
<svg width="740pt" height="388pt"
 viewBox="0.00 0.00 740.00 388.15" xmlns="http://www.w3.org/2000/svg" xmlns:xlink="http://www.w3.org/1999/xlink">
<g id="graph0" class="graph" transform="scale(1 1) rotate(0) translate(4 384.155)">
<title>clingo2dot</title>
<polygon fill="white" stroke="none" points="-4,4 -4,-384.155 736,-384.155 736,4 -4,4"/>
<!-- n29 -->
<g id="node1" class="node"><title>n29</title>
<ellipse fill="#fff68f" stroke="black" cx="446" cy="-162.155" rx="27" ry="18"/>
<text text-anchor="middle" x="446" y="-160.255" font-family="Helvetica,sans-Serif" font-size="8.00">type:Artifact</text>
</g>
<!-- n24 -->
<g id="node8" class="node"><title>n24</title>
<polygon fill="#cae1ff" stroke="black" points="222,-107.155 168,-107.155 168,-71.1547 222,-71.1547 222,-107.155"/>
<text text-anchor="middle" x="195" y="-87.2547" font-family="Helvetica,sans-Serif" font-size="8.00">type:Process</text>
</g>
<!-- n29&#45;&gt;n24 -->
<g id="edge14" class="edge"><title>n29&#45;&gt;n24</title>
<path fill="none" stroke="blue" d="M419.829,-166.603C379.239,-172.462 298.018,-178.656 240,-147.155 227.077,-140.138 216.813,-127.52 209.459,-115.841"/>
<polygon fill="blue" stroke="blue" points="212.476,-114.067 204.408,-107.201 206.434,-117.6 212.476,-114.067"/>
<text text-anchor="middle" x="281" y="-172.755" font-family="Helvetica,sans-Serif" font-size="8.00">type:WasGeneratedBy</text>
</g>
<!-- n29&#45;&gt;n24 -->
<g id="edge15" class="edge"><title>n29&#45;&gt;n24</title>
<path fill="none" stroke="blue" d="M419.971,-157.153C380.927,-149.026 303.425,-131.577 240,-109.155 237.256,-108.185 234.447,-107.11 231.643,-105.978"/>
<polygon fill="blue" stroke="blue" points="232.791,-102.663 222.219,-101.969 230.051,-109.104 232.791,-102.663"/>
<text text-anchor="middle" x="281" y="-135.755" font-family="Helvetica,sans-Serif" font-size="8.00">type:WasGeneratedBy</text>
</g>
<!-- n23 -->
<g id="node2" class="node"><title>n23</title>
<polygon fill="#cae1ff" stroke="black" points="54,-171.155 0,-171.155 0,-135.155 54,-135.155 54,-171.155"/>
<text text-anchor="middle" x="27" y="-151.255" font-family="Helvetica,sans-Serif" font-size="8.00">type:Process</text>
</g>
<!-- n30 -->
<g id="node3" class="node"><title>n30</title>
<ellipse fill="#fff68f" stroke="black" cx="446" cy="-102.155" rx="27" ry="18"/>
<text text-anchor="middle" x="446" y="-100.255" font-family="Helvetica,sans-Serif" font-size="8.00">type:Artifact</text>
</g>
<!-- n30&#45;&gt;n24 -->
<g id="edge8" class="edge"><title>n30&#45;&gt;n24</title>
<path fill="none" stroke="blue" d="M418.823,-100.788C374.176,-98.4571 283.214,-93.7081 232.402,-91.0552"/>
<polygon fill="blue" stroke="blue" points="232.369,-87.5488 222.2,-90.5226 232.004,-94.5393 232.369,-87.5488"/>
<text text-anchor="middle" x="281" y="-98.7547" font-family="Helvetica,sans-Serif" font-size="8.00">type:WasGeneratedBy</text>
</g>
<!-- n30&#45;&gt;n24 -->
<g id="edge12" class="edge"><title>n30&#45;&gt;n24</title>
<path fill="none" stroke="blue" d="M420.219,-96.1239C395.513,-90.4431 356.394,-82.3428 322,-79.1547 285.711,-75.791 276.217,-75.091 240,-79.1547 237.48,-79.4375 234.893,-79.8087 232.297,-80.2415"/>
<polygon fill="blue" stroke="blue" points="231.517,-76.8274 222.361,-82.1585 232.843,-83.7007 231.517,-76.8274"/>
<text text-anchor="middle" x="281" y="-81.7547" font-family="Helvetica,sans-Serif" font-size="8.00">type:WasGeneratedBy</text>
</g>
<!-- n25 -->
<g id="node4" class="node"><title>n25</title>
<ellipse fill="#fff68f" stroke="black" cx="27" cy="-94.1547" rx="27" ry="18"/>
<text text-anchor="middle" x="27" y="-92.2547" font-family="Helvetica,sans-Serif" font-size="8.00">type:Artifact</text>
</g>
<!-- n19 -->
<g id="node5" class="node"><title>n19</title>
<ellipse fill="green" stroke="black" cx="195" cy="-299.155" rx="27" ry="18"/>
<text text-anchor="middle" x="195" y="-297.255" font-family="Helvetica,sans-Serif" font-size="8.00">Dummy Node</text>
</g>
<!-- n27 -->
<g id="node6" class="node"><title>n27</title>
<ellipse fill="#fff68f" stroke="black" cx="27" cy="-35.1547" rx="27" ry="18"/>
<text text-anchor="middle" x="27" y="-33.2547" font-family="Helvetica,sans-Serif" font-size="8.00">type:Artifact</text>
</g>
<!-- n26 -->
<g id="node7" class="node"><title>n26</title>
<ellipse fill="#fff68f" stroke="black" cx="446" cy="-46.1547" rx="27" ry="18"/>
<text text-anchor="middle" x="446" y="-44.2547" font-family="Helvetica,sans-Serif" font-size="8.00">type:Artifact</text>
</g>
<!-- n26&#45;&gt;n24 -->
<g id="edge4" class="edge"><title>n26&#45;&gt;n24</title>
<path fill="none" stroke="blue" d="M418.749,-44.9384C379.077,-43.8764 301.908,-44.8594 240,-64.1547 237.075,-65.0665 234.13,-66.1938 231.225,-67.461"/>
<polygon fill="blue" stroke="blue" points="229.605,-64.3572 222.157,-71.8922 232.678,-70.6465 229.605,-64.3572"/>
<text text-anchor="middle" x="281" y="-66.7547" font-family="Helvetica,sans-Serif" font-size="8.00">type:WasGeneratedBy</text>
</g>
<!-- n24&#45;&gt;n23 -->
<g id="edge1" class="edge"><title>n24&#45;&gt;n23</title>
<path fill="none" stroke="blue" d="M167.933,-105.138C162.143,-108.355 155.955,-111.545 150,-114.155 121.897,-126.471 88.644,-136.841 63.9582,-143.785"/>
<polygon fill="blue" stroke="blue" points="62.9872,-140.422 54.2784,-146.456 64.8492,-147.169 62.9872,-140.422"/>
<text text-anchor="middle" x="111" y="-144.755" font-family="Helvetica,sans-Serif" font-size="8.00">type:WasTriggeredBy</text>
</g>
<!-- n24&#45;&gt;n25 -->
<g id="edge2" class="edge"><title>n24&#45;&gt;n25</title>
<path fill="none" stroke="blue" d="M167.639,-96.151C161.868,-97.4001 155.761,-98.5084 150,-99.1547 121.19,-102.387 88.3433,-100.739 63.9956,-98.5024"/>
<polygon fill="blue" stroke="blue" points="64.0834,-94.9939 53.7855,-97.4847 63.389,-101.959 64.0834,-94.9939"/>
<text text-anchor="middle" x="111" y="-103.755" font-family="Helvetica,sans-Serif" font-size="8.00">type:Used</text>
</g>
<!-- n24&#45;&gt;n25 -->
<g id="edge3" class="edge"><title>n24&#45;&gt;n25</title>
<path fill="none" stroke="blue" d="M167.804,-88.746C143.086,-88.508 105.002,-88.5222 72,-90.1547 69.4527,-90.2808 66.8249,-90.4415 64.1803,-90.6259"/>
<polygon fill="blue" stroke="blue" points="63.7254,-87.1509 54.0332,-91.4302 64.2786,-94.129 63.7254,-87.1509"/>
<text text-anchor="middle" x="111" y="-92.7547" font-family="Helvetica,sans-Serif" font-size="8.00">type:Used</text>
</g>
<!-- n24&#45;&gt;n27 -->
<g id="edge7" class="edge"><title>n24&#45;&gt;n27</title>
<path fill="none" stroke="blue" d="M167.697,-80.5983C138.824,-71.206 92.4181,-56.11 61.0948,-45.9205"/>
<polygon fill="blue" stroke="blue" points="62.0884,-42.5633 51.4962,-42.7981 59.9229,-49.2199 62.0884,-42.5633"/>
<text text-anchor="middle" x="111" y="-77.7547" font-family="Helvetica,sans-Serif" font-size="8.00">type:Used</text>
</g>
<!-- n24&#45;&gt;n27 -->
<g id="edge11" class="edge"><title>n24&#45;&gt;n27</title>
<path fill="none" stroke="blue" d="M184.138,-70.9085C176.55,-58.9186 164.855,-44.193 150,-37.1547 122.911,-24.3202 88.4942,-25.0632 63.1268,-28.2951"/>
<polygon fill="blue" stroke="blue" points="62.5895,-24.8363 53.1997,-29.7437 63.6003,-31.763 62.5895,-24.8363"/>
<text text-anchor="middle" x="111" y="-39.7547" font-family="Helvetica,sans-Serif" font-size="8.00">type:Used</text>
</g>
<!-- n21 -->
<g id="node9" class="node"><title>n21</title>
<ellipse fill="#fff68f" stroke="black" cx="446" cy="-249.155" rx="105.218" ry="50.8235"/>
<text text-anchor="middle" x="446" y="-269.755" font-family="Helvetica,sans-Serif" font-size="8.00">permissions:0644</text>
<text text-anchor="middle" x="446" y="-260.755" font-family="Helvetica,sans-Serif" font-size="8.00">version:0</text>
<text text-anchor="middle" x="446" y="-251.755" font-family="Helvetica,sans-Serif" font-size="8.00">subtype:file</text>
<text text-anchor="middle" x="446" y="-242.755" font-family="Helvetica,sans-Serif" font-size="8.00">epoch:0</text>
<text text-anchor="middle" x="446" y="-233.755" font-family="Helvetica,sans-Serif" font-size="8.00">path:/home/arthur/ProvMark/stage/test.txt</text>
<text text-anchor="middle" x="446" y="-224.755" font-family="Helvetica,sans-Serif" font-size="8.00">source:syscall</text>
<text text-anchor="middle" x="446" y="-215.755" font-family="Helvetica,sans-Serif" font-size="8.00">type:Artifact</text>
</g>
<!-- n21&#45;&gt;n19 -->
<g id="edge9" class="edge"><title>n21&#45;&gt;n19</title>
<path fill="none" stroke="blue" d="M341.639,-256.593C308.662,-260.729 272.346,-267.16 240,-277.155 235.028,-278.691 229.929,-280.743 225.047,-282.977"/>
<polygon fill="blue" stroke="blue" points="223.448,-279.863 216.013,-287.412 226.532,-286.147 223.448,-279.863"/>
<text text-anchor="middle" x="281" y="-306.755" font-family="Helvetica,sans-Serif" font-size="8.00">operation:open</text>
<text text-anchor="middle" x="281" y="-297.755" font-family="Helvetica,sans-Serif" font-size="8.00">flags:O_RDWR</text>
<text text-anchor="middle" x="281" y="-288.755" font-family="Helvetica,sans-Serif" font-size="8.00">source:syscall</text>
<text text-anchor="middle" x="281" y="-279.755" font-family="Helvetica,sans-Serif" font-size="8.00">type:WasGeneratedBy</text>
</g>
<!-- n28 -->
<g id="node10" class="node"><title>n28</title>
<ellipse fill="#fff68f" stroke="black" cx="701" cy="-21.1547" rx="27" ry="18"/>
<text text-anchor="middle" x="701" y="-19.2547" font-family="Helvetica,sans-Serif" font-size="8.00">type:Artifact</text>
</g>
<!-- n28&#45;&gt;n26 -->
<g id="edge13" class="edge"><title>n28&#45;&gt;n26</title>
<path fill="none" stroke="blue" d="M673.877,-23.736C628.403,-28.2295 534.63,-37.4957 483.018,-42.5957"/>
<polygon fill="blue" stroke="blue" points="482.588,-39.121 472.98,-43.5875 483.276,-46.0871 482.588,-39.121"/>
<text text-anchor="middle" x="611" y="-36.7547" font-family="Helvetica,sans-Serif" font-size="8.00">type:WasDerivedFrom</text>
</g>
<!-- n28&#45;&gt;n24 -->
<g id="edge5" class="edge"><title>n28&#45;&gt;n24</title>
<path fill="none" stroke="blue" d="M674.447,-16.9338C615.171,-7.88778 463.907,10.9027 340,-10.1547 293.578,-18.044 279.87,-20.1009 240,-45.1547 232.111,-50.1123 224.543,-56.7238 217.976,-63.312"/>
<polygon fill="blue" stroke="blue" points="215.095,-61.2645 210.766,-70.9349 220.181,-66.0744 215.095,-61.2645"/>
<text text-anchor="middle" x="446" y="-12.7547" font-family="Helvetica,sans-Serif" font-size="8.00">type:WasGeneratedBy</text>
</g>
<!-- n22 -->
<g id="node11" class="node"><title>n22</title>
<ellipse fill="#fff68f" stroke="black" cx="701" cy="-301.155" rx="30.3115" ry="19.1842"/>
<text text-anchor="middle" x="701" y="-299.255" font-family="Helvetica,sans-Serif" font-size="8.00">version:1</text>
<text text-anchor="middle" x="701" y="-290.255" font-family="Helvetica,sans-Serif" font-size="8.00">type:Artifact</text>
</g>
<!-- n22&#45;&gt;n19 -->
<g id="edge10" class="edge"><title>n22&#45;&gt;n19</title>
<path fill="none" stroke="blue" d="M677.204,-313.415C669.434,-316.967 660.547,-320.367 652,-322.155 472.768,-359.646 417.827,-365.829 240,-322.155 234.559,-320.818 229.044,-318.678 223.844,-316.228"/>
<polygon fill="blue" stroke="blue" points="225.396,-313.09 214.908,-311.59 222.171,-319.303 225.396,-313.09"/>
<text text-anchor="middle" x="446" y="-364.755" font-family="Helvetica,sans-Serif" font-size="8.00">operation:truncate</text>
<text text-anchor="middle" x="446" y="-355.755" font-family="Helvetica,sans-Serif" font-size="8.00">type:WasGeneratedBy</text>
</g>
<!-- n22&#45;&gt;n21 -->
<g id="edge6" class="edge"><title>n22&#45;&gt;n21</title>
<path fill="none" stroke="blue" d="M674.008,-292.386C666.92,-290.172 659.207,-287.924 652,-286.155 621.258,-278.608 587.574,-271.897 556.553,-266.332"/>
<polygon fill="blue" stroke="blue" points="557.039,-262.863 546.581,-264.565 555.818,-269.756 557.039,-262.863"/>
<text text-anchor="middle" x="611" y="-306.755" font-family="Helvetica,sans-Serif" font-size="8.00">operation:update</text>
<text text-anchor="middle" x="611" y="-297.755" font-family="Helvetica,sans-Serif" font-size="8.00">source:syscall</text>
<text text-anchor="middle" x="611" y="-288.755" font-family="Helvetica,sans-Serif" font-size="8.00">type:WasDerivedFrom</text>
</g>
</g>
</svg>
