<?xml version="1.0" encoding="UTF-8" standalone="no"?>
<!DOCTYPE svg PUBLIC "-//W3C//DTD SVG 1.1//EN"
 "http://www.w3.org/Graphics/SVG/1.1/DTD/svg11.dtd">
<!-- Generated by graphviz version 2.30.1 (20150305.2338)
 -->
<!-- Title: spade2dot Pages: 1 -->
<svg width="564pt" height="159pt"
 viewBox="0.00 0.00 564.00 159.00" xmlns="http://www.w3.org/2000/svg" xmlns:xlink="http://www.w3.org/1999/xlink">
<g id="graph0" class="graph" transform="scale(1 1) rotate(0) translate(4 155)">
<title>spade2dot</title>
<polygon fill="white" stroke="white" points="-4,5 -4,-155 561,-155 561,5 -4,5"/>
<!-- 9f0ea030f12ce25280a6c86fa6be1d88 -->
<g id="node1" class="node"><title>9f0ea030f12ce25280a6c86fa6be1d88</title>
<ellipse fill="green" stroke="black" cx="27" cy="-99" rx="27" ry="18"/>
<text text-anchor="middle" x="27" y="-97.1" font-family="Helvetica,sans-Serif" font-size="8.00">Dummy Node</text>
</g>
<!-- bddca2e749fa44f9596388877c3fc7bd -->
<g id="node2" class="node"><title>bddca2e749fa44f9596388877c3fc7bd</title>
<ellipse fill="#fff68f" stroke="black" cx="278" cy="-44" rx="105.218" ry="44.5955"/>
<text text-anchor="middle" x="278" y="-69.1" font-family="Helvetica,sans-Serif" font-size="8.00">permissions:0644</text>
<text text-anchor="middle" x="278" y="-60.1" font-family="Helvetica,sans-Serif" font-size="8.00">version:0</text>
<text text-anchor="middle" x="278" y="-51.1" font-family="Helvetica,sans-Serif" font-size="8.00">subtype:file</text>
<text text-anchor="middle" x="278" y="-42.1" font-family="Helvetica,sans-Serif" font-size="8.00">epoch:0</text>
<text text-anchor="middle" x="278" y="-33.1" font-family="Helvetica,sans-Serif" font-size="8.00">path:/home/arthur/ProvMark/stage/test.txt</text>
<text text-anchor="middle" x="278" y="-24.1" font-family="Helvetica,sans-Serif" font-size="8.00">source:syscall</text>
<text text-anchor="middle" x="278" y="-15.1" font-family="Helvetica,sans-Serif" font-size="8.00">type:Artifact</text>
</g>
<!-- bddca2e749fa44f9596388877c3fc7bd&#45;&gt;9f0ea030f12ce25280a6c86fa6be1d88 -->
<g id="edge1" class="edge"><title>bddca2e749fa44f9596388877c3fc7bd&#45;&gt;9f0ea030f12ce25280a6c86fa6be1d88</title>
<path fill="none" stroke="blue" d="M174.456,-52.3802C141.187,-56.9715 104.493,-64.0617 72,-75 66.6397,-76.8044 61.1648,-79.2398 55.9791,-81.8694"/>
<polygon fill="blue" stroke="blue" points="54.1642,-78.8721 47.0443,-86.718 57.503,-85.0245 54.1642,-78.8721"/>
<text text-anchor="middle" x="113" y="-104.6" font-family="Helvetica,sans-Serif" font-size="8.00">(source:syscall</text>
<text text-anchor="middle" x="113" y="-95.6" font-family="Helvetica,sans-Serif" font-size="8.00">type:WasGeneratedBy</text>
<text text-anchor="middle" x="113" y="-86.6" font-family="Helvetica,sans-Serif" font-size="8.00">operation:open</text>
<text text-anchor="middle" x="113" y="-77.6" font-family="Helvetica,sans-Serif" font-size="8.00">flags:O_RDWR)</text>
</g>
<!-- 143bed450a912ab5f15eca32d142443c -->
<g id="node3" class="node"><title>143bed450a912ab5f15eca32d142443c</title>
<ellipse fill="#fff68f" stroke="black" cx="529" cy="-94" rx="27" ry="18"/>
<text text-anchor="middle" x="529" y="-96.6" font-family="Helvetica,sans-Serif" font-size="8.00">version:1</text>
<text text-anchor="middle" x="529" y="-87.6" font-family="Helvetica,sans-Serif" font-size="8.00">type:Artifact</text>
</g>
<!-- 143bed450a912ab5f15eca32d142443c&#45;&gt;9f0ea030f12ce25280a6c86fa6be1d88 -->
<g id="edge2" class="edge"><title>143bed450a912ab5f15eca32d142443c&#45;&gt;9f0ea030f12ce25280a6c86fa6be1d88</title>
<path fill="none" stroke="blue" d="M506.532,-104.112C499.51,-106.922 491.567,-109.589 484,-111 303.992,-144.565 253.491,-135.305 72,-111 68.52,-110.534 64.9254,-109.869 61.3603,-109.089"/>
<polygon fill="blue" stroke="blue" points="62.0588,-105.656 51.5108,-106.651 60.3772,-112.451 62.0588,-105.656"/>
<text text-anchor="middle" x="278" y="-144.6" font-family="Helvetica,sans-Serif" font-size="8.00">(type:WasGeneratedBy</text>
<text text-anchor="middle" x="278" y="-135.6" font-family="Helvetica,sans-Serif" font-size="8.00">operation:truncate)</text>
</g>
<!-- 143bed450a912ab5f15eca32d142443c&#45;&gt;bddca2e749fa44f9596388877c3fc7bd -->
<g id="edge3" class="edge"><title>143bed450a912ab5f15eca32d142443c&#45;&gt;bddca2e749fa44f9596388877c3fc7bd</title>
<path fill="none" stroke="blue" d="M503.362,-88.2599C497.058,-86.83 490.285,-85.3271 484,-84 451.606,-77.1601 416.242,-70.111 384.147,-63.872"/>
<polygon fill="blue" stroke="blue" points="384.782,-60.43 374.299,-61.9629 383.45,-67.3021 384.782,-60.43"/>
<text text-anchor="middle" x="443" y="-104.6" font-family="Helvetica,sans-Serif" font-size="8.00">(source:syscall</text>
<text text-anchor="middle" x="443" y="-95.6" font-family="Helvetica,sans-Serif" font-size="8.00">type:WasDerivedFrom</text>
<text text-anchor="middle" x="443" y="-86.6" font-family="Helvetica,sans-Serif" font-size="8.00">operation:update)</text>
</g>
</g>
</svg>
