<?xml version="1.0" encoding="UTF-8" standalone="no"?>
<!DOCTYPE svg PUBLIC "-//W3C//DTD SVG 1.1//EN"
 "http://www.w3.org/Graphics/SVG/1.1/DTD/svg11.dtd">
<!-- Generated by graphviz version 2.36.0 (20140111.2315)
 -->
<!-- Title: clingo2dot Pages: 1 -->
<svg width="364pt" height="106pt"
 viewBox="0.00 0.00 364.00 106.00" xmlns="http://www.w3.org/2000/svg" xmlns:xlink="http://www.w3.org/1999/xlink">
<g id="graph0" class="graph" transform="scale(1 1) rotate(0) translate(4 102)">
<title>clingo2dot</title>
<polygon fill="white" stroke="none" points="-4,4 -4,-102 360,-102 360,4 -4,4"/>
<!-- n2 -->
<g id="node1" class="node"><title>n2</title>
<ellipse fill="green" stroke="black" cx="329" cy="-44" rx="27" ry="18"/>
<text text-anchor="middle" x="329" y="-42.1" font-family="Helvetica,sans-Serif" font-size="8.00">Dummy Node</text>
</g>
<!-- n1 -->
<g id="node2" class="node"><title>n1</title>
<ellipse fill="#fff68f" stroke="black" cx="106" cy="-44" rx="105.218" ry="44.5955"/>
<text text-anchor="middle" x="106" y="-60.1" font-family="Helvetica,sans-Serif" font-size="8.00">version:0</text>
<text text-anchor="middle" x="106" y="-51.1" font-family="Helvetica,sans-Serif" font-size="8.00">path:/home/arthur/ProvMark/stage/test.txt</text>
<text text-anchor="middle" x="106" y="-42.1" font-family="Helvetica,sans-Serif" font-size="8.00">subtype:file</text>
<text text-anchor="middle" x="106" y="-33.1" font-family="Helvetica,sans-Serif" font-size="8.00">epoch:0</text>
<text text-anchor="middle" x="106" y="-24.1" font-family="Helvetica,sans-Serif" font-size="8.00">source:syscall</text>
<text text-anchor="middle" x="106" y="-15.1" font-family="Helvetica,sans-Serif" font-size="8.00">type:Artifact</text>
</g>
<!-- n2&#45;&gt;n1 -->
<g id="edge1" class="edge"><title>n2&#45;&gt;n1</title>
<path fill="none" stroke="blue" d="M301.781,-44C281.441,-44 251.722,-44 221.596,-44"/>
<polygon fill="blue" stroke="blue" points="221.377,-40.5001 211.377,-44 221.377,-47.5001 221.377,-40.5001"/>
<text text-anchor="middle" x="257" y="-82.6" font-family="Helvetica,sans-Serif" font-size="8.00">source:syscall</text>
<text text-anchor="middle" x="257" y="-73.6" font-family="Helvetica,sans-Serif" font-size="8.00">operation:read</text>
<text text-anchor="middle" x="257" y="-64.6" font-family="Helvetica,sans-Serif" font-size="8.00">size:1</text>
<text text-anchor="middle" x="257" y="-55.6" font-family="Helvetica,sans-Serif" font-size="8.00">offset:1</text>
<text text-anchor="middle" x="257" y="-46.6" font-family="Helvetica,sans-Serif" font-size="8.00">type:Used</text>
</g>
</g>
</svg>
