<?xml version="1.0" encoding="UTF-8" standalone="no"?>
<!DOCTYPE svg PUBLIC "-//W3C//DTD SVG 1.1//EN"
 "http://www.w3.org/Graphics/SVG/1.1/DTD/svg11.dtd">
<!-- Generated by graphviz version 2.36.0 (20140111.2315)
 -->
<!-- Title: clingo2dot Pages: 1 -->
<svg width="810pt" height="111pt"
 viewBox="0.00 0.00 810.00 111.00" xmlns="http://www.w3.org/2000/svg" xmlns:xlink="http://www.w3.org/1999/xlink">
<g id="graph0" class="graph" transform="scale(1 1) rotate(0) translate(4 107)">
<title>clingo2dot</title>
<polygon fill="white" stroke="none" points="-4,4 -4,-107 806,-107 806,4 -4,4"/>
<!-- n21 -->
<g id="node1" class="node"><title>n21</title>
<ellipse fill="#fff68f" stroke="black" cx="106" cy="-50" rx="105.218" ry="50.8235"/>
<text text-anchor="middle" x="106" y="-70.6" font-family="Helvetica,sans-Serif" font-size="8.00">path:/home/arthur/ProvMark/stage/test.txt</text>
<text text-anchor="middle" x="106" y="-61.6" font-family="Helvetica,sans-Serif" font-size="8.00">subtype:file</text>
<text text-anchor="middle" x="106" y="-52.6" font-family="Helvetica,sans-Serif" font-size="8.00">version:0</text>
<text text-anchor="middle" x="106" y="-43.6" font-family="Helvetica,sans-Serif" font-size="8.00">permissions:0644</text>
<text text-anchor="middle" x="106" y="-34.6" font-family="Helvetica,sans-Serif" font-size="8.00">epoch:0</text>
<text text-anchor="middle" x="106" y="-25.6" font-family="Helvetica,sans-Serif" font-size="8.00">source:syscall</text>
<text text-anchor="middle" x="106" y="-16.6" font-family="Helvetica,sans-Serif" font-size="8.00">type:Artifact</text>
</g>
<!-- n22 -->
<g id="node2" class="node"><title>n22</title>
<ellipse fill="#fff68f" stroke="black" cx="674" cy="-51" rx="127.059" ry="50.8235"/>
<text text-anchor="middle" x="674" y="-71.6" font-family="Helvetica,sans-Serif" font-size="8.00">path:/home/arthur/ProvMark/stage/rename&#45;test.txt</text>
<text text-anchor="middle" x="674" y="-62.6" font-family="Helvetica,sans-Serif" font-size="8.00">subtype:file</text>
<text text-anchor="middle" x="674" y="-53.6" font-family="Helvetica,sans-Serif" font-size="8.00">version:0</text>
<text text-anchor="middle" x="674" y="-44.6" font-family="Helvetica,sans-Serif" font-size="8.00">permissions:0644</text>
<text text-anchor="middle" x="674" y="-35.6" font-family="Helvetica,sans-Serif" font-size="8.00">epoch:0</text>
<text text-anchor="middle" x="674" y="-26.6" font-family="Helvetica,sans-Serif" font-size="8.00">source:syscall</text>
<text text-anchor="middle" x="674" y="-17.6" font-family="Helvetica,sans-Serif" font-size="8.00">type:Artifact</text>
</g>
<!-- n22&#45;&gt;n21 -->
<g id="edge2" class="edge"><title>n22&#45;&gt;n21</title>
<path fill="none" stroke="blue" d="M549.641,-61.9061C542.322,-62.3365 535.067,-62.7081 528,-63 395.668,-68.4664 362.261,-69.97 230,-63 226.298,-62.8049 222.535,-62.577 218.738,-62.3215"/>
<polygon fill="blue" stroke="blue" points="218.848,-58.8204 208.62,-61.5848 218.34,-65.8019 218.848,-58.8204"/>
<text text-anchor="middle" x="379" y="-87.6" font-family="Helvetica,sans-Serif" font-size="8.00">source:syscall</text>
<text text-anchor="middle" x="379" y="-78.6" font-family="Helvetica,sans-Serif" font-size="8.00">operation:rename</text>
<text text-anchor="middle" x="379" y="-69.6" font-family="Helvetica,sans-Serif" font-size="8.00">type:WasDerivedFrom</text>
</g>
<!-- n19 -->
<g id="node3" class="node"><title>n19</title>
<ellipse fill="green" stroke="black" cx="379" cy="-23" rx="27" ry="18"/>
<text text-anchor="middle" x="379" y="-21.1" font-family="Helvetica,sans-Serif" font-size="8.00">Dummy Node</text>
</g>
<!-- n22&#45;&gt;n19 -->
<g id="edge3" class="edge"><title>n22&#45;&gt;n19</title>
<path fill="none" stroke="blue" d="M557.634,-30.4414C547.633,-29.1039 537.652,-27.9248 528,-27 489.891,-23.3486 446.03,-22.5919 416.008,-22.5977"/>
<polygon fill="blue" stroke="blue" points="415.988,-19.0977 405.999,-22.6281 416.009,-26.0977 415.988,-19.0977"/>
<text text-anchor="middle" x="483" y="-47.6" font-family="Helvetica,sans-Serif" font-size="8.00">source:syscall</text>
<text text-anchor="middle" x="483" y="-38.6" font-family="Helvetica,sans-Serif" font-size="8.00">operation:rename (write)</text>
<text text-anchor="middle" x="483" y="-29.6" font-family="Helvetica,sans-Serif" font-size="8.00">type:WasGeneratedBy</text>
</g>
<!-- n19&#45;&gt;n21 -->
<g id="edge1" class="edge"><title>n19&#45;&gt;n21</title>
<path fill="none" stroke="blue" d="M351.985,-22.4655C322.362,-22.1437 272.557,-22.4746 230,-27 224.599,-27.5743 219.081,-28.2558 213.518,-29.018"/>
<polygon fill="blue" stroke="blue" points="212.87,-25.5752 203.475,-30.4715 213.873,-32.503 212.87,-25.5752"/>
<text text-anchor="middle" x="275" y="-47.6" font-family="Helvetica,sans-Serif" font-size="8.00">source:syscall</text>
<text text-anchor="middle" x="275" y="-38.6" font-family="Helvetica,sans-Serif" font-size="8.00">operation:rename (read)</text>
<text text-anchor="middle" x="275" y="-29.6" font-family="Helvetica,sans-Serif" font-size="8.00">type:Used</text>
</g>
</g>
</svg>
