<?xml version="1.0" encoding="UTF-8" standalone="no"?>
<!DOCTYPE svg PUBLIC "-//W3C//DTD SVG 1.1//EN"
 "http://www.w3.org/Graphics/SVG/1.1/DTD/svg11.dtd">
<!-- Generated by graphviz version 2.36.0 (20140111.2315)
 -->
<!-- Title: clingo2dot Pages: 1 -->
<svg width="392pt" height="108pt"
 viewBox="0.00 0.00 392.00 108.00" xmlns="http://www.w3.org/2000/svg" xmlns:xlink="http://www.w3.org/1999/xlink">
<g id="graph0" class="graph" transform="scale(1 1) rotate(0) translate(4 104)">
<title>clingo2dot</title>
<polygon fill="white" stroke="none" points="-4,4 -4,-104 388,-104 388,4 -4,4"/>
<!-- n19 -->
<g id="node1" class="node"><title>n19</title>
<ellipse fill="green" stroke="black" cx="27" cy="-50" rx="27" ry="18"/>
<text text-anchor="middle" x="27" y="-48.1" font-family="Helvetica,sans-Serif" font-size="8.00">Dummy Node</text>
</g>
<!-- n21 -->
<g id="node2" class="node"><title>n21</title>
<ellipse fill="#fff68f" stroke="black" cx="278" cy="-50" rx="105.218" ry="50.8235"/>
<text text-anchor="middle" x="278" y="-70.6" font-family="Helvetica,sans-Serif" font-size="8.00">version:0</text>
<text text-anchor="middle" x="278" y="-61.6" font-family="Helvetica,sans-Serif" font-size="8.00">path:/home/arthur/ProvMark/stage/test.txt</text>
<text text-anchor="middle" x="278" y="-52.6" font-family="Helvetica,sans-Serif" font-size="8.00">source:syscall</text>
<text text-anchor="middle" x="278" y="-43.6" font-family="Helvetica,sans-Serif" font-size="8.00">permissions:0644</text>
<text text-anchor="middle" x="278" y="-34.6" font-family="Helvetica,sans-Serif" font-size="8.00">epoch:0</text>
<text text-anchor="middle" x="278" y="-25.6" font-family="Helvetica,sans-Serif" font-size="8.00">subtype:file</text>
<text text-anchor="middle" x="278" y="-16.6" font-family="Helvetica,sans-Serif" font-size="8.00">type:Artifact</text>
</g>
<!-- n21&#45;&gt;n19 -->
<g id="edge1" class="edge"><title>n21&#45;&gt;n19</title>
<path fill="none" stroke="blue" d="M172.484,-50C134.012,-50 92.9257,-50 64.4406,-50"/>
<polygon fill="blue" stroke="blue" points="64.1722,-46.5001 54.1722,-50 64.1721,-53.5001 64.1722,-46.5001"/>
<text text-anchor="middle" x="113" y="-70.6" font-family="Helvetica,sans-Serif" font-size="8.00">operation:truncate</text>
<text text-anchor="middle" x="113" y="-61.6" font-family="Helvetica,sans-Serif" font-size="8.00">source:syscall</text>
<text text-anchor="middle" x="113" y="-52.6" font-family="Helvetica,sans-Serif" font-size="8.00">type:WasGeneratedBy</text>
</g>
</g>
</svg>
