<?xml version="1.0" encoding="UTF-8" standalone="no"?>
<!DOCTYPE svg PUBLIC "-//W3C//DTD SVG 1.1//EN"
 "http://www.w3.org/Graphics/SVG/1.1/DTD/svg11.dtd">
<!-- Generated by graphviz version 2.36.0 (20140111.2315)
 -->
<!-- Title: clingo2dot Pages: 1 -->
<svg width="348pt" height="233pt"
 viewBox="0.00 0.00 348.00 233.00" xmlns="http://www.w3.org/2000/svg" xmlns:xlink="http://www.w3.org/1999/xlink">
<g id="graph0" class="graph" transform="scale(1 1) rotate(0) translate(4 229)">
<title>clingo2dot</title>
<polygon fill="white" stroke="none" points="-4,4 -4,-229 344,-229 344,4 -4,4"/>
<!-- n22 -->
<g id="node1" class="node"><title>n22</title>
<polygon fill="#cae1ff" stroke="black" points="340,-80.5 168,-80.5 168,0.5 340,0.5 340,-80.5"/>
<text text-anchor="middle" x="254" y="-65.1" font-family="Helvetica,sans-Serif" font-size="8.00">source:syscall</text>
<text text-anchor="middle" x="254" y="-56.1" font-family="Helvetica,sans-Serif" font-size="8.00">egid:0</text>
<text text-anchor="middle" x="254" y="-47.1" font-family="Helvetica,sans-Serif" font-size="8.00">gid:0</text>
<text text-anchor="middle" x="254" y="-38.1" font-family="Helvetica,sans-Serif" font-size="8.00">name:test</text>
<text text-anchor="middle" x="254" y="-29.1" font-family="Helvetica,sans-Serif" font-size="8.00">command line:/home/arthur/ProvMark/stage/test</text>
<text text-anchor="middle" x="254" y="-20.1" font-family="Helvetica,sans-Serif" font-size="8.00">euid:1000</text>
<text text-anchor="middle" x="254" y="-11.1" font-family="Helvetica,sans-Serif" font-size="8.00">uid:0</text>
<text text-anchor="middle" x="254" y="-2.1" font-family="Helvetica,sans-Serif" font-size="8.00">type:Process</text>
</g>
<!-- n19 -->
<g id="node3" class="node"><title>n19</title>
<ellipse fill="green" stroke="black" cx="27" cy="-40" rx="27" ry="18"/>
<text text-anchor="middle" x="27" y="-38.1" font-family="Helvetica,sans-Serif" font-size="8.00">Dummy Node</text>
</g>
<!-- n22&#45;&gt;n19 -->
<g id="edge1" class="edge"><title>n22&#45;&gt;n19</title>
<path fill="none" stroke="blue" d="M167.937,-40C132.074,-40 92.2492,-40 64.2842,-40"/>
<polygon fill="blue" stroke="blue" points="64.18,-36.5001 54.18,-40 64.18,-43.5001 64.18,-36.5001"/>
<text text-anchor="middle" x="111" y="-60.6" font-family="Helvetica,sans-Serif" font-size="8.00">source:syscall</text>
<text text-anchor="middle" x="111" y="-51.6" font-family="Helvetica,sans-Serif" font-size="8.00">operation:fork</text>
<text text-anchor="middle" x="111" y="-42.6" font-family="Helvetica,sans-Serif" font-size="8.00">type:WasTriggeredBy</text>
</g>
<!-- n21 -->
<g id="node2" class="node"><title>n21</title>
<polygon fill="#cae1ff" stroke="black" points="281,-171 227,-171 227,-99 281,-99 281,-171"/>
<text text-anchor="middle" x="254" y="-155.6" font-family="Helvetica,sans-Serif" font-size="8.00">source:syscall</text>
<text text-anchor="middle" x="254" y="-146.6" font-family="Helvetica,sans-Serif" font-size="8.00">egid:0</text>
<text text-anchor="middle" x="254" y="-137.6" font-family="Helvetica,sans-Serif" font-size="8.00">gid:0</text>
<text text-anchor="middle" x="254" y="-128.6" font-family="Helvetica,sans-Serif" font-size="8.00">uid:0</text>
<text text-anchor="middle" x="254" y="-119.6" font-family="Helvetica,sans-Serif" font-size="8.00">euid:1000</text>
<text text-anchor="middle" x="254" y="-110.6" font-family="Helvetica,sans-Serif" font-size="8.00">name:test</text>
<text text-anchor="middle" x="254" y="-101.6" font-family="Helvetica,sans-Serif" font-size="8.00">type:Process</text>
</g>
<!-- n21&#45;&gt;n21 -->
<g id="edge2" class="edge"><title>n21&#45;&gt;n21</title>
<path fill="none" stroke="blue" d="M280.493,-171.087C279.333,-181.221 270.502,-189 254,-189 243.171,-189 235.645,-185.65 231.422,-180.483"/>
<polygon fill="blue" stroke="blue" points="234.584,-178.971 227.507,-171.087 228.123,-181.664 234.584,-178.971"/>
<text text-anchor="middle" x="254" y="-209.6" font-family="Helvetica,sans-Serif" font-size="8.00">source:syscall</text>
<text text-anchor="middle" x="254" y="-200.6" font-family="Helvetica,sans-Serif" font-size="8.00">operation:exit</text>
<text text-anchor="middle" x="254" y="-191.6" font-family="Helvetica,sans-Serif" font-size="8.00">type:WasTriggeredBy</text>
</g>
</g>
</svg>
